<?xml version="1.0" standalone="no"?>
<!DOCTYPE svg PUBLIC "-//W3C//DTD SVG 1.1//EN" "http://www.w3.org/Graphics/SVG/1.1/DTD/svg11.dtd" >
<!--
This size was designed for 20pt staff size.
-->
<svg>
<metadata>
Created by FontForge 20120731 at Fri Jul 25 14:57:07 2014
 By root
Copyright (C) 2014  Abraham Lee

This font is distributed under the GNU General Public License. As a special exception, if you create a document which uses this font, and embed this font or unaltered portions of this font into the document, this font does not by itself cause the resulting document to be covered by the GNU General Public License.
</metadata>
<defs>
<font id="cadence-26" horiz-adv-x="246" >
  <font-face 
    font-family="cadence-26"
    font-weight="500"
    font-stretch="normal"
    units-per-em="1000"
    panose-1="2 0 6 3 0 0 0 0 0 0"
    ascent="800"
    descent="-200"
    x-height="278"
    bbox="-516 -1564 1300 1377"
    underline-thickness="50"
    underline-position="-100"
    stemh="88"
    stemv="33"
    unicode-range="U+0020-E31F"
  />
<missing-glyph horiz-adv-x="500" 
d="M50 0v533h400v-533h-400zM100 50h300v433h-300v-433z" />
    <glyph glyph-name=".notdef" horiz-adv-x="500" 
d="M50 0v533h400v-533h-400zM100 50h300v433h-300v-433z" />
    <glyph glyph-name="rests.0" unicode="&#xe100;" horiz-adv-x="375" 
d="M365 -156h-355c-6 0 -10 4 -10 10v136c0 6 4 10 10 10h355c6 0 10 -4 10 -10v-136c0 -6 -4 -10 -10 -10z" />
    <glyph glyph-name="rests.1" unicode="&#xe101;" horiz-adv-x="375" 
d="M365 0h-355c-6 0 -10 4 -10 10v136c0 6 4 10 10 10h355c6 0 10 -4 10 -10v-136c0 -6 -4 -10 -10 -10z" />
    <glyph glyph-name="rests.0o" unicode="&#xe102;" horiz-adv-x="375" 
d="M375 -43v-103c0 -6 -4 -10 -10 -10h-355c-6 0 -10 4 -10 10v103c0 10 -8 18 -18 18h-113c-14 0 -25 11 -25 25s11 25 25 25h637c14 0 25 -11 25 -25s-11 -25 -25 -25h-113c-9 0 -18 -8 -18 -18z" />
    <glyph glyph-name="rests.1o" unicode="&#xe103;" horiz-adv-x="375" 
d="M0 43v103c0 6 4 10 10 10h355c6 0 10 -4 10 -10v-103c0 -10 8 -18 18 -18h113c14 0 25 -11 25 -25s-11 -25 -25 -25h-637c-14 0 -25 11 -25 25s11 25 25 25h113c10 0 18 8 18 18z" />
    <glyph glyph-name="rests.M3" unicode="&#xe104;" horiz-adv-x="450" 
d="M440 -250h-130c-6 0 -10 4 -10 10v480c0 6 4 10 10 10h130c6 0 10 -4 10 -10v-480c0 -6 -4 -10 -10 -10zM140 -250h-130c-6 0 -10 4 -10 10v480c0 6 4 10 10 10h130c6 0 10 -4 10 -10v-480c0 -6 -4 -10 -10 -10z" />
    <glyph glyph-name="rests.M2" unicode="&#xe105;" horiz-adv-x="150" 
d="M140 -250h-130c-6 0 -10 4 -10 10v480c0 6 4 10 10 10h130c6 0 10 -4 10 -10v-480c0 -6 -4 -10 -10 -10z" />
    <glyph glyph-name="rests.M1" unicode="&#xe106;" horiz-adv-x="150" 
d="M140 0h-130c-6 0 -10 4 -10 10v230c0 6 4 10 10 10h130c6 0 10 -4 10 -10v-230c0 -6 -4 -10 -10 -10z" />
    <glyph glyph-name="rests.M1o" unicode="&#xe107;" horiz-adv-x="150" 
d="M150 207v-164c0 -10 8 -18 18 -18h82c14 0 25 -11 25 -25s-11 -25 -25 -25h-350c-14 0 -25 11 -25 25s11 25 25 25h82c10 0 18 8 18 18v164c0 10 -9 18 -18 18h-82c-14 0 -25 11 -25 25s11 25 25 25h350c14 0 25 -11 25 -25s-11 -25 -25 -25h-82c-10 0 -18 -8 -18 -18z
" />
    <glyph glyph-name="rests.2" unicode="&#xe108;" horiz-adv-x="237" 
d="M107 -54l-89 107c-7 9 -10 17 -10 25c0 34 36 66 73 99c25 22 37 52 37 83c0 24 -8 49 -25 69l-35 42c-3 3 -4 7 -4 10c0 9 9 15 17 15c4 0 8 -1 11 -5l151 -180c7 -9 10 -17 10 -25c0 -34 -50 -66 -87 -99c-25 -22 -23 -52 -23 -83c0 -24 7 -49 24 -69l84 -99
c3 -3 4 -7 4 -10c0 -9 -8 -16 -16 -16c-4 0 -9 2 -12 6c-18 21 -53 36 -87 36s-63 -38 -63 -72c0 -35 11 -67 28 -87c5 -6 0 -13 -6 -13c-2 0 -4 0 -6 2c-45 54 -92 148 -92 202c0 28 11 42 40 42c17 0 36 -3 57 -9c8 -2 17 1 21 8c5 8 2 17 -2 21z" />
    <glyph glyph-name="rests.2classical" unicode="&#xe109;" horiz-adv-x="250" 
d="M73 41l105 -291c-8 -7 -18 -10 -28 -10s-19 3 -27 10l-123 420c5 12 22 12 28 0c7 -15 45 -63 61 -63c29 0 25 31 35 59c8 24 31 39 56 39c40 0 73 -32 73 -72c0 -46 -41 -79 -87 -79c-24 0 -48 4 -71 11c-8 2 -14 0 -19 -6c-4 -5 -4 -14 -3 -18z" />
    <glyph glyph-name="rests.3" unicode="&#xe10a;" horiz-adv-x="250" 
d="M154 65c-23 -6 -46 -11 -70 -11c-46 0 -87 33 -87 79c0 40 33 72 73 72c25 0 48 -15 56 -39c10 -28 6 -59 35 -59c16 0 54 48 61 63c6 12 23 12 28 0l-123 -420c-8 -7 -17 -10 -27 -10s-20 3 -28 10l104 291c2 6 2 13 -3 18c-5 6 -13 8 -19 6z" />
    <glyph glyph-name="rests.4" unicode="&#xe10b;" horiz-adv-x="299" 
d="M135 -184c-24 -7 -49 -12 -74 -12c-46 0 -87 33 -87 79c0 40 32 72 72 72c25 0 49 -15 57 -39c10 -28 5 -59 34 -59c16 0 55 51 60 68l36 118c4 14 -9 26 -23 22c-23 -6 -46 -11 -71 -11c-46 0 -87 33 -87 79c0 40 33 72 73 72c25 0 48 -15 56 -39c10 -28 5 -59 34 -59
c15 0 50 49 57 63c6 12 23 12 28 0l-179 -670c-8 -7 -17 -10 -27 -10s-20 3 -28 10l91 294c5 15 -9 26 -22 22z" />
    <glyph glyph-name="rests.5" unicode="&#xe10c;" horiz-adv-x="325" 
d="M241 316c-24 -7 -48 -12 -72 -12c-46 0 -87 33 -87 79c0 40 32 72 72 72c25 0 49 -15 57 -39c10 -28 5 -59 34 -59c15 0 46 49 52 63c6 12 23 12 28 0l-216 -920c-8 -7 -18 -10 -28 -10s-19 3 -27 10l77 295c4 15 -9 26 -22 22c-25 -7 -51 -13 -77 -13
c-46 0 -87 33 -87 79c0 40 32 72 72 72c25 0 49 -15 57 -39c10 -28 5 -59 34 -59c17 0 54 54 59 71l31 117c4 14 -9 26 -23 22c-24 -7 -50 -13 -75 -13c-46 0 -87 33 -87 79c0 40 33 72 73 72c25 0 48 -15 56 -39c10 -28 5 -59 34 -59c16 0 52 51 56 68l31 119
c4 14 -9 26 -22 22z" />
    <glyph glyph-name="rests.6" unicode="&#xe10d;" horiz-adv-x="349" 
d="M103 -432c-27 -8 -55 -14 -83 -14c-46 0 -87 33 -87 79c0 40 33 72 73 72c25 0 48 -15 56 -39c10 -28 5 -59 34 -59c17 0 56 55 60 73l26 116c3 13 -10 25 -23 21c-26 -8 -52 -13 -79 -13c-46 0 -87 33 -87 79c0 40 32 72 72 72c25 0 49 -15 57 -39c10 -28 5 -59 34 -59
c16 0 51 54 55 71l27 118c3 14 -10 25 -23 21c-25 -8 -50 -13 -76 -13c-46 0 -87 33 -87 79c0 40 33 72 73 72c25 0 48 -15 56 -39c10 -28 5 -59 34 -59c15 0 48 52 52 68l27 120c3 13 -10 25 -23 21c-24 -7 -47 -12 -72 -12c-46 0 -87 33 -87 79c0 40 32 72 72 72
c25 0 49 -15 57 -39c10 -28 5 -59 34 -59c14 0 41 49 47 63c5 12 23 12 28 0l-235 -1170c-8 -7 -18 -10 -28 -10s-19 3 -27 10l66 297c3 13 -10 25 -23 21z" />
    <glyph glyph-name="rests.7" unicode="&#xe10e;" horiz-adv-x="375" 
d="M300 566c-23 -7 -47 -12 -71 -12c-46 0 -87 33 -87 79c0 40 32 72 72 72c25 0 49 -15 57 -39c10 -28 5 -59 34 -59c25 0 33 78 60 72c5 -1 8 -4 10 -9l-237 -1420c-8 -7 -18 -10 -28 -10s-19 3 -27 10l55 299c3 14 -11 24 -23 20c-29 -9 -58 -15 -88 -15
c-46 0 -87 33 -87 79c0 40 32 72 72 72c25 0 49 -15 57 -39c10 -28 5 -59 34 -59c18 0 57 57 60 76l21 115c2 13 -10 25 -23 21c-28 -8 -55 -15 -84 -15c-46 0 -87 33 -87 79c0 40 32 72 72 72c25 0 49 -15 57 -39c10 -28 5 -59 34 -59c17 0 53 55 56 73l21 116
c2 13 -8 25 -23 21c-26 -7 -52 -13 -79 -13c-46 0 -87 33 -87 79c0 40 32 72 72 72c25 0 49 -15 57 -39c10 -28 5 -59 34 -59c16 0 48 54 51 71l22 118c3 14 -10 25 -23 21c-25 -7 -50 -13 -76 -13c-46 0 -87 33 -87 79c0 40 32 72 72 72c25 0 49 -15 57 -39
c10 -28 5 -59 34 -59c15 0 44 52 47 68l22 121c3 14 -10 24 -23 20z" />
    <glyph glyph-name="accidentals.sharp" unicode="&#xe10f;" horiz-adv-x="275" 
d="M216 96v-122c0 -13 12 -21 24 -17l8 3c3 1 4 1 7 1c11 0 20 -9 20 -20v-60c0 -8 -5 -15 -13 -18l-34 -13c-7 -3 -12 -9 -12 -16v-146c0 -10 -8 -19 -18 -19s-19 9 -19 19v119c0 13 -13 22 -25 17l-46 -18c-8 -3 -12 -8 -12 -16v-146c0 -10 -9 -19 -19 -19s-18 9 -18 19
v119c0 13 -13 21 -24 17l-8 -3c-2 -1 -3 -1 -7 -1c-11 0 -20 9 -20 20v60c0 8 5 16 13 19l34 12c7 2 12 8 12 17v122c0 13 -13 21 -23 17l-9 -3c-2 -1 -3 -1 -7 -1c-11 0 -20 9 -20 20v60c0 8 5 15 13 18l35 13c7 3 11 9 11 16v146c0 10 8 19 18 19s19 -9 19 -19v-119
c0 -13 13 -21 25 -17l46 18c7 3 12 9 12 17v145c0 10 9 19 19 19s18 -9 18 -19v-120c0 -11 11 -21 24 -16l8 3c2 1 3 1 7 1c11 0 20 -9 20 -20v-60c0 -8 -5 -16 -13 -19l-34 -12c-7 -2 -12 -9 -12 -17zM179 -52v121c0 12 -12 21 -24 17l-47 -17c-7 -3 -12 -9 -12 -17v-121
c0 -13 12 -21 24 -17l47 17c7 3 12 9 12 17z" />
    <glyph glyph-name="accidentals.sharp.arrowup" unicode="&#xe110;" horiz-adv-x="275" 
d="M216 236c0 -11 11 -21 24 -16l8 3c2 1 3 1 7 1c11 0 20 -9 20 -20v-60c0 -8 -5 -16 -13 -19l-34 -12c-7 -2 -12 -9 -12 -17v-122c0 -13 12 -21 24 -17l8 3c3 1 4 1 7 1c11 0 20 -9 20 -20v-60c0 -8 -5 -15 -13 -18l-34 -13c-7 -3 -12 -9 -12 -16v-146
c0 -10 -8 -19 -18 -19s-19 9 -19 19v119c0 13 -13 22 -25 17l-46 -18c-8 -3 -12 -8 -12 -16v-146c0 -10 -9 -19 -19 -19s-18 9 -18 19v119c0 13 -13 21 -24 17l-8 -3c-2 -1 -3 -1 -7 -1c-11 0 -20 9 -20 20v60c0 8 5 16 13 19l34 12c7 2 12 8 12 17v122c0 13 -13 21 -23 17
l-9 -3c-2 -1 -3 -1 -7 -1c-11 0 -20 9 -20 20v60c0 8 5 15 13 18l35 13c7 3 11 9 11 16v146c0 10 8 19 18 19s19 -9 19 -19v-119c0 -13 13 -21 25 -17l46 18c7 3 12 9 12 17v211c0 13 -6 18 -14 18c-17 0 -48 -22 -76 -38c-9 -5 -19 5 -13 14c50 71 81 153 114 234
c1 3 5 5 8 5s6 -2 7 -5c33 -81 64 -163 114 -234c1 -2 2 -3 2 -5c0 -7 -7 -13 -14 -9c-28 16 -60 38 -77 38c-8 0 -14 -5 -14 -18v-186zM179 -52v121c0 12 -12 21 -24 17l-47 -17c-7 -3 -12 -9 -12 -17v-121c0 -13 12 -21 24 -17l47 17c7 3 12 9 12 17z" />
    <glyph glyph-name="accidentals.sharp.arrowdown" unicode="&#xe111;" horiz-adv-x="275" 
d="M59 -237c0 13 -13 21 -24 17l-8 -3c-2 -1 -3 -1 -7 -1c-11 0 -20 9 -20 20v60c0 8 5 16 13 19l34 12c7 2 12 8 12 17v122c0 13 -13 21 -23 17l-9 -3c-2 -1 -3 -1 -7 -1c-11 0 -20 9 -20 20v60c0 8 5 15 13 18l35 13c7 3 11 9 11 16v146c0 10 8 19 18 19s19 -9 19 -19
v-119c0 -13 13 -21 25 -17l46 18c7 3 12 9 12 17v145c0 10 9 19 19 19s18 -9 18 -19v-120c0 -11 11 -21 24 -16l8 3c2 1 3 1 7 1c11 0 20 -9 20 -20v-60c0 -8 -5 -16 -13 -19l-34 -12c-7 -2 -12 -9 -12 -17v-122c0 -13 12 -21 24 -17l8 3c3 1 4 1 7 1c11 0 20 -9 20 -20v-60
c0 -8 -5 -15 -13 -18l-34 -13c-7 -3 -12 -9 -12 -16v-146c0 -10 -8 -19 -18 -19s-19 9 -19 19v119c0 13 -13 22 -25 17l-46 -18c-8 -3 -12 -8 -12 -16v-212c0 -13 6 -18 14 -18c17 0 48 22 76 38c9 5 19 -5 13 -14c-50 -71 -81 -153 -114 -234c-1 -3 -5 -5 -8 -5s-6 2 -7 5
c-33 81 -64 163 -114 234c-1 2 -2 3 -2 5c0 7 7 13 14 9c28 -16 60 -38 77 -38c8 0 14 5 14 18v185zM179 -52v121c0 12 -12 21 -24 17l-47 -17c-7 -3 -12 -9 -12 -17v-121c0 -13 12 -21 24 -17l47 17c7 3 12 9 12 17z" />
    <glyph glyph-name="accidentals.sharp.arrowboth" unicode="&#xe112;" horiz-adv-x="275" 
d="M59 -237c0 13 -13 21 -24 17l-8 -3c-2 -1 -3 -1 -7 -1c-11 0 -20 9 -20 20v60c0 8 5 16 13 19l34 12c7 2 12 8 12 17v122c0 13 -13 21 -23 17l-9 -3c-2 -1 -3 -1 -7 -1c-11 0 -20 9 -20 20v60c0 8 5 15 13 18l35 13c7 3 11 9 11 16v146c0 10 8 19 18 19s19 -9 19 -19
v-119c0 -13 13 -21 25 -17l46 18c7 3 12 9 12 17v211c0 13 -6 18 -14 18c-17 0 -48 -22 -76 -38c-9 -5 -19 5 -13 14c50 71 81 153 114 234c1 3 5 5 8 5s6 -2 7 -5c33 -81 64 -163 114 -234c1 -2 2 -3 2 -5c0 -7 -7 -13 -14 -9c-28 16 -60 38 -77 38c-8 0 -14 -5 -14 -18
v-186c0 -11 11 -21 24 -16l8 3c2 1 3 1 7 1c11 0 20 -9 20 -20v-60c0 -8 -5 -16 -13 -19l-34 -12c-7 -2 -12 -9 -12 -17v-122c0 -13 12 -21 24 -17l8 3c3 1 4 1 7 1c11 0 20 -9 20 -20v-60c0 -8 -5 -15 -13 -18l-34 -13c-7 -3 -12 -9 -12 -16v-146c0 -10 -8 -19 -18 -19
s-19 9 -19 19v119c0 13 -13 22 -25 17l-46 -18c-8 -3 -12 -8 -12 -16v-212c0 -13 6 -18 14 -18c17 0 48 22 76 38c9 5 19 -5 13 -14c-50 -71 -81 -153 -114 -234c-1 -3 -5 -5 -8 -5s-6 2 -7 5c-33 81 -64 163 -114 234c-1 2 -2 3 -2 5c0 7 7 13 14 9c28 -16 60 -38 77 -38
c8 0 14 5 14 18v185zM179 -52v121c0 12 -12 21 -24 17l-47 -17c-7 -3 -12 -9 -12 -17v-121c0 -13 12 -21 24 -17l47 17c7 3 12 9 12 17z" />
    <glyph glyph-name="accidentals.sharp.slashslash.stem" unicode="&#xe113;" horiz-adv-x="174" 
d="M69 185v133c0 10 9 19 19 19s18 -9 18 -19v-92c0 -14 15 -23 27 -16l12 7c3 2 7 3 10 3c10 0 20 -8 20 -20v-60c0 -7 -4 -14 -10 -18l-50 -28c-6 -3 -9 -10 -9 -16v-114c0 -15 15 -23 27 -16l12 7c3 2 7 2 10 2c10 0 20 -8 20 -20v-60c0 -7 -4 -13 -10 -17l-50 -29
c-6 -3 -9 -9 -9 -16v-133c0 -10 -8 -19 -18 -19s-19 9 -19 19v92c0 14 -15 23 -27 16l-12 -7c-3 -2 -7 -3 -10 -3c-10 0 -20 8 -20 20v60c0 7 4 14 10 18l50 28c6 3 9 9 9 15v115c0 14 -15 23 -27 16l-12 -7c-3 -2 -7 -2 -10 -2c-10 0 -20 8 -20 20v60c0 7 4 13 10 17l50 29
c6 3 9 9 9 16z" />
    <glyph glyph-name="accidentals.sharp.slashslashslash.stemstem" unicode="&#xe114;" horiz-adv-x="275" 
d="M216 -316c0 -10 -8 -19 -18 -19s-19 9 -19 19v113c0 12 -12 22 -24 18l-46 -16c-7 -2 -13 -9 -13 -17v-138c0 -10 -9 -19 -19 -19s-18 9 -18 19v115c0 12 -11 20 -20 18c-8 -1 -23 5 -23 20v40c0 9 6 16 14 19l16 5c7 2 13 9 13 18v24c0 12 -12 20 -23 17l-10 -3
c-12 -4 -26 5 -26 19v51c0 9 6 16 14 19l32 10c8 2 13 10 13 18v25c0 11 -10 19 -20 18c-14 -1 -23 9 -23 20v40c0 9 6 16 14 19l17 5c8 2 12 10 12 18v137c0 10 8 19 18 19s19 -9 19 -19v-113c0 -12 12 -22 24 -18l47 16c7 2 12 9 12 18v137c0 10 9 19 19 19s18 -9 18 -19
v-115c0 -11 10 -19 20 -18h3c11 0 19 -9 19 -20v-40c0 -9 -5 -16 -13 -19l-16 -5c-7 -2 -13 -9 -13 -17v-24c0 -12 12 -22 24 -18l9 3c2 1 4 1 6 1c11 0 20 -9 20 -20v-51c0 -9 -6 -16 -14 -19l-32 -10c-7 -2 -13 -9 -13 -17v-26c0 -10 11 -19 20 -18h3c11 0 19 -9 19 -20
v-40c0 -9 -5 -16 -13 -19l-16 -5c-7 -2 -13 -9 -13 -17v-138zM179 74v24c0 12 -12 21 -24 17l-46 -16c-7 -2 -13 -8 -13 -16v-24c0 -12 12 -22 24 -18l47 15c7 2 12 9 12 18zM179 -81v23c0 12 -12 21 -24 17l-46 -15c-7 -2 -13 -9 -13 -17v-24c0 -12 12 -22 24 -18l47 16
c7 2 12 9 12 18z" />
    <glyph glyph-name="accidentals.sharp.slashslashslash.stem" unicode="&#xe115;" horiz-adv-x="237" 
d="M138 -72c0 -13 13 -23 25 -18l23 10c2 1 5 2 8 2c11 0 20 -8 20 -20v-40c0 -8 -5 -16 -12 -19l-53 -22c-7 -3 -11 -10 -11 -17v-108c0 -10 -9 -19 -19 -19s-19 9 -19 19v77c0 13 -13 22 -25 17l-23 -10c-3 -1 -5 -2 -8 -2c-11 0 -20 8 -20 20v40c0 8 5 16 12 19l53 23
c6 2 11 9 11 17v16c0 13 -13 22 -25 17l-47 -20c-3 -1 -5 -2 -8 -2c-11 0 -20 8 -20 20v60c0 8 5 16 12 19l77 33c6 2 11 9 11 17v16c0 13 -13 22 -25 17l-23 -10c-3 -1 -5 -2 -8 -2c-11 0 -20 8 -20 20v40c0 8 5 16 12 19l53 23c6 2 11 9 11 17v107c0 10 9 19 19 19
s19 -9 19 -19v-76c0 -13 13 -23 25 -18l23 10c3 1 5 2 8 2c11 0 20 -8 20 -20v-40c0 -8 -5 -16 -12 -19l-53 -22c-7 -3 -11 -10 -11 -17v-16c0 -13 13 -23 25 -18l47 20c3 1 5 2 8 2c11 0 20 -8 20 -20v-60c0 -8 -6 -16 -13 -19l-76 -32c-7 -3 -11 -10 -11 -17v-16z" />
    <glyph glyph-name="accidentals.sharp.slashslash.stemstemstem" unicode="&#xe116;" horiz-adv-x="400" 
d="M120 -202c-8 -2 -14 -9 -14 -17v-137c0 -10 -8 -19 -18 -19s-19 9 -19 19v118c0 12 -11 20 -23 17l-21 -5h-5c-11 0 -20 9 -20 20v60c0 9 6 17 15 19l41 11c7 2 13 8 13 17v123c0 12 -11 20 -23 18l-21 -5c-2 0 -4 -1 -5 -1c-11 0 -20 9 -20 20v60c0 9 6 18 15 20l41 10
c7 2 13 9 13 18v136c0 10 9 19 19 19s18 -9 18 -19v-118c0 -12 12 -21 23 -18l39 10c7 2 13 8 13 17v137c0 10 9 19 19 19s19 -9 19 -19v-118c0 -12 12 -21 23 -18l39 10c7 2 13 9 13 18v136c0 10 9 19 19 19s18 -9 18 -19v-117c0 -12 12 -21 23 -18l18 4c2 0 6 1 8 1
c11 0 20 -9 20 -20v-60c0 -9 -6 -17 -15 -19l-40 -10c-8 -2 -14 -10 -14 -18v-123c0 -12 12 -21 23 -18l21 5c2 0 4 1 5 1c11 0 20 -9 20 -20v-60c0 -9 -6 -18 -15 -20l-40 -10c-8 -2 -14 -9 -14 -17v-137c0 -10 -8 -19 -18 -19s-19 9 -19 19v119c0 12 -10 20 -22 17
l-39 -10c-8 -2 -14 -9 -14 -17v-137c0 -10 -9 -19 -19 -19s-19 9 -19 19v118c0 12 -11 21 -23 18zM219 -52c0 -12 12 -21 23 -18l39 10c7 2 13 8 13 17v124c0 12 -10 20 -22 17l-39 -10c-8 -2 -14 -9 -14 -17v-123zM120 60c-8 -2 -14 -9 -14 -17v-123c0 -12 12 -21 23 -18
l39 10c7 2 13 8 13 17v124c0 12 -11 20 -23 17z" />
    <glyph glyph-name="accidentals.natural" unicode="&#xe117;" horiz-adv-x="190" 
d="M61 180l108 17h3c10 0 17.877 -7.00101 18 -17l7 -555c-8 -4 -16 -7 -25 -7s-17 3 -25 7l3 177c0.203995 10.999 -10 20 -21 18l-108 -17h-3c-10 0 -17.8594 7.00101 -18 17l-8 555c8 4 17 7 26 7s17 -3 25 -7l-3 -176c-0.223598 -11.998 10 -21 21 -19zM57 -94l79 12
c9 1 14.826 9.002 15 18l3 140c0.214005 9.998 -9 19 -20 18l-80 -12c-9 -1 -14.8311 -9.002 -15 -17l-3 -142c-0.209999 -10.998 11 -19 21 -17z" />
    <glyph glyph-name="accidentals.natural.arrowup" unicode="&#xe118;" horiz-adv-x="190" 
d="M57 -94l79 12c9 1 14.808 9.002 15 18l3 140c0.192993 9.998 -9 19 -20 18l-80 -12c-9 -1 -14.8467 -9.001 -15 -17l-3 -142c-0.232399 -10.9971 11 -19 21 -17zM21 -197h-3c-10 0 -18 7 -18 17c-1 206 -3 398 -4 604c0 13 -5 18 -13 18c-17 0 -49 -23 -77 -39
c-8 -5 -16 1 -16 9c0 2 1 5 2 7c50 71 85 151 117 231c2 4 6 6 9 6s6 -2 8 -6c32 -80 67 -160 117 -231c7 -10 -4 -22 -14 -16c-28 16 -60 39 -77 39c-8 0 -13 -5 -13 -18c-1 -77 -1 -225 -1 -225c0 -12 10 -21 21 -19l110 17h3c10 0 17.877 -7.00101 18 -17l7 -555
c-8 -4 -16 -7 -25 -7s-17 3 -25 7l3 177c0.203995 10.999 -10 20 -21 18z" />
    <glyph glyph-name="accidentals.natural.arrowdown" unicode="&#xe119;" horiz-adv-x="190" 
d="M57 -94l79 12c9 1 14.826 9.002 15 18l3 140c0.214005 9.998 -9 19 -20 18l-80 -12c-9 -1 -14.8311 -9.002 -15 -17l-3 -142c-0.209999 -10.998 11 -19 21 -17zM21 -197h-3c-10 0 -17.8594 7.00101 -18 17l-8 555c8 4 17 7 26 7s17 -3 25 -7l-3 -176
c-0.223598 -11.998 10 -21 21 -19l108 17h3c10 0 18 -7 18 -17c1 -206 3 -398 4 -604c0 -13 5 -18 13 -18c17 0 48 23 76 39c8 5 17 -1 17 -9c0 -2 -1 -5 -2 -7c-50 -71 -85 -151 -117 -231c-2 -4 -6 -6 -9 -6s-6 2 -8 6c-32 80 -67 160 -117 231c-7 10 4 22 14 16
c28 -16 60 -39 77 -39c8 0 13 5 13 18c1 77 -1 226 -1 226c0 11 -10 20 -21 18z" />
    <glyph glyph-name="accidentals.natural.arrowboth" unicode="&#xe11a;" horiz-adv-x="190" 
d="M57 -109l79 12c9 1 15 9 15 18l3 170c0 10 -9 19 -20 18l-80 -12c-9 -1 -15 -9 -15 -17l-3 -172c0 -11 11 -19 21 -17zM21 -212h-3c-10 0 -18 7 -18 17c-1 206 -3 413 -4 619c0 13 -5 18 -13 18c-17 0 -49 -23 -77 -39c-8 -5 -16 1 -16 9c0 2 1 5 2 7
c50 71 85 151 117 231c2 4 6 6 9 6s6 -2 8 -6c32 -80 67 -160 117 -231c7 -10 -4 -22 -14 -16c-28 16 -60 39 -77 39c-8 0 -13 -5 -13 -18c-1 -77 -1 -210 -1 -210c0 -12 10 -21 21 -19l110 17h3c10 0 18 -7 18 -17c1 -206 3 -413 4 -619c0 -13 5 -18 13 -18
c17 0 48 23 76 39c8 5 17 -1 17 -9c0 -2 -1 -5 -2 -7c-50 -71 -85 -151 -117 -231c-2 -4 -6 -6 -9 -6s-6 2 -8 6c-32 80 -67 160 -117 231c-7 10 4 22 14 16c28 -16 60 -39 77 -39c8 0 13 5 13 18c1 77 -1 211 -1 211c0 11 -10 20 -21 18z" />
    <glyph glyph-name="accidentals.flat" unicode="&#xe11b;" horiz-adv-x="200" 
d="M19 -86c0 -7 3 -13 10 -16s15 -2 20 3c35 32 66 70 66 136c0 33 -14 67 -43 67c-31 0 -50.0591 -31.9498 -51 -63zM47 135c20 10 47 21 69 21c52 0 84 -48 84 -102c0 -100 -86 -137 -147 -189c-15 -13 -24 -38 -45 -38c-13 0 -23 11 -23 25l-12 605c8 5 18 8 27 8
s19 -3 27 -8l-6 -306c0 -6 2 -11 8 -15s12 -4 18 -1z" />
    <glyph glyph-name="accidentals.flat.arrowup" unicode="&#xe11c;" horiz-adv-x="200" 
d="M19 -86c0 -7 3 -13 10 -16s15 -2 20 3c35 32 66 70 66 136c0 33 -14 67 -43 67c-31 0 -50.0591 -31.9498 -51 -63zM-23 424c0 13 -5 18 -13 18c-17 0 -48 -23 -76 -39c-8 -5 -17 2 -17 10c0 2 1 4 2 6c50 71 86 151 118 231c2 4 5 6 9 6s7 -2 9 -6
c32 -80 68 -160 118 -231c7 -10 -4 -22 -15 -16c-28 16 -59 39 -76 39c-8 0 -13 -5 -13 -18c-1 -93 -2 -273 -2 -273c0 -6 2 -11 8 -15s12 -4 18 -1c20 10 47 21 69 21c52 0 84 -48 84 -102c0 -100 -86 -137 -147 -189c-15 -13 -24 -38 -45 -38c-13 0 -23 11 -23 25
c0 0 -5 385 -8 572z" />
    <glyph glyph-name="accidentals.flat.arrowdown" unicode="&#xe11d;" horiz-adv-x="200" 
d="M19 -86c0 -7 3 -13 10 -16s15 -2 20 3c35 32 66 70 66 136c0 33 -14 67 -43 67c-31 0 -50.0591 -31.9498 -51 -63zM-27 457c8 5 18 8 27 8s19 -3 27 -8l-6 -306c0 -6 2 -11 8 -15s12 -4 18 -1c20 10 47 21 69 21c52 0 84 -48 84 -102c0 -100 -86 -137 -147 -189
c-15 -13 -35 -25 -35 -49v-112c0 -13 5 -18 14 -18c17 0 49 21 77 37c8 5 16 -5 11 -13c-50 -72 -79 -154 -112 -235c-1 -3 -4 -4 -7 -4s-5 1 -6 4c-33 81 -62 163 -112 235c-1 2 -2 3 -2 5c0 6 7 12 13 8c28 -16 60 -37 77 -37c9 0 14 5 14 18z" />
    <glyph glyph-name="accidentals.flat.arrowboth" unicode="&#xe11e;" horiz-adv-x="200" 
d="M19 -86c0 -7 3 -13 10 -16s15 -2 20 3c35 32 66 70 66 136c0 33 -14 67 -43 67c-31 0 -50.0591 -31.9498 -51 -63zM21 151c0 -6 2 -11 8 -15s12 -4 18 -1c20 10 47 21 69 21c52 0 84 -48 84 -102c0 -100 -86 -137 -147 -189c-15 -13 -35 -28 -35 -48v-113
c0 -13 5 -18 14 -18c17 0 49 21 77 37c8 5 16 -5 11 -13c-50 -72 -79 -154 -112 -235c-1 -3 -4 -4 -7 -4s-5 1 -6 4c-33 81 -62 163 -112 235c-5 8 3 18 11 13c28 -16 60 -37 77 -37c9 0 14 5 14 18c0 0 -5 533 -8 720c0 13 -5 18 -13 18c-17 0 -48 -23 -76 -39
c-8 -5 -17 2 -17 10c0 2 1 4 2 6c50 71 86 151 118 231c2 4 5 6 9 6s7 -2 9 -6c32 -80 68 -160 118 -231c7 -10 -4 -22 -15 -16c-28 16 -59 39 -76 39c-8 0 -13 -5 -13 -18c-1 -93 -2 -273 -2 -273z" />
    <glyph glyph-name="accidentals.flat.slash" unicode="&#xe11f;" horiz-adv-x="200" 
d="M19 -86c0 -7 3 -13 10 -16s15 -2 20 3c35 32 66 70 66 136c0 33 -14 67 -43 67c-31 0 -50.0591 -31.9498 -51 -63zM-21 177c0 5 -3 12 -9 15c-6 4 -12 4 -17 1l-45 -22c-12 -6 -27 1 -27 16c0 7 4 14 11 17l75 38c6 3 10 9 10 16l-4 199c8 5 18 8 27 8s19 -3 27 -8
l-3 -158c0 -14 14 -22 26 -16l42 21c22 11 38 -22 16 -33l-76 -38c-6 -3 -10 -9 -10 -16l-1 -66c0 -6 2 -11 8 -15s12 -4 18 -1c20 10 47 21 69 21c52 0 84 -48 84 -102c0 -100 -86 -137 -147 -189c-15 -13 -24 -38 -45 -38c-13 0 -23 11 -23 25z" />
    <glyph glyph-name="accidentals.flat.slashslash" unicode="&#xe120;" horiz-adv-x="200" 
d="M19 -86c0 -7 3 -13 10 -16s15 -2 20 3c35 32 66 70 66 136c0 33 -14 67 -43 67c-31 0 -50.0591 -31.9498 -51 -63zM-21 138c0 14 -15 22 -26 16l-45 -23c-12 -6 -27 2 -27 17c0 7 4 14 11 17l76 38c6 3 10 10 10 16l-1 37c0 14 -14 22 -26 16l-43 -22
c-12 -6 -27 2 -27 17c0 7 4 13 11 16l74 37c6 3 9 9 9 16l-2 121c8 5 18 8 27 8s19 -3 27 -8l-2 -78c0 -14 14 -22 26 -16l41 20c22 11 38 -22 16 -33l-74 -37c-6 -3 -10 -10 -10 -16l-1 -37c0 -14 14 -22 26 -16l43 21c22 11 38 -23 16 -34l-77 -38c-6 -3 -10 -9 -10 -17
v-25c0 -6 2 -11 8 -15s12 -4 18 -1c20 10 47 21 69 21c52 0 84 -48 84 -102c0 -100 -86 -137 -147 -189c-15 -13 -24 -38 -45 -38c-13 0 -23 11 -23 25z" />
    <glyph glyph-name="accidentals.mirroredflat.flat" unicode="&#xe121;" horiz-adv-x="200" 
d="M181 -86l-2 127c-1 31 -20 63 -51 63c-29 0 -43 -34 -43 -67c0 -66 31 -104 66 -136c5 -5 13 -6 20 -3s10 9 10 16zM219 -86c0 -7 3 -13 10 -16s15 -2 20 3c35 32 66 70 66 136c0 33 -14 67 -43 67c-31 0 -50 -32 -51 -63zM173 457c8 5 18 8 27 8s19 -3 27 -8l-6 -306
c0 -6 2 -11 8 -15s12 -4 18 -1c20 10 47 21 69 21c52 0 84 -48 84 -102c0 -100 -86 -137 -147 -189c-15 -13 -24 -38 -45 -38h-16c-21 0 -30 25 -45 38c-61 52 -147 89 -147 189c0 54 32 102 84 102c22 0 49 -11 69 -21c6 -3 12 -3 18 1s8 9 8 15z" />
    <glyph glyph-name="accidentals.mirroredflat" unicode="&#xe122;" horiz-adv-x="200" 
d="M151 -86l-2 127c-0.940994 31.0498 -20 63 -51 63c-29 0 -43 -34 -43 -67c0 -66 31 -104 66 -136c5 -5 13 -6 20 -3s10 9 10 16zM123 135c6 -3 12 -3 18 1s8 9 8 15l-6 306c8 5 18 8 27 8s19 -3 27 -8l-12 -605c0 -14 -10 -25 -23 -25c-21 0 -30 25 -45 38
c-61 52 -147 89 -147 189c0 54 32 102 84 102c22 0 49 -11 69 -21z" />
    <glyph glyph-name="accidentals.mirroredflat.backslash" unicode="&#xe123;" horiz-adv-x="200" 
d="M81.3623 -86l-2 127c-0.941399 31.0498 -20 63 -51 63c-29 0 -43 -34 -43 -67c0 -66 31 -104 66 -136c5 -5 13 -6 20 -3s10 9 10 16zM115.362 -148c-0.242996 -13.998 -10 -25 -22.9997 -25c-21 0 -30 25 -45 38c-61 52 -147 89 -147 189c0 54 32 102 84 102
c22 0 49 -11 69 -21c6 -3 12 -3 18 1s8.124 9.00101 8 15l-1.3623 66c-0.144501 6.998 -4 13 -10 16l-76 38c-22 11 -6 44 16 33l42 -21c12 -6 26 2 26 16l-3 158c8 5 18 8 27 8s19 -3 27 -8l-4 -199c0 -7 4 -13 10 -16l75 -38c7 -3 11 -10 11 -17c0 -15 -15 -22 -27 -16
l-45 22c-5 3 -11 3 -17 -1c-6 -3 -8.913 -10.001 -9 -15z" />
    <glyph glyph-name="accidentals.flatflat" unicode="&#xe124;" horiz-adv-x="200" 
d="M157 172l-6 285c8 5 18 8 27 8s19 -3 27 -8l-5 -306c0 -6 2 -11 8 -15s12 -4 18 -1c20 10 47 21 69 21c52 0 84 -48 84 -102c0 -100 -86 -137 -147 -189c-15 -13 -24 -38 -45 -38c-13 0 -23 11 -23 25l-1 61c0 15 -19 23 -31 13c-26 -21 -54 -40 -79 -61
c-15 -13 -24 -38 -45 -38c-13 0 -23 11 -23 25l-12 605c8 5 18 8 27 8s19 -3 27 -8l-6 -306c0 -6 2 -11 8 -15s12 -4 18 -1c20 10 47 21 69 21c6 0 12 -1 18 -2c12 -3 23 6 23 18zM198 -86c0 -7 3 -13 10 -16s15 -2 20 3c35 32 66 70 66 136c0 33 -14 67 -43 67
c-31 0 -50 -32 -51 -63zM19 -86c0 -7 3 -13 10 -16s15 -2 20 3c35 32 66 70 66 136c0 33 -14 67 -43 67c-31 0 -50 -32 -51 -63z" />
    <glyph glyph-name="accidentals.flatflat.slash" unicode="&#xe125;" horiz-adv-x="216" 
d="M21 151c0 -6 2 -11 8 -15s12 -4 18 -1c20 10 47 21 69 21c6 0 12 -1 18 -2c12 -3 23 6 23 18l-1 64c0 14 -16 23 -27 16l-99 -57c-6 -3 -9 -9 -9 -15v-29zM198 -86c0 -7 3 -13 10 -16s15 -2 20 3c35 32 66 70 66 136c0 33 -14 67 -43 67c-31 0 -50 -32 -51 -63zM19 -86
c0 -7 3 -13 10 -16s15 -2 20 3c35 32 66 70 66 136c0 33 -14 67 -43 67c-31 0 -50 -32 -51 -63zM-21 135c0 13 -14 23 -26 16l-61 -35c-4 -2 -9 -4 -13 -4c-13 0 -25 10 -25 25c0 9 5 17 13 22l102 58c5 3 9 9 9 16l-5 224c8 5 18 8 27 8s19 -3 27 -8l-4 -177
c0 -14 14 -23 27 -16l95 54c6 3 9 9 9 16l-3 123c8 5 18 8 27 8s19 -3 27 -8l-1 -73c0 -14 15 -23 27 -16l44 25c4 2 9 4 13 4c13 0 25 -10 25 -25c0 -9 -5 -17 -13 -22l-89 -51c-5 -3 -9 -10 -9 -16l-2 -132c0 -6 2 -11 8 -15s12 -4 18 -1c20 10 47 21 69 21
c52 0 84 -48 84 -102c0 -100 -86 -137 -147 -189c-15 -13 -24 -38 -45 -38c-13 0 -23 11 -23 25l-1 61c0 15 -19 23 -31 13c-26 -21 -54 -40 -79 -61c-15 -13 -24 -38 -45 -38c-13 0 -23 11 -23 25z" />
    <glyph glyph-name="accidentals.doublesharp" unicode="&#xe126;" horiz-adv-x="250" 
d="M165 0c0 -25 48 -37 81 -37c6 0 10 -4 10 -10l4 -78c0 -5 -4 -10 -9 -10h-1l-78 4c-5 1 -10 5 -10 10c0 33 -13 81 -37 81c-25 0 -37 -48 -37 -81c0 -5 -4 -9 -9 -10l-79 -4h-1c-5 0 -9 5 -9 10l4 78c0 6 4 10 10 10c33 0 81 13 81 37c0 25 -48 37 -81 37
c-6 0 -10 4 -10 10l-4 78c0 5 4 10 9 10h1l79 -4c5 -1 9 -5 9 -10c0 -33 13 -81 37 -81s37 48 37 81c0 5 5 9 10 10l78 4h1c5 0 9 -5 9 -10l-4 -78c0 -6 -4 -10 -10 -10c-33 0 -81 -13 -81 -37z" />
    <glyph glyph-name="accidentals.rightparen" unicode="&#xe127;" horiz-adv-x="150" 
d="M100 0c0 85 -11 173 -60 243c-2 2 -3 5 -3 7c0 7 6 13 13 13c4 0 7 -2 10 -6c53 -76 90 -164 90 -257s-37 -181 -90 -257c-3 -4 -6 -6 -10 -6c-7 0 -13 6 -13 13c0 2 1 5 3 7c49 70 60 158 60 243z" />
    <glyph glyph-name="accidentals.leftparen" unicode="&#xe128;" horiz-adv-x="0" 
d="M-100 0c0 -85 11 -173 60 -243c2 -2 3 -5 3 -7c0 -7 -6 -13 -13 -13c-4 0 -7 2 -10 6c-53 76 -90 164 -90 257s37 181 90 257c3 4 6 6 10 6c7 0 13 -6 13 -13c0 -2 -1 -5 -3 -7c-49 -70 -60 -158 -60 -243z" />
    <glyph glyph-name="arrowheads.open.01" unicode="&#xe129;" horiz-adv-x="20" 
d="M-149 16c-36 19 -69 44 -96 76c-3 4 -5 8 -5 13c0 11 9 20 20 20c6 0 11 -2 15 -7c54 -62 133 -98 215 -98c13 0 20 -10 20 -20s-7 -20 -20 -20c-82 0 -161 -36 -215 -98c-4 -5 -9 -7 -15 -7c-11 0 -20 9 -20 20c0 5 2 9 5 13c27 32 60 57 96 76c13 7 13 25 0 32z" />
    <glyph glyph-name="arrowheads.open.0M1" unicode="&#xe12a;" horiz-adv-x="20" 
d="M149 16c36 19 69 44 96 76c3 4 5 8 5 13c0 11 -9 20 -20 20c-6 0 -11 -2 -15 -7c-54 -62 -133 -98 -215 -98c-13 0 -20 -10 -20 -20s7 -20 20 -20c82 0 161 -36 215 -98c4 -5 9 -7 15 -7c11 0 20 9 20 20c0 5 -2 9 -5 13c-27 32 -60 57 -96 76c-13 7 -13 25 0 32z" />
    <glyph glyph-name="arrowheads.open.11" unicode="&#xe12b;" horiz-adv-x="20" 
d="M-16 -149c-19 -36 -44 -69 -76 -96c-4 -3 -8 -5 -13 -5c-11 0 -20 9 -20 20c0 6 2 11 7 15c62 54 98 133 98 215c0 13 10 20 20 20s20 -7 20 -20c0 -82 36 -161 98 -215c5 -4 7 -9 7 -15c0 -11 -9 -20 -20 -20c-5 0 -9 2 -13 5c-32 27 -57 60 -76 96c-3 6 -10 10 -16 10
s-13 -3 -16 -10z" />
    <glyph glyph-name="arrowheads.open.1M1" unicode="&#xe12c;" horiz-adv-x="20" 
d="M-16 149c-19 36 -44 69 -76 96c-4 3 -8 5 -13 5c-11 0 -20 -9 -20 -20c0 -6 2 -11 7 -15c62 -54 98 -133 98 -215c0 -13 10 -20 20 -20s20 7 20 20c0 82 36 161 98 215c5 4 7 9 7 15c0 11 -9 20 -20 20c-5 0 -9 -2 -13 -5c-32 -27 -57 -60 -76 -96c-3 -6 -10 -10 -16 -10
s-13 3 -16 10z" />
    <glyph glyph-name="arrowheads.close.01" unicode="&#xe12d;" horiz-adv-x="0" 
d="M-240 -125c-6 0 -10 5 -10 10v2c8 37 13 75 13 113c0 39 -13 77 -13 115c0 5 4 10 10 10c3 0 6 -2 8 -4c38 -47 172 -111 232 -111c7 0 10 -5 10 -10s-3 -10 -10 -10c-60 0 -194 -64 -232 -111c-2 -2 -5 -4 -8 -4z" />
    <glyph glyph-name="arrowheads.close.0M1" unicode="&#xe12e;" horiz-adv-x="250" 
d="M240 -125c-3 0 -6 2 -8 4c-38 47 -172 111 -232 111c-7 0 -10 5 -10 10s3 10 10 10c60 0 194 64 232 111c2 2 5 4 8 4c6 0 10 -5 10 -10c0 -38 -13 -76 -13 -115c0 -38 5 -76 13 -113v-2c0 -5 -4 -10 -10 -10z" />
    <glyph glyph-name="arrowheads.close.11" unicode="&#xe12f;" horiz-adv-x="125" 
d="M125 -240c0 -6 -5 -10 -10 -10h-2c-37 8 -75 13 -113 13s-76 -5 -113 -13h-2c-5 0 -10 4 -10 10c0 3 2 6 4 8c47 38 111 172 111 232c0 7 5 10 10 10s10 -3 10 -10c0 -60 64 -194 111 -232c2 -2 4 -5 4 -8z" />
    <glyph glyph-name="arrowheads.close.1M1" unicode="&#xe130;" horiz-adv-x="125" 
d="M-125 240c0 6 5 10 10 10h2c37 -8 75 -13 113 -13s76 5 113 13h2c5 0 10 -4 10 -10c0 -3 -2 -6 -4 -8c-47 -38 -111 -172 -111 -232c0 -7 -5 -10 -10 -10s-10 3 -10 10c0 60 -64 194 -111 232c-2 2 -4 5 -4 8z" />
    <glyph glyph-name="dots.dot" unicode="&#xe131;" horiz-adv-x="112" 
d="M0 0c0 31 25 56 56 56s56 -25 56 -56s-25 -56 -56 -56s-56 25 -56 56z" />
    <glyph glyph-name="scripts.ufermata" unicode="&#xe132;" horiz-adv-x="331" 
d="M-67 48c0 37 30 67 67 67s67 -30 67 -67s-30 -67 -67 -67s-67 30 -67 67zM0 363c157 0 332 -176 332 -366c0 -9 -10 -15 -19 -15s-17 5 -19 18c-26 148 -146 262 -294 262s-268 -114 -294 -262c-2 -13 -10 -18 -19 -18s-19 6 -19 15c0 190 175 366 332 366z" />
    <glyph glyph-name="scripts.dfermata" unicode="&#xe133;" horiz-adv-x="331" 
d="M-67 -48c0 37 30 67 67 67s67 -30 67 -67s-30 -67 -67 -67s-67 30 -67 67zM0 -363c-157 0 -332 176 -332 366c0 9 10 15 19 15s17 -5 19 -18c26 -148 146 -262 294 -262s268 114 294 262c2 13 10 18 19 18s19 -6 19 -15c0 -190 -175 -366 -332 -366z" />
    <glyph glyph-name="scripts.ushortfermata" unicode="&#xe134;" horiz-adv-x="250" 
d="M-91 67c0 37 29 66 66 66s67 -29 67 -66s-30 -67 -67 -67s-66 30 -66 67zM-41 393l-173 -382c-3 -7 -10 -11 -17 -11c-11 0 -19 9 -19 19c0 3 1 4 2 7l231 513c3 7 10 11 17 11s14 -4 17 -11l231 -513c1 -3 2 -4 2 -7c0 -10 -8 -19 -19 -19h-49c-7 0 -14 4 -17 11
l-174 382c-6 14 -26 14 -32 0z" />
    <glyph glyph-name="scripts.dshortfermata" unicode="&#xe135;" horiz-adv-x="250" 
d="M91 -67c0 -37 -29 -66 -66 -66s-67 29 -67 66s30 67 67 67s66 -30 66 -67zM42 -392l172 381c3 7 10 11 17 11c11 0 19 -9 19 -19c0 -3 -1 -4 -2 -7l-231 -513c-3 -7 -10 -11 -17 -11s-14 4 -17 11l-231 513c-1 3 -2 4 -2 7c0 10 8 19 19 19h49c7 0 14 -4 17 -11l174 -382
c6 -14 26 -13 33 1z" />
    <glyph glyph-name="scripts.ulongfermata" unicode="&#xe136;" horiz-adv-x="312" 
d="M-67 67c0 37 30 66 67 66s67 -29 67 -66s-30 -67 -67 -67s-67 30 -67 67zM-275 257v-238c0 -10 -9 -19 -19 -19s-18 9 -18 19v346c0 6 4 10 10 10h605c6 0 10 -4 10 -10v-346c0 -10 -9 -19 -19 -19s-19 9 -19 19v238c0 10 -8 18 -18 18h-514c-10 0 -18 -8 -18 -18z" />
    <glyph glyph-name="scripts.dlongfermata" unicode="&#xe137;" horiz-adv-x="312" 
d="M-67 -67c0 -37 30 -66 67 -66s67 29 67 66s-30 67 -67 67s-67 -30 -67 -67zM-275 -257v238c0 10 -9 19 -19 19s-18 -9 -18 -19v-346c0 -6 4 -10 10 -10h605c6 0 10 4 10 10v346c0 10 -9 19 -19 19s-19 -9 -19 -19v-238c0 -10 -8 -18 -18 -18h-514c-10 0 -18 8 -18 18z
" />
    <glyph glyph-name="scripts.uverylongfermata" unicode="&#xe138;" horiz-adv-x="375" 
d="M-337 19zM-60 60c0 33 27 60 60 60s60 -27 60 -60s-27 -60 -60 -60s-60 27 -60 60zM-212 19c0 -10 -9 -19 -19 -19s-19 9 -19 19v196c0 6 4 10 10 10h480c6 0 10 -4 10 -10v-196c0 -10 -9 -19 -19 -19s-19 9 -19 19v113c0 10 -8 18 -18 18h-388c-10 0 -18 -8 -18 -18
v-113zM-319 275c-10 0 -18 -8 -18 -18v-238c0 -10 -9 -19 -19 -19s-19 9 -19 19v371c0 6 4 10 10 10h730c6 0 10 -4 10 -10v-371c0 -10 -9 -19 -19 -19s-19 9 -19 19v238c0 10 -8 18 -18 18h-638z" />
    <glyph glyph-name="scripts.dverylongfermata" unicode="&#xe139;" horiz-adv-x="375" 
d="M-337 -19zM-60 -60c0 -33 27 -60 60 -60s60 27 60 60s-27 60 -60 60s-60 -27 -60 -60zM-212 -19c0 10 -9 19 -19 19s-19 -9 -19 -19v-196c0 -6 4 -10 10 -10h480c6 0 10 4 10 10v196c0 10 -9 19 -19 19s-19 -9 -19 -19v-113c0 -10 -8 -18 -18 -18h-388
c-10 0 -18 8 -18 18v113zM-319 -275c-10 0 -18 8 -18 18v238c0 10 -9 19 -19 19s-19 -9 -19 -19v-371c0 -6 4 -10 10 -10h730c6 0 10 4 10 10v371c0 10 -9 19 -19 19s-19 -9 -19 -19v-238c0 -10 -8 -18 -18 -18h-638z" />
    <glyph glyph-name="scripts.thumb" unicode="&#xe13a;" horiz-adv-x="100" 
d="M22 -137l2 -39c1 -13 -11 -24 -24 -24s-25 11 -24 24l2 39c0 8 -3 15 -10 18c-42 17 -68 67 -68 119c0 65 40 125 100 125s100 -60 100 -125c0 -52 -25 -102 -67 -119c-7 -3 -11 -10 -11 -18zM48 0c0 45 -9 95 -48 95s-47 -50 -47 -95s8 -95 47 -95s48 50 48 95z" />
    <glyph glyph-name="scripts.sforzato" unicode="&#xe13b;" horiz-adv-x="224" 
d="M60 17l-271 71c-8 2 -14 9 -14 18c0 10 9 19 19 19c2 0 3 -1 4 -1l408 -105c13 0 19 -6 19 -19s-6 -19 -19 -19l-408 -105c-1 0 -2 -1 -4 -1c-10 0 -19 9 -19 19c0 9 6 16 14 18l271 71c8 3 14 8 14 17s-6 14 -14 17z" />
    <glyph glyph-name="scripts.espr" unicode="&#xe13c;" horiz-adv-x="474" 
d="M-309 17c102 32 265 71 265 71c8 2 14 9 14 18c0 10 -9 19 -19 19c-2 0 -3 -1 -4 -1l-402 -105c-13 0 -19 -6 -19 -19s6 -19 19 -19l402 -105c1 0 2 -1 4 -1c10 0 19 9 19 19c0 9 -6 16 -14 18c0 0 -163 39 -265 71c-8 3 -13 8 -13 17s5 14 13 17zM309 17
c-102 32 -265 71 -265 71c-8 2 -14 9 -14 18c0 10 9 19 19 19c2 0 3 -1 4 -1l402 -105c13 0 19 -6 19 -19s-6 -19 -19 -19l-402 -105c-1 0 -2 -1 -4 -1c-10 0 -19 9 -19 19c0 9 6 16 14 18c0 0 163 39 265 71c8 3 13 8 13 17s-5 14 -13 17z" />
    <glyph glyph-name="scripts.staccato" unicode="&#xe13d;" horiz-adv-x="49" 
d="M-50 0c0 28 22 50 50 50s50 -22 50 -50s-22 -50 -50 -50s-50 22 -50 50z" />
    <glyph glyph-name="scripts.ustaccatissimo" unicode="&#xe13e;" horiz-adv-x="50" 
d="M-13 0l-37 200c0 2 -1 5 -1 7c0 24 24 43 51 43s51 -19 51 -43c0 -2 -1 -5 -1 -7l-37 -200c-1 -7 -6 -13 -13 -13s-12 6 -13 13z" />
    <glyph glyph-name="scripts.dstaccatissimo" unicode="&#xe13f;" horiz-adv-x="50" 
d="M-13 0c1 7 6 13 13 13s12 -6 13 -13l37 -200c0 -2 1 -5 1 -7c0 -24 -24 -43 -51 -43s-51 19 -51 43c0 2 1 5 1 7z" />
    <glyph glyph-name="scripts.tenuto" unicode="&#xe140;" horiz-adv-x="150" 
d="M130 -20h-260c-11 0 -20 9 -20 20s9 20 20 20h260c11 0 20 -9 20 -20s-9 -20 -20 -20z" />
    <glyph glyph-name="scripts.uportato" unicode="&#xe141;" horiz-adv-x="150" 
d="M-40 165c0 22 18 40 40 40s40 -18 40 -40s-18 -40 -40 -40s-40 18 -40 40zM132 -18h-264c-10 0 -18 8 -18 18s8 18 18 18h264c10 0 18 -8 18 -18s-8 -18 -18 -18z" />
    <glyph glyph-name="scripts.dportato" unicode="&#xe142;" horiz-adv-x="150" 
d="M-40 -165c0 22 18 40 40 40s40 -18 40 -40s-18 -40 -40 -40s-40 18 -40 40zM132 18c10 0 18 -8 18 -18s-8 -18 -18 -18h-264c-10 0 -18 8 -18 18s8 18 18 18h264z" />
    <glyph glyph-name="scripts.umarcato" unicode="&#xe143;" horiz-adv-x="125" 
d="M-50 120l-51 -113c-2 -4 -6 -7 -11 -7c-7 0 -13 5 -13 12c0 2 0 4 1 6l113 250c2 4 6 7 11 7s9 -3 11 -7l113 -250c1 -2 1 -4 1 -6c0 -7 -6 -12 -13 -12h-66c-5 0 -10 3 -12 7l-51 113c-3 7 -9 11 -17 11c-7 0 -13 -5 -16 -11z" />
    <glyph glyph-name="scripts.dmarcato" unicode="&#xe144;" horiz-adv-x="125" 
d="M51 -120l50 113c2 4 6 7 11 7c7 0 13 -5 13 -12c0 -2 0 -4 -1 -6l-113 -250c-2 -4 -6 -7 -11 -7s-9 3 -11 7l-113 250c-1 2 -1 4 -1 6c0 7 6 12 13 12h66c5 0 10 -3 12 -7l52 -114c2 -5 9 -10 16 -10c8 0 14 4 17 11z" />
    <glyph glyph-name="scripts.open" unicode="&#xe145;" horiz-adv-x="100" 
d="M100 0c0 -65 -40 -125 -100 -125s-100 60 -100 125s40 125 100 125s100 -60 100 -125zM57 0c0 47 -16 95 -57 95s-57 -48 -57 -95s16 -95 57 -95s57 48 57 95z" />
    <glyph glyph-name="scripts.halfopen" unicode="&#xe146;" horiz-adv-x="100" 
d="M85 68c10 -20 15 -44 15 -68c0 -65 -40 -125 -100 -125c-19 0 -35 5 -49 15c-7 5 -18 4 -24 -3l-42 -51c-3 -3 -6 -5 -10 -5c-7 0 -13 6 -13 13c0 3 1 6 3 8l48 60c5 6 5 15 2 20c-10 20 -15 44 -15 68c0 65 40 125 100 125c19 0 35 -5 49 -15c7 -5 19 -4 25 3l41 51
c3 3 6 5 10 5c7 0 13 -6 13 -13c0 -3 -1 -6 -3 -8l-48 -60c-5 -6 -5 -14 -2 -20zM28 84c-8 7 -17 11 -28 11c-41 0 -57 -48 -57 -95c0 -6 5 -14 13 -16s15 1 19 6l56 70c5 7 5 18 -3 24zM57 0c0 6 -4 14 -12 16s-16 0 -20 -6l-56 -70c-6 -8 -4 -19 3 -25c8 -6 17 -10 28 -10
c41 0 57 48 57 95z" />
    <glyph glyph-name="scripts.halfopenvertical" unicode="&#xe147;" horiz-adv-x="100" 
d="M100 0c0 -55 -28 -107 -74 -121c-7 -2 -13 -10 -13 -18v-49c0 -7 -6 -13 -13 -13s-13 6 -13 13v50c0 8 -6 15 -13 17c-46 14 -74 66 -74 121s28 107 74 121c7 2 13 9 13 17v50c0 7 6 13 13 13s13 -6 13 -13v-49c0 -8 6 -16 13 -18c46 -14 74 -66 74 -121zM13 -49
c0 -9 6 -16 14 -18c9 -2 18 3 21 11c6 17 9 36 9 56s-3 39 -9 56c-3 8 -12 13 -21 11c-8 -2 -14 -9 -14 -18v-98zM-13 49c0 9 -6 16 -14 18c-9 2 -18 -3 -21 -11c-6 -17 -9 -36 -9 -56s3 -39 9 -56c3 -8 12 -13 21 -11c8 2 14 9 14 18v98z" />
    <glyph glyph-name="scripts.stopped" unicode="&#xe148;" horiz-adv-x="137" 
d="M0 138c14 0 25 -12 25 -26v-69c0 -11 8 -18 18 -18h69c14 0 26 -11 26 -25s-12 -25 -26 -25h-69c-10 0 -18 -7 -18 -18v-69c0 -14 -11 -26 -25 -26s-25 12 -25 26v69c0 11 -8 18 -18 18h-69c-14 0 -26 11 -26 25s12 25 26 25h69c10 0 18 7 18 18v69c0 14 11 26 25 26z
" />
    <glyph glyph-name="scripts.upbow" unicode="&#xe149;" horiz-adv-x="162" 
d="M17 137l111 371c2 7 9 12 17 12c10 0 18 -8 18 -18c0 -2 -1 -3 -1 -5l-144 -479c0 -12 -6 -18 -18 -18s-18 6 -18 18l-144 479v5c0 10 7 18 17 18c8 0 15 -5 17 -12l111 -371c5 -16 29 -16 34 0z" />
    <glyph glyph-name="scripts.downbow" unicode="&#xe14a;" horiz-adv-x="188" 
d="M-139 200c-10 0 -18 -8 -18 -18v-167c0 -8 -7 -15 -15 -15s-16 7 -16 15v308c0 6 4 10 10 10h356c6 0 10 -4 10 -10v-308c0 -8 -7 -15 -15 -15s-16 7 -16 15v167c0 10 -8 18 -18 18h-278z" />
    <glyph glyph-name="scripts.reverseturn" unicode="&#xe14b;" horiz-adv-x="273" 
d="M-210 52c-19 -9 -33 -28 -33 -52c0 -31 28 -54 61 -54c64 0 110 53 157 97s99 89 164 89c74 0 134 -58 134 -132c0 -70 -47 -132 -114 -132c-35 0 -68 21 -68 53c0 35 28 53 54 53c16 0 32 -6 42 -20c6 -8 15 -10 23 -6c19 9 33 28 33 52c0 31 -28 54 -61 54
c-64 0 -110 -53 -157 -97s-99 -89 -164 -89c-74 0 -134 58 -134 132c0 70 47 132 114 132c35 0 68 -21 68 -53c0 -35 -28 -53 -54 -53c-16 0 -32 6 -42 20c-5 7 -15 10 -23 6z" />
    <glyph glyph-name="scripts.turn" unicode="&#xe14c;" horiz-adv-x="273" 
d="M210 52c19 -9 33 -28 33 -52c0 -31 -28 -54 -61 -54c-64 0 -110 53 -157 97s-99 89 -164 89c-74 0 -134 -58 -134 -132c0 -70 47 -132 114 -132c35 0 68 21 68 53c0 35 -28 53 -54 53c-16 0 -32 -6 -42 -20c-6 -8 -15 -10 -23 -6c-19 9 -33 28 -33 52c0 31 28 54 61 54
c64 0 110 -53 157 -97s99 -89 164 -89c74 0 134 58 134 132c0 70 -47 132 -114 132c-35 0 -68 -21 -68 -53c0 -35 28 -53 54 -53c16 0 32 6 42 20c5 7 15 10 23 6z" />
    <glyph glyph-name="scripts.trill" unicode="&#xe14d;" horiz-adv-x="212" 
d="M-161 256c-20 13 -44 22 -70 22c-32 0 -66 -16 -66 -51c0 -22 17 -30 39 -30c36 0 66 11 95 24c3 1 8 6 10 13l1 3c2 8 -4 15 -9 19zM-139 302l29 147c6 -3 13 -5 20 -5c22 0 48 16 68 35l-33 -166c-3 -16 13 -27 26 -20l30 17c26 14 51 20 74 20c22 0 41 -5 54 -16
c6 -5 14 -7 22 -1c17 12 37 19 57 19c36 0 69 -22 69 -69c0 -45 -27 -90 -65 -90c-25 0 -38 22 -38 48c0 25 12 41 28 50c8 4 11 12 8 21s-12 13 -20 12c-21 -3 -42 -18 -46 -42l-54 -270c-11 7 -24 11 -38 11s-29 -4 -43 -11l54 270v7c0 16 -12 26 -29 26
c-7 0 -16 -3 -24 -7l-72 -40c-4 -2 -8 -7 -9 -12l-3 -14c-1 -6 1 -12 4 -16c25 -30 44 -63 44 -102c0 -61 -47 -115 -98 -115c-39 0 -56 44 -56 91c0 14 1 28 4 41l9 44c1 7 -1 12 -7 17c-5 4 -12 5 -17 3c-22 -8 -44 -13 -71 -13c-35 0 -60 18 -60 51c0 51 49 80 96 80
c22 0 42 -6 61 -14c10 -5 23 0 26 13zM-92 133c-4 -19 -9 -45 -9 -65c0 -17 4 -29 15 -29c23 0 35 34 35 61c0 13 -3 24 -7 35c-3 8 -11 13 -19 12s-13 -7 -15 -14z" />
    <glyph glyph-name="scripts.upedalheel" unicode="&#xe14e;" horiz-adv-x="125" 
d="M0 -87c48 0 87 39 87 87v148c0 10 9 19 19 19s19 -9 19 -19v-148c0 -69 -56 -125 -125 -125s-125 56 -125 125v148c0 10 9 19 19 19s19 -9 19 -19v-148c0 -48 39 -87 87 -87z" />
    <glyph glyph-name="scripts.dpedalheel" unicode="&#xe14f;" horiz-adv-x="125" 
d="M0 87c-48 0 -87 -39 -87 -87v-148c0 -10 -9 -19 -19 -19s-19 9 -19 19v148c0 69 56 125 125 125s125 -56 125 -125v-148c0 -10 -9 -19 -19 -19s-19 9 -19 19v148c0 48 -39 87 -87 87z" />
    <glyph glyph-name="scripts.upedaltoe" unicode="&#xe150;" horiz-adv-x="125" 
d="M17 141l71 221c3 8 10 13 18 13c10 0 19 -9 19 -19c0 -2 0 -3 -1 -5l-105 -332c0 -13 -6 -19 -19 -19s-19 6 -19 19l-105 332c-1 2 -1 3 -1 5c0 10 9 19 19 19c8 0 15 -5 18 -13l71 -221c6 -18 28 -18 34 0z" />
    <glyph glyph-name="scripts.dpedaltoe" unicode="&#xe151;" horiz-adv-x="125" 
d="M-18 -140l-70 -222c-2 -8 -10 -13 -18 -13c-10 0 -19 9 -19 19c0 2 0 3 1 5l105 332c0 13 6 19 19 19s19 -6 19 -19l105 -332c1 -2 1 -3 1 -5c0 -10 -9 -19 -19 -19c-8 0 -16 5 -18 13l-70 222c-6 18 -30 20 -36 0z" />
    <glyph glyph-name="scripts.flageolet" unicode="&#xe152;" horiz-adv-x="133" 
d="M0 133c74 0 133 -59 133 -133s-59 -133 -133 -133s-133 59 -133 133s59 133 133 133zM0 95c-51 0 -95 -44 -95 -95s44 -95 95 -95s95 44 95 95s-44 95 -95 95z" />
    <glyph glyph-name="scripts.segno" unicode="&#xe153;" horiz-adv-x="250" 
d="M-202 -50c0 17 13 30 30 30s30 -13 30 -30s-13 -30 -30 -30s-30 13 -30 30zM142 50c0 17 13 30 30 30s30 -13 30 -30s-13 -30 -30 -30s-30 13 -30 30zM-45 312c-12 20 -35 33 -61 33c-38 0 -66 -35 -66 -75c0 -93 73 -160 156 -210c8 -5 20 -2 25 7l181 308h60l-195 -333
c-5 -9 -1 -20 7 -25c98 -57 188 -129 188 -236c0 -86 -62 -156 -144 -156c-79 0 -141 68 -141 148c0 34 17 59 54 59c39 0 58 -31 58 -62c0 -22 -11 -45 -28 -57c-8 -6 -9 -17 -4 -24c12 -20 35 -34 61 -34c38 0 66 35 66 75c0 93 -73 160 -156 210c-9 5 -20 2 -25 -6
l-181 -309h-60l195 334c5 8 2 19 -7 24c-98 57 -188 129 -188 236c0 86 62 156 144 156c79 0 141 -68 141 -148c0 -34 -17 -59 -54 -59c-39 0 -58 31 -58 62c0 22 11 45 28 57c8 5 9 17 4 25z" />
    <glyph glyph-name="scripts.varsegno" unicode="&#xe154;" horiz-adv-x="312" 
d="M240 67c46 -49 74 -109 74 -168s-32 -110 -72 -139c-9 -7 -9 -20 -2 -27c46 -49 74 -108 74 -167s-32 -111 -72 -140c-10 -7 -9 -19 -3 -26c44 -49 68 -111 68 -173c0 -44 -12 -89 -39 -128c-49 -71 -133 -102 -219 -102c-16 0 -33 1 -49 3c-113 15 -213 78 -277 172
c-7 12 -10 25 -10 37c0 36 26 67 67 67c48 0 74 -37 74 -75c0 -16 -5 -31 -14 -44c-6 -8 -3 -20 3 -25c60 -50 134 -83 224 -83c82 0 169 39 169 129c0 65 -58 121 -118 163l-307 215c-75 52 -125 133 -125 211c0 58 32 111 72 140c9 6 9 18 2 26c-46 49 -74 109 -74 168
c0 58 32 110 72 139c10 7 9 20 3 26c-46 49 -75 109 -75 168c0 58 32 111 72 140c8 6 10 18 3 26c-44 49 -68 111 -68 173c0 44 12 89 39 128c49 71 133 102 219 102c16 0 33 -1 49 -3c113 -15 213 -78 277 -172c7 -12 10 -25 10 -37c0 -36 -26 -67 -67 -67
c-48 0 -74 37 -74 75c0 16 5 31 14 44c5 6 5 17 -3 24c-60 50 -134 84 -224 84c-82 0 -169 -39 -169 -129c0 -65 58 -121 118 -163l307 -215c75 -52 125 -133 125 -211c0 -58 -32 -109 -72 -139c-10 -8 -8 -21 -2 -27zM217 126c28 0 56 22 56 53c0 53 -83 112 -155 162
l-154 108c-61 43 -131 92 -181 92c-28 0 -56 -23 -56 -54c0 -53 83 -112 155 -162l153 -106c61 -43 131 -93 182 -93zM217 -541c28 0 56 23 56 54c0 53 -83 112 -155 162l-153 106c-61 43 -132 93 -182 93c-28 0 -56 -22 -56 -53c0 -53 83 -112 155 -162l154 -108
c61 -43 131 -92 181 -92zM-217 207c-28 0 -56 -22 -56 -53c0 -53 83 -112 155 -162l164 -115c58 -41 124 -84 171 -84c28 0 56 22 56 53c0 53 -83 112 -155 162l-164 115c-58 41 -124 84 -171 84z" />
    <glyph glyph-name="scripts.coda" unicode="&#xe155;" horiz-adv-x="254" 
d="M15 264c0 -8 6 -15 14 -17c83 -18 128 -113 136 -215c1 -10 8 -17 18 -17h71c8 0 15 -7 15 -15s-7 -15 -15 -15h-71c-10 0 -17 -7 -18 -17c-8 -102 -53 -197 -136 -215c-8 -2 -14 -9 -14 -17v-74c0 -8 -7 -15 -15 -15s-15 7 -15 15v74c0 8 -6 15 -14 17
c-83 18 -128 113 -136 215c-1 10 -8 17 -18 17h-71c-8 0 -15 7 -15 15s7 15 15 15h71c10 0 17 7 18 17c8 102 53 197 136 215c8 2 14 8 14 17v74c0 8 7 15 15 15s15 -7 15 -15v-74zM75 -15h-42c-10 0 -18 -8 -18 -18v-159c0 -15 17 -24 29 -15c40 29 47 101 49 173
c0 10 -7 19 -18 19zM-75 -15c-11 0 -18 -9 -18 -19c2 -72 9 -144 49 -173c12 -9 29 0 29 15v159c0 10 -8 18 -18 18h-42zM75 15c11 0 18 9 18 19c-2 72 -9 144 -49 173c-12 9 -29 0 -29 -15v-159c0 -10 8 -18 18 -18h42zM-75 15h42c10 0 18 8 18 18v159c0 15 -17 24 -29 15
c-40 -29 -47 -101 -49 -173c0 -10 7 -19 18 -19z" />
    <glyph glyph-name="scripts.varcoda" unicode="&#xe156;" horiz-adv-x="254" 
d="M-269 0c0 8 7 15 15 15h69c10 0 18 8 18 18v207c0 6 4 10 10 10h124c10 0 18 8 18 18v70c0 8 7 15 15 15s15 -7 15 -15v-70c0 -10 8 -18 18 -18h124c6 0 10 -4 10 -10v-207c0 -10 8 -18 18 -18h69c8 0 15 -7 15 -15s-7 -15 -15 -15h-69c-10 0 -18 -8 -18 -18v-207
c0 -6 -4 -10 -10 -10h-124c-10 0 -18 -8 -18 -18v-70c0 -8 -7 -15 -15 -15s-15 7 -15 15v70c0 10 -8 18 -18 18h-124c-6 0 -10 4 -10 10v207c0 10 -8 18 -18 18h-69c-8 0 -15 7 -15 15zM79 -202v169c0 10 -8 18 -18 18h-28c-10 0 -18 -8 -18 -18v-169c0 -10 8 -18 18 -18h28
c10 0 18 8 18 18zM-79 -202c0 -10 8 -18 18 -18h28c10 0 18 8 18 18v169c0 10 -8 18 -18 18h-28c-10 0 -18 -8 -18 -18v-169zM79 202c0 10 -8 18 -18 18h-28c-10 0 -18 -8 -18 -18v-169c0 -10 8 -18 18 -18h28c10 0 18 8 18 18v169zM-79 202v-169c0 -10 8 -18 18 -18h28
c10 0 18 8 18 18v169c0 10 -8 18 -18 18h-28c-10 0 -18 -8 -18 -18z" />
    <glyph glyph-name="scripts.rcomma" unicode="&#xe157;" horiz-adv-x="125" 
d="M12 -153c-9 0 -15 7 -15 15c0 3 1 6 3 9c30 43 50 94 50 142c0 30 -7 59 -25 85c-5 7 -7 14 -7 21c0 19 16 38 37 38c41 0 57 -65 57 -98c0 -68 -42 -141 -87 -205c-3 -4 -8 -7 -13 -7z" />
    <glyph glyph-name="scripts.lcomma" unicode="&#xe158;" horiz-adv-x="0" 
d="M-12 153c9 0 15 -7 15 -15c0 -3 -1 -6 -3 -9c-30 -43 -50 -94 -50 -142c0 -30 7 -59 25 -85c5 -7 7 -14 7 -21c0 -19 -16 -38 -37 -38c-41 0 -57 65 -57 98c0 68 42 141 87 205c3 4 8 7 13 7z" />
    <glyph glyph-name="scripts.rvarcomma" unicode="&#xe159;" horiz-adv-x="62" 
d="M-63 -165c-9 0 -14 7 -14 15c0 2 0 4 1 6l104 308c5 15 19 24 34 24c23 0 39 -19 39 -38c0 -5 -2 -9 -4 -14l-146 -292c-3 -6 -8 -9 -14 -9z" />
    <glyph glyph-name="scripts.lvarcomma" unicode="&#xe15a;" horiz-adv-x="62" 
d="M63 165c9 0 14 -7 14 -15c0 -2 0 -4 -1 -6l-104 -308c-5 -15 -19 -24 -34 -24c-23 0 -39 19 -39 38c0 5 2 9 4 14l146 292c3 6 8 9 14 9z" />
    <glyph glyph-name="scripts.arpeggio" unicode="&#xe15b;" horiz-adv-x="200" 
d="M64 153c12.3105 16.414 25 32 25 51c0 17 -2 30 -17 45l-9 9c-3.7109 3.35199 -6 8 -6 12c0 8 7 16 16 16c3 0 7 -1 10 -4l66 -55c14 -12 25 -35 25 -52c0 -19 -7.265 -40.913 -20 -57l-19 -23c-13.068 -15.8203 -24 -32 -24 -51c0 -17 4 -32 17 -45l9 -9
c3.655 -3.4121 6 -8 6 -12c0 -8 -7 -16 -16 -16c-3 0 -7 1 -10 4l-65 53c-14 12 -26 36 -26 53c0 19 7.3555 41.843 20 58z" />
    <glyph glyph-name="scripts.trill_element" unicode="&#xe15c;" horiz-adv-x="250" 
d="M154 136c16 -12 32 -25 51 -25c17 0 32 4 45 17l9 9c3 4 8 6 12 6c8 0 16 -7 16 -16c0 -3 -1 -7 -4 -10l-50 -61c-12 -14 -42 -30 -59 -30c-19 0 -39 7 -55 20l-23 19c-16 13 -32 24 -51 24c-17 0 -31 -3 -45 -17l-9 -9c-3 -4 -8 -6 -12 -6c-8 0 -16 7 -16 16
c0 3 1 7 4 10l57 70c12 14 33 24 50 24c19 0 41 -10 57 -23z" />
    <glyph glyph-name="scripts.arpeggio.arrow.M1" unicode="&#xe15d;" horiz-adv-x="200" 
d="M187 177l59 28c5 3 14 5 14 -5c0 -2 -1 -4 -2 -5c-53 -63 -124 -114 -152 -192c-1 -2 -4 -3 -7 -3c-2 0 -3 0 -4 2c-28 78 -99 129 -152 192c-2 2 -3 3 -3 6c0 8 8 9 13 6l79 -38c8 -4 15.835 0.205002 22 5c18 14 33 27 33 45c0 9 -2 25 -14 35l-7 6c-5 4 -6 9 -6 13
c0 9 8 16 16 16c4 0 7 -2 10 -5l52 -43c9.868 -8.16 23 -38 25 -54c1.222 -9.77299 15 -13 24 -9z" />
    <glyph glyph-name="scripts.arpeggio.arrow.1" unicode="&#xe15e;" horiz-adv-x="200" 
d="M13 73l-59 -28c-5 -3 -14 -5 -14 5c0 2 1 4 2 5c53 63 124 114 152 192c1 2 4 3 7 3c2 0 3 0 4 -2c28 -78 99 -129 152 -192c2 -2 3 -3 3 -6c0 -8 -8 -9 -13 -6l-79 38c-8 4 -15.452 -0.7435 -22 -5c-20 -13 -33 -23 -33 -41c0 -9 1 -30 14 -39l9 -6c5 -4 6 -9 6 -13
c0 -9 -8 -16 -16 -16c-4 0 -7 2 -10 5l-55 43c-13.7556 10.7544 -24 37 -24 54c0 9.8489 -15 13 -24 9z" />
    <glyph glyph-name="scripts.trilelement" unicode="&#xe15f;" horiz-adv-x="104" 
d="M115 -19l-64 -97c-4 -6 -10 -9 -17 -9c-6 0 -11 2 -15 7l-84 100c-8 9 -22 9 -28 -1l-23 38l65 97c4 6 10 9 17 9c6 0 11 -2 15 -7l84 -100c8 -9 21 -9 28 1z" />
    <glyph glyph-name="scripts.prall" unicode="&#xe160;" horiz-adv-x="208" 
d="M215 46c4 6 9 9 16 9c11 0 20 -9 20 -20c0 -4 -1 -8 -3 -11l-93 -140c-4 -6 -10 -9 -17 -9c-6 0 -11 2 -15 7l-82 100c-8 9 -22 9 -29 -1l-65 -97c-4 -6 -10 -9 -17 -9c-6 0 -11 2 -15 7l-83 100c-8 9 -23 9 -29 -1l-18 -27c-4 -6 -9 -9 -16 -9c-11 0 -20 9 -20 20
c0 4 1 8 3 11l93 140c4 6 10 9 17 9c6 0 11 -2 15 -7l83 -101c8 -9 22 -8 28 2l65 97c4 6 10 9 17 9c6 0 11 -2 15 -7l84 -101c8 -9 22 -8 28 2z" />
    <glyph glyph-name="scripts.mordent" unicode="&#xe161;" horiz-adv-x="208" 
d="M-63 -116c-5 -5 -8 -9 -15 -9c-6 0 -9 2 -13 7l-77 100c-8 10 -23 9 -29 -1l-18 -27c-4 -6 -9 -9 -16 -9c-11 0 -20 9 -20 20c0 4 1 8 3 11l93 140c4 6 10 9 17 9c6 0 11 -2 15 -7l71 -86c11 -13 32 -7 32 11v104c0 11 9 20 20 20s20 -9 20 -20v-32c0 -17 21 -25 32 -12
l11 13c4 6 8 9 15 9c6 0 9 -2 13 -7l78 -101c7 -9 22 -8 28 2l18 27c4 6 9 9 16 9c11 0 20 -9 20 -20c0 -4 -1 -8 -3 -11l-93 -140c-4 -6 -10 -9 -17 -9c-6 0 -11 2 -15 7l-71 86c-11 13 -32 7 -32 -11v-104c0 -11 -9 -20 -20 -20s-20 9 -20 20v32c0 17 -21 25 -32 12z" />
    <glyph glyph-name="scripts.prallprall" unicode="&#xe162;" horiz-adv-x="104" 
d="M-319 -46c-4 -6 -10 -9 -17 -9c-11 0 -20 9 -20 20c0 4 2 8 4 11l93 140c4 6 10 9 17 9c6 0 11 -2 15 -7l83 -100c8 -9 21 -9 28 1l65 97c4 6 10 9 17 9c6 0 11 -2 15 -7l84 -100c8 -9 21 -9 28 1l65 97c4 6 10 9 17 9c6 0 11 -2 15 -7l83 -100c8 -9 21 -9 28 1l18 27
c4 6 10 9 17 9c11 0 20 -9 20 -20c0 -4 -2 -8 -4 -11l-93 -140c-4 -6 -10 -9 -17 -9c-6 0 -11 2 -15 7l-83 100c-8 9 -22 9 -28 -1l-65 -97c-4 -6 -10 -9 -17 -9c-6 0 -11 2 -15 7l-84 100c-8 9 -22 9 -28 -1l-65 -97c-4 -6 -10 -9 -17 -9c-6 0 -11 2 -15 7l-83 100
c-8 9 -22 9 -28 -1z" />
    <glyph glyph-name="scripts.prallmordent" unicode="&#xe163;" horiz-adv-x="312" 
d="M-51 116c4 6 10 9 17 9c6 0 11 -2 15 -7l71 -86c11 -13 32 -7 32 11v104c0 11 9 20 20 20s20 -9 20 -20v-32c0 -17 21 -25 32 -12l11 13c4 6 8 9 15 9c6 0 9 -2 13 -7l78 -101c7 -9 22 -8 28 2l18 27c4 6 9 9 16 9c11 0 20 -9 20 -20c0 -4 -1 -8 -3 -11l-93 -140
c-4 -6 -10 -9 -17 -9c-6 0 -11 2 -15 7l-71 86c-11 13 -32 7 -32 -11v-104c0 -11 -9 -20 -20 -20s-20 9 -20 20v32c0 17 -21 25 -32 12l-11 -13c-5 -5 -8 -9 -15 -9c-6 0 -9 2 -13 7l-77 100c-8 10 -22 9 -29 -1l-65 -97c-4 -6 -10 -9 -17 -9c-6 0 -11 2 -15 7l-83 100
c-8 9 -22 9 -28 -1l-18 -27c-4 -6 -10 -9 -17 -9c-11 0 -20 9 -20 20c0 4 2 8 4 11l93 140c4 6 10 9 17 9c6 0 11 -2 15 -7l83 -100c8 -9 21 -9 28 1z" />
    <glyph glyph-name="scripts.upprall" unicode="&#xe164;" horiz-adv-x="312" 
d="M-319 -46c-23 -34 -34 -74 -34 -114s11 -80 34 -114c9 -14 -2 -31 -17 -31c-7 0 -12 3 -16 9c-27 41 -41 89 -41 136s14 95 41 136l93 140c4 6 10 9 17 9c6 0 11 -2 15 -7l83 -100c8 -9 21 -9 28 1l65 97c4 6 10 9 17 9c6 0 11 -2 15 -7l84 -100c8 -9 21 -9 28 1l65 97
c4 6 10 9 17 9c6 0 11 -2 15 -7l83 -100c8 -9 21 -9 28 1l18 27c4 6 10 9 17 9c11 0 20 -9 20 -20c0 -4 -2 -8 -4 -11l-93 -140c-4 -6 -10 -9 -17 -9c-6 0 -11 2 -15 7l-83 100c-8 9 -22 9 -28 -1l-65 -97c-4 -6 -10 -9 -17 -9c-6 0 -11 2 -15 7l-84 100c-8 9 -22 9 -28 -1
l-65 -97c-4 -6 -10 -9 -17 -9c-6 0 -11 2 -15 7l-83 100c-8 9 -22 9 -28 -1z" />
    <glyph glyph-name="scripts.upmordent" unicode="&#xe165;" horiz-adv-x="312" 
d="M-259 116c4 6 10 9 17 9c6 0 11 -2 15 -7l83 -100c8 -9 21 -9 28 1l65 97c4 6 10 9 17 9c6 0 11 -2 15 -7l71 -86c11 -13 32 -7 32 11v104c0 11 9 20 20 20s20 -9 20 -20v-32c0 -17 21 -25 32 -12l11 13c4 6 8 9 15 9c6 0 9 -2 13 -7l78 -101c7 -9 22 -8 28 2l18 27
c4 6 9 9 16 9c11 0 20 -9 20 -20c0 -4 -1 -8 -3 -11l-93 -140c-4 -6 -10 -9 -17 -9c-6 0 -11 2 -15 7l-71 86c-11 13 -32 7 -32 -11v-104c0 -11 -9 -20 -20 -20s-20 9 -20 20v32c0 17 -21 25 -32 12l-11 -13c-5 -5 -8 -9 -15 -9c-6 0 -9 2 -13 7l-77 100c-8 10 -22 9 -29 -1
l-65 -97c-4 -6 -10 -9 -17 -9c-6 0 -11 2 -15 7l-83 100c-8 9 -22 9 -28 -1l-18 -27c-22 -34 -34 -74 -34 -114s11 -80 34 -114c9 -14 -2 -31 -17 -31c-7 0 -12 3 -16 9c-27 41 -41 89 -41 136s14 95 41 136z" />
    <glyph glyph-name="scripts.pralldown" unicode="&#xe166;" horiz-adv-x="312" 
d="M315 -33l-56 -83c-4 -6 -10 -9 -17 -9c-6 0 -11 2 -15 7l-83 100c-8 9 -21 9 -28 -1l-65 -97c-4 -6 -10 -9 -17 -9c-6 0 -11 2 -15 7l-84 100c-8 9 -21 9 -28 -1l-65 -97c-4 -6 -10 -9 -17 -9c-6 0 -11 2 -15 7l-83 100c-8 9 -21 9 -28 -1l-18 -27c-4 -6 -10 -9 -17 -9
c-11 0 -20 9 -20 20c0 4 2 8 4 11l93 140c4 6 10 9 17 9c6 0 11 -2 15 -7l83 -100c8 -9 22 -9 28 1l65 97c4 6 10 9 17 9c6 0 11 -2 15 -7l84 -100c8 -9 22 -9 28 1l65 97c4 6 10 9 17 9c6 0 11 -2 15 -7l83 -100c8 -9 22 -9 28 1l18 27c4 6 10 9 17 9c6 0 12 -4 16 -10
c27 -41 41 -88 41 -135s-14 -95 -41 -136c-4 -6 -9 -9 -16 -9c-15 0 -26 17 -17 31c23 34 34 74 34 114c0 17 -2 35 -6 51c-4 15 -23 19 -32 6z" />
    <glyph glyph-name="scripts.downprall" unicode="&#xe167;" horiz-adv-x="312" 
d="M-315 33l56 83c4 6 10 9 17 9c6 0 11 -2 15 -7l83 -100c8 -9 21 -9 28 1l65 97c4 6 10 9 17 9c6 0 11 -2 15 -7l84 -100c8 -9 21 -9 28 1l65 97c4 6 10 9 17 9c6 0 11 -2 15 -7l83 -100c8 -9 21 -9 28 1l18 27c4 6 10 9 17 9c11 0 20 -9 20 -20c0 -4 -2 -8 -4 -11
l-93 -140c-4 -6 -10 -9 -17 -9c-6 0 -11 2 -15 7l-83 100c-8 9 -22 9 -28 -1l-65 -97c-4 -6 -10 -9 -17 -9c-6 0 -11 2 -15 7l-84 100c-8 9 -22 9 -28 -1l-65 -97c-4 -6 -10 -9 -17 -9c-6 0 -11 2 -15 7l-83 100c-8 9 -22 9 -28 -1l-18 -27c-4 -6 -10 -9 -17 -9
c-6 0 -12 4 -16 10c-27 41 -41 88 -41 135s14 95 41 136c4 6 9 9 16 9c15 0 26 -17 17 -31c-23 -34 -34 -74 -34 -114c0 -17 2 -35 6 -51c4 -15 23 -19 32 -6z" />
    <glyph glyph-name="scripts.downmordent" unicode="&#xe168;" horiz-adv-x="312" 
d="M-51 116c4 6 10 9 17 9c6 0 11 -2 15 -7l71 -86c11 -13 32 -7 32 11v104c0 11 9 20 20 20s20 -9 20 -20v-32c0 -17 21 -25 32 -12l11 13c4 6 8 9 15 9c6 0 9 -2 13 -7l78 -101c7 -9 22 -8 28 2l18 27c4 6 9 9 16 9c11 0 20 -9 20 -20c0 -4 -1 -8 -3 -11l-93 -140
c-4 -6 -10 -9 -17 -9c-6 0 -11 2 -15 7l-71 86c-11 13 -32 7 -32 -11v-104c0 -11 -9 -20 -20 -20s-20 9 -20 20v32c0 17 -21 25 -32 12l-11 -13c-5 -5 -8 -9 -15 -9c-6 0 -9 2 -13 7l-77 100c-8 10 -22 9 -29 -1l-65 -97c-4 -6 -10 -9 -17 -9c-6 0 -11 2 -15 7l-83 100
c-8 9 -22 9 -28 -1l-18 -27c-4 -6 -10 -9 -17 -9c-6 0 -12 4 -16 10c-27 41 -41 88 -41 135s14 95 41 136c4 6 9 9 16 9c15 0 26 -17 17 -31c-23 -34 -34 -74 -34 -114c0 -17 2 -35 6 -51c4 -15 23 -19 32 -6l56 83c4 6 10 9 17 9c6 0 11 -2 15 -7l83 -100c8 -9 21 -9 28 1z
" />
    <glyph glyph-name="scripts.prallup" unicode="&#xe169;" horiz-adv-x="312" 
d="M319 46c23 34 34 74 34 114s-11 80 -34 114c-9 14 2 31 17 31c7 0 12 -3 16 -9c27 -41 41 -89 41 -136s-14 -95 -41 -136l-93 -140c-4 -6 -10 -9 -17 -9c-6 0 -11 2 -15 7l-83 100c-8 9 -21 9 -28 -1l-65 -97c-4 -6 -10 -9 -17 -9c-6 0 -11 2 -15 7l-84 100
c-8 9 -21 9 -28 -1l-65 -97c-4 -6 -10 -9 -17 -9c-6 0 -11 2 -15 7l-83 100c-8 9 -21 9 -28 -1l-18 -27c-4 -6 -10 -9 -17 -9c-11 0 -20 9 -20 20c0 4 2 8 4 11l93 140c4 6 10 9 17 9c6 0 11 -2 15 -7l83 -100c8 -9 22 -9 28 1l65 97c4 6 10 9 17 9c6 0 11 -2 15 -7l84 -100
c8 -9 22 -9 28 1l65 97c4 6 10 9 17 9c6 0 11 -2 15 -7l83 -100c8 -9 22 -9 28 1z" />
    <glyph glyph-name="scripts.lineprall" unicode="&#xe16a;" horiz-adv-x="312" 
d="M-282 82l23 34c4 6 10 9 17 9c6 0 11 -2 15 -7l83 -100c8 -9 21 -9 28 1l65 97c4 6 10 9 17 9c6 0 11 -2 15 -7l84 -100c8 -9 21 -9 28 1l65 97c4 6 10 9 17 9c6 0 11 -2 15 -7l83 -100c8 -9 21 -9 28 1l18 27c4 6 10 9 17 9c11 0 20 -9 20 -20c0 -4 -2 -8 -4 -11
l-93 -140c-4 -6 -10 -9 -17 -9c-6 0 -11 2 -15 7l-83 100c-8 9 -22 9 -28 -1l-65 -97c-4 -6 -10 -9 -17 -9c-6 0 -11 2 -15 7l-84 100c-8 9 -22 9 -28 -1l-65 -97c-4 -6 -10 -9 -17 -9c-6 0 -11 2 -15 7l-83 100c-8 9 -22 9 -28 -1l-18 -27c-4 -6 -10 -9 -17 -9
c-11 0 -20 9 -20 20v500c0 11 9 20 20 20s20 -9 20 -20v-373c0 -18 23 -26 34 -10z" />
    <glyph glyph-name="scripts.caesura.curved" unicode="&#xe16b;" horiz-adv-x="500" 
d="M282 313c18 0 31 -15 31 -32c0 -160 -63 -326 -127 -470c-3 -7 -10 -11 -17 -11c-15 0 -22 15 -17 26c63 144 89 300 99 457c1 17 15 30 31 30zM19 -200c-11 0 -19 10 -19 19c0 3 1 5 2 7c63 144 89 300 99 457c1 17 15 30 31 30c18 0 31 -15 31 -32
c0 -160 -63 -326 -127 -470c-3 -7 -10 -11 -17 -11z" />
    <glyph glyph-name="scripts.caesura.straight" unicode="&#xe16c;" horiz-adv-x="500" 
d="M149 -182l232 464c5 11 17 18 29 18h32c7 0 12 -6 12 -12c0 -2 0 -4 -1 -6l-232 -464c-5 -11 -17 -18 -29 -18h-32c-9 0 -15 10 -11 18zM9 -182l232 464c5 11 17 18 29 18h32c7 0 12 -6 12 -12c0 -2 0 -4 -1 -6l-232 -464c-5 -11 -17 -18 -29 -18h-32c-7 0 -12 6 -12 12
c0 2 0 4 1 6z" />
    <glyph glyph-name="scripts.tickmark" unicode="&#xe16d;" horiz-adv-x="274" 
d="M13 120c46 132 124 254 253 305h3c3 0 6 -2 6 -6c0 -3 -2 -5 -4 -6c-150 -60 -196 -233 -246 -388c-4 -13 -12 -25 -24 -25c-13 0 -21 13 -26 25c-29 64 -74 120 -123 171c-1 1 -2 2 -2 4c0 6 7 7 11 4c42 -28 85 -57 121 -92c9 -9 27 -5 31 8z" />
    <glyph glyph-name="scripts.snappizzicato" unicode="&#xe16e;" horiz-adv-x="133" 
d="M-41 92c-35 -16 -60 -51 -60 -92c0 -56 45 -101 101 -101s101 45 101 101c0 40 -24 76 -59 92c-12 6 -26 -2 -26 -16v-76c0 -9 -7 -16 -16 -16s-16 7 -16 16v76c0 13 -13 21 -25 16zM-16 147v53c0 9 7 16 16 16s16 -7 16 -16v-53c0 -9 6 -15 14 -17
c59 -14 103 -67 103 -130c0 -74 -59 -133 -133 -133s-133 59 -133 133c0 63 44 116 103 130c8 2 14 8 14 17z" />
    <glyph glyph-name="clefs.C" unicode="&#xe16f;" horiz-adv-x="680" 
d="M329 0c0 -33 7 -73 45 -73c29 0 46 31 77 31c123 0 229 -89 229 -208c0 -169 -93 -250 -265 -250c-83 0 -152 61 -152 142c0 42 34 77 76 77s76 -35 76 -77c0 -39 -49 -37 -49 -76c0 -23 24 -38 49 -38c116 0 140 90 140 222c0 106 -12 180 -104 180
c-72 0 -110 -71 -110 -149c0 -9 -7 -14 -14 -14s-13 5 -13 14c0 59 -27 135 -60 182c-4 6 -13 9 -21 7s-12 -10 -12 -17v-443c0 -6 -4 -10 -10 -10h-21c-6 0 -10 4 -10 10v980c0 6 4 10 10 10h21c6 0 10 -4 10 -10v-441c0 -9 4 -15 12 -18s16 0 21 7c33 47 60 122 60 181
c0 9 6 14 13 14s14 -5 14 -14c0 -78 38 -149 110 -149c92 0 104 74 104 180c0 132 -24 222 -140 222c-25 0 -49 -15 -49 -38c0 -39 49 -37 49 -76c0 -42 -34 -77 -76 -77s-76 35 -76 77c0 81 69 142 152 142c172 0 265 -81 265 -250c0 -119 -106 -208 -229 -208
c-31 0 -48 31 -77 31c-38 0 -45 -40 -45 -73zM129 -500h-119c-6 0 -10 4 -10 10v980c0 6 4 10 10 10h119c6 0 10 -4 10 -10v-980c0 -6 -4 -10 -10 -10z" />
    <glyph glyph-name="clefs.C_change" unicode="&#xe170;" horiz-adv-x="549" 
d="M265 0c0 -25 3 -57 33 -57c24 0 44 27 69 27c98 0 182 -74 182 -170c0 -134 -70 -200 -205 -200c-65 0 -121 49 -121 113c0 33 27 60 60 60s61 -27 61 -60c0 -30 -36 -31 -36 -61c0 -17 17 -28 36 -28c91 0 108 72 108 176c0 86 -11 146 -85 146c-55 0 -83 -56 -83 -116
c0 -8 -6 -12 -12 -12s-13 4 -13 12c0 41 -19 109 -40 143c-4 7 -13 9 -21 7s-12 -10 -12 -17v-353c0 -6 -4 -10 -10 -10h-17c-6 0 -10 4 -10 10v780c0 6 4 10 10 10h17c6 0 10 -4 10 -10v-353c0 -7 5 -15 13 -17s16 1 20 8c21 34 40 101 40 142c0 8 7 12 13 12s12 -4 12 -12
c0 -60 28 -116 83 -116c74 0 85 60 85 146c0 104 -17 175 -108 175c-19 0 -36 -10 -36 -27c0 -30 36 -31 36 -61c0 -33 -28 -60 -61 -60s-60 27 -60 60c0 64 56 113 121 113c135 0 205 -66 205 -200c0 -96 -84 -170 -182 -170c-25 0 -45 27 -69 27c-30 0 -33 -32 -33 -57z
M102 -400h-92c-6 0 -10 4 -10 10v780c0 6 4 10 10 10h92c6 0 10 -4 10 -10v-780c0 -6 -4 -10 -10 -10z" />
    <glyph glyph-name="clefs.F" unicode="&#xe171;" horiz-adv-x="670" 
d="M557 -125c0 28 23 51 51 51s51 -23 51 -51s-23 -51 -51 -51s-51 23 -51 51zM557 125c0 28 23 51 51 51s51 -23 51 -51s-23 -51 -51 -51s-51 23 -51 51zM109 119c61 0 103 -45 103 -100c0 -58 -44 -106 -100 -106c-60 0 -112 47 -112 106c0 133 102 244 232 244
c172 0 293 -88 293 -251c0 -323 -261 -469 -515 -581c-3.77246 -1.66302 -7 -3 -10 -3c-7 0 -13 6 -13 13c0 3 1 6 4 9c202 118 412 291 412 552c0 120 -63 235 -171 235c-62 0 -110 -37 -139 -91c-3 -5 -4 -12 0 -18s9 -9 16 -9z" />
    <glyph glyph-name="clefs.F_change" unicode="&#xe172;" horiz-adv-x="536" 
d="M446 -100c0 23 18 41 41 41s41 -18 41 -41s-18 -41 -41 -41s-41 18 -41 41zM446 100c0 23 18 41 41 41s41 -18 41 -41s-18 -41 -41 -41s-41 18 -41 41zM100 98c39 -5 70 -38 70 -79c0 -46 -35 -85 -80 -85c-48 0 -90 38 -90 85c0 104 77 194 179 194
c140 0 241 -69 241 -201c0 -211 -210 -371 -411 -459c-3 -3 -6 -4 -9 -4c-7 0 -13 6 -13 13c0 3 1 6 4 9c150 98 307 255 307 431c0 92 -38 185 -119 185c-42 0 -74 -25 -93 -62c-4 -9 2 -26 14 -27z" />
    <glyph glyph-name="clefs.G" unicode="&#xe173;" horiz-adv-x="660" 
d="M248 565c-16 52 -26 94 -32 130c-8 48 -9 106 -7 156c5 115 47 232 144 296c5 3 8 3 13 3c4 0 8 -1 12 -5c78 -78 116 -206 116 -319c0 -140 -68.5 -273.1 -162.5 -377.1c-2 -2 -6 -8 -4 -16l40.5 -159.9c2 -9 11 -15 20 -14c182 18 272 -125 272 -254
c0 -118 -76 -220 -163 -247c-9 -3 -13 -12 -11 -21c15 -70 32.53 -163.573 22.001 -260c-9.5 -87 -82.501 -173 -183.501 -173c-114 0 -211 75.4 -211 197c0 62 53 103 112 103c54 0 95 -47 95 -103c0 -48 -36 -88 -82 -94c-10 -1 -13.5 -6 -16 -14c-2.5 -7 2 -14 7 -18
c25 -20 57 -28 88 -28c79.5 0 139.001 69 147.501 134c12.059 92.215 -3.00101 172 -19.001 245c-2 8 -11 16 -22 15c-24 -3 -49 -5 -74 -5c-188 0 -350 124.9 -350 346c0 201.9 130 333 245 466c4 5 5 12 3 17zM404.5 107.9l64.5 -294.9c2.64301 -12.083 16 -16 25 -12
c56 24 95 102 95 163c0 84 -45.5 166.9 -166.5 166.9c-11 0 -21 -9.99999 -18 -23zM266.5 385.9c-98 -110 -194.5 -177.001 -194.5 -360c0 -124.001 127.5 -246.9 281 -246.9c21 0 40 1 60 3c11 1 18.394 11.079 16 22l-65.5 298.9c-2 11 -15 17 -25 13
c-63 -23.9996 -84 -66 -84 -126c0 -30.0004 12.5 -57.9004 59.5 -94.9004c6 -4 7 -10 7 -15c0 -11 -10 -22 -22 -22c-3 0 -6 1 -9 2c-80 43 -111.5 119.9 -111.5 189.9c0 68.9996 53.5 166.1 137.5 194.1c8 3 14 11 12 21l-30.5 112.9c-1 6 -6 11 -14 13c-7 1 -13 -1 -17 -5
zM434 968c-8.35001 28.085 -27 29 -38 23c-87 -51 -139 -151 -139 -253c0 -33 9 -84 21 -123c2 -7 8 -12 15 -13s13 2 17 7c70 88 174.206 190.143 124 359z" />
    <glyph glyph-name="clefs.G_change" unicode="&#xe174;" horiz-adv-x="529" 
d="M252 -464c72 0 145.131 85.806 104 270c-2.009 8.998 -10 15 -20 14c-16 -2 -34.003 -3 -51.003 -3c-163 0 -284.997 111 -285 293c-0.00249506 155 100.003 246 189.003 356c3 4 4.64 9.14301 3 15c-21 75 -37.003 162 -38.003 214c-2 93 32.003 199 105.003 257
c3 2 8 5 14 4s8 -3 12 -7c63 -63 97.997 -153 97.997 -246c0 -112 -42.997 -212 -111.997 -302c-3 -4 -4 -9 -3 -15l32.997 -146c2.00299 -8 11 -15 20 -14h5c126 0 203 -91 203 -198c0 -77 -46 -158 -123 -191c-8 -3 -13.015 -11.003 -11 -20
c44.479 -198.565 -24.997 -321 -143.997 -321c-108 0 -165 71 -165 145c0 52 38 94 86 94c43 0 76 -38 76 -83c0 -33 -20.805 -51.916 -49 -64c-40.793 -17.482 -8 -52 53 -52zM405.997 -117c37 25 59 72 59 114c0 62 -39 114 -113 122c-6 1 -12 -2 -16 -7s-4 -11 -3 -15
l45 -203c3 -13 18 -18 28 -11zM340 -121l-48 216c-3 13 -16 17 -24 14c-38 -15 -62.003 -47 -62.003 -85c0 -34 3 -53 32 -80c15 -15 2 -40 -21 -23c-41 30 -67 61 -67 134c0 66 48 134 105 159c8.00002 4 12.003 12 10 21l-20.997 90c-0.996994 4 -7 11 -14 13
s-14 0 -18 -5c-73 -85 -151.003 -155 -151.003 -269c0 -154 118 -210 224 -210c14 0 28.003 2 40.003 4s17 12 15 21zM250 536c47 67 85 119 85 180c0 33 -5.00299 60 -11.003 85c-1 5 -7.99701 13 -16 15c-8.99701 2 -17 -2 -22 -5c-62 -47 -78 -119 -78 -183
c0 -26.019 7.00301 -69 10.003 -85c1 -8 6 -13 14 -15s14 3 18 8z" />
    <glyph glyph-name="clefs.percussion" unicode="&#xe175;" horiz-adv-x="500" 
d="M490 -250h-92c-6 0 -10 4 -10 10v480c0 6 4 10 10 10h92c6 0 10 -4 10 -10v-480c0 -6 -4 -10 -10 -10zM270 -250h-93c-6 0 -10 4 -10 10v480c0 6 4 10 10 10h93c6 0 10 -4 10 -10v-480c0 -6 -4 -10 -10 -10z" />
    <glyph glyph-name="clefs.percussion_change" unicode="&#xe176;" horiz-adv-x="400" 
d="M390 -200h-70c-6 0 -10 4 -10 10v380c0 6 4 10 10 10h70c6 0 10 -4 10 -10v-380c0 -6 -4 -10 -10 -10zM214 -200h-70c-6 0 -10 4 -10 10v380c0 6 4 10 10 10h70c6 0 10 -4 10 -10v-380c0 -6 -4 -10 -10 -10z" />
    <glyph glyph-name="clefs.tab" unicode="&#xe177;" horiz-adv-x="700" 
d="M555 -469c40 -14 67 -39 67 -82c0 -90 -94 -158 -179 -158c-41 0 -80 15 -108 52c-2 2 -3 5 -3 8c0 12 16 25 28 25c4 0 8 -1 10 -4c11 -15 27 -21 44 -21c43 0 95 40 95 93c0 47 -49 63 -101 63c-6 0 -8 8 -8 16c0 11 5 24 18 24c36 0 69 39 69 77s-25 60 -59 71
c-10 3 -23 -4 -25 -15c-11 -64 -28 -158 -36 -200c-20 -102 -84 -202 -159 -202c-44 0 -68 34 -96 53c-3 2 -4 5 -4 9c0 11 12 26 24 26c3 0 5 0 7 -2c20 -13 36 -35 65 -35c65 0 89 99 89 195v8c0 28 6 82 13 130c2 14 -15 26 -29 17c-22 -14 -36 -33 -36 -54
c0 -15 8 -28 19 -34c4 -3 7 -9 7 -16c0 -24 -23 -27 -43 -27c-45 0 -84 31 -84 75c0 82 118 130 234 130c104 0 215 -22 215 -103c0 -38 -17 -67 -41 -89c-11 -10 -5 -26 7 -30zM354 -54c12 -12 30 -19 53 -19c4 0 8 1 12 1c5 0 8 -7 8 -15c0 -25 -34 -29 -56 -29
c-32 0 -56 12 -70 33c-43 -41 -114 -105 -173 -105c-33 0 -52 21 -78 32c-3 1 -5 5 -5 9c0 11 11 28 25 28c2 0 5 -1 7 -2c16 -7 30 -18 50 -18c34 0 65 27 91 54c100 102 175 219 214 336c9 27 33 37 57 37c29 0 57 -15 57 -31c0 -2 -1 -4 -2 -6c-4 -116 -9 -233 -16 -350
v-9c0 -16 3 -30 21 -30c16 0 35 13 53 19l2 1c5 0 9 -8 9 -17c0 -8 -3 -16 -12 -19c-29 -9 -54 -34 -87 -34c-32 0 -45 29 -53 58c-12 47 -14 104 -20 154c-2 16 -22 22 -33 9c-15 -18 -38 -44 -55 -62c-7 -7 -6 -18 1 -25zM384 670c-5 1 -11 1 -15 1
c-51 0 -113 -21 -113 -70c0 -18 10 -36 24 -43c5 -3 8 -10 8 -18c0 -23 -23 -24 -42 -24c-49 0 -91 36 -91 84c0 95 125 120 232 120c49 0 119 -41 171 -41c38 0 77 15 110 41c3 2 6 3 9 3c11 0 23 -11 23 -19c0 -2 -1 -3 -2 -4c-40 -45 -95 -71 -148 -71c-8 0 -17 1 -25 2
c-10 1 -20 -5 -22 -15c-9 -58 -24 -136 -32 -174c-22 -96 -88 -185 -163 -185c-52 0 -81 42 -115 64c-3 2 -4 5 -4 9c0 11 12 26 23 26c2 0 5 -1 7 -2c23 -15 43 -46 75 -46c56 0 82 77 85 150c2 41 12 132 20 192c1 8 -4 18 -15 20z" />
    <glyph glyph-name="clefs.tab_change" unicode="&#xe178;" horiz-adv-x="560" 
d="M212.986 -263.549c-12.371 -10.364 -19.986 -22.932 -19.986 -36.451c0 -12 6 -22 15 -27c4 -2 5 -7 5 -13c0 -19 -17 -21 -33 -21c-36 0 -68 24 -68 59c0 66 94 104 187 104c83 0 173 -18 173 -82c0 -28.455 -12.523 -50.648 -30.215 -67.917
c-8.81 -8.599 -5.49701 -24.456 6.465 -29.111c29.514 -11.486 49.75 -30.984 49.75 -63.972c0 -72 -76 -126 -144 -126c-33 0 -64 12 -86 42c-1 2 -2 4 -2 6c0 10 12 20 22 20c3 0 6 -1 8 -4c9 -12 22 -16 36 -16c34 0 76 32 76 74c0 37 -40 51 -81 51c-5 0 -7 5 -7 12
c0 9 5 20 15 20c29 0 55 31 55 62c0 28.229 -17.831 45.39 -42.403 54.376c-10.482 3.83299 -23.172 -3.12801 -25.099 -13.796c-9.19699 -50.914 -22.335 -123.125 -28.498 -156.58c-16 -82 -67 -161 -127 -161c-35 0 -54 27 -77 42c-2 2 -4 4 -4 7c0 9 10 21 19 21
c2 0 4 -1 6 -2c16 -11 29 -28 53 -28c52 0 71 79 71 156v7c0 20.888 3.895 59.026 8.78 94.905c2.21001 16.229 -16.802 27.268 -30.794 15.546zM326.22 25.2871c-9.66 -11.5273 -30.404 -35.0868 -40.786 -46.253c-7.87598 -8.4702 -5.17899 -20.7268 3.267 -26.6102
c11.118 -7.7449 26.253 -10.4239 46.299 -10.4239c4 0 6 -6 6 -12c0 -20 -27 -23 -45 -23c-18.146 0 -33.13 5.2682 -44.189 14.6576c-7.009 5.9504 -17.743 5.7833 -25 -0.841599c-34.322 -31.33 -82.983 -70.816 -124.811 -70.816c-27 0 -41 16 -62 25c-3 1 -4 4 -4 7
c0 9 9 23 20 23c17 0 27 -16 46 -16c27 0 52 22 73 43c80 81 139 175 170 269c7 22 27 29 46 29c23 0 45 -11 45 -24c0 -95 -14 -194 -14 -292c0 -13 3 -25 17 -25c13 0 29 16 44 16c4 0 7 -6 7 -13c0 -6 -2 -13 -9 -15c-23 -7 -44 -28 -70 -28s-36 24 -42 47
c-9.31 35.0899 -5.33401 83.418 -9.883 120.559c-2.06702 16.8838 -23.019 20.5146 -32.897 8.7285zM302.903 536.37c-2.84402 0.393005 -5.492 0.630005 -7.90302 0.630005c-41 0 -90 -16 -90 -56c0 -14 8 -28 19 -34c4 -2 6 -9 6 -15c0 -18 -18 -19 -33 -19
c-39 0 -73 29 -73 67c0 76 101 96 186 96c39 0 95 -33 136 -33c30 0 62 12 88 33c2 2 4 2 7 2c9 0 19 -9 19 -15c0 -1 0 -2 -1 -3c-32 -36 -77 -57 -119 -57c-5.48801 0 -11.185 0.417999 -16.708 1.159c-9.56799 1.284 -19.738 -5.827 -21.231 -15.305
c-7.28702 -46.251 -18.078 -107.051 -25.061 -135.854c-17 -77 -70 -148 -130 -148c-41 0 -64 34 -92 52c-2 2 -4 4 -4 7c0 9 9 21 18 21c2 0 4 -1 6 -2c18 -12 34 -37 60 -37c45 0 66 62 68 121c0.888 31.976 8.87701 101.821 15.557 149.271
c1.32498 9.41302 -5.37 18.679 -15.654 20.099z" />
    <glyph glyph-name="timesig.C44" unicode="&#xe179;" horiz-adv-x="424" 
d="M340 207c-25 19 -57 30 -90 30c-106 0 -113 -73 -113 -186v-51v-51c0 -113 7 -187 113 -187c80 0 139 70 158 151c2 7 7 10 12 10c6 0 13 -4 13 -12c0 -94 -105 -174 -183 -174c-68 0 -137 21 -184 70c-49 51 -66 122 -66 193s17 142 66 193c47 49 116 69 184 69
c87 0 160 -64 175 -150c1 -5 1 -9 1 -13c0 -40 -30 -72 -67 -72c-49 0 -75 42 -75 75c0 32 19 64 51 74c4 1 11 7 12 14s-2 13 -7 17z" />
    <glyph glyph-name="timesig.C22" unicode="&#xe17a;" horiz-adv-x="424" 
d="M256 -238c77 3 133 72 152 151c2 7 7 10 12 10c6 0 13 -4 13 -12c0 -94 -105 -174 -183 -174c-4 0 -9 1 -13 1v-78c0 -6 -4 -10 -10 -10h-17c-6 0 -10 4 -10 10v81c-51 8 -99 29 -134 66c-49 51 -66 122 -66 193s17 142 66 193c35 37 83 58 134 66v81c0 6 4 10 10 10h17
c6 0 10 -4 10 -10v-78h13c87 0 160 -64 175 -150c1 -5 1 -9 1 -13c0 -40 -30 -72 -67 -72c-49 0 -75 42 -75 75c0 31 18 64 50 74c7 2 12 6 13 13s-2 14 -7 18c-24 18 -54 29 -85 30c-5 0 -10 -2 -13 -5s-5 -9 -5 -13v-439c0 -6 1 -9 5 -13s10 -5 14 -5zM200 -197v394
c0 6 -4 14 -11 17c-8 3 -15 1 -20 -5c-29 -31 -32 -86 -32 -158v-51v-51c0 -72 3 -127 32 -158c5 -5 13 -8 20 -5s11 10 11 17z" />
    <glyph glyph-name="pedal.*" unicode="&#xe17b;" horiz-adv-x="388" 
d="M166 194c0 -16 12 -28 28 -28s29 12 29 28s-13 29 -29 29s-28 -13 -28 -29zM92 347c23 0 42 -19 42 -46v-11c0 -20 11 -45 35 -35c9 4 15 13 15 22c0 27 -38 37 -38 64c0 32 24 48 48 48s49 -16 49 -48c0 -27 -39 -37 -39 -64c0 -18 26 -32 41 -17c8 8 10 19 10 30
c0 4 -1 7 -1 11c0 27 20 46 43 46c26 0 50 -24 50 -50c0 -23 -18 -43 -45 -43c-4 0 -8 1 -12 1c-20 0 -45 -11 -35 -35c4 -9 13 -16 22 -16c27 0 37 39 64 39c32 0 48 -25 48 -49s-16 -48 -48 -48c-27 0 -37 38 -64 38c-18 0 -32 -26 -17 -41c8 -8 19 -9 30 -9h12
c27 0 45 -19 45 -42c0 -26 -24 -50 -50 -50c-23 0 -43 18 -43 45c0 4 1 8 1 12c0 20 -11 45 -35 35c-9 -4 -16 -13 -16 -22c0 -27 39 -37 39 -64c0 -32 -25 -48 -49 -48s-48 16 -48 48c0 27 38 37 38 64c0 18 -26 32 -41 17c-8 -8 -9 -19 -9 -30v-12c0 -27 -19 -45 -42 -45
c-26 0 -50 24 -50 50c0 23 18 42 45 42h12c20 0 45 11 35 35c-4 9 -13 15 -22 15c-27 0 -37 -38 -64 -38c-32 0 -48 24 -48 48s16 49 48 49c27 0 37 -39 64 -39c18 0 32 26 17 41c-8 8 -19 10 -30 10c-4 0 -8 -1 -12 -1c-27 0 -45 20 -45 43c0 26 24 50 50 50z" />
    <glyph glyph-name="pedal.M" unicode="&#xe17c;" horiz-adv-x="210" 
d="M0 155l35 61c13 11 31 14 51 14c23 0 50 -4 73 -4c20 0 38 2 51 13l-35 -60c-13 -11 -31 -14 -51 -14c-23 0 -50 4 -73 4c-20 0 -38 -3 -51 -14z" />
    <glyph glyph-name="pedal.." unicode="&#xe17d;" horiz-adv-x="70" 
d="M0 35c0 19 16 35 35 35s35 -16 35 -35s-16 -35 -35 -35s-35 16 -35 35z" />
    <glyph glyph-name="pedal.P" unicode="&#xe17e;" horiz-adv-x="416" 
d="M245 479c-5 -3 -7 -8 -7 -8c-12 -28 -21 -82 -21 -97c0 -46 87 -114 87 -164c0 -19 -18 -41 -40 -68c0 0 -6 -6 -3 -16c3 -9 11 -12 11 -12c28 -9 62 -26 76 -38c13 -11 48 24 57 31c4 3 13 -4 13 -10c0 -1 0 -3 -1 -4c-13 -14 -95 -80 -112 -89c-6 -3 -12 -4 -17 0
c-15 12 -24 58 -40 83c0 0 -4 7 -14 8c-9 0 -14 -7 -14 -7c-20 -24 -37 -44 -45 -52c-12 -12 -47 -36 -64 -36c-7 0 -14 5 -14 12c0 13 21 38 30 47c17 18 61 53 90 60c0 0 3 1 5 2s4 3 4 3c16 18 26 26 26 45c0 47 -75 111 -75 150c0 18 13 87 32 131c0 0 4 11 -3 19
c-8 9 -18 6 -18 6c-91 -21 -145 -88 -145 -136c0 -19 13 -48 39 -48c22 0 43 28 43 59c0 8 18 8 18 0c0 -63 -41 -125 -83 -125c-41 0 -61 44 -61 78c0 82 90 197 251 197c108 0 166 -82 166 -144c0 -30 -17 -67 -52 -67s-68 49 -87 90c-3 7 13 14 16 7c8 -18 28 -32 46 -32
c21 0 32 18 32 36c0 38 -42 90 -116 92c0 0 -5 0 -10 -3z" />
    <glyph glyph-name="pedal.d" unicode="&#xe17f;" horiz-adv-x="333" 
d="M3 438c142 -25 306 -134 330 -272c1 -8 2 -16 2 -24c0 -70 -50 -142 -113 -142c-62 0 -111 76 -111 143c0 49 36 99 80 127c0 0 7 5 8 13s-4 14 -4 14c-51 63 -122 110 -195 123c-3 1 -4 4 -4 7c0 5 2 11 6 11h1zM216 256c-9 1 -15 -5 -15 -5c-25 -26 -37 -71 -37 -108
c0 -48 17 -108 58 -108c32 0 45 39 45 81c0 53 -14 94 -37 132c0 0 -5 7 -14 8z" />
    <glyph glyph-name="pedal.e" unicode="&#xe180;" horiz-adv-x="200" 
d="M73 1c-35 0 -49 37 -59 73c0 0 0 4 -3 7c-2 3 -6 5 -6 5c-4 2 -7 6 -7 10c0 1 1 3 2 4c0 0 2 4 3 8s0 8 0 8c-3 14 -4 23 -4 39c0 60 32 132 96 132c25 0 49 -17 49 -45c0 -37 -43 -80 -79 -110c0 0 -4 -4 -5 -10c-1 -5 2 -12 2 -12c11 -20 25 -42 36 -53c0 0 5 -4 11 -5
s11 3 11 3c10 5 61 43 69 52c4 4 13 -4 13 -10c0 -1 -1 -3 -2 -4c-12 -13 -83 -73 -97 -83c-8 -6 -19 -9 -30 -9zM76 254c-30 0 -44 -27 -44 -55c0 -11 2 -22 5 -33c0 0 2 -10 13 -13c9 -3 17 4 17 4c22 20 43 43 43 65c0 19 -16 32 -34 32z" />
    <glyph glyph-name="pedal.Ped" unicode="&#xe181;" horiz-adv-x="798" 
d="M660 297c-51 63 -122 110 -195 123c-8 1 -5 19 3 18c142 -25 305 -134 329 -272c1 -8 3 -16 3 -24c0 -70 -50 -142 -113 -142c-36 0 -69 27 -89 62c-5 9 -19 12 -28 4c-25 -22 -57 -50 -67 -56c-8 -6 -19 -9 -30 -9c-31 0 -45 29 -55 60c-4 13 -18 16 -28 8
c-30 -24 -72 -58 -85 -65c-6 -3 -12 -4 -17 0c-15 12 -24 58 -40 83c-7 10 -21 10 -28 1c-20 -24 -37 -44 -45 -52c-12 -12 -47 -36 -64 -36c-7 0 -14 5 -14 12c0 13 21 38 30 47c17 18 61 53 90 60c4 1 7 3 9 5c16 18 26 26 26 45c0 47 -75 111 -75 150c0 19 18 89 34 133
c5 14 -8 27 -21 24c-93 -21 -147 -89 -147 -137c0 -19 13 -48 39 -48c22 0 43 28 43 59c0 8 18 8 18 0c0 -63 -41 -125 -83 -125c-41 0 -61 44 -61 78c0 82 90 197 251 197c108 0 166 -82 166 -144c0 -30 -17 -67 -52 -67s-68 49 -87 90c-3 7 13 14 16 7
c8 -18 28 -32 46 -32c21 0 32 18 32 36c0 39 -46 92 -116 92c-7 0 -14 -5 -17 -12c-10 -28 -21 -81 -21 -96c0 -46 87 -114 87 -164c0 -19 -18 -41 -40 -68c-7 -9 -5 -24 8 -28c28 -9 62 -26 76 -38c10 -9 35 12 49 24c5 5 7 12 6 17c-3 13 -4 23 -4 38c0 60 32 132 96 132
c25 0 49 -17 49 -45c0 -37 -43 -80 -79 -110c-6 -5 -8 -15 -4 -22c12 -22 28 -46 40 -56c4 -4 13 -3 18 0c8 4 36 25 54 40c6 5 7 11 6 17c-2 11 -3 21 -3 32c0 49 35 99 79 127c9 6 12 18 5 27zM466 157c22 20 43 43 43 65c0 19 -16 32 -34 32c-30 0 -43 -27 -43 -55
c0 -11 2 -23 5 -34c3 -13 19 -17 29 -8zM665 251c-25 -26 -37 -71 -37 -108c0 -48 18 -108 59 -108c32 0 45 39 45 81c0 53 -15 94 -38 132c-6 11 -21 12 -29 3z" />
    <glyph glyph-name="brackettips.up" unicode="&#xe182;" horiz-adv-x="474" 
d="M450 333c9 0 16 -8 16 -16c0 -3 -1 -6 -3 -9c-99 -144 -215 -364 -388 -364h-75v87c0 14 11 25 25 25h50c159 0 271 136 362 270c3 4 8 7 13 7z" />
    <glyph glyph-name="brackettips.down" unicode="&#xe183;" horiz-adv-x="474" 
d="M466 -317c0 -8 -7 -16 -16 -16c-5 0 -10 3 -13 7c-91 134 -203 270 -362 270h-50c-14 0 -25 11 -25 25v87h75c173 0 289 -220 388 -364c2 -3 3 -6 3 -9z" />
    <glyph glyph-name="accordion.discant" unicode="&#xe184;" horiz-adv-x="391" 
d="M391 375c0 -214 -176 -386 -391 -386s-391 172 -391 386s176 386 391 386s391 -172 391 -386zM341 261c12 36 18 74 18 114s-6 78 -18 114h-682c-12 -36 -18 -74 -18 -114s6 -78 18 -114h682zM333 239h-666c53 -133 182 -228 333 -228s280 95 333 228zM-333 511h666
c-53 133 -182 228 -333 228s-280 -95 -333 -228z" />
    <glyph glyph-name="accordion.dot" unicode="&#xe185;" horiz-adv-x="62" 
d="M-62 0c0 35 27 62 62 62s62 -27 62 -62s-27 -62 -62 -62s-62 27 -62 62z" />
    <glyph glyph-name="accordion.freebass" unicode="&#xe186;" horiz-adv-x="266" 
d="M266 250c0 -145 -120 -261 -266 -261s-266 116 -266 261s120 261 266 261s266 -116 266 -261zM233 239h-466c6 -126 107 -228 233 -228s227 102 233 228zM-233 261h466c-6 126 -107 228 -233 228s-227 -102 -233 -228z" />
    <glyph glyph-name="accordion.stdbass" unicode="&#xe187;" horiz-adv-x="516" 
d="M516 500c0 -283 -232 -511 -516 -511s-516 228 -516 511s232 511 516 511s516 -228 516 -511zM484 489h-968c2 -82 25 -160 62 -228h844c37 68 60 146 62 228zM409 239h-818c86 -136 237 -228 409 -228s323 92 409 228zM-484 511h968c-2 82 -25 160 -62 228h-844
c-37 -68 -60 -146 -62 -228zM-409 761h818c-86 136 -237 228 -409 228s-323 -92 -409 -228z" />
    <glyph glyph-name="accordion.bayanbass" unicode="&#xe188;" horiz-adv-x="266" 
d="M250 782c9 0 16 -7 16 -16v-750c0 -9 -7 -16 -16 -16h-500c-9 0 -16 7 -16 16v750c0 9 7 16 16 16h500zM234 32v218h-468v-218h468zM234 282v218h-468v-218h468zM234 532v218h-468v-218h468z" />
    <glyph glyph-name="accordion.oldEE" unicode="&#xe189;" horiz-adv-x="266" 
d="M234 261c0 131 -104 239 -234 239s-234 -108 -234 -239s104 -238 234 -238s234 107 234 238zM266 261c0 -145 -120 -261 -266 -261s-266 116 -266 261s120 262 266 262s266 -117 266 -262zM59 367c0 26 21 48 47 48s48 -22 48 -48s-22 -47 -48 -47c-6 0 -12 1 -17 3
l-55 -46c0 -1 1 -2 1 -3l71 6c7 17 24 29 44 29c26 0 48 -22 48 -48s-22 -47 -48 -47c-20 0 -37 12 -44 29l-71 5c0 -1 -1 -1 -1 -2l55 -47c5 2 11 4 17 4c26 0 48 -22 48 -48s-22 -47 -48 -47s-47 21 -47 47c0 6 1 13 3 18l-46 54c-1 0 -2 -1 -3 -1l6 -71
c17 -7 28 -24 28 -44c0 -26 -21 -47 -47 -47s-47 21 -47 47c0 20 11 37 28 44l6 71c-1 0 -2 1 -3 1l-46 -54c2 -5 3 -12 3 -18c0 -26 -21 -47 -47 -47s-48 21 -48 47s22 48 48 48c6 0 12 -2 17 -4l55 47c0 1 -1 1 -1 2l-71 -5c-7 -17 -24 -29 -44 -29c-26 0 -47 21 -47 47
s21 48 47 48c20 0 37 -12 44 -29l71 -6c0 1 1 2 1 3l-55 46c-5 -2 -11 -3 -17 -3c-26 0 -48 21 -48 47s22 48 48 48s47 -22 47 -48c0 -6 -1 -12 -3 -17l46 -55c1 0 2 2 3 2l-6 71c-17 7 -28 23 -28 43c0 26 21 48 47 48s47 -22 47 -48c0 -20 -11 -36 -28 -43l-6 -71
c1 0 2 -2 3 -2l46 55c-2 5 -3 11 -3 17z" />
    <glyph glyph-name="accordion.push" unicode="&#xe18a;" horiz-adv-x="0" 
d="M-230 556c0 10 8 19 19 19c6 0 11 -3 15 -8l192 -269c2 -3 4 -6 4 -10s-2 -8 -4 -11l-192 -269c-4 -5 -9 -8 -15 -8c-11 0 -19 9 -19 19c0 4 2 8 4 11l184 258l-184 257c-2 3 -4 7 -4 11z" />
    <glyph glyph-name="accordion.pull" unicode="&#xe18b;" horiz-adv-x="37" 
d="M38 19c0 -10 -9 -19 -19 -19s-19 9 -19 19v481h-174c-10 0 -18 9 -18 19v37c0 10 8 19 18 19h193c10 0 19 -9 19 -19v-537z" />
    <glyph glyph-name="ties.lyric.short" unicode="&#xe18c;" horiz-adv-x="0" 
d="M0 -183c-64 0 -128 24 -168 74c-3 3 -4 6 -4 9c0 8 8 15 16 15c4 0 8 -2 11 -6c33 -41 92 -42 145 -42s112 1 145 42c3 4 7 6 11 6c8 0 16 -7 16 -15c0 -3 -1 -6 -4 -9c-40 -50 -104 -74 -168 -74z" />
    <glyph glyph-name="ties.lyric.default" unicode="&#xe18d;" horiz-adv-x="0" 
d="M0 -189c-83 0 -166 24 -229 78c-4 3 -5 7 -5 11c0 8 7 15 15 15c3 0 7 -1 10 -4c56 -48 135 -50 209 -50s153 2 209 50c3 3 7 4 10 4c8 0 15 -7 15 -15c0 -4 -1 -8 -5 -11c-63 -54 -146 -78 -229 -78z" />
    <glyph glyph-name="noteheads.uM2" unicode="&#xe18e;" horiz-adv-x="472" 
d="M190 112c-34 0 -90 -4 -90 -31c0 -43 94 -193 146 -193c51 0 88 6 88 31c0 51 -103 193 -144 193zM421 89v774c0 17 14 25 25 25s25 -8 25 -25v-1018c0 -17 -14 -25 -25 -25s-25 8 -25 25v59c0 18 -21 23 -31 12c-29 -32 -77 -56 -142 -56c-82 0 -169 15 -216 64
c-11 12 -31 3 -31 -13v-66c0 -17 -14 -25 -25 -25s-25 8 -25 25v310c0 17 14 25 25 25s25 -8 25 -25v-55c0 -15 18 -26 31 -13c30 29 81 53 156 53c82 0 159 -22 202 -64c11 -10 31 -4 31 13z" />
    <glyph glyph-name="noteheads.dM2" unicode="&#xe18f;" horiz-adv-x="472" 
d="M190 112c-34 0 -90 -4 -90 -31c0 -43 94 -193 146 -193c51 0 88 6 88 31c0 51 -103 193 -144 193zM421 89v66c0 17 14 25 25 25s25 -8 25 -25v-310c0 -17 -14 -25 -25 -25s-25 8 -25 25v59c0 18 -21 23 -31 12c-29 -32 -77 -56 -142 -56c-82 0 -169 15 -216 64
c-11 12 -31 4 -31 -13v-774c0 -17 -14 -25 -25 -25s-25 8 -25 25v1018c0 17 14 25 25 25s25 -8 25 -25v-55c0 -15 18 -26 31 -13c30 29 81 53 156 53c82 0 159 -22 202 -64c11 -10 31 -4 31 13z" />
    <glyph glyph-name="noteheads.sM1" unicode="&#xe190;" horiz-adv-x="472" 
d="M190 112c-34 0 -90 -4 -90 -31c0 -43 94 -193 146 -193c51 0 88 6 88 31c0 51 -103 193 -144 193zM421 89v66c0 17 14 25 25 25s25 -8 25 -25v-310c0 -17 -14 -25 -25 -25s-25 8 -25 25v59c0 18 -21 23 -31 12c-29 -32 -77 -56 -142 -56c-82 0 -169 15 -216 64
c-11 12 -31 3 -31 -13v-66c0 -17 -14 -25 -25 -25s-25 8 -25 25v310c0 17 14 25 25 25s25 -8 25 -25v-55c0 -15 18 -26 31 -13c30 29 81 53 156 53c82 0 159 -22 202 -64c11 -10 31 -4 31 13z" />
    <glyph glyph-name="noteheads.sM1double" unicode="&#xe191;" horiz-adv-x="537" 
d="M190 112c-34 0 -90 -4 -90 -31c0 -43 94 -193 146 -193c51 0 88 6 88 31c0 51 -103 193 -144 193zM-68 -160c0 -11 -9 -20 -20 -20s-20 9 -20 20v320c0 11 9 20 20 20s20 -9 20 -20v-320zM534 -160c0 -11 -9 -20 -20 -20s-20 9 -20 20v320c0 11 9 20 20 20s20 -9 20 -20
v-320zM423 89v71c0 11 9 20 20 20s20 -9 20 -20v-320c0 -11 -9 -20 -20 -20s-20 9 -20 20v64c0 18 -21 23 -31 12c-29 -32 -77 -56 -142 -56c-82 0 -169 15 -216 64c-11 12 -31 3 -31 -13v-71c0 -11 -9 -20 -20 -20s-20 9 -20 20v320c0 11 9 20 20 20s20 -9 20 -20v-60
c0 -15 18 -26 31 -13c30 29 81 53 156 53c82 0 159 -22 202 -64c11 -10 31 -4 31 13z" />
    <glyph glyph-name="noteheads.s0" unicode="&#xe192;" horiz-adv-x="426" 
d="M0 15c0 50 55 125 190 125c117 0 236 -43 236 -155c0 -66 -61 -125 -176 -125c-119 0 -250 30 -250 155zM190 112c-34 0 -90 -4 -90 -31c0 -43 94 -193 146 -193c51 0 88 6 88 31c0 51 -103 193 -144 193z" />
    <glyph glyph-name="noteheads.s1" unicode="&#xe193;" horiz-adv-x="365" 
d="M265 108c-35 0 -230 -125 -230 -172c0 -32 33 -44 65 -44c35 0 230 125 230 172c0 32 -33 44 -65 44zM0 -40c0 102 101 186 226 186c51 0 139 -15 139 -106c0 -102 -101 -186 -226 -186c-51 0 -139 15 -139 106z" />
    <glyph glyph-name="noteheads.s2" unicode="&#xe194;" horiz-adv-x="347" 
d="M0 -36c0 -91 84 -110 133 -110c97 0 214 105 214 182c0 91 -84 110 -133 110c-97 0 -214 -97 -214 -182z" />
    <glyph glyph-name="noteheads.s0diamond" unicode="&#xe195;" horiz-adv-x="495" 
d="M210 75c-29 0 -26 -45 -26 -74c0 -47 25 -56 61 -67c13 -4 28 -9 40 -9c29 0 26 45 26 74c0 47 -25 56 -61 67c-13 4 -28 9 -40 9zM495 0c0 -58 -80 -43 -125 -68c-42 -23 -73 -70 -122 -70s-81 47 -123 70c-45 25 -125 10 -125 68s80 43 125 68c42 23 74 70 123 70
s80 -47 122 -70c45 -25 125 -10 125 -68z" />
    <glyph glyph-name="noteheads.s1diamond" unicode="&#xe196;" horiz-adv-x="364" 
d="M292 55c0 17 -14 26 -29 26c-4 0 -8 -1 -12 -2c-25 -8 -60 -30 -89 -49s-64 -41 -81 -61c-6 -7 -9 -16 -9 -24c0 -17 14 -26 29 -26c4 0 8 1 12 2c25 8 60 30 89 49s64 41 81 61c6 7 9 16 9 24zM323 138c18 0 41 -17 41 -41c0 -28 -32 -55 -42 -86
c-12 -37 3 -85 -31 -108c-16 -11 -34 -14 -52 -14c-25 0 -52 6 -78 6c-44 0 -84 -32 -120 -32c-18 0 -41 16 -41 40c0 28 32 55 42 86c12 37 -3 85 31 108c16 11 34 14 52 14c25 0 52 -6 78 -6c44 0 84 33 120 33z" />
    <glyph glyph-name="noteheads.s2diamond" unicode="&#xe197;" horiz-adv-x="368" 
d="M331 138c19 0 38 -19 38 -39c0 -37 -63 -63 -86 -102c-25 -42 -33 -96 -74 -125c-9 -6 -19 -9 -29 -9c-23 0 -48 12 -73 12c-23 0 -49 -13 -70 -13c-19 0 -37 19 -37 39c0 37 63 63 86 102c25 42 33 96 74 125c9 6 18 9 28 9c23 0 48 -12 73 -12c23 0 49 13 70 13z" />
    <glyph glyph-name="noteheads.s0triangle" unicode="&#xe198;" horiz-adv-x="578" 
d="M131 83c27 -49 46 -106 46 -176c0 -6 -1 -11 -1 -17c63 53 137 98 220 129c-95 12 -184 34 -265 64zM0 160c0 16 23 23 43 23c3 0 5 0 7 -1c134 -71 296 -121 487 -121h6c18 0 36 -9 36 -24c0 -17 -19 -22 -36 -26c-158 -39 -291 -121 -390 -225c-4 -4 -10 -5 -15 -5
c-21 0 -45 6 -45 23c0 4 2 8 3 12c5 26 7 51 7 77c0 104 -35 181 -87 244c-6 7 -16 12 -16 23z" />
    <glyph glyph-name="noteheads.d1triangle" unicode="&#xe199;" horiz-adv-x="418" 
d="M102 69c19 -45 31 -96 31 -156c41 41 91 76 145 103c-64 11 -123 29 -176 53zM0 142c0 15 15 23 32 23c5 0 9 0 13 -3c86 -58 206 -110 343 -105h1c15 0 29 -10 29 -24s-12 -22 -25 -26c-114 -35 -210 -106 -274 -195c-5 -7 -13 -9 -21 -9c-17 0 -32 9 -32 24
c0 3 1 5 1 8c4 24 7 47 7 71c0 91 -27 158 -67 218c-4 5 -7 11 -7 18z" />
    <glyph glyph-name="noteheads.u1triangle" unicode="&#xe19a;" horiz-adv-x="418" 
d="M102 69c19 -45 31 -96 31 -156c41 41 91 76 145 103c-64 11 -123 29 -176 53zM0 142c0 15 15 23 32 23c5 0 9 0 13 -3c86 -58 206 -110 343 -105h1c15 0 29 -10 29 -24s-12 -22 -25 -26c-114 -35 -210 -106 -274 -195c-5 -7 -13 -9 -21 -9c-17 0 -32 9 -32 24
c0 3 1 5 1 8c4 24 7 47 7 71c0 91 -27 158 -67 218c-4 5 -7 11 -7 18z" />
    <glyph glyph-name="noteheads.u2triangle" unicode="&#xe19b;" horiz-adv-x="348" 
d="M55 -173c0 26 7 53 7 80c0 90 -22 157 -58 221c-10 17 2 37 21 37c6 0 11 -2 16 -6c69 -57 166 -102 283 -102c13 0 24 -12 24 -25c0 -11 -8 -20 -18 -24c-98 -37 -178 -106 -228 -192c-5 -8 -13 -13 -22 -13c-14 0 -25 10 -25 24z" />
    <glyph glyph-name="noteheads.d2triangle" unicode="&#xe19c;" horiz-adv-x="348" 
d="M55 -173c0 26 7 53 7 80c0 90 -22 157 -58 221c-10 17 2 37 21 37c6 0 11 -2 16 -6c69 -57 166 -102 283 -102c13 0 24 -12 24 -25c0 -11 -8 -20 -18 -24c-98 -37 -178 -106 -228 -192c-5 -8 -13 -13 -22 -13c-14 0 -25 10 -25 24z" />
    <glyph glyph-name="noteheads.s0slash" unicode="&#xe19d;" horiz-adv-x="753" 
d="M117 -193h284l236 386h-285zM10 -263c-6 0 -10 6 -10 11c0 2 0 3 1 5l309 505c2 3 6 5 9 5h425c6 0 10 -6 10 -11c0 -2 -1 -3 -2 -5l-308 -505c-2 -3 -6 -5 -9 -5h-425z" />
    <glyph glyph-name="noteheads.s1slash" unicode="&#xe19e;" horiz-adv-x="586" 
d="M117 -193h117l235 386h-117zM10 -263c-6 0 -10 6 -10 11c0 2 0 3 1 5l309 505c2 3 6 5 9 5h257c6 0 10 -6 10 -11c0 -2 0 -3 -1 -5l-309 -505c-2 -3 -6 -5 -9 -5h-257z" />
    <glyph glyph-name="noteheads.s2slash" unicode="&#xe19f;" horiz-adv-x="428" 
d="M10 -263c-6 0 -10 6 -10 11c0 2 0 3 1 5l309 505c2 3 6 5 9 5h100c6 0 10 -6 10 -11c0 -2 -1 -3 -2 -5l-308 -505c-2 -3 -6 -5 -9 -5h-100z" />
    <glyph glyph-name="noteheads.s0cross" unicode="&#xe1a0;" horiz-adv-x="429" 
d="M223 44c-2 -2 -5 -2 -8 -2s-7 0 -9 2l-107 73l-57 -39l97 -66c4 -3 7 -7 7 -12s-3 -9 -7 -12l-97 -66l57 -39l107 73c2 2 6 2 9 2s6 0 8 -2l107 -73l57 39l-97 66c-4 3 -7 7 -7 12s3 9 7 12l97 66l-57 39zM215 75l107 72c2 2 5 3 8 3s7 -1 9 -3l83 -56c4 -3 7 -8 7 -13
s-3 -9 -7 -12l-97 -66l97 -66c4 -3 7 -7 7 -12s-3 -10 -7 -13l-83 -56c-2 -2 -6 -3 -9 -3s-6 1 -8 3l-107 72l-108 -72c-2 -2 -5 -3 -8 -3s-7 1 -9 3l-83 56c-4 3 -7 8 -7 13s3 9 7 12l97 66l-97 66c-4 3 -7 7 -7 12s3 10 7 13l83 56c2 2 6 3 9 3s6 -1 8 -3z" />
    <glyph glyph-name="noteheads.s1cross" unicode="&#xe1a1;" horiz-adv-x="379" 
d="M198 35c-3 -2 -5 -3 -8 -3s-6 1 -9 3l-103 75l-38 -28l95 -70c4 -3 6 -7 6 -12s-2 -9 -6 -12l-95 -70l38 -28l103 75c3 2 6 3 9 3s5 -1 8 -3l103 -75l38 28l-95 70c-4 3 -6 7 -6 12s2 9 6 12l95 70l-38 28zM190 65l102 76c3 2 6 3 9 3s6 -1 9 -3l63 -47c4 -3 6 -7 6 -12
s-2 -9 -6 -12l-95 -70l95 -70c4 -3 6 -7 6 -12s-2 -9 -6 -12l-63 -47c-3 -2 -6 -3 -9 -3s-6 1 -9 3l-102 76l-103 -76c-3 -2 -6 -3 -9 -3s-6 1 -9 3l-63 47c-4 3 -6 7 -6 12s2 9 6 12l95 70l-95 70c-4 3 -6 7 -6 12s2 9 6 12l63 47c3 2 6 3 9 3s6 -1 9 -3z" />
    <glyph glyph-name="noteheads.s2cross" unicode="&#xe1a2;" horiz-adv-x="329" 
d="M165 36l120 98c3 2 6 4 9 4s7 -2 10 -4l20 -16c3 -3 5 -8 5 -12s-2 -8 -5 -11l-116 -95l116 -95c3 -3 5 -7 5 -11s-2 -9 -5 -12l-20 -16c-3 -2 -7 -4 -10 -4s-6 2 -9 4l-120 98l-121 -98c-3 -2 -6 -4 -9 -4s-7 2 -10 4l-20 16c-3 3 -5 8 -5 12s2 8 5 11l116 95l-116 95
c-3 3 -5 7 -5 11s2 9 5 12l20 16c3 2 7 4 10 4s6 -2 9 -4z" />
    <glyph glyph-name="noteheads.s2xcircle" unicode="&#xe1a3;" horiz-adv-x="391" 
d="M196 173c101 0 195 -74 195 -173s-94 -173 -195 -173s-196 74 -196 173s95 173 196 173zM168 0l-97 85c-22 -24 -35 -54 -35 -85s13 -61 35 -85zM196 24l96 84c-28 18 -61 28 -96 28s-69 -10 -97 -28zM196 -24l-97 -84c28 -18 62 -28 97 -28s68 10 96 28zM223 0l98 -85
c22 24 34 54 34 85s-12 61 -34 85z" />
    <glyph glyph-name="noteheads.s0do" unicode="&#xe1a4;" horiz-adv-x="329" 
d="M97 -47h158l-79 102zM16 -112c-9 0 -16 7 -16 16c0 4 1 7 3 10l149 192c3 4 8 6 13 6s9 -2 12 -6l149 -192c2 -3 3 -6 3 -10c0 -9 -7 -16 -16 -16h-297z" />
    <glyph glyph-name="noteheads.d1do" unicode="&#xe1a5;" horiz-adv-x="329" 
d="M97 -47h158l-79 102zM16 -112c-9 0 -16 7 -16 16c0 4 1 7 3 10l149 192c3 4 8 6 13 6s9 -2 12 -6l149 -192c2 -3 3 -6 3 -10c0 -9 -7 -16 -16 -16h-297z" />
    <glyph glyph-name="noteheads.u1do" unicode="&#xe1a6;" horiz-adv-x="329" 
d="M97 -47h158l-79 102zM16 -112c-9 0 -16 7 -16 16c0 4 1 7 3 10l149 192c3 4 8 6 13 6s9 -2 12 -6l149 -192c2 -3 3 -6 3 -10c0 -9 -7 -16 -16 -16h-297z" />
    <glyph glyph-name="noteheads.d2do" unicode="&#xe1a7;" horiz-adv-x="329" 
d="M16 -112c-9 0 -16 7 -16 16c0 4 1 7 3 10l149 192c3 4 8 6 13 6s9 -2 12 -6l149 -192c2 -3 3 -6 3 -10c0 -9 -7 -16 -16 -16h-297z" />
    <glyph glyph-name="noteheads.u2do" unicode="&#xe1a8;" horiz-adv-x="329" 
d="M16 -112c-9 0 -16 7 -16 16c0 4 1 7 3 10l149 192c3 4 8 6 13 6s9 -2 12 -6l149 -192c2 -3 3 -6 3 -10c0 -9 -7 -16 -16 -16h-297z" />
    <glyph glyph-name="noteheads.s0doThin" unicode="&#xe1a9;" horiz-adv-x="329" 
d="M49 -80h231l-115 150zM16 -112c-9 0 -16 7 -16 16c0 4 1 7 3 10l149 192c3 4 8 6 13 6s9 -2 12 -6l149 -192c2 -3 3 -6 3 -10c0 -9 -7 -16 -16 -16h-297z" />
    <glyph glyph-name="noteheads.d1doThin" unicode="&#xe1aa;" horiz-adv-x="329" 
d="M49 -80h231l-115 150zM16 -112c-9 0 -16 7 -16 16c0 4 1 7 3 10l149 192c3 4 8 6 13 6s9 -2 12 -6l149 -192c2 -3 3 -6 3 -10c0 -9 -7 -16 -16 -16h-297z" />
    <glyph glyph-name="noteheads.u1doThin" unicode="&#xe1ab;" horiz-adv-x="329" 
d="M49 -80h231l-115 150zM16 -112c-9 0 -16 7 -16 16c0 4 1 7 3 10l149 192c3 4 8 6 13 6s9 -2 12 -6l149 -192c2 -3 3 -6 3 -10c0 -9 -7 -16 -16 -16h-297z" />
    <glyph glyph-name="noteheads.d2doThin" unicode="&#xe1ac;" horiz-adv-x="329" 
d="M16 -112c-9 0 -16 7 -16 16c0 4 1 7 3 10l149 192c3 4 8 6 13 6s9 -2 12 -6l149 -192c2 -3 3 -6 3 -10c0 -9 -7 -16 -16 -16h-297z" />
    <glyph glyph-name="noteheads.u2doThin" unicode="&#xe1ad;" horiz-adv-x="329" 
d="M16 -112c-9 0 -16 7 -16 16c0 4 1 7 3 10l149 192c3 4 8 6 13 6s9 -2 12 -6l149 -192c2 -3 3 -6 3 -10c0 -9 -7 -16 -16 -16h-297z" />
    <glyph glyph-name="noteheads.s0re" unicode="&#xe1ae;" horiz-adv-x="329" 
d="M33 47v-9c0 -55 68 -69 132 -69s132 14 132 69v9h-264zM0 96c0 9 7 16 16 16h297c9 0 16 -7 16 -16v-58c0 -86 -75 -150 -164 -150s-165 64 -165 150v58z" />
    <glyph glyph-name="noteheads.u1re" unicode="&#xe1af;" horiz-adv-x="329" 
d="M33 47v-9c0 -55 68 -69 132 -69s132 14 132 69v9h-264zM0 96c0 9 7 16 16 16h297c9 0 16 -7 16 -16v-58c0 -86 -75 -150 -164 -150s-165 64 -165 150v58z" />
    <glyph glyph-name="noteheads.d1re" unicode="&#xe1b0;" horiz-adv-x="329" 
d="M33 47v-9c0 -55 68 -69 132 -69s132 14 132 69v9h-264zM0 96c0 9 7 16 16 16h297c9 0 16 -7 16 -16v-58c0 -86 -75 -150 -164 -150s-165 64 -165 150v58z" />
    <glyph glyph-name="noteheads.u2re" unicode="&#xe1b1;" horiz-adv-x="329" 
d="M0 96c0 9 7 16 16 16h297c9 0 16 -7 16 -16v-58c0 -86 -75 -150 -164 -150s-165 64 -165 150v58z" />
    <glyph glyph-name="noteheads.d2re" unicode="&#xe1b2;" horiz-adv-x="329" 
d="M0 96c0 9 7 16 16 16h297c9 0 16 -7 16 -16v-58c0 -86 -75 -150 -164 -150s-165 64 -165 150v58z" />
    <glyph glyph-name="noteheads.s0reThin" unicode="&#xe1b3;" horiz-adv-x="329" 
d="M33 80v-42c0 -63 64 -102 132 -102s132 39 132 102v42h-264zM0 96c0 9 7 16 16 16h297c9 0 16 -7 16 -16v-58c0 -86 -75 -150 -164 -150s-165 64 -165 150v58z" />
    <glyph glyph-name="noteheads.u1reThin" unicode="&#xe1b4;" horiz-adv-x="329" 
d="M33 80v-42c0 -63 64 -102 132 -102s132 39 132 102v42h-264zM0 96c0 9 7 16 16 16h297c9 0 16 -7 16 -16v-58c0 -86 -75 -150 -164 -150s-165 64 -165 150v58z" />
    <glyph glyph-name="noteheads.d1reThin" unicode="&#xe1b5;" horiz-adv-x="329" 
d="M33 80v-42c0 -63 64 -102 132 -102s132 39 132 102v42h-264zM0 96c0 9 7 16 16 16h297c9 0 16 -7 16 -16v-58c0 -86 -75 -150 -164 -150s-165 64 -165 150v58z" />
    <glyph glyph-name="noteheads.u2reThin" unicode="&#xe1b6;" horiz-adv-x="329" 
d="M0 96c0 9 7 16 16 16h297c9 0 16 -7 16 -16v-58c0 -86 -75 -150 -164 -150s-165 64 -165 150v58z" />
    <glyph glyph-name="noteheads.d2reThin" unicode="&#xe1b7;" horiz-adv-x="329" 
d="M0 96c0 9 7 16 16 16h297c9 0 16 -7 16 -16v-58c0 -86 -75 -150 -164 -150s-165 64 -165 150v58z" />
    <glyph glyph-name="noteheads.s0mi" unicode="&#xe1b8;" horiz-adv-x="394" 
d="M309 -18l-146 77l-77 -41l146 -77zM9 -14c-5 3 -9 8 -9 14s4 11 9 14l181 97c2 1 4 1 7 1s6 0 8 -1l181 -97c5 -3 9 -8 9 -14s-4 -11 -9 -14l-181 -97c-2 -1 -5 -1 -8 -1s-5 0 -7 1z" />
    <glyph glyph-name="noteheads.s1mi" unicode="&#xe1b9;" horiz-adv-x="394" 
d="M309 -18l-146 77l-77 -41l146 -77zM9 -14c-5 3 -9 8 -9 14s4 11 9 14l181 97c2 1 4 1 7 1s6 0 8 -1l181 -97c5 -3 9 -8 9 -14s-4 -11 -9 -14l-181 -97c-2 -1 -5 -1 -8 -1s-5 0 -7 1z" />
    <glyph glyph-name="noteheads.s2mi" unicode="&#xe1ba;" horiz-adv-x="394" 
d="M9 -14c-5 3 -9 8 -9 14s4 11 9 14l181 97c2 1 4 1 7 1s6 0 8 -1l181 -97c5 -3 9 -8 9 -14s-4 -11 -9 -14l-181 -97c-2 -1 -5 -1 -8 -1s-5 0 -7 1z" />
    <glyph glyph-name="noteheads.s0miMirror" unicode="&#xe1bb;" horiz-adv-x="394" 
d="M86 -18l77 -41l146 77l-77 41zM9 -14c-5 3 -9 8 -9 14s4 11 9 14l181 97c2 1 4 1 7 1s6 0 8 -1l181 -97c5 -3 9 -8 9 -14s-4 -11 -9 -14l-181 -97c-2 -1 -5 -1 -8 -1s-5 0 -7 1z" />
    <glyph glyph-name="noteheads.s1miMirror" unicode="&#xe1bc;" horiz-adv-x="394" 
d="M86 -18l77 -41l146 77l-77 41zM9 -14c-5 3 -9 8 -9 14s4 11 9 14l181 97c2 1 4 1 7 1s6 0 8 -1l181 -97c5 -3 9 -8 9 -14s-4 -11 -9 -14l-181 -97c-2 -1 -5 -1 -8 -1s-5 0 -7 1z" />
    <glyph glyph-name="noteheads.s2miMirror" unicode="&#xe1bd;" horiz-adv-x="394" 
d="M9 -14c-5 3 -9 8 -9 14s4 11 9 14l181 97c2 1 4 1 7 1s6 0 8 -1l181 -97c5 -3 9 -8 9 -14s-4 -11 -9 -14l-181 -97c-2 -1 -5 -1 -8 -1s-5 0 -7 1z" />
    <glyph glyph-name="noteheads.s0miThin" unicode="&#xe1be;" horiz-adv-x="394" 
d="M344 0l-147 78l-146 -78l146 -78zM9 -14c-5 3 -9 8 -9 14s4 11 9 14l181 97c2 1 4 1 7 1s6 0 8 -1l181 -97c5 -3 9 -8 9 -14s-4 -11 -9 -14l-181 -97c-2 -1 -5 -1 -8 -1s-5 0 -7 1z" />
    <glyph glyph-name="noteheads.s1miThin" unicode="&#xe1bf;" horiz-adv-x="394" 
d="M344 0l-147 78l-146 -78l146 -78zM9 -14c-5 3 -9 8 -9 14s4 11 9 14l181 97c2 1 4 1 7 1s6 0 8 -1l181 -97c5 -3 9 -8 9 -14s-4 -11 -9 -14l-181 -97c-2 -1 -5 -1 -8 -1s-5 0 -7 1z" />
    <glyph glyph-name="noteheads.s2miThin" unicode="&#xe1c0;" horiz-adv-x="394" 
d="M9 -14c-5 3 -9 8 -9 14s4 11 9 14l181 97c2 1 4 1 7 1s6 0 8 -1l181 -97c5 -3 9 -8 9 -14s-4 -11 -9 -14l-181 -97c-2 -1 -5 -1 -8 -1s-5 0 -7 1z" />
    <glyph glyph-name="noteheads.u0fa" unicode="&#xe1c1;" horiz-adv-x="329" 
d="M297 56h-188l188 -122v122zM0 96c0 9 7 17 16 17h297c9 0 16 -8 16 -17v-192c0 -9 -7 -16 -16 -16c-3 0 -6 0 -9 2l-297 193c-5 3 -7 7 -7 13z" />
    <glyph glyph-name="noteheads.d0fa" unicode="&#xe1c2;" horiz-adv-x="329" 
d="M33 -56h187l-187 122v-122zM329 -96c0 -9 -7 -17 -16 -17h-297c-9 0 -16 8 -16 17v192c0 9 7 16 16 16c3 0 6 0 9 -2l297 -193c5 -3 7 -7 7 -13z" />
    <glyph glyph-name="noteheads.u1fa" unicode="&#xe1c3;" horiz-adv-x="329" 
d="M297 56h-188l188 -122v122zM0 96c0 9 7 17 16 17h297c9 0 16 -8 16 -17v-192c0 -9 -7 -16 -16 -16c-3 0 -6 0 -9 2l-297 193c-5 3 -7 7 -7 13z" />
    <glyph glyph-name="noteheads.d1fa" unicode="&#xe1c4;" horiz-adv-x="329" 
d="M33 -56h187l-187 122v-122zM329 -96c0 -9 -7 -17 -16 -17h-297c-9 0 -16 8 -16 17v192c0 9 7 16 16 16c3 0 6 0 9 -2l297 -193c5 -3 7 -7 7 -13z" />
    <glyph glyph-name="noteheads.u2fa" unicode="&#xe1c5;" horiz-adv-x="329" 
d="M0 96c0 9 7 17 16 17h297c9 0 16 -8 16 -17v-192c0 -9 -7 -16 -16 -16c-3 0 -6 0 -9 2l-297 193c-5 3 -7 7 -7 13z" />
    <glyph glyph-name="noteheads.d2fa" unicode="&#xe1c6;" horiz-adv-x="329" 
d="M329 -96c0 -9 -7 -17 -16 -17h-297c-9 0 -16 8 -16 17v192c0 9 7 16 16 16c3 0 6 0 9 -2l297 -193c5 -3 7 -7 7 -13z" />
    <glyph glyph-name="noteheads.u0faThin" unicode="&#xe1c7;" horiz-adv-x="329" 
d="M297 80h-226l226 -146v146zM0 96c0 9 7 17 16 17h297c9 0 16 -8 16 -17v-192c0 -9 -7 -16 -16 -16c-3 0 -6 0 -9 2l-297 193c-5 3 -7 7 -7 13z" />
    <glyph glyph-name="noteheads.d0faThin" unicode="&#xe1c8;" horiz-adv-x="329" 
d="M33 -80h225l-225 146v-146zM329 -96c0 -9 -7 -17 -16 -17h-297c-9 0 -16 8 -16 17v192c0 9 7 16 16 16c3 0 6 0 9 -2l297 -193c5 -3 7 -7 7 -13z" />
    <glyph glyph-name="noteheads.u1faThin" unicode="&#xe1c9;" horiz-adv-x="329" 
d="M297 80h-226l226 -146v146zM0 96c0 9 7 17 16 17h297c9 0 16 -8 16 -17v-192c0 -9 -7 -16 -16 -16c-3 0 -6 0 -9 2l-297 193c-5 3 -7 7 -7 13z" />
    <glyph glyph-name="noteheads.d1faThin" unicode="&#xe1ca;" horiz-adv-x="329" 
d="M33 -80h225l-225 146v-146zM329 -96c0 -9 -7 -17 -16 -17h-297c-9 0 -16 8 -16 17v192c0 9 7 16 16 16c3 0 6 0 9 -2l297 -193c5 -3 7 -7 7 -13z" />
    <glyph glyph-name="noteheads.u2faThin" unicode="&#xe1cb;" horiz-adv-x="329" 
d="M0 96c0 9 7 17 16 17h297c9 0 16 -8 16 -17v-192c0 -9 -7 -16 -16 -16c-3 0 -6 0 -9 2l-297 193c-5 3 -7 7 -7 13z" />
    <glyph glyph-name="noteheads.d2faThin" unicode="&#xe1cc;" horiz-adv-x="329" 
d="M329 -96c0 -9 -7 -17 -16 -17h-297c-9 0 -16 8 -16 17v192c0 9 7 16 16 16c3 0 6 0 9 -2l297 -193c5 -3 7 -7 7 -13z" />
    <glyph glyph-name="noteheads.s0sol" unicode="&#xe1cd;" horiz-adv-x="365" 
d="M315 65c0 24 -21 41 -42 41c-4 0 -8 0 -12 -1c-31 -9 -77 -40 -114 -64s-84 -53 -104 -78c-7 -8 -11 -18 -11 -28c0 -24 21 -41 42 -41c4 0 8 0 12 1c31 9 78 40 115 64s84 53 104 78c7 8 10 18 10 28zM264 137c47 0 83 -21 83 -72c0 -19 -4 -37 -10 -56
c-12 -38 -32 -74 -65 -96c-54 -36 -113 -51 -188 -51c-47 0 -84 22 -84 73c0 19 5 37 11 56c12 38 31 74 64 96c54 36 114 50 189 50z" />
    <glyph glyph-name="noteheads.s1sol" unicode="&#xe1ce;" horiz-adv-x="365" 
d="M315 65c0 24 -21 41 -42 41c-4 0 -8 0 -12 -1c-31 -9 -77 -40 -114 -64s-84 -53 -104 -78c-7 -8 -11 -18 -11 -28c0 -24 21 -41 42 -41c4 0 8 0 12 1c31 9 78 40 115 64s84 53 104 78c7 8 10 18 10 28zM264 137c47 0 83 -21 83 -72c0 -19 -4 -37 -10 -56
c-12 -38 -32 -74 -65 -96c-54 -36 -113 -51 -188 -51c-47 0 -84 22 -84 73c0 19 5 37 11 56c12 38 31 74 64 96c54 36 114 50 189 50z" />
    <glyph glyph-name="noteheads.s2sol" unicode="&#xe1cf;" horiz-adv-x="365" 
d="M264 137c47 0 83 -21 83 -72c0 -19 -4 -37 -10 -56c-12 -38 -32 -74 -65 -96c-54 -36 -113 -51 -188 -51c-47 0 -84 22 -84 73c0 19 5 37 11 56c12 38 31 74 64 96c54 36 114 50 189 50z" />
    <glyph glyph-name="noteheads.s0la" unicode="&#xe1d0;" horiz-adv-x="329" 
d="M33 47v-94h264v94h-264zM16 112h297c9 0 16 -7 16 -16v-192c0 -9 -7 -17 -16 -17h-297c-9 0 -16 8 -16 17v192c0 9 7 16 16 16z" />
    <glyph glyph-name="noteheads.s1la" unicode="&#xe1d1;" horiz-adv-x="329" 
d="M33 47v-94h264v94h-264zM16 112h297c9 0 16 -7 16 -16v-192c0 -9 -7 -17 -16 -17h-297c-9 0 -16 8 -16 17v192c0 9 7 16 16 16z" />
    <glyph glyph-name="noteheads.s2la" unicode="&#xe1d2;" horiz-adv-x="329" 
d="M16 112h297c9 0 16 -7 16 -16v-192c0 -9 -7 -17 -16 -17h-297c-9 0 -16 8 -16 17v192c0 9 7 16 16 16z" />
    <glyph glyph-name="noteheads.s0laThin" unicode="&#xe1d3;" horiz-adv-x="329" 
d="M33 80v-160h264v160h-264zM16 112h297c9 0 16 -7 16 -16v-192c0 -9 -7 -17 -16 -17h-297c-9 0 -16 8 -16 17v192c0 9 7 16 16 16z" />
    <glyph glyph-name="noteheads.s1laThin" unicode="&#xe1d4;" horiz-adv-x="329" 
d="M33 80v-160h264v160h-264zM16 112h297c9 0 16 -7 16 -16v-192c0 -9 -7 -17 -16 -17h-297c-9 0 -16 8 -16 17v192c0 9 7 16 16 16z" />
    <glyph glyph-name="noteheads.s2laThin" unicode="&#xe1d5;" horiz-adv-x="329" 
d="M16 112h297c9 0 16 -7 16 -16v-192c0 -9 -7 -17 -16 -17h-297c-9 0 -16 8 -16 17v192c0 9 7 16 16 16z" />
    <glyph glyph-name="noteheads.s0ti" unicode="&#xe1d6;" horiz-adv-x="329" 
d="M165 -47l107 53c-17 44 -59 74 -107 74s-91 -30 -108 -74zM175 -109c-3 -2 -6 -3 -10 -3s-8 1 -11 3l-148 123c-4 3 -6 8 -6 13c0 4 2 7 4 10c40 48 99 75 161 75s120 -27 160 -75c2 -3 4 -6 4 -10c0 -5 -2 -10 -6 -13z" />
    <glyph glyph-name="noteheads.u1ti" unicode="&#xe1d7;" horiz-adv-x="329" 
d="M165 -47l107 53c-17 44 -59 74 -107 74s-91 -30 -108 -74zM175 -109c-3 -2 -6 -3 -10 -3s-8 1 -11 3l-148 123c-4 3 -6 8 -6 13c0 4 2 7 4 10c40 48 99 75 161 75s120 -27 160 -75c2 -3 4 -6 4 -10c0 -5 -2 -10 -6 -13z" />
    <glyph glyph-name="noteheads.d1ti" unicode="&#xe1d8;" horiz-adv-x="329" 
d="M165 -47l107 53c-17 44 -59 74 -107 74s-91 -30 -108 -74zM175 -109c-3 -2 -6 -3 -10 -3s-8 1 -11 3l-148 123c-4 3 -6 8 -6 13c0 4 2 7 4 10c40 48 99 75 161 75s120 -27 160 -75c2 -3 4 -6 4 -10c0 -5 -2 -10 -6 -13z" />
    <glyph glyph-name="noteheads.u2ti" unicode="&#xe1d9;" horiz-adv-x="329" 
d="M175 -109c-3 -2 -6 -3 -10 -3s-8 1 -11 3l-148 123c-4 3 -6 8 -6 13c0 4 2 7 4 10c40 48 99 75 161 75s120 -27 160 -75c2 -3 4 -6 4 -10c0 -5 -2 -10 -6 -13z" />
    <glyph glyph-name="noteheads.d2ti" unicode="&#xe1da;" horiz-adv-x="329" 
d="M175 -109c-3 -2 -6 -3 -10 -3s-8 1 -11 3l-148 123c-4 3 -6 8 -6 13c0 4 2 7 4 10c40 48 99 75 161 75s120 -27 160 -75c2 -3 4 -6 4 -10c0 -5 -2 -10 -6 -13z" />
    <glyph glyph-name="noteheads.s0tiThin" unicode="&#xe1db;" horiz-adv-x="329" 
d="M165 -80l135 97c-34 40 -83 63 -135 63s-102 -23 -136 -63zM175 -109c-3 -2 -6 -3 -10 -3s-8 1 -11 3l-148 123c-4 3 -6 8 -6 13c0 4 2 7 4 10c40 48 99 75 161 75s120 -27 160 -75c2 -3 4 -6 4 -10c0 -5 -2 -10 -6 -13z" />
    <glyph glyph-name="noteheads.u1tiThin" unicode="&#xe1dc;" horiz-adv-x="329" 
d="M165 -80l135 97c-34 40 -83 63 -135 63s-102 -23 -136 -63zM175 -109c-3 -2 -6 -3 -10 -3s-8 1 -11 3l-148 123c-4 3 -6 8 -6 13c0 4 2 7 4 10c40 48 99 75 161 75s120 -27 160 -75c2 -3 4 -6 4 -10c0 -5 -2 -10 -6 -13z" />
    <glyph glyph-name="noteheads.d1tiThin" unicode="&#xe1dd;" horiz-adv-x="329" 
d="M165 -80l135 97c-34 40 -83 63 -135 63s-102 -23 -136 -63zM175 -109c-3 -2 -6 -3 -10 -3s-8 1 -11 3l-148 123c-4 3 -6 8 -6 13c0 4 2 7 4 10c40 48 99 75 161 75s120 -27 160 -75c2 -3 4 -6 4 -10c0 -5 -2 -10 -6 -13z" />
    <glyph glyph-name="noteheads.u2tiThin" unicode="&#xe1de;" horiz-adv-x="329" 
d="M175 -109c-3 -2 -6 -3 -10 -3s-8 1 -11 3l-148 123c-4 3 -6 8 -6 13c0 4 2 7 4 10c40 48 99 75 161 75s120 -27 160 -75c2 -3 4 -6 4 -10c0 -5 -2 -10 -6 -13z" />
    <glyph glyph-name="noteheads.d2tiThin" unicode="&#xe1df;" horiz-adv-x="329" 
d="M175 -109c-3 -2 -6 -3 -10 -3s-8 1 -11 3l-148 123c-4 3 -6 8 -6 13c0 4 2 7 4 10c40 48 99 75 161 75s120 -27 160 -75c2 -3 4 -6 4 -10c0 -5 -2 -10 -6 -13z" />
    <glyph glyph-name="noteheads.u0doFunk" unicode="&#xe1e0;" 
d="M33 57v-114c82 0 181 0 181 57s-99 57 -181 57zM16 112c110 0 231 -18 231 -112s-121 -113 -231 -113c-9 0 -16 8 -16 17v192c0 9 7 16 16 16z" />
    <glyph glyph-name="noteheads.d0doFunk" unicode="&#xe1e1;" 
d="M214 -57v114c-82 0 -181 0 -181 -57s99 -57 181 -57zM231 -112c-110 0 -231 18 -231 112s121 113 231 113c9 0 16 -8 16 -17v-192c0 -9 -7 -16 -16 -16z" />
    <glyph glyph-name="noteheads.u1doFunk" unicode="&#xe1e2;" 
d="M33 57v-114c82 0 181 0 181 57s-99 57 -181 57zM16 112c110 0 231 -18 231 -112s-121 -113 -231 -113c-9 0 -16 8 -16 17v192c0 9 7 16 16 16z" />
    <glyph glyph-name="noteheads.d1doFunk" unicode="&#xe1e3;" 
d="M214 -57v114c-82 0 -181 0 -181 -57s99 -57 181 -57zM231 -112c-110 0 -231 18 -231 112s121 113 231 113c9 0 16 -8 16 -17v-192c0 -9 -7 -16 -16 -16z" />
    <glyph glyph-name="noteheads.u2doFunk" unicode="&#xe1e4;" 
d="M16 112c110 0 231 -18 231 -112s-121 -113 -231 -113c-9 0 -16 8 -16 17v192c0 9 7 16 16 16z" />
    <glyph glyph-name="noteheads.d2doFunk" unicode="&#xe1e5;" 
d="M231 -112c-110 0 -231 18 -231 112s121 113 231 113c9 0 16 -8 16 -17v-192c0 -9 -7 -16 -16 -16z" />
    <glyph glyph-name="noteheads.u0reFunk" unicode="&#xe1e6;" 
d="M180 0l-130 44c3 -14 4 -29 4 -44s-1 -30 -4 -44zM237 15c6 -3 10 -9 10 -15s-4 -12 -10 -15l-214 -96c-2 -1 -5 -1 -7 -1c-9 0 -16 7 -16 16c0 2 1 5 2 7c10 29 19 58 19 89s-9 60 -19 89c-1 2 -2 5 -2 7c0 9 7 16 16 16c2 0 5 0 7 -1z" />
    </font>
</defs>
</svg>
