<?xml version="1.0" standalone="no"?>
<!DOCTYPE svg PUBLIC "-//W3C//DTD SVG 1.1//EN" "http://www.w3.org/Graphics/SVG/1.1/DTD/svg11.dtd" >
<!--
This size was designed for 20pt staff size.
-->
<svg>
<metadata>
Created by FontForge 20120731 at Thu Jul 17 23:14:23 2014
 By root
Copyright (C) Abraham Lee 2014
</metadata>
<defs>
<font id="amadeus-14" horiz-adv-x="329" >
  <font-face 
    font-family="amadeus-14"
    font-weight="500"
    font-stretch="normal"
    units-per-em="1000"
    panose-1="2 0 6 3 0 0 0 0 0 0"
    ascent="800"
    descent="-200"
    x-height="250"
    bbox="-516 -1530.15 1300 1397.64"
    underline-thickness="50"
    underline-position="-100"
    stemh="88"
    stemv="33"
    unicode-range="U+0020-E31F"
  />
<missing-glyph horiz-adv-x="500" 
d="M50 0v533h400v-533h-400zM100 50h300v433h-300v-433z" />
    <glyph glyph-name=".notdef" horiz-adv-x="500" 
d="M50 0v533h400v-533h-400zM100 50h300v433h-300v-433z" />
    <glyph glyph-name="rests.0" unicode="&#xe100;" horiz-adv-x="339" 
d="M0 0h339v-125h-339v125z" />
    <glyph glyph-name="rests.1" unicode="&#xe101;" horiz-adv-x="339" 
d="M0 125h339v-125h-339v125z" />
    <glyph glyph-name="rests.0o" unicode="&#xe102;" horiz-adv-x="339" 
d="M0 -25h-131c-13.617 0 -25 11.3829 -25 25s11.383 25 25 25h601c13.617 0 25 -11.3829 25 -25s-11.383 -25 -25 -25h-131v-101h-339v101z" />
    <glyph glyph-name="rests.1o" unicode="&#xe103;" horiz-adv-x="339" 
d="M0 25v101h339v-101h131c13.617 0 25 -11.3828 25 -25s-11.383 -25 -25 -25h-601c-13.617 0 -25 11.3828 -25 25s11.383 25 25 25h131z" />
    <glyph glyph-name="rests.M3" unicode="&#xe104;" horiz-adv-x="450" 
d="M0 -250v500h125v-500h-125zM325 -250v500h125v-500h-125z" />
    <glyph glyph-name="rests.M2" unicode="&#xe105;" horiz-adv-x="125" 
d="M0 -250v500h125v-500h-125z" />
    <glyph glyph-name="rests.M1" unicode="&#xe106;" horiz-adv-x="125" 
d="M0 0v250h125v-250h-125z" />
    <glyph glyph-name="rests.M1o" unicode="&#xe107;" horiz-adv-x="339" 
d="M0 0v250h339v-250h-339z" />
    <glyph glyph-name="rests.2" unicode="&#xe108;" horiz-adv-x="218" 
d="M17 373c-7 10 20 30 27 20l158 -220c6 -8 5.256 -18 0 -27l-90 -134c-9.829 -13.0001 -9 -28 0 -39l112 -140c-3.96001 -12.394 -13.8 -20.468 -23 -25c-20.087 15.327 -40 32 -68 32c-30 0 -51 -26 -51 -51c0 -39 30 -72 46 -103c-3.334 -13.001 -12 -18.665 -26 -17
c-32 44 -108 111 -108 177c0 42 32 96 106 90l-104 129c-7 9 -6 24 0 33l94 141c6.5391 8.483 10.666 17.857 4 29z" />
    <glyph glyph-name="rests.2classical" unicode="&#xe109;" horiz-adv-x="250" 
d="M52 97l107 -340l-27 -8l-141 449c-3 10 19 18 23 11c49 -80 82 -129 133 -134c-14 13 -20 31 -20 51c0 39 29.9883 67 72 67c46.0107 0 70 -25 70 -69c0 -58 -55 -79 -107 -79c-50.0098 0 -83 25 -110 52z" />
    <glyph glyph-name="rests.3" unicode="&#xe10a;" horiz-adv-x="250" 
d="M208 97l-107 -340l27 -8l141 449c3 10 -19 18 -23 11c-49 -80 -82 -129 -133 -134c14 13 20 31 20 51c0 39 -29.988 67 -72 67c-46.0107 0 -70 -25 -70 -69c0 -58 55 -79 107 -79c50.01 0 83 25 110 52z" />
    <glyph glyph-name="rests.4" unicode="&#xe10b;" horiz-adv-x="341" 
d="M191 -160l-110 -336l33 -11l227 703c4 12 -24.267 22.172 -30 13c-55 -88 -78 -130 -130 -130c15 15 21.482 24 21 44c-1 41 -29.989 73 -75 73c-50 0 -77 -31 -77 -72c0 -55 53 -83 115 -83c55 0 85 32 106 48l-39 -129c-29 -54 -68 -124 -127 -133c11 13 18 28 18 48
c0 41 -35 72 -76 72s-76 -31 -76 -72c0 -56 51.9922 -83 116 -83c51.01 0 84 32 104 48z" />
    <glyph glyph-name="rests.5" unicode="&#xe10c;" horiz-adv-x="390" 
d="M89 -507l-33 11l110 336c-20 -16 -53 -48 -104 -48c-64 0 -116 27 -116 83c0 41 35 72 76 72s76 -31 76 -72c0 -20 -7 -35 -18 -48c59 9 98 79 127 133l39 129c-21 -16 -51 -48 -106 -48c-62 0 -115 28 -115 83c0 41 27 73 77 73c45 0 75 -33 75 -74
c0 -20 -6 -29 -21 -44c52 0 102 77 131 131l42 140c-27 -27 -60 -52 -110 -52c-52 0 -107 21 -107 79c0 44 24 70 70 70c42 0 72 -29 72 -68c0 -20 -6 -38 -20 -51c51 5 84 54 133 134c4 7 26 -1 23 -11z" />
    <glyph glyph-name="rests.6" unicode="&#xe10d;" horiz-adv-x="454" 
d="M73 -757l-33 11l110 336c-20 -16 -53 -48 -104 -48c-64 0 -116 27 -116 83c0 41 35 72 76 72s76 -31 76 -72c0 -20 -7 -35 -18 -48c59 9 98 79 127 133l39 129c-21 -16 -51 -48 -106 -48c-62 0 -115 28 -115 83c0 41 27 73 77 73c45 0 75 -33 75 -74
c0 -20 -6 -29 -21 -44c52 0 102 77 131 131l42 140c-27 -27 -60 -52 -110 -52c-52 0 -107 21 -107 79c0 44 24 70 70 70c42 0 72 -29 72 -68c0 -20 -6 -38 -20 -51c51 5 104 78 133 132l42 140c-27 -27 -60 -52 -110 -52c-52 0 -107 21 -107 79c0 44 24 70 70 70
c42 0 72 -29 72 -68c0 -20 -6 -38 -20 -51c51 5 84 54 133 134c4 7 26 -1 23 -11z" />
    <glyph glyph-name="rests.7" unicode="&#xe10e;" horiz-adv-x="534" 
d="M73 -757l-33 11l110 336c-20 -16 -53 -48 -104 -48c-64 0 -116 27 -116 83c0 41 35 72 76 72s76 -31 76 -72c0 -20 -7 -35 -18 -48c59 9 98 79 127 133l39 129c-21 -16 -51 -48 -106 -48c-62 0 -115 28 -115 83c0 41 27 73 77 73c45 0 75 -33 75 -74
c0 -20 -6 -29 -21 -44c52 0 102 77 131 131l42 140c-27 -27 -60 -52 -110 -52c-52 0 -107 21 -107 79c0 44 24 70 70 70c42 0 72 -29 72 -68c0 -20 -6 -38 -20 -51c51 5 104 78 133 132l42 140c-27 -27 -60 -52 -110 -52c-52 0 -107 21 -107 79c0 44 24 70 70 70
c42 0 72 -29 72 -68c0 -20 -6 -38 -20 -51c51 5 104 78 133 132l42 140c-27 -27 -60 -52 -110 -52c-52 0 -107 21 -107 79c0 44 24 70 70 70c42 0 72 -29 72 -68c0 -20 -6 -38 -20 -51c51 5 84 54 133 134c4 7 26 -1 23 -11z" />
    <glyph glyph-name="accidentals.sharp" unicode="&#xe10f;" horiz-adv-x="265" 
d="M167 78l-69 -21v-137l69 20v138zM256 -121l-59 -17v-140h-30v130l-69 -21v-142h-30v131l-51 -15c-13 -4 -17 3 -17 12v63c0 5 3 9 9 12l60 18v139l-52 -17c-11 -4 -17 5 -17 14v59c0 4 3 9 9 13l60 18v142h30v-133l68 21v145h30v-135l53 15c8 2 15 -6 15 -13v-59
c0 -5 -3 -10 -9 -13l-59 -19v-136l51 14c8 2 17 -4 17 -13v-60c0 -7 -3 -11 -9 -13z" />
    <glyph glyph-name="accidentals.sharp.arrowup" unicode="&#xe110;" horiz-adv-x="265" 
d="M256 -121l-59 -17v-140h-30v130l-69 -21v-142h-30v131l-51 -15c-13 -4 -17 3 -17 12v63c0 5 3 9 9 12l60 18v139l-52 -17c-11 -4 -17 5 -17 14v59c0 4 3 9 9 13l60 18v142h30v-133l68 21v145l-50 -5l66 160l64 -160l-50 5v-135l53 15c8 2 15 -6 15 -13v-59
c0 -5 -3 -10 -9 -13l-59 -19v-136l51 14c8 2 17 -4 17 -13v-60c0 -7 -3 -11 -9 -13zM167 78l-69 -21v-137l69 20v138z" />
    <glyph glyph-name="accidentals.sharp.arrowdown" unicode="&#xe111;" horiz-adv-x="265" 
d="M68 -180l-51 -15c-13 -4 -17 3 -17 12v63c0 5 3 9 9 12l60 18v139l-52 -17c-11 -4 -17 5 -17 14v59c0 4 3 9 9 13l60 18v142h30v-133l68 21v145h30v-135l53 15c8 2 15 -6 15 -13v-59c0 -5 -3 -10 -9 -13l-59 -19v-136l51 14c8 2 17 -4 17 -13v-60c0 -7 -3 -11 -9 -13
l-59 -17v-140h-30v130l-69 -21v-142l50 5l-64 -160l-66 160l50 -5v131zM167 78l-69 -21v-137l69 20v138z" />
    <glyph glyph-name="accidentals.sharp.arrowboth" unicode="&#xe112;" horiz-adv-x="265" 
d="M197 176l53 15c8 2 15 -6 15 -13v-59c0 -5 -3 -10 -9 -13l-59 -19v-136l51 14c8 2 17 -4 17 -13v-60c0 -7 -3 -11 -9 -13l-59 -17v-140h-30v130l-69 -21v-142l50 5l-64 -160l-66 160l50 -5v131l-51 -15c-13 -4 -17 3 -17 12v63c0 5 3 9 9 12l60 18v139l-52 -17
c-11 -4 -17 5 -17 14v59c0 4 3 9 9 13l60 18v142h30v-133l68 21v145l-50 -5l66 160l64 -160l-50 5v-135zM167 78l-69 -21v-137l69 20v138z" />
    <glyph glyph-name="accidentals.sharp.slashslash.stem" unicode="&#xe113;" horiz-adv-x="237" 
d="M111 150.722v147.278h15v-142.722l111 33.722v-75l-111 -33.7217v-156l111 33.7217v-75l-111 -33.722v-147.278h-15v142.722l-111 -33.722v75l111 33.7217v156l-111 -33.7217v75z" />
    <glyph glyph-name="accidentals.sharp.slashslashslash.stemstem" unicode="&#xe114;" horiz-adv-x="265" 
d="M244 -161l-47 -14v-103h-30v93l-69 -21v-105h-30v94l-39 -12c-12 -4 -16 3 -16 12v63c0 5 2 10 8 12l48 15v63l-52 -16c-11 -3 -17 5 -17 14v59c0 4 2 11 9 13l60 18v61l-40 -14c-10 -4 -16 5 -16 14v59c0 4 2 11 8 13l48 15v106h30v-97l68 21v109h30v-99l41 12
c7 2 14 -6 14 -13v-59c0 -5 -2 -11 -8 -13l-47 -16v-60l53 16c8 2 15 -6 15 -13v-59c0 -5 -3 -11 -9 -13l-59 -18v-62l39 11c7 2 16 -4 16 -13v-60c0 -7 -3 -11 -8 -13zM167 114l-69 -21v-60l69 21v60zM98 -55v-62l69 20v63z" />
    <glyph glyph-name="accidentals.sharp.slashslashslash.stem" unicode="&#xe115;" horiz-adv-x="237" 
d="M111 201v97h15v-93l88 27v-75l-88 -27v-90l111 33v-75l-111 -33v-91l88 27v-75l-88 -27v-97h-15v93l-88 -27v75l88 27v90l-111 -33v75l111 33v91l-88 -27v75z" />
    <glyph glyph-name="accidentals.sharp.slashslash.stemstemstem" unicode="&#xe116;" horiz-adv-x="295" 
d="M59 287h17v-147.359l63 17.939v149.42h17v-144.58l64 18.224v146.356h17v-141.515l48 13.668c5 0.847 10 -2.153 10 -7.153v-53c0 -7 -3.03799 -10.865 -9 -12.562l-49 -13.953v-157.563l48 13.6677c5 0.8477 10 -2.5898 10 -7.1523v-53
c0 -7 -3.03799 -10.8655 -9 -12.5625l-49 -13.953v-154.922h-17v150.082l-64 -18.224v-151.858h-17v147.017l-63 -17.939v-149.078h-17v144.237l-50 -14.237c-4.77344 -1.35899 -9 2.438 -9 7.438v53c0 7.562 4.9248 10.651 10 12.847l49 13.9526v157.562l-50 -14.2374
c-4.77344 -1.3594 -9 2.4375 -9 7.4375v53c0 8 4.92439 10.651 10 12.847l49 13.953v152.2zM220 107.644l-64 -18.2237v-157.562l64 18.2237v157.562zM139 84.5797l-63 -17.9391v-157.562l63 17.9389v157.562z" />
    <glyph glyph-name="accidentals.natural" unicode="&#xe117;" horiz-adv-x="172" 
d="M28 -67l115 50v89l-115 -51v-88zM0 318h28v-211l125 55c7 3 19 -6 19 -15v-464h-29v215l-122 -53c-8 -3 -21 -1 -21 10v463z" />
    <glyph glyph-name="accidentals.natural.arrowup" unicode="&#xe118;" horiz-adv-x="172" 
d="M28 -67l115 50v89l-115 -51v-88zM28 107l125 55c7 3 19 -6 19 -15v-464h-29v215l-122 -53c-8 -3 -21 -1 -21 10v463l-50 -5l65 160l63 -160l-50 5v-211z" />
    <glyph glyph-name="accidentals.natural.arrowdown" unicode="&#xe119;" horiz-adv-x="172" 
d="M28 -67l115 50v89l-115 -51v-88zM143 -102l-122 -53c-8 -3 -21 -1 -21 10v463h28v-211l125 55c7 3 19 -6 19 -15v-464l50 5l-63 -160l-66 160l50 -5v215z" />
    <glyph glyph-name="accidentals.natural.arrowboth" unicode="&#xe11a;" horiz-adv-x="172" 
d="M28 -67l115 50v89l-115 -51v-88zM143 -102l-122 -53c-8 -3 -21 -1 -21 10v463l-50 -5l65 160l63 -160l-50 5v-211l125 55c7 3 19 -6 19 -15v-464l50 5l-63 -160l-66 160l50 -5v215z" />
    <glyph glyph-name="accidentals.flat" unicode="&#xe11b;" horiz-adv-x="180" 
d="M15 -130c30 24 88 77 88 176c0 24 -4 52 -32 52c-40 0 -56 -46 -56 -46v-182zM-15 444h30v-342s24 45 82 45c49 0 83 -30 83 -94c0 -131 -155 -207 -168 -226c-6 -9 -27 -4 -27 6v611z" />
    <glyph glyph-name="accidentals.flat.arrowup" unicode="&#xe11c;" horiz-adv-x="180" 
d="M15 -130c30 24 88 77 88 176c0 24 -4 52 -32 52c-40 0 -56 -46 -56 -46v-182zM15 102c0 0 24 45 82 45c49 0 83 -30 83 -94c0 -131 -155 -207 -168 -226c-6 -9 -27 -4 -27 6v611l-50 -5l66 160l64 -160l-50 5v-342z" />
    <glyph glyph-name="accidentals.flat.arrowdown" unicode="&#xe11d;" horiz-adv-x="180" 
d="M15 -130c30 24 88 77 88 176c0 24 -4 52 -32 52c-40 0 -56 -46 -56 -46v-182zM-15 444h30v-342s24 45 82 45c49 0 83 -30 83 -94c0 -131 -152 -207 -165 -226v-126l50 5l-64 -160l-66 160l50 -5v743z" />
    <glyph glyph-name="accidentals.flat.arrowboth" unicode="&#xe11e;" horiz-adv-x="180" 
d="M15 -130c30 24 88 77 88 176c0 24 -4 52 -32 52c-40 0 -56 -46 -56 -46v-182zM15 102c0 0 24 45 82 45c49 0 83 -30 83 -94c0 -131 -152 -207 -165 -226v-126l50 5l-64 -160l-66 160l50 -5v743l-50 -5l66 160l64 -160l-50 5v-342z" />
    <glyph glyph-name="accidentals.flat.slash" unicode="&#xe11f;" horiz-adv-x="180" 
d="M-105 271l264 82l7 -26l-263 -82zM15 -130c30 24 88 77 88 176c0 24 -4 52 -32 52c-40 0 -56 -46 -56 -46v-182zM-15 444h30v-342s24 45 82 45c49 0 83 -30 83 -94c0 -131 -155 -207 -168 -226c-6 -9 -27 -4 -27 6v611z" />
    <glyph glyph-name="accidentals.flat.slashslash" unicode="&#xe120;" horiz-adv-x="180" 
d="M-105 192l264 82l7 -26l-263 -82zM-105 297l264 82l7 -26l-263 -82zM15 -130c30 24 88 77 88 176c0 24 -4 52 -32 52c-40 0 -56 -46 -56 -46v-182zM-15 444h30v-342s24 45 82 45c49 0 83 -30 83 -94c0 -131 -155 -207 -168 -226c-6 -9 -27 -4 -27 6v611z" />
    <glyph glyph-name="accidentals.mirroredflat.flat" unicode="&#xe121;" horiz-adv-x="415" 
d="M180 444h-30v-342s-24 45 -82 45c-49 0 -83 -30 -83 -94c0 -131 155 -207 168 -226c6 -9 27 -4 27 6v611zM250 -130c30 24 88 77 88 176c0 24 -4 52 -32 52c-40 0 -56 -46 -56 -46v-182zM220 444h30v-342s24 45 82 45c49 0 83 -30 83 -94c0 -131 -155 -207 -168 -226
c-6 -9 -27 -4 -27 6v611z" />
    <glyph glyph-name="accidentals.mirroredflat" unicode="&#xe122;" horiz-adv-x="180" 
d="M180 444h-30v-342s-24 45 -82 45c-49 0 -83 -30 -83 -94c0 -131 155 -207 168 -226c6 -9 27 -4 27 6v611z" />
    <glyph glyph-name="accidentals.mirroredflat.backslash" unicode="&#xe123;" horiz-adv-x="194" 
d="M204 271l-264 82l-7 -26l263 -82zM84 -130c-30 24 -88 77 -88 176c0 24 4 52 32 52c40 0 56 -46 56 -46v-182zM114 444h-30v-342s-24 45 -82 45c-49 0 -83 -30 -83 -94c0 -131 155 -207 168 -226c6 -9 27 -4 27 6v611z" />
    <glyph glyph-name="accidentals.flatflat" unicode="&#xe124;" horiz-adv-x="398" 
d="M233 -130c30 24 88 77 88 176c0 24 -4 52 -32 52c-40 0 -56 -46 -56 -46v-182zM203 444h30v-342s24 45 82 45c49 0 83 -30 83 -94c0 -131 -155 -207 -168 -226c-6 -9 -27 -4 -27 6v611zM15 -130c30 24 88 77 88 176c0 24 -4 52 -32 52c-40 0 -56 -46 -56 -46v-182z
M-15 444h30v-342s24 45 82 45c49 0 83 -30 83 -94c0 -131 -155 -207 -168 -226c-6 -9 -27 -4 -27 6v611z" />
    <glyph glyph-name="accidentals.flatflat.slash" unicode="&#xe125;" horiz-adv-x="398" 
d="M-100 245l482 118l5 -26l-481 -118zM233 -130c30 24 88 77 88 176c0 24 -4 52 -32 52c-40 0 -56 -46 -56 -46v-182zM203 444h30v-342s24 45 82 45c49 0 83 -30 83 -94c0 -131 -155 -207 -168 -226c-6 -9 -27 -4 -27 6v611zM15 -130c30 24 88 77 88 176c0 24 -4 52 -32 52
c-40 0 -56 -46 -56 -46v-182zM-15 444h30v-342s24 45 82 45c49 0 83 -30 83 -94c0 -131 -155 -207 -168 -226c-6 -9 -27 -4 -27 6v611z" />
    <glyph glyph-name="accidentals.doublesharp" unicode="&#xe126;" horiz-adv-x="250" 
d="M195 -47h58c4 0 8 -4 8 -8v-72c0 -4 -4 -8 -8 -8h-72c-4 0 -8 4 -8 8v57l-48 48l-48 -48v-57c0 -4 -4 -8 -8 -8h-72c-4 0 -8 4 -8 8v72c0 4 4 8 8 8h59l47 47l-47 47h-59c-4 0 -8 4 -8 8v72c0 4 4 8 8 8h72c4 0 8 -4 8 -8v-57l48 -48l48 48v57c0 4 4 8 8 8h72
c4 0 8 -4 8 -8v-72c0 -4 -4 -8 -8 -8h-58l-48 -47z" />
    <glyph glyph-name="accidentals.rightparen" unicode="&#xe127;" horiz-adv-x="160" 
d="M160 0c0 128 -67 188 -109 221c-8 6 -19 -4 -11 -12c44 -47 83 -99 83 -209s-39 -162 -83 -209c-8 -8 3 -18 11 -12c42 33 109 93 109 221z" />
    <glyph glyph-name="accidentals.leftparen" unicode="&#xe128;" horiz-adv-x="0" 
d="M-160 0c0 128 67 188 109 221c8 6 19 -4 11 -12c-44 -47 -83 -99 -83 -209s39 -162 83 -209c8 -8 -3 -18 -11 -12c-42 33 -109 93 -109 221z" />
    <glyph glyph-name="arrowheads.open.01" unicode="&#xe129;" horiz-adv-x="20" 
d="M-250 105c0 11 9 20 20 20c6 0 11 -2 15 -7c54 -62 133 -98 215 -98c13 0 20 -10 20 -20s-7 -20 -20 -20c-82 0 -161 -36 -215 -98c-4 -5 -9 -7 -15 -7c-11 0 -20 9 -20 20c0 5 2 9 5 13c36 42 82 73 133 92c-51 19 -97 50 -133 92c-3 4 -5 8 -5 13z" />
    <glyph glyph-name="arrowheads.open.0M1" unicode="&#xe12a;" horiz-adv-x="250" 
d="M250 105c0 -5 -2 -9 -5 -13c-36 -42 -82 -73 -133 -92c51 -19 97 -50 133 -92c3 -4 5 -8 5 -13c0 -11 -9 -20 -20 -20c-6 0 -11 2 -15 7c-54 62 -133 98 -215 98c-13 0 -20 10 -20 20s7 20 20 20c82 0 161 36 215 98c4 5 9 7 15 7c11 0 20 -9 20 -20z" />
    <glyph glyph-name="arrowheads.open.11" unicode="&#xe12b;" horiz-adv-x="125" 
d="M-105 -250c-11 0 -20 9 -20 20c0 6 2 11 7 15c62 54 98 133 98 215c0 13 10 20 20 20s20 -7 20 -20c0 -82 36 -161 98 -215c5 -4 7 -9 7 -15c0 -11 -9 -20 -20 -20c-5 0 -9 2 -13 5c-42 36 -73 82 -92 133c-19 -51 -50 -97 -92 -133c-4 -3 -8 -5 -13 -5z" />
    <glyph glyph-name="arrowheads.open.1M1" unicode="&#xe12c;" horiz-adv-x="125" 
d="M-105 250c5 0 9 -2 13 -5c42 -36 73 -82 92 -133c19 51 50 97 92 133c4 3 8 5 13 5c11 0 20 -9 20 -20c0 -6 -2 -11 -7 -15c-62 -54 -98 -133 -98 -215c0 -13 -10 -20 -20 -20s-20 7 -20 20c0 82 -36 161 -98 215c-5 4 -7 9 -7 15c0 11 9 20 20 20z" />
    <glyph glyph-name="arrowheads.close.01" unicode="&#xe12d;" horiz-adv-x="0" 
d="M-240 -125c-6 0 -10 5 -10 10v2c8 37 13 75 13 113c0 39 -13 77 -13 115c0 5 4 10 10 10c3 0 6 -2 8 -4c38 -47 172 -111 232 -111c7 0 10 -5 10 -10s-3 -10 -10 -10c-60 0 -194 -64 -232 -111c-2 -2 -5 -4 -8 -4z" />
    <glyph glyph-name="arrowheads.close.0M1" unicode="&#xe12e;" horiz-adv-x="250" 
d="M240 -125c-3 0 -6 2 -8 4c-38 47 -172 111 -232 111c-7 0 -10 5 -10 10s3 10 10 10c60 0 194 64 232 111c2 2 5 4 8 4c6 0 10 -5 10 -10c0 -38 -13 -76 -13 -115c0 -38 5 -76 13 -113v-2c0 -5 -4 -10 -10 -10z" />
    <glyph glyph-name="arrowheads.close.11" unicode="&#xe12f;" horiz-adv-x="125" 
d="M125 -240c0 -6 -5 -10 -10 -10h-2c-37 8 -75 13 -113 13s-76 -5 -113 -13h-2c-5 0 -10 4 -10 10c0 3 2 6 4 8c47 38 111 172 111 232c0 7 5 10 10 10s10 -3 10 -10c0 -60 64 -194 111 -232c2 -2 4 -5 4 -8z" />
    <glyph glyph-name="arrowheads.close.1M1" unicode="&#xe130;" horiz-adv-x="125" 
d="M-125 240c0 6 5 10 10 10h2c37 -8 75 -13 113 -13s76 5 113 13h2c5 0 10 -4 10 -10c0 -3 -2 -6 -4 -8c-47 -38 -111 -172 -111 -232c0 -7 -5 -10 -10 -10s-10 3 -10 10c0 60 -64 194 -111 232c-2 2 -4 5 -4 8z" />
    <glyph glyph-name="dots.dot" unicode="&#xe131;" horiz-adv-x="112" 
d="M0 0c0 31 25 56 56 56s56 -25 56 -56s-25 -56 -56 -56s-56 25 -56 56z" />
    <glyph glyph-name="scripts.ufermata" unicode="&#xe132;" horiz-adv-x="331" 
d="M-216 -7c9 70 16 259 216 259s205 -182 214 -252c2 -12 -22.942 -19.9709 -28 -10c-35 69 -50 167 -186 167s-152 -105 -187 -174c-5.293 -10.4346 -31 -2 -29 10zM-56 42c0 31 25 56 56 56s56 -25 56 -56s-25 -56 -56 -56s-56 25 -56 56z" />
    <glyph glyph-name="scripts.dfermata" unicode="&#xe133;" horiz-adv-x="331" 
d="M-216 7c9 -70 16 -259 216 -259s205 182 214 252c2 12 -22.9424 19.9707 -28 10c-35 -69 -50 -167 -186 -167s-152 105 -187 174c-5.29297 10.4346 -31 2 -29 -10zM-56 -42c0 -31 25 -56 56 -56s56 25 56 56s-25 56 -56 56s-56 -25 -56 -56z" />
    <glyph glyph-name="scripts.ushortfermata" unicode="&#xe134;" horiz-adv-x="250" 
d="M-81 56c0 31 25 56 56 56s56 -25 56 -56s-25 -56 -56 -56s-56 25 -56 56zM-231 0c-11 0 -19 9 -19 19c0 3 0 4 2 7l231 363c3 7 10 11 17 11s14 -4 17 -11l231 -363c2 -3 2 -4 2 -7c0 -10 -8 -19 -19 -19h-49c-7 0 -13 5 -17 11l-190 268l-189 -268
c-4 -6 -10 -11 -17 -11z" />
    <glyph glyph-name="scripts.dshortfermata" unicode="&#xe135;" horiz-adv-x="250" 
d="M-32 -56c0 31 25 56 56 56s56 -25 56 -56s-25 -56 -56 -56s-56 25 -56 56zM231 0c11 0 19 -9 19 -19c0 -3 0 -4 -2 -7l-231 -363c-3 -7 -10 -11 -17 -11s-14 4 -17 11l-231 363c-2 3 -2 4 -2 7c0 10 8 19 19 19h49c7 0 13 -5 17 -11l190 -268l189 268c4 6 10 11 17 11z
" />
    <glyph glyph-name="scripts.ulongfermata" unicode="&#xe136;" horiz-adv-x="239" 
d="M-56 78c0 31 25 56 56 56s56 -25 56 -56s-25 -56 -56 -56s-56 25 -56 56zM-231 312h462c5.332 0.00100708 8.00101 -2.66699 8 -8v-304h-20v226h-438v-226h-20v304c-0.00100708 5.332 2.66901 8.00101 8 8z" />
    <glyph glyph-name="scripts.dlongfermata" unicode="&#xe137;" horiz-adv-x="239" 
d="M-56 -78c0 -31 25 -56 56 -56s56 25 56 56s-25 56 -56 56s-56 -25 -56 -56zM-231 -312h462c5.33203 -0.000976562 8.00098 2.66699 8 8v304h-20v-226h-438v226h-20v-304c-0.000976562 -5.33203 2.66895 -8.00098 8 -8z" />
    <glyph glyph-name="scripts.uverylongfermata" unicode="&#xe138;" horiz-adv-x="375" 
d="M-60 60c0 33 27 60 60 60s60 -27 60 -60s-27 -60 -60 -60s-60 27 -60 60zM-240 225h480c6 0 10 -4 10 -10v-196c0 -10 -9 -19 -19 -19s-19 9 -19 19v131h-424v-131c0 -10 -9 -19 -19 -19s-19 9 -19 19v196c0 6 4 10 10 10zM-365 400h730c6 0 10 -4 10 -10v-371
c0 -10 -9 -19 -19 -19s-19 9 -19 19v256h-674v-256c0 -10 -9 -19 -19 -19s-19 9 -19 19v371c0 6 4 10 10 10z" />
    <glyph glyph-name="scripts.dverylongfermata" unicode="&#xe139;" horiz-adv-x="375" 
d="M-60 -60c0 33 27 60 60 60s60 -27 60 -60s-27 -60 -60 -60s-60 27 -60 60zM-240 -225c-6 0 -10 4 -10 10v196c0 10 9 19 19 19s19 -9 19 -19v-131h424v131c0 10 9 19 19 19s19 -9 19 -19v-196c0 -6 -4 -10 -10 -10h-480zM-365 -400c-6 0 -10 4 -10 10v371
c0 10 9 19 19 19s19 -9 19 -19v-256h674v256c0 10 9 19 19 19s19 -9 19 -19v-371c0 -6 -4 -10 -10 -10h-730z" />
    <glyph glyph-name="scripts.thumb" unicode="&#xe13a;" horiz-adv-x="100" 
d="M21 -125l3 -51c1 -13 -11 -24 -24 -24s-25 11 -24 24l3 51v2c-49 12 -79 66 -79 123c0 65 40 125 100 125s100 -60 100 -125c0 -57 -30 -111 -79 -123v-2zM48 0c0 45 -9 95 -48 95s-47 -50 -47 -95s8 -95 47 -95s48 50 48 95z" />
    <glyph glyph-name="scripts.sforzato" unicode="&#xe13b;" horiz-adv-x="224" 
d="M-173 86c-18.718 5.8964 -6 38 11 33l330 -105c21 -7 21.426 -21.0565 0 -28l-324 -105c-22.255 -7.212 -33 27 -10 34l266 85z" />
    <glyph glyph-name="scripts.espr" unicode="&#xe13c;" horiz-adv-x="397" 
d="M-39 86l-273 -86l266 -85c23 -7 12 -41 -10 -34l-324 105c-21 7 -21 21 0 28l330 105c17 5 30 -27 11 -33zM39 86c-19 6 -6 38 11 33l330 -105c21 -7 21 -21 0 -28l-324 -105c-22 -7 -33 27 -10 34l266 85z" />
    <glyph glyph-name="scripts.staccato" unicode="&#xe13d;" horiz-adv-x="157" 
d="M-37 0c0 20 17 37 37 37s37 -17 37 -37s-17 -37 -37 -37s-37 17 -37 37z" />
    <glyph glyph-name="scripts.ustaccatissimo" unicode="&#xe13e;" horiz-adv-x="50" 
d="M-9 -6l-50 175c-3.0566 10.698 8.8361 18.803 17 12l42 -35l41 34c9.2637 7.68201 21 0 18 -9l-50 -177h-18z" />
    <glyph glyph-name="scripts.dstaccatissimo" unicode="&#xe13f;" horiz-adv-x="50" 
d="M-9 6l-50 -175c-3.05664 -10.6982 8.83594 -18.8027 17 -12l42 35l41 -34c9.26367 -7.68164 21 0 18 9l-50 177h-18z" />
    <glyph glyph-name="scripts.tenuto" unicode="&#xe140;" horiz-adv-x="157" 
d="M-145 18h290c15 0 15 -36 0 -36h-290c-15 0 -15 36 0 36z" />
    <glyph glyph-name="scripts.uportato" unicode="&#xe141;" horiz-adv-x="157" 
d="M-37 143c0 20 17 37 37 37s37 -17 37 -37s-17 -37 -37 -37s-37 17 -37 37zM-145 18h290c15 0 15 -36 0 -36h-290c-15 0 -15 36 0 36z" />
    <glyph glyph-name="scripts.dportato" unicode="&#xe142;" horiz-adv-x="157" 
d="M-37 -143c0 -20 17 -37 37 -37s37 17 37 37s-17 37 -37 37s-37 -17 -37 -37zM-145 -18h290c15 0 15 36 0 36h-290c-15 0 -15 -36 0 -36z" />
    <glyph glyph-name="scripts.umarcato" unicode="&#xe143;" horiz-adv-x="119" 
d="M-121 17l107 216h24l106 -213c5.18 -10.4082 2 -20 -8 -20h-47c-9 0 -13 9 -15 13l-72 137l-72 -146z" />
    <glyph glyph-name="scripts.dmarcato" unicode="&#xe144;" horiz-adv-x="121" 
d="M121 -17l-107 -216h-24l-106 213c-5.17969 10.4082 -2 20 8 20h47c9 0 13 -9 15 -13l72 -137l72 146z" />
    <glyph glyph-name="scripts.open" unicode="&#xe145;" horiz-adv-x="100" 
d="M100 0c0 -65 -40 -125 -100 -125s-100 60 -100 125s40 125 100 125s100 -60 100 -125zM57 0c0 47 -16 95 -57 95s-57 -48 -57 -95s16 -95 57 -95s57 48 57 95z" />
    <glyph glyph-name="scripts.halfopen" unicode="&#xe146;" horiz-adv-x="100" 
d="M-125 -169c-7 0 -13 6 -13 13c0 3 1 6 3 8l56 70c-14 22 -21 50 -21 78c0 65 40 125 100 125c25 0 46 -10 62 -26l53 65c3 3 6 5 10 5c7 0 13 -6 13 -13c0 -3 -1 -6 -3 -8l-56 -70c14 -22 21 -50 21 -78c0 -65 -40 -125 -100 -125c-25 0 -46 10 -62 26l-53 -65
c-3 -3 -6 -5 -10 -5zM-52 -44l92 115c-9 14 -22 24 -40 24c-41 0 -57 -48 -57 -95c0 -15 1 -30 5 -44zM-40 -71c9 -14 22 -24 40 -24c41 0 57 48 57 95c0 15 -1 30 -5 44z" />
    <glyph glyph-name="scripts.halfopenvertical" unicode="&#xe147;" horiz-adv-x="100" 
d="M13 124c53 -8 87 -64 87 -124s-34 -116 -87 -124v-64c0 -7 -6 -13 -13 -13s-13 6 -13 13v64c-53 8 -87 64 -87 124s34 116 87 124v64c0 7 6 13 13 13s13 -6 13 -13v-64zM13 -93c31 9 44 52 44 93s-13 84 -44 93v-186zM-13 -93v186c-31 -9 -44 -52 -44 -93s13 -84 44 -93z
" />
    <glyph glyph-name="scripts.stopped" unicode="&#xe148;" horiz-adv-x="156" 
d="M-141 22h119v119c0 20 44 20 44 0v-119h119c20 0 20 -44 0 -44h-119v-119c0 -20 -44 -20 -44 0v119h-119c-20 0 -20 44 0 44z" />
    <glyph glyph-name="scripts.upbow" unicode="&#xe149;" horiz-adv-x="133" 
d="M-97 322l97 -249l101 252c6.632 16.548 38.893 4.43799 32 -13l-117 -296c-3.71 -9.38597 -10 -16 -16 -16s-12.3392 6.64107 -16 16l-115 294c-6.82899 17.458 26.388 31.541 34 12z" />
    <glyph glyph-name="scripts.downbow" unicode="&#xe14a;" horiz-adv-x="158" 
d="M-130 0h-28v255c0 6.62399 5.37601 12 12 12h292c6.62399 0 12 -5.37601 12 -12v-255h-28v184h-260v-184z" />
    <glyph glyph-name="scripts.reverseturn" unicode="&#xe14b;" horiz-adv-x="273" 
d="M139 132c74 0 134 -58 134 -132c0 -70 -47 -132 -114 -132c-35 0 -68 21 -68 53c0 35 28 53 54 53c20 0 39 -10 48 -31c27 4 50 26 50 57s-28 54 -61 54c-64 0 -110 -53 -157 -97s-99 -89 -164 -89c-74 0 -134 58 -134 132c0 70 47 132 114 132c35 0 68 -21 68 -53
c0 -35 -28 -53 -54 -53c-20 0 -39 10 -48 31c-27 -4 -50 -26 -50 -57s28 -54 61 -54c64 0 110 53 157 97s99 89 164 89z" />
    <glyph glyph-name="scripts.turn" unicode="&#xe14c;" horiz-adv-x="273" 
d="M139 -132c-65 0 -117 45 -164 89s-93 97 -157 97c-33 0 -61 -23 -61 -54s23 -53 50 -57c9 21 28 31 48 31c26 0 54 -18 54 -53c0 -32 -33 -53 -68 -53c-67 0 -114 62 -114 132c0 74 60 132 134 132c65 0 117 -45 164 -89s93 -97 157 -97c33 0 61 23 61 54s-23 53 -50 57
c-9 -21 -28 -31 -48 -31c-26 0 -54 18 -54 53c0 32 33 53 68 53c67 0 114 -62 114 -132c0 -74 -60 -132 -134 -132z" />
    <glyph glyph-name="scripts.trill" unicode="&#xe14d;" horiz-adv-x="212" 
d="M-68 238c-27 -78 -46 -145.972 -46 -164c0 -13 3.969 -27 20 -27c60.0088 0 63 77 103 191h-77zM-204 273h66l26 79l61 53c7.0303 5.965 38.8226 6.00601 32 -15l-38 -117h123c10 0 9.2975 -15.88 17 -16c8.0623 0 8.9915 31 68 31c44 0 65 -24 65 -64
c0 -36.056 -21 -56 -51 -56c-23 0 -42 18 -42 41c0 18.108 4.644 30.474 21 42c-13 5 -46 -15 -58 -46l-59 -145c-4 -14 -5 -32 -5 -53c0 -8 -5 -16 -13 -16h-48c-10 0 -18 7 -18 17c0 4 -1 9 -5 9c-7.0711 0 -28.9556 -27 -74 -27c-58.034 0 -66 29 -66 65c0 23 3 35 9 57
c14 50 26 77 43 126h-54c-21 0 -20 35 0 35z" />
    <glyph glyph-name="scripts.upedalheel" unicode="&#xe14e;" horiz-adv-x="125" 
d="M0 -87c48 0 87 39 87 87v148c0 10 9 19 19 19s19 -9 19 -19v-148c0 -69 -56 -125 -125 -125s-125 56 -125 125v148c0 10 9 19 19 19s19 -9 19 -19v-148c0 -48 39 -87 87 -87z" />
    <glyph glyph-name="scripts.dpedalheel" unicode="&#xe14f;" horiz-adv-x="125" 
d="M0 87c-48 0 -87 -39 -87 -87v-148c0 -10 -9 -19 -19 -19s-19 9 -19 19v148c0 69 56 125 125 125s125 -56 125 -125v-148c0 -10 -9 -19 -19 -19s-19 9 -19 19v148c0 48 -39 87 -87 87z" />
    <glyph glyph-name="scripts.upedaltoe" unicode="&#xe150;" horiz-adv-x="125" 
d="M88 362c2 8 10 13 18 13c10 0 19 -9 19 -19c0 -2 0 -3 -1 -5l-105 -332c0 -13 -6 -19 -19 -19s-19 6 -19 19l-105 332c-1 2 -1 3 -1 5c0 10 9 19 19 19c8 0 16 -5 18 -13l65 -206l23 -103l23 103z" />
    <glyph glyph-name="scripts.dpedaltoe" unicode="&#xe151;" horiz-adv-x="125" 
d="M88 -362l-65 206l-23 103l-23 -103l-65 -206c-2 -8 -10 -13 -18 -13c-10 0 -19 9 -19 19c0 2 0 3 1 5l105 332c0 13 6 19 19 19s19 -6 19 -19l105 -332c1 -2 1 -3 1 -5c0 -10 -9 -19 -19 -19c-8 0 -16 5 -18 13z" />
    <glyph glyph-name="scripts.flageolet" unicode="&#xe152;" horiz-adv-x="90" 
d="M-61 0c0 -34 27 -61 61 -61s61 27 61 61s-27 61 -61 61s-61 -27 -61 -61zM-90 0c0 50 40 90 90 90s90 -40 90 -90s-40 -90 -90 -90s-90 40 -90 90z" />
    <glyph glyph-name="scripts.segno" unicode="&#xe153;" horiz-adv-x="250" 
d="M-8 199c-43.0465 0 -56.9683 40.358 -62 63c-4 18 -28 34 -54 34c-38.053 0 -79 -26.927 -79 -89c0 -41 15.677 -72.094 52 -90c39.899 -19.6687 100.28 -40.8835 160.455 -66.362l157.545 280.362c5 10 34 -8 28 -18l-155.991 -275.278
c36.6329 -16.5805 71.9021 -34.9435 100.991 -55.7216c70 -50 102 -92 102 -169c0 -88 -66 -165 -154 -165c-64 0 -140 24 -140 88c0 30 25 54 55 54c73 0 40.9926 -113 109 -113c35.014 0 78 44 78 91c0 64 -51.336 93.078 -106 126
c-28.5781 17.2118 -61.7966 36.322 -95.1688 55.1727l-167.831 -296.173c-5 -9 -31 7 -26 16l166.176 295.722c-59.6856 33.4208 -115.835 64.0585 -142.176 79.2776c-49.225 28.4414 -73 69 -73 126c0 88 74 157 162 157c59 0 129 -21 129 -80c0 -26 -14.9833 -48 -45 -48z
M-251 -83c0 26 22 48 48 48s48 -22 48 -48s-22 -48 -48 -48s-48 22 -48 48zM140 76c0 26 22 48 48 48s48 -22 48 -48s-22 -48 -48 -48s-48 22 -48 48z" />
    <glyph glyph-name="scripts.varsegno" unicode="&#xe154;" horiz-adv-x="312" 
d="M-19 453c26.0192 0 57 -7 65 -11c33 -15 54 -41.35 54 -80c0 -17 -10 -34 -27 -34c-19 0 -28 15 -38 32c-6.6067 11.231 -15 35 -28 56c-10.056 16.244 -25 20 -43 20c-30.0666 0 -52 -25.806 -52 -67c0 -51.147 17.1441 -73.524 50 -96.522v21.522h13v-30.198
c10.4269 -6.69901 22.1044 -13.742 35 -21.802c4.7785 -2.987 9.8142 -6.028 15 -9.175v61.175h13v-69.154c41.1628 -25.747 86 -60.12 86 -125.846c0 -42 -15 -84 -41 -109c21 -22 41 -50.9889 41 -96c0 -50.04 -17.834 -86.176 -42 -109c22 -19 41 -58 41 -104
c0 -75 -38 -137 -106 -137c-31 0 -52 5 -76 22c-25.4934 18.058 -39 39 -39 70c0 18 7.975 37 28 37c19 0 27.456 -15.912 36 -33c16 -32 28 -75 68 -75c38.1182 0 57 32 57 63c0 42.289 -24.0136 74.973 -53 99.782v-27.782h-13v38.184
c-11.0196 8.26901 -22.333 15.513 -33 21.816c-5.6605 3.345 -11.3481 6.564 -17 9.741v-69.741h-13v77.063c-45.3039 25.765 -85 53.008 -85 126.937c0 47.8823 12.239 76.2012 43 107c-23.509 21.3608 -43 61.322 -43 107c0 42.99 16 82 38 101c-21 20 -38 54.901 -38 103
c0 49.092 22.994 131 104 131zM76 -3c7 9 18 30 18 63c0 32.2365 -9.3162 43.004 -56 73.197v-112.13c13.0763 -7.4937 25.5557 -14.5854 38 -24.0668zM75 -209c7 9 19 21 19 54c0 39.277 -7.7479 52.379 -56 84.6658v-110.131c15.6874 -10.751 29.3909 -20.926 37 -28.535z
M-38 -22.3924c-15.2277 9.4995 -29.6641 19.3285 -36 27.3924c-2 -4 -17 -19.9857 -17 -55c0 -50.499 24.4781 -63.39 53 -81.2v108.808zM-38 182.258c-14.428 10.006 -28.5527 20.476 -38 28.742c-2 -4 -12 -8.94099 -12 -43c0 -54.909 17.8284 -76.6116 50 -98.9406
v113.199zM-25 -30.3594v-109.134c14.4612 -9.24501 32.7154 -20.753 50 -32.218v109.923c-9.1095 5.904 -19.394 12.4324 -31 19.7883c-5.6205 3.5622 -12.179 7.5069 -19 11.6406zM-25 173.417v-113c10.4989 -6.7616 22.1949 -13.9487 35 -22.4166
c5.1196 -3.3856 10.1108 -6.4678 15 -9.3787v112.892c-9.9033 6.285 -21.1769 13.36 -34 21.487c-5.001 3.17 -10.4224 6.696 -16 10.417z" />
    <glyph glyph-name="scripts.coda" unicode="&#xe155;" horiz-adv-x="254" 
d="M15 -338c0 -8 -7 -15 -15 -15s-15 7 -15 15v89c-97 10 -147 120 -151 234h-88c-8 0 -15 7 -15 15s7 15 15 15h88c4 114 54 224 151 234v89c0 8 7 15 15 15s15 -7 15 -15v-89c97 -10 147 -120 151 -234h88c8 0 15 -7 15 -15s-7 -15 -15 -15h-88
c-4 -114 -54 -224 -151 -234v-89zM15 -15v-204c70 12 77 111 78 204h-78zM15 15h78c-1 93 -8 192 -78 204v-204zM-15 -15h-78c1 -93 8 -192 78 -204v204zM-15 15v204c-70 -12 -77 -111 -78 -204h78z" />
    <glyph glyph-name="scripts.varcoda" unicode="&#xe156;" horiz-adv-x="254" 
d="M15 -338c0 -8 -7 -15 -15 -15s-15 7 -15 15v88h-142c-6 0 -10 4 -10 10v225h-87c-8 0 -15 7 -15 15s7 15 15 15h87v225c0 6 4 10 10 10h142v88c0 8 7 15 15 15s15 -7 15 -15v-88h142c6 0 10 -4 10 -10v-225h87c8 0 15 -7 15 -15s-7 -15 -15 -15h-87v-225
c0 -6 -4 -10 -10 -10h-142v-88zM15 -15v-205h64v205h-64zM15 15h64v205h-64v-205zM-15 -15h-64v-205h64v205zM-15 15v205h-64v-205h64z" />
    <glyph glyph-name="scripts.rcomma" unicode="&#xe157;" horiz-adv-x="125" 
d="M12 -153c-9 0 -15 7 -15 15c0 3 1 6 3 9c30 43 50 94 50 142c0 30 -7 59 -25 85c-5 7 -7 14 -7 21c0 19 16 38 37 38c41 0 57 -65 57 -98c0 -68 -42 -141 -87 -205c-3 -4 -8 -7 -13 -7z" />
    <glyph glyph-name="scripts.lcomma" unicode="&#xe158;" horiz-adv-x="0" 
d="M-12 153c9 0 15 -7 15 -15c0 -3 -1 -6 -3 -9c-30 -43 -50 -94 -50 -142c0 -30 7 -59 25 -85c5 -7 7 -14 7 -21c0 -19 -16 -38 -37 -38c-41 0 -57 65 -57 98c0 68 42 141 87 205c3 4 8 7 13 7z" />
    <glyph glyph-name="scripts.rvarcomma" unicode="&#xe159;" horiz-adv-x="62" 
d="M-63 -165c-9 0 -14 7 -14 15c0 2 0 4 1 6l104 308c5 15 19 24 34 24c23 0 39 -19 39 -38c0 -5 -2 -9 -4 -14l-146 -292c-3 -6 -8 -9 -14 -9z" />
    <glyph glyph-name="scripts.lvarcomma" unicode="&#xe15a;" horiz-adv-x="62" 
d="M63 165c9 0 14 -7 14 -15c0 -2 0 -4 -1 -6l-104 -308c-5 -15 -19 -24 -34 -24c-23 0 -39 19 -39 38c0 5 2 9 4 14l146 292c3 6 8 9 14 9z" />
    <glyph glyph-name="scripts.arpeggio" unicode="&#xe15b;" horiz-adv-x="151" 
d="M59 -12l-49 61c-8.31641 10.3525 -10.9785 27.0029 -10.9785 39.752c0 12.247 5.97852 27.248 10.9785 34.248l67 82c2 3 2 7 0 10l-18 23c-6.4238 7.494 22 31 28 24l53 -61c7 -8 11.979 -21.778 11.979 -35.053c0 -13.739 -4.979 -26.947 -10.979 -34.947l-68 -85
c-4 -5 -3 -11 0 -15l14 -19c4.9248 -6.06152 -23 -29 -28 -24z" />
    <glyph glyph-name="scripts.trill_element" unicode="&#xe15c;" horiz-adv-x="250" 
d="M-14 94l64 60c19 17 60 18 79 2l83 -71c5 -4 9 -5 14 0l15 14c9 8 36 -19 25 -30l-64 -63c-17 -17 -58 -15 -75 1l-81 72c-4 4 -14 5 -18 1l-17 -16c-9 -9 -35 20 -25 30z" />
    <glyph glyph-name="scripts.arpeggio.arrow.M1" unicode="&#xe15d;" horiz-adv-x="200" 
d="M53 245c-4 6 -6 9 -6 13c0 9 16 18 24 18c4 0 8 -2 10 -5l33 -43c11 -13 22 -60 25 -76l90 43c5 2 14 5 14 -5c0 -2 -1 -4 -2 -5c-53 -63 -124 -114 -152 -192c-1 -2 -4 -3 -7 -3c-2 0 -3 0 -4 2c-28 78 -99 129 -152 192c-2 2 -3 3 -3 6c0 8 8 9 13 6l92 -44
c17 22 44 39 44 60c0 9 -5 16 -14 27z" />
    <glyph glyph-name="scripts.arpeggio.arrow.1" unicode="&#xe15e;" horiz-adv-x="200" 
d="M90 10c4 -6 6 -9 6 -13c0 -9 -16 -18 -24 -18c-4 0 -8 2 -10 5l-33 43c-11 13 -22 60 -25 76l-90 -43c-5 -2 -14 -5 -14 5c0 2 1 4 2 5c53 63 124 114 152 192c1 2 4 3 7 3c2 0 3 0 4 -2c28 -78 99 -129 152 -192c2 -2 3 -3 3 -6c0 -8 -8 -9 -13 -6l-92 44
c-17 -22 -44 -39 -44 -60c0 -9 5 -16 14 -27z" />
    <glyph glyph-name="scripts.trilelement" unicode="&#xe15f;" horiz-adv-x="104" 
d="M-80 1l-8 -12l-33 22l70 105c4 6 10 9 17 9c6 0 11 -2 15 -7l99 -119l8 12l33 -22l-70 -105c-4 -6 -10 -9 -17 -9c-6 0 -11 2 -15 7z" />
    <glyph glyph-name="scripts.prall" unicode="&#xe160;" horiz-adv-x="208" 
d="M-232 -72l116 190c2.939 4.81 7.001 7.792 11.487 7.795c4.493 0.00400543 8.5645 -2.973 11.513 -7.795l74 -121l71 121c3.2116 5.469 7.6829 8.894 12.6816 8.989c5.1487 0.0979996 9.8724 -3.348 13.3184 -8.989l77 -126l59 95l24 -15l-114 -185
c-3.51 -5.692 -8.379 -9.242 -13.793 -9.304c-5.516 -0.0629959 -10.5489 3.498 -14.207 9.304l-75 119l-70 -118c-4.2822 -7.209 -10.1946 -11.609 -16.5625 -11.365c-5.7124 0.218994 -10.7731 4.129 -14.4375 10.365l-70 119l-60 -96z" />
    <glyph glyph-name="scripts.mordent" unicode="&#xe161;" horiz-adv-x="208" 
d="M-232 -72l116 190c2.939 4.81 7.001 7.791 11.487 7.795c4.492 0.00400543 8.5648 -2.973 11.513 -7.795l70 -114.459v171.459c0 9.936 8.0645 18 18 18c9.93555 0 18 -8.064 18 -18v-123.465l39 66.4648c3.2119 5.469 7.6826 8.894 12.6816 8.989
c5.1485 0.0979996 9.8721 -3.348 13.3184 -8.989l77 -126l59 95l24 -15l-114 -185c-3.51 -5.692 -8.379 -9.242 -13.793 -9.304c-5.516 -0.0629959 -10.5488 3.498 -14.207 9.304l-75 119l-8 -13.4857v-172.514c0 -9.936 -8.06445 -18 -18 -18c-9.9355 0 -18 8.064 -18 18
v111.829l-26 -43.8286c-4.2822 -7.209 -10.1943 -11.609 -16.5625 -11.365c-5.7129 0.218994 -10.7734 4.129 -14.4375 10.365l-70 119l-60 -96z" />
    <glyph glyph-name="scripts.prallprall" unicode="&#xe162;" horiz-adv-x="324" 
d="M36 -113c-3 -6 -8.3789 -9.242 -13.793 -9.304c-5.5156 -0.0629959 -10.207 3.304 -14.207 9.304l-75 119l-70 -118c-4 -7 -10.194 -11.609 -16.562 -11.365c-5.713 0.218994 -10.438 4.365 -14.438 10.365l-70 119l-60 -96l-22 18l116 190
c3 5 7.00101 7.791 11.487 7.795c4.492 0.00400543 8.513 -2.795 11.513 -7.795l74 -124l71 124c3 5 7.6826 8.894 12.6816 8.989c5.1485 0.0979996 10.3184 -3.989 13.3184 -8.989l77 -124l71 124c3 5 7.683 8.894 12.682 8.989
c5.14799 0.0979996 10.318 -3.989 13.318 -8.989l77 -124l59 93l24 -15l-114 -185c-3 -6 -8.379 -9.242 -13.793 -9.304c-5.51601 -0.0629959 -10.207 3.304 -14.207 9.304l-75 119z" />
    <glyph glyph-name="scripts.prallmordent" unicode="&#xe163;" horiz-adv-x="321" 
d="M-33 118c3 5 7.001 7.791 11.4873 7.795c4.4922 0.00400543 8.5645 -2.973 11.5127 -7.795l70 -114.459v171.459c0 9.936 8.0645 18 18 18s18 -8.064 18 -18v-123.465l39 66.4648c3.21201 5.469 7.683 8.894 12.682 8.989
c5.14799 0.0979996 9.87199 -3.348 13.318 -8.989l77 -126l59 95l24 -15l-114 -185c-3.50999 -5.692 -8.379 -9.242 -13.793 -9.304c-5.51601 -0.0629959 -10.549 3.498 -14.207 9.304l-75 119l-8 -13.4853v-172.515c0 -9.936 -8.0645 -18 -18 -18s-18 8.064 -18 18v111.828
l-26 -43.8281c-4.2822 -7.209 -10.1943 -11.609 -16.5625 -11.365c-5.7129 0.218994 -10.7734 4.129 -14.4375 10.365l-70 119l-70 -118c-4 -7 -10.194 -11.609 -16.562 -11.365c-5.713 0.218994 -10.438 4.365 -14.438 10.365l-70 119l-60 -96l-22 18l116 190
c3 5 7.00101 7.791 11.487 7.795c4.492 0.00400543 8.513 -2.795 11.513 -7.795l69 -124z" />
    <glyph glyph-name="scripts.upprall" unicode="&#xe164;" horiz-adv-x="324" 
d="M-299 -39l95 157c3 5 7.00101 7.791 11.487 7.795c4.492 0.00400543 8.513 -2.795 11.513 -7.795l74 -124l71 124c3 5 7.6826 8.894 12.6816 8.989c5.1485 0.0979996 10.3184 -3.989 13.3184 -8.989l77 -124l71 124c3 5 7.683 8.894 12.682 8.989
c5.14799 0.0979996 10.318 -3.989 13.318 -8.989l77 -124l59 93l24 -15l-114 -185c-3 -6 -8.379 -9.242 -13.793 -9.304c-5.51601 -0.0629959 -10.207 3.304 -14.207 9.304l-75 119l-71 -119c-3 -6 -8.3789 -9.242 -13.793 -9.304
c-5.5156 -0.0629959 -10.207 3.304 -14.207 9.304l-75 119l-70 -118c-4 -7 -10.194 -11.609 -16.562 -11.365c-5.713 0.218994 -10.438 4.365 -14.438 10.365l-70 119l-39 -63c-50.38 -81.384 -31.759 -156.521 -14 -195c6 -13 -18.603 -24.835 -25 -13
c-20 37 -44.002 125.186 17 226z" />
    <glyph glyph-name="scripts.upmordent" unicode="&#xe165;" horiz-adv-x="324" 
d="M-204 118c3 5 7.00101 7.791 11.487 7.795c4.492 0.00400543 8.513 -2.795 11.513 -7.795l69 -124l79 124c3 5 7.001 7.791 11.4873 7.795c4.4922 0.00400543 8.5645 -2.973 11.5127 -7.795l70 -114.459v171.459c0 9.936 8.0645 18 18 18s18 -8.064 18 -18v-123.465
l39 66.4648c3.21201 5.469 7.683 8.894 12.682 8.989c5.14799 0.0979996 9.87199 -3.348 13.318 -8.989l77 -126l59 95l24 -15l-114 -185c-3.50999 -5.692 -8.379 -9.242 -13.793 -9.304c-5.51601 -0.0629959 -10.549 3.498 -14.207 9.304l-75 119l-8 -13.4853v-172.515
c0 -9.936 -8.0645 -18 -18 -18s-18 8.064 -18 18v111.828l-26 -43.8281c-4.2822 -7.209 -10.1943 -11.609 -16.5625 -11.365c-5.7129 0.218994 -10.7734 4.129 -14.4375 10.365l-70 119l-70 -118c-4 -7 -10.194 -11.609 -16.562 -11.365
c-5.713 0.218994 -10.438 4.365 -14.438 10.365l-70 119l-39 -63c-50 -81 -31.759 -156.521 -14 -195c6 -13 -18.603 -24.835 -25 -13c-20 37 -44 125 17 226z" />
    <glyph glyph-name="scripts.pralldown" unicode="&#xe166;" horiz-adv-x="324" 
d="M306.13 43l-96.13 -156c-3 -6 -8.379 -9.242 -13.793 -9.304c-5.51601 -0.0629959 -10.207 3.304 -14.207 9.304l-75 119l-71 -119c-3 -6 -8.3789 -9.242 -13.793 -9.304c-5.5156 -0.0629959 -10.207 3.304 -14.207 9.304l-75 119l-70 -118
c-4 -7 -10.194 -11.609 -16.562 -11.365c-5.713 0.218994 -10.438 4.365 -14.438 10.365l-70 119l-60 -96l-22 18l116 190c3 5 7.00101 7.791 11.487 7.795c4.492 0.00400543 8.513 -2.795 11.513 -7.795l74 -124l71 124c3 5 7.6826 8.894 12.6816 8.989
c5.1485 0.0979996 10.3184 -3.989 13.3184 -8.989l77 -124l71 124c3 5 7.683 8.894 12.682 8.989c5.14799 0.0979996 10.318 -3.989 13.318 -8.989l77 -124l59 93l24 -15c88 -55 59 -211 20 -265c-11.154 -15.444 -37.624 0.399002 -27 17c47.997 75.002 41 188 -10.87 219z
" />
    <glyph glyph-name="scripts.downprall" unicode="&#xe167;" horiz-adv-x="324" 
d="M-306.13 -43l96.1299 156c3 6 8.37891 9.24219 13.793 9.30371c5.51562 0.0634766 10.207 -3.30371 14.207 -9.30371l75 -119l71 119c3 6 8.37891 9.24219 13.793 9.30371c5.51562 0.0634766 10.207 -3.30371 14.207 -9.30371l75 -119l70 118
c4 7 10.1943 11.6094 16.5615 11.3652c5.71387 -0.21875 10.4385 -4.36523 14.4385 -10.3652l70 -119l60 96l22 -18l-116 -190c-3 -5 -7.00098 -7.79102 -11.4873 -7.79492c-4.49121 -0.00390625 -8.5127 2.79492 -11.5127 7.79492l-74 124l-71 -124
c-3 -5 -7.68262 -8.89355 -12.6816 -8.98926c-5.14844 -0.0976562 -10.3184 3.98926 -13.3184 8.98926l-77 124l-71 -124c-3 -5 -7.68262 -8.89355 -12.6816 -8.98926c-5.14844 -0.0976562 -10.3184 3.98926 -13.3184 8.98926l-77 124l-59 -93l-24 15
c-88 55 -59 211 -20 265c11.1543 15.4443 37.624 -0.399414 27 -17c-47.9971 -75.002 -41 -188 10.8701 -219z" />
    <glyph glyph-name="scripts.downmordent" unicode="&#xe168;" horiz-adv-x="321" 
d="M-204 118c3 5 7.00101 7.791 11.487 7.795c4.492 0.00400543 8.513 -2.795 11.513 -7.795l69 -124l79 124c3 5 7.001 7.791 11.4873 7.795c4.4922 0.00400543 8.5645 -2.973 11.5127 -7.795l70 -114.459v171.459c0 9.936 8.0645 18 18 18s18 -8.064 18 -18v-123.465
l39 66.4648c3.21201 5.469 7.683 8.894 12.682 8.989c5.14799 0.0979996 9.87199 -3.348 13.318 -8.989l77 -126l59 95l24 -15l-114 -185c-3.50999 -5.692 -8.379 -9.242 -13.793 -9.304c-5.51601 -0.0629959 -10.549 3.498 -14.207 9.304l-75 119l-8 -13.4853v-172.515
c0 -9.936 -8.0645 -18 -18 -18s-18 8.064 -18 18v111.828l-26 -43.8281c-4.2822 -7.209 -10.1943 -11.609 -16.5625 -11.365c-5.7129 0.218994 -10.7734 4.129 -14.4375 10.365l-70 119l-70 -118c-4 -7 -10.194 -11.609 -16.562 -11.365
c-5.713 0.218994 -10.438 4.365 -14.438 10.365l-70 119l-60 -96l-26 18c-85 59 -59 211 -20 265c11.154 15.444 37.624 -0.399002 27 -17c-47.997 -75.002 -41 -188 10.87 -219z" />
    <glyph glyph-name="scripts.prallup" unicode="&#xe169;" horiz-adv-x="312" 
d="M299 39l-95 -157c-3 -5 -7.00098 -7.79102 -11.4873 -7.79492c-4.49121 -0.00390625 -8.5127 2.79492 -11.5127 7.79492l-74 124l-71 -124c-3 -5 -7.68262 -8.89355 -12.6816 -8.98926c-5.14844 -0.0976562 -10.3184 3.98926 -13.3184 8.98926l-77 124l-71 -124
c-3 -5 -7.68262 -8.89355 -12.6816 -8.98926c-5.14844 -0.0976562 -10.3184 3.98926 -13.3184 8.98926l-77 124l-59 -93l-24 15l114 185c3 6 8.37891 9.24219 13.793 9.30371c5.51562 0.0634766 10.207 -3.30371 14.207 -9.30371l75 -119l71 119
c3 6 8.37891 9.24219 13.793 9.30371c5.51562 0.0634766 10.207 -3.30371 14.207 -9.30371l75 -119l70 118c4 7 10.1943 11.6094 16.5615 11.3652c5.71387 -0.21875 10.4385 -4.36523 14.4385 -10.3652l70 -119l39 63c50.3799 81.3838 31.7588 156.521 14 195
c-6 13 18.6025 24.835 25 13c20 -37 44.002 -125.186 -17 -226z" />
    <glyph glyph-name="scripts.lineprall" unicode="&#xe16a;" horiz-adv-x="324" 
d="M-290.695 -24l86.695 142c3 5 7.00101 7.791 11.487 7.795c4.492 0.00400543 8.513 -2.795 11.513 -7.795l74 -124l71 124c3 5 7.6826 8.894 12.6816 8.989c5.1485 0.0979996 10.3184 -3.989 13.3184 -8.989l77 -124l71 124c3 5 7.683 8.894 12.682 8.989
c5.14799 0.0979996 10.318 -3.989 13.318 -8.989l77 -124l59 93l24 -15l-114 -185c-3 -6 -8.379 -9.242 -13.793 -9.304c-5.51601 -0.0629959 -10.207 3.304 -14.207 9.304l-75 119l-71 -119c-3 -6 -8.3789 -9.242 -13.793 -9.304
c-5.5156 -0.0629959 -10.207 3.304 -14.207 9.304l-75 119l-70 -118c-4 -7 -10.194 -11.609 -16.562 -11.365c-5.713 0.218994 -10.438 4.365 -14.438 10.365l-70 119l-58 -90c-4 -7 -24 -5 -24 12v412h29z" />
    <glyph glyph-name="scripts.caesura.curved" unicode="&#xe16b;" horiz-adv-x="500" 
d="M282 313c18 0 31 -15 31 -32c0 -160 -63 -326 -127 -470c-3 -7 -10 -11 -17 -11c-15 0 -22 15 -17 26c63 144 89 300 99 457c1 17 15 30 31 30zM19 -200c-11 0 -19 10 -19 19c0 3 1 5 2 7c63 144 89 300 99 457c1 17 15 30 31 30c18 0 31 -15 31 -32
c0 -160 -63 -326 -127 -470c-3 -7 -10 -11 -17 -11z" />
    <glyph glyph-name="scripts.caesura.straight" unicode="&#xe16c;" horiz-adv-x="500" 
d="M149 -182l232 464c5 11 17 18 29 18h32c7 0 12 -6 12 -12c0 -2 0 -4 -1 -6l-232 -464c-5 -11 -17 -18 -29 -18h-32c-9 0 -15 10 -11 18zM9 -182l232 464c5 11 17 18 29 18h32c7 0 12 -6 12 -12c0 -2 0 -4 -1 -6l-232 -464c-5 -11 -17 -18 -29 -18h-32c-7 0 -12 6 -12 12
c0 2 0 4 1 6z" />
    <glyph glyph-name="scripts.tickmark" unicode="&#xe16d;" horiz-adv-x="274" 
d="M-139 204c47 -31 94 -63 133 -104c4 -5 11 -5 12 0c45 139 125 271 260 325h3c3 0 6 -2 6 -6c0 -3 -2 -5 -4 -6c-150 -60 -196 -233 -246 -388c-4 -13 -12 -25 -24 -25c-13 0 -21 13 -26 25c-29 64 -74 120 -123 171c-1 1 -2 2 -2 4c0 6 7 7 11 4z" />
    <glyph glyph-name="scripts.snappizzicato" unicode="&#xe16e;" horiz-adv-x="133" 
d="M-130 0c0 -72 58 -130 130 -130s130 58 130 130c0 66.2361 -49.0854 120.624 -113 128.907v-76.907c0 -9.3838 -7.61621 -12 -17 -12s-17 2.6162 -17 12v76.907c-63.9146 -8.283 -113 -62.6709 -113 -128.907zM-17 300c0 9.384 7.61621 12 17 12s17 -2.616 17 -12
v-146.929c77.0123 -8.472 137 -73.8162 137 -153.071c0 -85 -69 -154 -154 -154s-154 69 -154 154c0 79.2548 59.9877 144.599 137 153.071v146.929z" />
    <glyph glyph-name="clefs.C" unicode="&#xe16f;" horiz-adv-x="680" 
d="M105 465v-929c0 -7.728 -6.2725 -14 -14 -14h-78c-7.17578 0 -13 5.37601 -13 12v930c0 6.62399 4.92773 12 11 12h83c6.072 0 11 -4.92801 11 -11zM165 464h25v-446.112c35.857 14.0744 70.107 77.5952 90 176.112c2.98999 14.81 29.676 11.996 30 0
c1 -37 32.969 -106 98 -106c67.119 0 87 52.995 87 144c0 151.463 -29 214 -126 214c-30.766 0 -69 -8 -77 -28c0 0 12 4 20 4c41 0 70 -38 70 -79c0 -39 -33 -71 -72 -71c-47 0 -84 38 -84 85c0 81 87 120 168 120c125 0 224 -86.713 224 -228c0 -106 -69 -209 -175 -209
c-33.429 0 -65.302 12.6246 -87 26c-16.669 -32.6658 -34.665 -54.666 -54 -66c23.069 -14.2312 42.126 -35.1392 54 -68c31.537 20.6121 51.467 27.3049 86 27c116.004 0 177 -103 177 -210c0 -125 -91.907 -227 -226 -227c-80 0 -167 41 -167 121c0 47 39 85 86 85
c39 0 70 -32 70 -71c0 -42 -30 -79 -72 -79c-7 0 -18 2 -18 2c15 -23 45.007 -26 76 -26c97 0 127 55.997 127 212c0 96.187 -22 146 -88 146c-55 0 -95 -61.846 -95 -104c0 -17.029 -27.794 -16.502 -32 0c-12.578 49.345 -31.709 144.56 -90 173.333v-446.333h-25v929z
" />
    <glyph glyph-name="clefs.C_change" unicode="&#xe170;" horiz-adv-x="549" 
d="M84 373v-746c0 -4.96799 -4.0322 -9 -9 -9h-66c-4.96777 0 -9 4.03201 -9 9v747c0 4.41599 3.58398 8 8 8h67c4.9678 0 9 -4.03201 9 -9zM133 373h18v-359.47c30.871 10.3926 60.325 72.3602 74 143.47c2.11099 10.979 22.952 10.237 25 0c2 -10 12.868 -86.2757 83 -87
c57 0 65 75 65 132c0 101.005 -29 156 -102 156c-24 0 -52 -6 -59 -20c45 7 70 -25 70 -61c0 -32 -26 -59 -58 -59c-37 0 -66 31 -66 68c0 64 69 97 133 97c100 0 179 -63.894 179 -182c0 -86 -42 -169 -140 -169c-28 0 -55 10 -69 21
c-11.878 -24.174 -26.43 -44.7148 -50 -53c19.831 -7.65461 36.906 -24.0288 50 -53c17 11 41 22 70 22c86 0 141 -69.955 141 -171c0 -100 -66 -180 -183 -180c-75.027 0 -130 35 -130 98c0 37 30 66 67 66c32 0 56 -27 56 -59c0 -44.102 -45 -73 -71 -58
c3 -16 35 -24 60 -24c97.046 0 101 95 101 173c0 76 -17 115 -70 115c-43 0 -70.649 -36.193 -76 -79c-2.246 -17.969 -24.026 -20.202 -28 0c-11.033 56.0866 -41.511 125.7 -72 136.55v-358.55h-18v745z" />
    <glyph glyph-name="clefs.F" unicode="&#xe171;" horiz-adv-x="670" 
d="M543 -124c0 28 23 51 51 51s50 -23 50 -51s-22 -50 -50 -50s-51 22 -51 50zM543 123c0 28 23 51 51 51s50 -23 50 -51s-22 -50 -50 -50s-51 22 -51 50zM-8 -581c-21.1171 -9.74597 -33.7837 24.357 -15 33c276 127 377 282 377 539c0 106 -33 226 -152 226
c-73 0 -130 -57 -142 -123c14 13 33.6149 20.181 60 21c62 0 112 -36.9933 112 -112c0 -62 -56 -105 -118 -105c-47 0 -114 26 -114 137c0 125 102 217 236 217c163 0 268 -127 268 -277c0 -324.006 -384.407 -497.111 -512 -556z" />
    <glyph glyph-name="clefs.F_change" unicode="&#xe172;" horiz-adv-x="536" 
d="M439 -97c0 23.29 17.71 41 41 41c23.39 0 42 -17.86 42 -41c0 -23.24 -18.76 -42 -42 -42c-23.14 0 -41 18.61 -41 42zM439 98c0 23.29 17.71 41 41 41c23.39 0 42 -17.86 42 -41c0 -23.24 -18.76 -42 -42 -42c-23.14 0 -41 18.61 -41 42zM68.25 90.2
c5.64 4.83 17.61 8.8 30.75 8.8c61.55 0 92 -36.54 92 -86c0 -51.86 -42.24 -86 -92 -86c-73.24 0 -94 53.01 -94 111c0 96.77 86.28 169 184 169c130.49 0 219 -82.61 219 -221c0 -241.23 -247.77 -373.31 -408.97 -442.4c-9.92 -4.25 -15.04 -0.77002 -17.6 4.25998
c-3.53 6.95001 -1.57 17.42 6.83 21.68c221.78 112.4 298.74 208.63 298.74 430.46c0 82.86 -21.18 180 -122 180c-49.56 0 -99.57 -44.4 -104.96 -85.35l-1.7 -12.94z" />
    <glyph glyph-name="clefs.G" unicode="&#xe173;" horiz-adv-x="641" 
d="M416 -218l-56 324c-58 -9 -101 -59 -101 -120c0 -52 39 -85 77 -108c13.059 -7.903 2.065 -28.974 -16 -24c-69 19 -133 93.9736 -133 170c0 103.787 61 175 151 215l-24 131c-60 -62 -219 -167.975 -219 -348c0 -120.037 75 -245 252 -245c28 0 53 2 69 5zM460 -205
c55 21 104 91.111 104 167c0 104.02 -81 153 -160 148zM326 573c84 83 155.283 159.124 159 292c0 35 -14 71 -27 85c-8.306 8.94501 -21.185 1.26398 -30 -7c-64 -60 -108 -156 -108 -269c0 -39 4 -62 6 -101zM424 -243c-17 -5 -50 -9 -82 -9c-208.002 0 -342 119 -342 325
c0 144.014 60.6409 236.077 91 273c37 45 143 142 196 188c-7 38 -21 140 -21 228c0 218 88 278 136 322c6.828 6.26001 24.248 14.98 35 11c44 -17 110 -151 110 -261c0 -183 -85 -334 -194 -427l29 -161c9 1 12 1 22 1c104.005 0 227 -88.996 227 -229
c0 -115 -61 -204 -165 -250l28 -178c18.437 -123.234 -41.997 -242 -190 -242c-114.018 0 -184 59 -184 152c0 65 42 116 118 116c57 0 106 -46 106 -104c0 -61.649 -54 -112 -114 -112c22 -7 53.975 -11 74 -11c134 0 156.243 124.764 148 186z" />
    <glyph glyph-name="clefs.G_change" unicode="&#xe174;" horiz-adv-x="511" 
d="M272.61 423.54c74.18 77.19 118.39 142.19 118.39 228.46c0 21.8 -4.48999 53.39 -17.31 67.38c-17.42 19 -55.84 -32.48 -69.08 -57c-26.57 -48.99 -44.61 -96.08 -44.61 -148.38c0 -28.59 0.890015 -71.9 4.10001 -87.98l1.87 -9.37997zM337.84 -219.22l-46.78 259.89
l-4.79999 -0.73c-42.84 -6.43 -76.26 -49.66 -76.26 -93.94c0 -36.91 31.22 -62.69 57.8 -84.84c9.04001 -7.54001 9.29001 -13.72 7.49002 -17.56c-2.72 -5.82001 -12.89 -10.39 -24.16 -5.08c-64.25 30.24 -100.13 69.6 -100.13 145.48
c0 65.83 50.45 132.02 119.95 161.39l3.75 1.59l-20.38 101.93l-6.39001 -4.96001c-36.62 -28.48 -98.53 -92.36 -124.04 -129.1c-33.1 -47.66 -46.89 -94.25 -46.89 -140.85c0 -69.97 44.29 -199 202 -199c18.63 0 39.69 3.05 53.71 5.05zM377.48 -205.78
c61.49 19.08 81.52 94.85 81.52 132.78c0 70.36 -67.65 120.04 -125.09 119l-5.83002 -0.110001l43.97 -253.35zM314.96 154c118.44 -0.979996 196.04 -88.81 196.04 -179c0 -76.79 -28.13 -159.38 -131.04 -205.44l-3.48999 -1.56l0.589996 -3.77
c9.01001 -58.04 14.62 -90.36 22.99 -148.94c1.36002 -9.48001 2.03 -18.91 2.03 -28.2c0.0200195 -84.3 -54.67 -157.09 -158.08 -157.09c-92.93 0 -147 55.17 -147 122c0 53.07 44.59 95 98 95c39.18 0 83 -38.97 83 -85c0 -41.66 -31.51 -78.49 -66.78 -84.06
l-13.59 -2.15002l11.8 -7.07996c6.91 -4.14001 23.93 -6.71002 39.57 -6.71002c6.00999 0 11.92 0.450012 17.67 1.33002c64.34 9.81 109.66 72.43 98.27 146.43c-8.75 56.86 -12.99 87.97 -22 145.02l-0.850006 5.39999l-5.29999 -1.32999
c-11.31 -2.83 -36.23 -5.85001 -59.79 -5.85001c-149.18 0 -277 79.22 -277 260c0 98.82 33.49 176.51 87.71 236.65c51.48 57.1 102.48 94.43 142.95 137.94l1.86 2l-0.680008 2.64999c-9.8 38.21 -15.84 106.07 -15.84 174.76c0 128.99 36.25 181.29 70.84 222.8
c29.84 35.81 52.36 56.32 71.78 45.8c12.11 -6.56 83.38 -104.08 83.38 -214.6c0 -134.3 -69.29 -261.15 -154.38 -339.32l-2.07999 -1.89999l25.36 -125.75z" />
    <glyph glyph-name="clefs.percussion" unicode="&#xe175;" horiz-adv-x="500" 
d="M370 244h122c4 0 8 -4 8 -8v-471c0 -4 -4 -8 -8 -8h-122c-4 0 -8 4 -8 8v471c0 4 4 8 8 8zM137 244h122c4 0 8 -4 8 -8v-471c0 -4 -4 -8 -8 -8h-122c-4 0 -8 4 -8 8v471c0 4 4 8 8 8z" />
    <glyph glyph-name="clefs.percussion_change" unicode="&#xe176;" horiz-adv-x="400" 
d="M296 195h98c3 0 6 -3 6 -6v-377c0 -3 -3 -6 -6 -6h-98c-3 0 -6 3 -6 6v377c0 3 3 6 6 6zM110 195h97c3 0 7 -3 7 -6v-377c0 -3 -4 -6 -7 -6h-97c-3 0 -7 3 -7 6v377c0 3 4 6 7 6z" />
    <glyph glyph-name="clefs.tab" unicode="&#xe177;" horiz-adv-x="384" 
d="M58 526h267v-58h-97v-268h-72v268h-98v58zM233 152l114 -325h-76l-21 66h-117l-21 -66h-75l117 325h79zM74 -223h156c68 0 102 -32 102 -81c0 -58 -37 -68 -37 -68s47 -17 47 -77c0 -79 -57 -98 -112 -98h-156v324zM142 -350h76c17 0 48 9 48 38c0 23 -28 34 -48 34h-76
v-72zM142 -492h76c29 0 53 15 53 44c0 23 -17 42 -53 42h-76v-86zM192 73l-40 -122h80z" />
    <glyph glyph-name="clefs.tab_change" unicode="&#xe178;" horiz-adv-x="320" 
d="M48 438h223v-48h-81v-223h-60v223h-82v48zM194 127l95 -271h-63l-17.657 55h-97.28l-18.063 -55h-62l97 271h66zM62 -186h130c57 0 85 -25.988 85 -67c0 -48.094 -31 -57 -31 -57s39 -13.641 39 -64c0 -66.121 -47 -82 -93 -82h-130v270zM118 -292h64c14 0 40 8 40 32
c0 19.042 -23 28 -40 28h-64v-60zM118 -410h64c24 0 44 13 44 37c0 19.042 -14 35 -44 35h-64v-72zM160.256 60.7898l-33.429 -101.79h66.107z" />
    <glyph glyph-name="timesig.C44" unicode="&#xe179;" horiz-adv-x="470" 
d="M0 -13c0 218.083 116 274 264 274c128.035 0 206 -54 206 -155c0 -54 -38 -102 -92 -102c-52 0 -96 42 -96 94c0 51 43 92 94 92c9 0 13 -2 22 -3c-14 19 -62 34 -106 34c-85.006 0 -147 -19.977 -147 -107c0 -92 1 -145 1 -237c0 -86.093 61.993 -105 140 -105
c67.88 0 148 56.989 148 102c0 12.837 1 27.7461 1 42h31c0 -15.5742 -0.812012 -31.884 -0.812012 -45.688c0 -66.323 -93.499 -134.312 -201.188 -134.312c-154.159 0 -264 71.899 -264 251z" />
    <glyph glyph-name="timesig.C22" unicode="&#xe17a;" horiz-adv-x="470" 
d="M208 346h37c4 0 8 -4 8 -8v-77.106c3.646 0.0709839 7.31299 0.105988 11 0.105988c128.035 0 206 -54 206 -155c0 -54 -38 -102 -92 -102c-52 0 -96 42 -96 94c0 51 43 92 94 92c9 0 13 -2 22 -3c-14 19 -62 34 -106 34c-13.647 0 -26.701 -0.514999 -39 -1.739
v-445.902c10.563 -0.955994 21.611 -1.35899 33 -1.35899c67.88 0 148 56.989 148 102c0 12.837 1 27.7461 1 42h31c0 -15.5742 -0.812012 -31.884 -0.812012 -45.688c0 -66.323 -93.499 -134.312 -201.188 -134.312c-3.69199 0 -7.35901 0.0409851 -11 0.123993v-73.124
c0 -4 -4 -8 -8 -8h-37c-4 0 -8 4 -8 8v77.633c-119.675 18.445 -200 93.209 -200 246.367c0 185.454 83.8854 253.637 200 269.889v81.111c0 4 4 8 8 8zM200 206.959c-34.128 -14.544 -55 -42.465 -55 -92.959c0 -92 1 -145 1 -237c0 -50.141 21.028 -77.493 54 -91.593
v421.552z" />
    <glyph glyph-name="pedal.*" unicode="&#xe17b;" horiz-adv-x="300" 
d="M150 342c25 0 35 -29 35 -54c0 -25.461 -8.47099 -59.829 -16.339 -83.676c15.003 20.41 39.614 47.468 61.339 62.676c21 14 50 23 64 2s-3 -46 -24 -60c-26.505 -18.554 -65.743 -34.595 -91.239 -39.723c25.496 -5.12199 64.734 -18.723 91.239 -37.277
c21 -14 38 -39 24 -60s-43 -12 -64 2c-21.556 15.0891 -45.982 41.181 -60.986 61.599c7.70799 -23.708 15.986 -56.5199 15.986 -81.599c0 -25 -10 -54 -35 -54s-35 29 -35 54c0 25.7252 7.606 57.482 15.585 81.417c-15.002 -20.59 -38.7407 -45.126 -60.585 -60.417
c-21 -14 -50 -23 -64 -2s3 46 24 60c25.2693 17.688 66.1123 30.785 91.586 36.5c-25.4737 5.715 -66.3167 20.812 -91.586 38.5c-21 14 -38 39 -24 60s43 12 64 -2c22.1535 -15.507 45.227 -40.524 60.217 -61.288c-8.259 24.131 -15.217 56.886 -15.217 83.288
c0 25 10 54 35 54z" />
    <glyph glyph-name="pedal.M" unicode="&#xe17c;" horiz-adv-x="210" 
d="M0 155l35 61c13 11 31 14 51 14c23 0 50 -4 73 -4c20 0 38 2 51 13l-35 -60c-13 -11 -31 -14 -51 -14c-23 0 -50 4 -73 4c-20 0 -38 -3 -51 -14z" />
    <glyph glyph-name="pedal.." unicode="&#xe17d;" horiz-adv-x="72" 
d="M0 35c0 20 16 36 36 36s36 -16 36 -36s-16 -36 -36 -36s-36 16 -36 36z" />
    <glyph glyph-name="pedal.P" unicode="&#xe17e;" horiz-adv-x="378" 
d="M354 82c-10.073 -12.5911 -54 -84 -82 -84c-30.017 0 -40.933 84 -71 84c-19 0 -51.912 -84 -103 -84c-12 0 -24 6 -24 18c0 47.0425 142 94.849 142 148c0 35.014 -76 85.81 -76 128c0 28.071 48 85 56 110c2.89101 9.035 3.021 10 -20 10
c-48.011 0 -125 -78.864 -125 -112c0 -18 9 -36 27 -36c21 0 27 27 27 48c0 18.028 30 18.025 30 -2c0 -47 -24 -98 -71 -98c-50 0 -64 39 -64 78c0 96 104 148 202 148c82 0 164 -50 164 -132c0 -32 -28 -55 -60 -55c-38.013 0 -78 54.889 -78 73c0 10 8 18 18 18
c18.028 0 26 -35 50 -35c12 0 22 9 22 21c0 33.061 -50 80 -81 80c-17 0 -45 -77.528 -45 -82c0 -42.048 74 -83.957 74 -130c0 -30.067 -24 -50 -40 -82c44 -4 75.802 -44 86 -44c8 0 24.089 14.8723 30 23c6.35699 8.741 19.22 -1.9756 12 -11z" />
    <glyph glyph-name="pedal.d" unicode="&#xe17f;" horiz-adv-x="288" 
d="M184 41c23.021 0 33 35 33 63c0 47 -26.917 115 -33 115c-8.062 0 -42 -38.971 -42 -108c0 -35 17 -70 42 -70zM79 101c0 133.015 87 132.752 87 153c0 11.045 -45.674 83.446 -159 109c-13.0019 2.93201 -15.0772 21 11 21c62.0078 0 270 -79.896 270 -253
c0 -66 -42 -131 -108 -131c-68.008 0 -101 73 -101 101z" />
    <glyph glyph-name="pedal.e" unicode="&#xe180;" horiz-adv-x="173" 
d="M68 131c11.1807 0 36 30 36 56c0 11 -5 24 -16 24c-18.0273 0 -27 -31 -27 -55c0 -10 0.917 -25 7 -25zM-10 70c0 8 22 15.9502 22 26c0 6 -5 14.98 -5 40c0 74.007 40.9883 120 85 120c30 0 54 -26 54 -56c0 -73 -76 -92 -76 -104c0 -14.0361 11 -42 32 -42
c18 0 49.929 45 57 45c9.487 0 16 -42 9 -49c-5.83099 -5.8311 -40 -50 -91 -50c-47 0 -49 52 -61 52c-20.0254 0 -26 4.1074 -26 18z" />
    <glyph glyph-name="pedal.Ped" unicode="&#xe181;" horiz-adv-x="690" 
d="M586 39c23.022 0 33 35 33 63c0 47 -26.917 115 -33 115c-8.06201 0 -42 -38.971 -42 -108c0 -35 17 -70 42 -70zM390 131c11.18 0 36 30 36 56c0 11 -5 24 -16 24c-18.028 0 -27 -31 -27 -55c0 -10 0.916992 -25 7 -25zM192 326c0 -42.048 74 -83.957 74 -130
c0 -30.067 -24 -50 -40 -82c44 -4 75.802 -44 86 -44c8 0 22 15.9501 22 26c0 6 -5 14.98 -5 40c0 74.007 40.989 120 85 120c30 0 54 -26 54 -56c0 -73 -76 -92 -76 -104c0 -14.0361 11 -42 32 -42c18 0 57 17 57 45c0 133.015 87 132.752 87 153
c0 11.045 -45.674 83.446 -159 109c-13.002 2.93201 -15.077 21 11 21c62.008 0 270 -79.896 270 -253c0 -66 -42 -131 -108 -131c-68.007 0 -84 52 -92 52c-24.021 0 -40 -50 -91 -50c-47 0 -49 52 -61 52c-16.125 0 -38 -54 -66 -54c-30.017 0 -40.933 84 -71 84
c-19 0 -51.912 -84 -103 -84c-12 0 -24 6 -24 18c0 47.0425 142 94.849 142 148c0 35.014 -76 85.81 -76 128c0 28.071 48 85 56 110c2.89101 9.035 3.021 10 -20 10c-48.011 0 -125 -78.864 -125 -112c0 -18 9 -36 27 -36c21 0 27 27 27 48c0 18.028 30 18.025 30 -2
c0 -47 -24 -98 -71 -98c-50 0 -64 39 -64 78c0 96 104 148 202 148c82 0 164 -50 164 -132c0 -32 -28 -55 -60 -55c-38.013 0 -78 54.889 -78 73c0 10 8 18 18 18c18.028 0 26 -35 50 -35c12 0 22 9 22 21c0 33.061 -50 80 -81 80c-17 0 -45 -77.528 -45 -82z" />
    <glyph glyph-name="brackettips.up" unicode="&#xe182;" horiz-adv-x="579" 
d="M10 56h205c159.078 0 227 30 333 157c8.20599 9.83099 27.821 -4.214 21 -15c-86 -136 -148.969 -254 -403 -254h-166v102c0 5.5195 4.48047 10 10 10z" />
    <glyph glyph-name="brackettips.down" unicode="&#xe183;" horiz-adv-x="579" 
d="M10 -56h205c159.078 0 227 -30 333 -157c8.20605 -9.83105 27.8213 4.21387 21 15c-86 136 -148.969 254 -403 254h-166v-102c0 -5.51953 4.48047 -10 10 -10z" />
    <glyph glyph-name="accordion.discant" unicode="&#xe184;" horiz-adv-x="391" 
d="M391 375c0 -214 -176 -386 -391 -386s-391 172 -391 386s176 386 391 386s391 -172 391 -386zM341 261c12 36 18 74 18 114s-6 78 -18 114h-682c-12 -36 -18 -74 -18 -114s6 -78 18 -114h682zM333 239h-666c53 -133 182 -228 333 -228s280 95 333 228zM-333 511h666
c-53 133 -182 228 -333 228s-280 -95 -333 -228z" />
    <glyph glyph-name="accordion.dot" unicode="&#xe185;" horiz-adv-x="62" 
d="M-62 0c0 35 27 62 62 62s62 -27 62 -62s-27 -62 -62 -62s-62 27 -62 62z" />
    <glyph glyph-name="accordion.freebass" unicode="&#xe186;" horiz-adv-x="266" 
d="M266 250c0 -145 -120 -261 -266 -261s-266 116 -266 261s120 261 266 261s266 -116 266 -261zM233 239h-466c6 -126 107 -228 233 -228s227 102 233 228zM-233 261h466c-6 126 -107 228 -233 228s-227 -102 -233 -228z" />
    <glyph glyph-name="accordion.stdbass" unicode="&#xe187;" horiz-adv-x="516" 
d="M516 500c0 -283 -232 -511 -516 -511s-516 228 -516 511s232 511 516 511s516 -228 516 -511zM484 489h-968c2 -82 25 -160 62 -228h844c37 68 60 146 62 228zM409 239h-818c86 -136 237 -228 409 -228s323 92 409 228zM-484 511h968c-2 82 -25 160 -62 228h-844
c-37 -68 -60 -146 -62 -228zM-409 761h818c-86 136 -237 228 -409 228s-323 -92 -409 -228z" />
    <glyph glyph-name="accordion.bayanbass" unicode="&#xe188;" horiz-adv-x="266" 
d="M250 782c9 0 16 -7 16 -16v-750c0 -9 -7 -16 -16 -16h-500c-9 0 -16 7 -16 16v750c0 9 7 16 16 16h500zM234 32v218h-468v-218h468zM234 282v218h-468v-218h468zM234 532v218h-468v-218h468z" />
    <glyph glyph-name="accordion.oldEE" unicode="&#xe189;" horiz-adv-x="266" 
d="M234 261c0 131 -104 239 -234 239s-234 -108 -234 -239s104 -238 234 -238s234 107 234 238zM266 261c0 -145 -120 -261 -266 -261s-266 116 -266 261s120 262 266 262s266 -117 266 -262zM59 367c0 26 21 48 47 48s48 -22 48 -48s-22 -47 -48 -47c-6 0 -12 1 -17 3
l-55 -46c0 -1 1 -2 1 -3l71 6c7 17 24 29 44 29c26 0 48 -22 48 -48s-22 -47 -48 -47c-20 0 -37 12 -44 29l-71 5c0 -1 -1 -1 -1 -2l55 -47c5 2 11 4 17 4c26 0 48 -22 48 -48s-22 -47 -48 -47s-47 21 -47 47c0 6 1 13 3 18l-46 54c-1 0 -2 -1 -3 -1l6 -71
c17 -7 28 -24 28 -44c0 -26 -21 -47 -47 -47s-47 21 -47 47c0 20 11 37 28 44l6 71c-1 0 -2 1 -3 1l-46 -54c2 -5 3 -12 3 -18c0 -26 -21 -47 -47 -47s-48 21 -48 47s22 48 48 48c6 0 12 -2 17 -4l55 47c0 1 -1 1 -1 2l-71 -5c-7 -17 -24 -29 -44 -29c-26 0 -47 21 -47 47
s21 48 47 48c20 0 37 -12 44 -29l71 -6c0 1 1 2 1 3l-55 46c-5 -2 -11 -3 -17 -3c-26 0 -48 21 -48 47s22 48 48 48s47 -22 47 -48c0 -6 -1 -12 -3 -17l46 -55c1 0 2 2 3 2l-6 71c-17 7 -28 23 -28 43c0 26 21 48 47 48s47 -22 47 -48c0 -20 -11 -36 -28 -43l-6 -71
c1 0 2 -2 3 -2l46 55c-2 5 -3 11 -3 17z" />
    <glyph glyph-name="accordion.push" unicode="&#xe18a;" horiz-adv-x="0" 
d="M-230 556c0 10 8 19 19 19c6 0 11 -3 15 -8l192 -269c2 -3 4 -6 4 -10s-2 -8 -4 -11l-192 -269c-4 -5 -9 -8 -15 -8c-11 0 -19 9 -19 19c0 4 2 8 4 11l184 258l-184 257c-2 3 -4 7 -4 11z" />
    <glyph glyph-name="accordion.pull" unicode="&#xe18b;" horiz-adv-x="37" 
d="M38 19c0 -10 -9 -19 -19 -19s-19 9 -19 19v481h-174c-10 0 -18 9 -18 19v37c0 10 8 19 18 19h193c10 0 19 -9 19 -19v-537z" />
    <glyph glyph-name="ties.lyric.short" unicode="&#xe18c;" horiz-adv-x="0" 
d="M0 -183c-64 0 -128 24 -168 74c-3 3 -4 6 -4 9c0 8 8 15 16 15c4 0 8 -2 11 -6c33 -41 92 -42 145 -42s112 1 145 42c3 4 7 6 11 6c8 0 16 -7 16 -15c0 -3 -1 -6 -4 -9c-40 -50 -104 -74 -168 -74z" />
    <glyph glyph-name="ties.lyric.default" unicode="&#xe18d;" horiz-adv-x="0" 
d="M0 -189c-83 0 -166 24 -229 78c-4 3 -5 7 -5 11c0 8 7 15 15 15c3 0 7 -1 10 -4c56 -48 135 -50 209 -50s153 2 209 50c3 3 7 4 10 4c8 0 15 -7 15 -15c0 -4 -1 -8 -5 -11c-63 -54 -146 -78 -229 -78z" />
    <glyph glyph-name="noteheads.uM2" unicode="&#xe18e;" horiz-adv-x="404" 
d="M388 731h8c4 0 8 -4 8 -8v-883c0 -4 -4 -8 -8 -8h-8c-4 0 -8 4 -8 8v883c0 4 4 8 8 8zM-16 170h8c4 0 8 -4 8 -8v-322c0 -4 -4 -8 -8 -8h-8c-4 0 -8 4 -8 8v322c0 4 4 8 8 8zM190 138c105 0 190 -46 190 -138c0 -91 -85 -136 -190 -136s-190 45 -190 136
c0 92 85 138 190 138zM180 100c-34 0 -70 -17 -70 -51c0 -68 22 -150 90 -150c48 0 70 20 70 55c0 67 -23 146 -90 146z" />
    <glyph glyph-name="noteheads.dM2" unicode="&#xe18f;" horiz-adv-x="404" 
d="M388 170h8c4 0 8 -4 8 -8v-322c0 -4 -4 -8 -8 -8h-8c-4 0 -8 4 -8 8v322c0 4 4 8 8 8zM-16 170h8c4 0 8 -4 8 -8v-883c0 -4 -4 -8 -8 -8h-8c-4 0 -8 4 -8 8v883c0 4 4 8 8 8zM190 138c105 0 190 -46 190 -138c0 -91 -85 -136 -190 -136s-190 45 -190 136
c0 92 85 138 190 138zM180 100c-34 0 -70 -17 -70 -51c0 -68 22 -150 90 -150c48 0 70 20 70 55c0 67 -23 146 -90 146z" />
    <glyph glyph-name="noteheads.sM1" unicode="&#xe190;" horiz-adv-x="404" 
d="M388 170h8c4 0 8 -4 8 -8v-322c0 -4 -4 -8 -8 -8h-8c-4 0 -8 4 -8 8v322c0 4 4 8 8 8zM-16 170h8c4 0 8 -4 8 -8v-322c0 -4 -4 -8 -8 -8h-8c-4 0 -8 4 -8 8v322c0 4 4 8 8 8zM190 138c105 0 190 -46 190 -138c0 -91 -85 -136 -190 -136s-190 45 -190 136
c0 92 85 138 190 138zM180 100c-34 0 -70 -17 -70 -51c0 -68 22 -150 90 -150c48 0 70 20 70 55c0 67 -23 146 -90 146z" />
    <glyph glyph-name="noteheads.sM1double" unicode="&#xe191;" horiz-adv-x="452" 
d="M436 170h8c4 0 8 -4 8 -8v-322c0 -4 -4 -8 -8 -8h-8c-4 0 -8 4 -8 8v322c0 4 4 8 8 8zM-64 170h8c4 0 8 -4 8 -8v-322c0 -4 -4 -8 -8 -8h-8c-4 0 -8 4 -8 8v322c0 4 4 8 8 8zM388 170h8c4 0 8 -4 8 -8v-322c0 -4 -4 -8 -8 -8h-8c-4 0 -8 4 -8 8v322c0 4 4 8 8 8zM-16 170
h8c4 0 8 -4 8 -8v-322c0 -4 -4 -8 -8 -8h-8c-4 0 -8 4 -8 8v322c0 4 4 8 8 8zM190 138c105 0 190 -46 190 -138c0 -91 -85 -136 -190 -136s-190 45 -190 136c0 92 85 138 190 138zM180 100c-34 0 -70 -17 -70 -51c0 -68 22 -150 90 -150c48 0 70 20 70 55
c0 67 -23 146 -90 146z" />
    <glyph glyph-name="noteheads.s0" unicode="&#xe192;" horiz-adv-x="380" 
d="M190 138c105 0 190 -46 190 -138c0 -91 -85 -136 -190 -136s-190 45 -190 136c0 92 85 138 190 138zM180 100c-34 0 -70 -17 -70 -51c0 -68 22 -150 90 -150c48 0 70 20 70 55c0 67 -23 146 -90 146z" />
    <glyph glyph-name="noteheads.s1" unicode="&#xe193;" horiz-adv-x="338" 
d="M255 93c20 0 43 -32.8574 43 -47c0 -20.0996 -203.847 -139 -217 -139c-18 0 -40 26.7763 -40 47c0 22.2036 201.834 139 214 139zM220 138c-110 0 -220 -88 -220 -178c0 -61 49 -98 121 -98c63 0 217 59.9831 217 178c0 60 -42.893 98 -118 98z" />
    <glyph glyph-name="noteheads.s2" unicode="&#xe194;" 
d="M217 135c64.031 0 112 -37 112 -95c0 -104 -127.994 -175 -217 -175c-57 0 -112 38 -112 95c0 103 127.949 175 217 175z" />
    <glyph glyph-name="noteheads.s0diamond" unicode="&#xe195;" horiz-adv-x="495" 
d="M210 75c-29 0 -26 -45 -26 -74c0 -47 25 -56 61 -67c13 -4 28 -9 40 -9c29 0 26 45 26 74c0 47 -25 56 -61 67c-13 4 -28 9 -40 9zM495 0c0 -58 -80 -43 -125 -68c-42 -23 -73 -70 -122 -70s-81 47 -123 70c-45 25 -125 10 -125 68s80 43 125 68c42 23 74 70 123 70
s80 -47 122 -70c45 -25 125 -10 125 -68z" />
    <glyph glyph-name="noteheads.s1diamond" unicode="&#xe196;" horiz-adv-x="364" 
d="M292 55c0 17 -14 26 -29 26c-4 0 -8 -1 -12 -2c-25 -8 -60 -30 -89 -49s-64 -41 -81 -61c-6 -7 -9 -16 -9 -24c0 -17 14 -26 29 -26c4 0 8 1 12 2c25 8 60 30 89 49s64 41 81 61c6 7 9 16 9 24zM323 138c18 0 41 -17 41 -41c0 -28 -32 -55 -42 -86
c-12 -37 3 -85 -31 -108c-16 -11 -34 -14 -52 -14c-25 0 -52 6 -78 6c-44 0 -84 -32 -120 -32c-18 0 -41 16 -41 40c0 28 32 55 42 86c12 37 -3 85 31 108c16 11 34 14 52 14c25 0 52 -6 78 -6c44 0 84 33 120 33z" />
    <glyph glyph-name="noteheads.s2diamond" unicode="&#xe197;" horiz-adv-x="368" 
d="M331 138c19 0 38 -19 38 -39c0 -37 -63 -63 -86 -102c-25 -42 -33 -96 -74 -125c-9 -6 -19 -9 -29 -9c-23 0 -48 12 -73 12c-23 0 -49 -13 -70 -13c-19 0 -37 19 -37 39c0 37 63 63 86 102c25 42 33 96 74 125c9 6 18 9 28 9c23 0 48 -12 73 -12c23 0 49 13 70 13z" />
    <glyph glyph-name="noteheads.s0triangle" unicode="&#xe198;" horiz-adv-x="578" 
d="M131 83c27 -49 46 -106 46 -176c0 -6 -1 -11 -1 -17c63 53 137 98 220 129c-95 12 -184 34 -265 64zM0 160c0 16 23 23 43 23c3 0 5 0 7 -1c134 -71 296 -121 487 -121h6c18 0 36 -9 36 -24c0 -17 -19 -22 -36 -26c-158 -39 -291 -121 -390 -225c-4 -4 -10 -5 -15 -5
c-21 0 -45 6 -45 23c0 4 2 8 3 12c5 26 7 51 7 77c0 104 -35 181 -87 244c-6 7 -16 12 -16 23z" />
    <glyph glyph-name="noteheads.d1triangle" unicode="&#xe199;" horiz-adv-x="418" 
d="M102 69c19 -45 31 -96 31 -156c41 41 91 76 145 103c-64 11 -123 29 -176 53zM0 142c0 15 15 23 32 23c5 0 9 0 13 -3c86 -58 206 -110 343 -105h1c15 0 29 -10 29 -24s-12 -22 -25 -26c-114 -35 -210 -106 -274 -195c-5 -7 -13 -9 -21 -9c-17 0 -32 9 -32 24
c0 3 1 5 1 8c4 24 7 47 7 71c0 91 -27 158 -67 218c-4 5 -7 11 -7 18z" />
    <glyph glyph-name="noteheads.u1triangle" unicode="&#xe19a;" horiz-adv-x="418" 
d="M102 69c19 -45 31 -96 31 -156c41 41 91 76 145 103c-64 11 -123 29 -176 53zM0 142c0 15 15 23 32 23c5 0 9 0 13 -3c86 -58 206 -110 343 -105h1c15 0 29 -10 29 -24s-12 -22 -25 -26c-114 -35 -210 -106 -274 -195c-5 -7 -13 -9 -21 -9c-17 0 -32 9 -32 24
c0 3 1 5 1 8c4 24 7 47 7 71c0 91 -27 158 -67 218c-4 5 -7 11 -7 18z" />
    <glyph glyph-name="noteheads.u2triangle" unicode="&#xe19b;" horiz-adv-x="348" 
d="M55 -173c0 26 7 53 7 80c0 90 -22 157 -58 221c-10 17 2 37 21 37c6 0 11 -2 16 -6c69 -57 166 -102 283 -102c13 0 24 -12 24 -25c0 -11 -8 -20 -18 -24c-98 -37 -178 -106 -228 -192c-5 -8 -13 -13 -22 -13c-14 0 -25 10 -25 24z" />
    <glyph glyph-name="noteheads.d2triangle" unicode="&#xe19c;" horiz-adv-x="348" 
d="M55 -173c0 26 7 53 7 80c0 90 -22 157 -58 221c-10 17 2 37 21 37c6 0 11 -2 16 -6c69 -57 166 -102 283 -102c13 0 24 -12 24 -25c0 -11 -8 -20 -18 -24c-98 -37 -178 -106 -228 -192c-5 -8 -13 -13 -22 -13c-14 0 -25 10 -25 24z" />
    <glyph glyph-name="noteheads.s0slash" unicode="&#xe19d;" horiz-adv-x="753" 
d="M117 -193h284l236 386h-285zM10 -263c-6 0 -10 6 -10 11c0 2 0 3 1 5l309 505c2 3 6 5 9 5h425c6 0 10 -6 10 -11c0 -2 -1 -3 -2 -5l-308 -505c-2 -3 -6 -5 -9 -5h-425z" />
    <glyph glyph-name="noteheads.s1slash" unicode="&#xe19e;" horiz-adv-x="586" 
d="M117 -193h117l235 386h-117zM10 -263c-6 0 -10 6 -10 11c0 2 0 3 1 5l309 505c2 3 6 5 9 5h257c6 0 10 -6 10 -11c0 -2 0 -3 -1 -5l-309 -505c-2 -3 -6 -5 -9 -5h-257z" />
    <glyph glyph-name="noteheads.s2slash" unicode="&#xe19f;" horiz-adv-x="428" 
d="M10 -263c-6 0 -10 6 -10 11c0 2 0 3 1 5l309 505c2 3 6 5 9 5h100c6 0 10 -6 10 -11c0 -2 -1 -3 -2 -5l-308 -505c-2 -3 -6 -5 -9 -5h-100z" />
    <glyph glyph-name="noteheads.s0cross" unicode="&#xe1a0;" horiz-adv-x="429" 
d="M223 44c-2 -2 -5 -2 -8 -2s-7 0 -9 2l-107 73l-57 -39l97 -66c4 -3 7 -7 7 -12s-3 -9 -7 -12l-97 -66l57 -39l107 73c2 2 6 2 9 2s6 0 8 -2l107 -73l57 39l-97 66c-4 3 -7 7 -7 12s3 9 7 12l97 66l-57 39zM215 75l107 72c2 2 5 3 8 3s7 -1 9 -3l83 -56c4 -3 7 -8 7 -13
s-3 -9 -7 -12l-97 -66l97 -66c4 -3 7 -7 7 -12s-3 -10 -7 -13l-83 -56c-2 -2 -6 -3 -9 -3s-6 1 -8 3l-107 72l-108 -72c-2 -2 -5 -3 -8 -3s-7 1 -9 3l-83 56c-4 3 -7 8 -7 13s3 9 7 12l97 66l-97 66c-4 3 -7 7 -7 12s3 10 7 13l83 56c2 2 6 3 9 3s6 -1 8 -3z" />
    <glyph glyph-name="noteheads.s1cross" unicode="&#xe1a1;" horiz-adv-x="379" 
d="M198 35c-3 -2 -5 -3 -8 -3s-6 1 -9 3l-103 75l-38 -28l95 -70c4 -3 6 -7 6 -12s-2 -9 -6 -12l-95 -70l38 -28l103 75c3 2 6 3 9 3s5 -1 8 -3l103 -75l38 28l-95 70c-4 3 -6 7 -6 12s2 9 6 12l95 70l-38 28zM190 65l102 76c3 2 6 3 9 3s6 -1 9 -3l63 -47c4 -3 6 -7 6 -12
s-2 -9 -6 -12l-95 -70l95 -70c4 -3 6 -7 6 -12s-2 -9 -6 -12l-63 -47c-3 -2 -6 -3 -9 -3s-6 1 -9 3l-102 76l-103 -76c-3 -2 -6 -3 -9 -3s-6 1 -9 3l-63 47c-4 3 -6 7 -6 12s2 9 6 12l95 70l-95 70c-4 3 -6 7 -6 12s2 9 6 12l63 47c3 2 6 3 9 3s6 -1 9 -3z" />
    <glyph glyph-name="noteheads.s2cross" unicode="&#xe1a2;" 
d="M165 36l120 98c3 2 6 4 9 4s7 -2 10 -4l20 -16c3 -3 5 -8 5 -12s-2 -8 -5 -11l-116 -95l116 -95c3 -3 5 -7 5 -11s-2 -9 -5 -12l-20 -16c-3 -2 -7 -4 -10 -4s-6 2 -9 4l-120 98l-121 -98c-3 -2 -6 -4 -9 -4s-7 2 -10 4l-20 16c-3 3 -5 8 -5 12s2 8 5 11l116 95l-116 95
c-3 3 -5 7 -5 11s2 9 5 12l20 16c3 2 7 4 10 4s6 -2 9 -4z" />
    <glyph glyph-name="noteheads.s2xcircle" unicode="&#xe1a3;" horiz-adv-x="391" 
d="M196 173c101 0 195 -74 195 -173s-94 -173 -195 -173s-196 74 -196 173s95 173 196 173zM168 0l-97 85c-22 -24 -35 -54 -35 -85s13 -61 35 -85zM196 24l96 84c-28 18 -61 28 -96 28s-69 -10 -97 -28zM196 -24l-97 -84c28 -18 62 -28 97 -28s68 10 96 28zM223 0l98 -85
c22 24 34 54 34 85s-12 61 -34 85z" />
    <glyph glyph-name="noteheads.s0do" unicode="&#xe1a4;" 
d="M97 -47h158l-79 102zM16 -112c-9 0 -16 7 -16 16c0 4 1 7 3 10l149 192c3 4 8 6 13 6s9 -2 12 -6l149 -192c2 -3 3 -6 3 -10c0 -9 -7 -16 -16 -16h-297z" />
    <glyph glyph-name="noteheads.d1do" unicode="&#xe1a5;" 
d="M97 -47h158l-79 102zM16 -112c-9 0 -16 7 -16 16c0 4 1 7 3 10l149 192c3 4 8 6 13 6s9 -2 12 -6l149 -192c2 -3 3 -6 3 -10c0 -9 -7 -16 -16 -16h-297z" />
    <glyph glyph-name="noteheads.u1do" unicode="&#xe1a6;" 
d="M97 -47h158l-79 102zM16 -112c-9 0 -16 7 -16 16c0 4 1 7 3 10l149 192c3 4 8 6 13 6s9 -2 12 -6l149 -192c2 -3 3 -6 3 -10c0 -9 -7 -16 -16 -16h-297z" />
    <glyph glyph-name="noteheads.d2do" unicode="&#xe1a7;" 
d="M16 -112c-9 0 -16 7 -16 16c0 4 1 7 3 10l149 192c3 4 8 6 13 6s9 -2 12 -6l149 -192c2 -3 3 -6 3 -10c0 -9 -7 -16 -16 -16h-297z" />
    <glyph glyph-name="noteheads.u2do" unicode="&#xe1a8;" 
d="M16 -112c-9 0 -16 7 -16 16c0 4 1 7 3 10l149 192c3 4 8 6 13 6s9 -2 12 -6l149 -192c2 -3 3 -6 3 -10c0 -9 -7 -16 -16 -16h-297z" />
    <glyph glyph-name="noteheads.s0doThin" unicode="&#xe1a9;" 
d="M49 -80h231l-115 150zM16 -112c-9 0 -16 7 -16 16c0 4 1 7 3 10l149 192c3 4 8 6 13 6s9 -2 12 -6l149 -192c2 -3 3 -6 3 -10c0 -9 -7 -16 -16 -16h-297z" />
    <glyph glyph-name="noteheads.d1doThin" unicode="&#xe1aa;" 
d="M49 -80h231l-115 150zM16 -112c-9 0 -16 7 -16 16c0 4 1 7 3 10l149 192c3 4 8 6 13 6s9 -2 12 -6l149 -192c2 -3 3 -6 3 -10c0 -9 -7 -16 -16 -16h-297z" />
    <glyph glyph-name="noteheads.u1doThin" unicode="&#xe1ab;" 
d="M49 -80h231l-115 150zM16 -112c-9 0 -16 7 -16 16c0 4 1 7 3 10l149 192c3 4 8 6 13 6s9 -2 12 -6l149 -192c2 -3 3 -6 3 -10c0 -9 -7 -16 -16 -16h-297z" />
    <glyph glyph-name="noteheads.d2doThin" unicode="&#xe1ac;" 
d="M16 -112c-9 0 -16 7 -16 16c0 4 1 7 3 10l149 192c3 4 8 6 13 6s9 -2 12 -6l149 -192c2 -3 3 -6 3 -10c0 -9 -7 -16 -16 -16h-297z" />
    <glyph glyph-name="noteheads.u2doThin" unicode="&#xe1ad;" 
d="M16 -112c-9 0 -16 7 -16 16c0 4 1 7 3 10l149 192c3 4 8 6 13 6s9 -2 12 -6l149 -192c2 -3 3 -6 3 -10c0 -9 -7 -16 -16 -16h-297z" />
    <glyph glyph-name="noteheads.s0re" unicode="&#xe1ae;" 
d="M33 47v-9c0 -55 68 -69 132 -69s132 14 132 69v9h-264zM0 96c0 9 7 16 16 16h297c9 0 16 -7 16 -16v-58c0 -86 -75 -150 -164 -150s-165 64 -165 150v58z" />
    <glyph glyph-name="noteheads.u1re" unicode="&#xe1af;" 
d="M33 47v-9c0 -55 68 -69 132 -69s132 14 132 69v9h-264zM0 96c0 9 7 16 16 16h297c9 0 16 -7 16 -16v-58c0 -86 -75 -150 -164 -150s-165 64 -165 150v58z" />
    <glyph glyph-name="noteheads.d1re" unicode="&#xe1b0;" 
d="M33 47v-9c0 -55 68 -69 132 -69s132 14 132 69v9h-264zM0 96c0 9 7 16 16 16h297c9 0 16 -7 16 -16v-58c0 -86 -75 -150 -164 -150s-165 64 -165 150v58z" />
    <glyph glyph-name="noteheads.u2re" unicode="&#xe1b1;" 
d="M0 96c0 9 7 16 16 16h297c9 0 16 -7 16 -16v-58c0 -86 -75 -150 -164 -150s-165 64 -165 150v58z" />
    <glyph glyph-name="noteheads.d2re" unicode="&#xe1b2;" 
d="M0 96c0 9 7 16 16 16h297c9 0 16 -7 16 -16v-58c0 -86 -75 -150 -164 -150s-165 64 -165 150v58z" />
    <glyph glyph-name="noteheads.s0reThin" unicode="&#xe1b3;" 
d="M33 80v-42c0 -63 64 -102 132 -102s132 39 132 102v42h-264zM0 96c0 9 7 16 16 16h297c9 0 16 -7 16 -16v-58c0 -86 -75 -150 -164 -150s-165 64 -165 150v58z" />
    <glyph glyph-name="noteheads.u1reThin" unicode="&#xe1b4;" 
d="M33 80v-42c0 -63 64 -102 132 -102s132 39 132 102v42h-264zM0 96c0 9 7 16 16 16h297c9 0 16 -7 16 -16v-58c0 -86 -75 -150 -164 -150s-165 64 -165 150v58z" />
    <glyph glyph-name="noteheads.d1reThin" unicode="&#xe1b5;" 
d="M33 80v-42c0 -63 64 -102 132 -102s132 39 132 102v42h-264zM0 96c0 9 7 16 16 16h297c9 0 16 -7 16 -16v-58c0 -86 -75 -150 -164 -150s-165 64 -165 150v58z" />
    <glyph glyph-name="noteheads.u2reThin" unicode="&#xe1b6;" 
d="M0 96c0 9 7 16 16 16h297c9 0 16 -7 16 -16v-58c0 -86 -75 -150 -164 -150s-165 64 -165 150v58z" />
    <glyph glyph-name="noteheads.d2reThin" unicode="&#xe1b7;" 
d="M0 96c0 9 7 16 16 16h297c9 0 16 -7 16 -16v-58c0 -86 -75 -150 -164 -150s-165 64 -165 150v58z" />
    <glyph glyph-name="noteheads.s0mi" unicode="&#xe1b8;" horiz-adv-x="394" 
d="M309 -18l-146 77l-77 -41l146 -77zM9 -14c-5 3 -9 8 -9 14s4 11 9 14l181 97c2 1 4 1 7 1s6 0 8 -1l181 -97c5 -3 9 -8 9 -14s-4 -11 -9 -14l-181 -97c-2 -1 -5 -1 -8 -1s-5 0 -7 1z" />
    <glyph glyph-name="noteheads.s1mi" unicode="&#xe1b9;" horiz-adv-x="394" 
d="M309 -18l-146 77l-77 -41l146 -77zM9 -14c-5 3 -9 8 -9 14s4 11 9 14l181 97c2 1 4 1 7 1s6 0 8 -1l181 -97c5 -3 9 -8 9 -14s-4 -11 -9 -14l-181 -97c-2 -1 -5 -1 -8 -1s-5 0 -7 1z" />
    <glyph glyph-name="noteheads.s2mi" unicode="&#xe1ba;" horiz-adv-x="394" 
d="M9 -14c-5 3 -9 8 -9 14s4 11 9 14l181 97c2 1 4 1 7 1s6 0 8 -1l181 -97c5 -3 9 -8 9 -14s-4 -11 -9 -14l-181 -97c-2 -1 -5 -1 -8 -1s-5 0 -7 1z" />
    <glyph glyph-name="noteheads.s0miMirror" unicode="&#xe1bb;" horiz-adv-x="394" 
d="M86 -18l77 -41l146 77l-77 41zM9 -14c-5 3 -9 8 -9 14s4 11 9 14l181 97c2 1 4 1 7 1s6 0 8 -1l181 -97c5 -3 9 -8 9 -14s-4 -11 -9 -14l-181 -97c-2 -1 -5 -1 -8 -1s-5 0 -7 1z" />
    <glyph glyph-name="noteheads.s1miMirror" unicode="&#xe1bc;" horiz-adv-x="394" 
d="M86 -18l77 -41l146 77l-77 41zM9 -14c-5 3 -9 8 -9 14s4 11 9 14l181 97c2 1 4 1 7 1s6 0 8 -1l181 -97c5 -3 9 -8 9 -14s-4 -11 -9 -14l-181 -97c-2 -1 -5 -1 -8 -1s-5 0 -7 1z" />
    <glyph glyph-name="noteheads.s2miMirror" unicode="&#xe1bd;" horiz-adv-x="394" 
d="M9 -14c-5 3 -9 8 -9 14s4 11 9 14l181 97c2 1 4 1 7 1s6 0 8 -1l181 -97c5 -3 9 -8 9 -14s-4 -11 -9 -14l-181 -97c-2 -1 -5 -1 -8 -1s-5 0 -7 1z" />
    <glyph glyph-name="noteheads.s0miThin" unicode="&#xe1be;" horiz-adv-x="394" 
d="M344 0l-147 78l-146 -78l146 -78zM9 -14c-5 3 -9 8 -9 14s4 11 9 14l181 97c2 1 4 1 7 1s6 0 8 -1l181 -97c5 -3 9 -8 9 -14s-4 -11 -9 -14l-181 -97c-2 -1 -5 -1 -8 -1s-5 0 -7 1z" />
    <glyph glyph-name="noteheads.s1miThin" unicode="&#xe1bf;" horiz-adv-x="394" 
d="M344 0l-147 78l-146 -78l146 -78zM9 -14c-5 3 -9 8 -9 14s4 11 9 14l181 97c2 1 4 1 7 1s6 0 8 -1l181 -97c5 -3 9 -8 9 -14s-4 -11 -9 -14l-181 -97c-2 -1 -5 -1 -8 -1s-5 0 -7 1z" />
    <glyph glyph-name="noteheads.s2miThin" unicode="&#xe1c0;" horiz-adv-x="394" 
d="M9 -14c-5 3 -9 8 -9 14s4 11 9 14l181 97c2 1 4 1 7 1s6 0 8 -1l181 -97c5 -3 9 -8 9 -14s-4 -11 -9 -14l-181 -97c-2 -1 -5 -1 -8 -1s-5 0 -7 1z" />
    <glyph glyph-name="noteheads.u0fa" unicode="&#xe1c1;" 
d="M297 56h-188l188 -122v122zM0 96c0 9 7 17 16 17h297c9 0 16 -8 16 -17v-192c0 -9 -7 -16 -16 -16c-3 0 -6 0 -9 2l-297 193c-5 3 -7 7 -7 13z" />
    <glyph glyph-name="noteheads.d0fa" unicode="&#xe1c2;" 
d="M33 -56h187l-187 122v-122zM329 -96c0 -9 -7 -17 -16 -17h-297c-9 0 -16 8 -16 17v192c0 9 7 16 16 16c3 0 6 0 9 -2l297 -193c5 -3 7 -7 7 -13z" />
    <glyph glyph-name="noteheads.u1fa" unicode="&#xe1c3;" 
d="M297 56h-188l188 -122v122zM0 96c0 9 7 17 16 17h297c9 0 16 -8 16 -17v-192c0 -9 -7 -16 -16 -16c-3 0 -6 0 -9 2l-297 193c-5 3 -7 7 -7 13z" />
    <glyph glyph-name="noteheads.d1fa" unicode="&#xe1c4;" 
d="M33 -56h187l-187 122v-122zM329 -96c0 -9 -7 -17 -16 -17h-297c-9 0 -16 8 -16 17v192c0 9 7 16 16 16c3 0 6 0 9 -2l297 -193c5 -3 7 -7 7 -13z" />
    <glyph glyph-name="noteheads.u2fa" unicode="&#xe1c5;" 
d="M0 96c0 9 7 17 16 17h297c9 0 16 -8 16 -17v-192c0 -9 -7 -16 -16 -16c-3 0 -6 0 -9 2l-297 193c-5 3 -7 7 -7 13z" />
    <glyph glyph-name="noteheads.d2fa" unicode="&#xe1c6;" 
d="M329 -96c0 -9 -7 -17 -16 -17h-297c-9 0 -16 8 -16 17v192c0 9 7 16 16 16c3 0 6 0 9 -2l297 -193c5 -3 7 -7 7 -13z" />
    <glyph glyph-name="noteheads.u0faThin" unicode="&#xe1c7;" 
d="M297 80h-226l226 -146v146zM0 96c0 9 7 17 16 17h297c9 0 16 -8 16 -17v-192c0 -9 -7 -16 -16 -16c-3 0 -6 0 -9 2l-297 193c-5 3 -7 7 -7 13z" />
    <glyph glyph-name="noteheads.d0faThin" unicode="&#xe1c8;" 
d="M33 -80h225l-225 146v-146zM329 -96c0 -9 -7 -17 -16 -17h-297c-9 0 -16 8 -16 17v192c0 9 7 16 16 16c3 0 6 0 9 -2l297 -193c5 -3 7 -7 7 -13z" />
    <glyph glyph-name="noteheads.u1faThin" unicode="&#xe1c9;" 
d="M297 80h-226l226 -146v146zM0 96c0 9 7 17 16 17h297c9 0 16 -8 16 -17v-192c0 -9 -7 -16 -16 -16c-3 0 -6 0 -9 2l-297 193c-5 3 -7 7 -7 13z" />
    <glyph glyph-name="noteheads.d1faThin" unicode="&#xe1ca;" 
d="M33 -80h225l-225 146v-146zM329 -96c0 -9 -7 -17 -16 -17h-297c-9 0 -16 8 -16 17v192c0 9 7 16 16 16c3 0 6 0 9 -2l297 -193c5 -3 7 -7 7 -13z" />
    <glyph glyph-name="noteheads.u2faThin" unicode="&#xe1cb;" 
d="M0 96c0 9 7 17 16 17h297c9 0 16 -8 16 -17v-192c0 -9 -7 -16 -16 -16c-3 0 -6 0 -9 2l-297 193c-5 3 -7 7 -7 13z" />
    <glyph glyph-name="noteheads.d2faThin" unicode="&#xe1cc;" 
d="M329 -96c0 -9 -7 -17 -16 -17h-297c-9 0 -16 8 -16 17v192c0 9 7 16 16 16c3 0 6 0 9 -2l297 -193c5 -3 7 -7 7 -13z" />
    <glyph glyph-name="noteheads.s0sol" unicode="&#xe1cd;" horiz-adv-x="347" 
d="M315 65c0 24 -21 41 -42 41c-4 0 -8 0 -12 -1c-31 -9 -77 -40 -114 -64s-84 -53 -104 -78c-7 -8 -11 -18 -11 -28c0 -24 21 -41 42 -41c4 0 8 0 12 1c31 9 78 40 115 64s84 53 104 78c7 8 10 18 10 28zM264 137c47 0 83 -21 83 -72c0 -19 -4 -37 -10 -56
c-12 -38 -32 -74 -65 -96c-54 -36 -113 -51 -188 -51c-47 0 -84 22 -84 73c0 19 5 37 11 56c12 38 31 74 64 96c54 36 114 50 189 50z" />
    <glyph glyph-name="noteheads.s1sol" unicode="&#xe1ce;" horiz-adv-x="347" 
d="M315 65c0 24 -21 41 -42 41c-4 0 -8 0 -12 -1c-31 -9 -77 -40 -114 -64s-84 -53 -104 -78c-7 -8 -11 -18 -11 -28c0 -24 21 -41 42 -41c4 0 8 0 12 1c31 9 78 40 115 64s84 53 104 78c7 8 10 18 10 28zM264 137c47 0 83 -21 83 -72c0 -19 -4 -37 -10 -56
c-12 -38 -32 -74 -65 -96c-54 -36 -113 -51 -188 -51c-47 0 -84 22 -84 73c0 19 5 37 11 56c12 38 31 74 64 96c54 36 114 50 189 50z" />
    <glyph glyph-name="noteheads.s2sol" unicode="&#xe1cf;" horiz-adv-x="347" 
d="M264 137c47 0 83 -21 83 -72c0 -19 -4 -37 -10 -56c-12 -38 -32 -74 -65 -96c-54 -36 -113 -51 -188 -51c-47 0 -84 22 -84 73c0 19 5 37 11 56c12 38 31 74 64 96c54 36 114 50 189 50z" />
    <glyph glyph-name="noteheads.s0la" unicode="&#xe1d0;" 
d="M33 47v-94h264v94h-264zM16 112h297c9 0 16 -7 16 -16v-192c0 -9 -7 -17 -16 -17h-297c-9 0 -16 8 -16 17v192c0 9 7 16 16 16z" />
    <glyph glyph-name="noteheads.s1la" unicode="&#xe1d1;" 
d="M33 47v-94h264v94h-264zM16 112h297c9 0 16 -7 16 -16v-192c0 -9 -7 -17 -16 -17h-297c-9 0 -16 8 -16 17v192c0 9 7 16 16 16z" />
    <glyph glyph-name="noteheads.s2la" unicode="&#xe1d2;" 
d="M16 112h297c9 0 16 -7 16 -16v-192c0 -9 -7 -17 -16 -17h-297c-9 0 -16 8 -16 17v192c0 9 7 16 16 16z" />
    <glyph glyph-name="noteheads.s0laThin" unicode="&#xe1d3;" 
d="M33 80v-160h264v160h-264zM16 112h297c9 0 16 -7 16 -16v-192c0 -9 -7 -17 -16 -17h-297c-9 0 -16 8 -16 17v192c0 9 7 16 16 16z" />
    <glyph glyph-name="noteheads.s1laThin" unicode="&#xe1d4;" 
d="M33 80v-160h264v160h-264zM16 112h297c9 0 16 -7 16 -16v-192c0 -9 -7 -17 -16 -17h-297c-9 0 -16 8 -16 17v192c0 9 7 16 16 16z" />
    <glyph glyph-name="noteheads.s2laThin" unicode="&#xe1d5;" 
d="M16 112h297c9 0 16 -7 16 -16v-192c0 -9 -7 -17 -16 -17h-297c-9 0 -16 8 -16 17v192c0 9 7 16 16 16z" />
    <glyph glyph-name="noteheads.s0ti" unicode="&#xe1d6;" 
d="M165 -47l107 53c-17 44 -59 74 -107 74s-91 -30 -108 -74zM175 -109c-3 -2 -6 -3 -10 -3s-8 1 -11 3l-148 123c-4 3 -6 8 -6 13c0 4 2 7 4 10c40 48 99 75 161 75s120 -27 160 -75c2 -3 4 -6 4 -10c0 -5 -2 -10 -6 -13z" />
    <glyph glyph-name="noteheads.u1ti" unicode="&#xe1d7;" 
d="M165 -47l107 53c-17 44 -59 74 -107 74s-91 -30 -108 -74zM175 -109c-3 -2 -6 -3 -10 -3s-8 1 -11 3l-148 123c-4 3 -6 8 -6 13c0 4 2 7 4 10c40 48 99 75 161 75s120 -27 160 -75c2 -3 4 -6 4 -10c0 -5 -2 -10 -6 -13z" />
    <glyph glyph-name="noteheads.d1ti" unicode="&#xe1d8;" 
d="M165 -47l107 53c-17 44 -59 74 -107 74s-91 -30 -108 -74zM175 -109c-3 -2 -6 -3 -10 -3s-8 1 -11 3l-148 123c-4 3 -6 8 -6 13c0 4 2 7 4 10c40 48 99 75 161 75s120 -27 160 -75c2 -3 4 -6 4 -10c0 -5 -2 -10 -6 -13z" />
    <glyph glyph-name="noteheads.u2ti" unicode="&#xe1d9;" 
d="M175 -109c-3 -2 -6 -3 -10 -3s-8 1 -11 3l-148 123c-4 3 -6 8 -6 13c0 4 2 7 4 10c40 48 99 75 161 75s120 -27 160 -75c2 -3 4 -6 4 -10c0 -5 -2 -10 -6 -13z" />
    <glyph glyph-name="noteheads.d2ti" unicode="&#xe1da;" 
d="M175 -109c-3 -2 -6 -3 -10 -3s-8 1 -11 3l-148 123c-4 3 -6 8 -6 13c0 4 2 7 4 10c40 48 99 75 161 75s120 -27 160 -75c2 -3 4 -6 4 -10c0 -5 -2 -10 -6 -13z" />
    <glyph glyph-name="noteheads.s0tiThin" unicode="&#xe1db;" 
d="M165 -80l135 97c-34 40 -83 63 -135 63s-102 -23 -136 -63zM175 -109c-3 -2 -6 -3 -10 -3s-8 1 -11 3l-148 123c-4 3 -6 8 -6 13c0 4 2 7 4 10c40 48 99 75 161 75s120 -27 160 -75c2 -3 4 -6 4 -10c0 -5 -2 -10 -6 -13z" />
    <glyph glyph-name="noteheads.u1tiThin" unicode="&#xe1dc;" 
d="M165 -80l135 97c-34 40 -83 63 -135 63s-102 -23 -136 -63zM175 -109c-3 -2 -6 -3 -10 -3s-8 1 -11 3l-148 123c-4 3 -6 8 -6 13c0 4 2 7 4 10c40 48 99 75 161 75s120 -27 160 -75c2 -3 4 -6 4 -10c0 -5 -2 -10 -6 -13z" />
    <glyph glyph-name="noteheads.d1tiThin" unicode="&#xe1dd;" 
d="M165 -80l135 97c-34 40 -83 63 -135 63s-102 -23 -136 -63zM175 -109c-3 -2 -6 -3 -10 -3s-8 1 -11 3l-148 123c-4 3 -6 8 -6 13c0 4 2 7 4 10c40 48 99 75 161 75s120 -27 160 -75c2 -3 4 -6 4 -10c0 -5 -2 -10 -6 -13z" />
    <glyph glyph-name="noteheads.u2tiThin" unicode="&#xe1de;" 
d="M175 -109c-3 -2 -6 -3 -10 -3s-8 1 -11 3l-148 123c-4 3 -6 8 -6 13c0 4 2 7 4 10c40 48 99 75 161 75s120 -27 160 -75c2 -3 4 -6 4 -10c0 -5 -2 -10 -6 -13z" />
    <glyph glyph-name="noteheads.d2tiThin" unicode="&#xe1df;" 
d="M175 -109c-3 -2 -6 -3 -10 -3s-8 1 -11 3l-148 123c-4 3 -6 8 -6 13c0 4 2 7 4 10c40 48 99 75 161 75s120 -27 160 -75c2 -3 4 -6 4 -10c0 -5 -2 -10 -6 -13z" />
    <glyph glyph-name="noteheads.u0doFunk" unicode="&#xe1e0;" horiz-adv-x="246" 
d="M33 57v-114c82 0 181 0 181 57s-99 57 -181 57zM16 112c110 0 231 -18 231 -112s-121 -113 -231 -113c-9 0 -16 8 -16 17v192c0 9 7 16 16 16z" />
    <glyph glyph-name="noteheads.d0doFunk" unicode="&#xe1e1;" horiz-adv-x="246" 
d="M214 -57v114c-82 0 -181 0 -181 -57s99 -57 181 -57zM231 -112c-110 0 -231 18 -231 112s121 113 231 113c9 0 16 -8 16 -17v-192c0 -9 -7 -16 -16 -16z" />
    <glyph glyph-name="noteheads.u1doFunk" unicode="&#xe1e2;" horiz-adv-x="246" 
d="M33 57v-114c82 0 181 0 181 57s-99 57 -181 57zM16 112c110 0 231 -18 231 -112s-121 -113 -231 -113c-9 0 -16 8 -16 17v192c0 9 7 16 16 16z" />
    <glyph glyph-name="noteheads.d1doFunk" unicode="&#xe1e3;" horiz-adv-x="246" 
d="M214 -57v114c-82 0 -181 0 -181 -57s99 -57 181 -57zM231 -112c-110 0 -231 18 -231 112s121 113 231 113c9 0 16 -8 16 -17v-192c0 -9 -7 -16 -16 -16z" />
    <glyph glyph-name="noteheads.u2doFunk" unicode="&#xe1e4;" horiz-adv-x="246" 
d="M16 112c110 0 231 -18 231 -112s-121 -113 -231 -113c-9 0 -16 8 -16 17v192c0 9 7 16 16 16z" />
    <glyph glyph-name="noteheads.d2doFunk" unicode="&#xe1e5;" horiz-adv-x="246" 
d="M231 -112c-110 0 -231 18 -231 112s121 113 231 113c9 0 16 -8 16 -17v-192c0 -9 -7 -16 -16 -16z" />
    <glyph glyph-name="noteheads.u0reFunk" unicode="&#xe1e6;" horiz-adv-x="246" 
d="M180 0l-130 44c3 -14 4 -29 4 -44s-1 -30 -4 -44zM237 15c6 -3 10 -9 10 -15s-4 -12 -10 -15l-214 -96c-2 -1 -5 -1 -7 -1c-9 0 -16 7 -16 16c0 2 1 5 2 7c10 29 19 58 19 89s-9 60 -19 89c-1 2 -2 5 -2 7c0 9 7 16 16 16c2 0 5 0 7 -1z" />
    <glyph glyph-name="noteheads.d0reFunk" unicode="&#xe1e7;" horiz-adv-x="246" 
d="M67 0l130 -44c-3 14 -4 29 -4 44s1 30 4 44zM10 -15c-6 3 -10 9 -10 15s4 12 10 15l214 96c2 1 5 1 7 1c9 0 16 -7 16 -16c0 -2 -1 -5 -2 -7c-10 -29 -20 -58 -20 -89s10 -60 20 -89c1 -2 2 -5 2 -7c0 -9 -7 -16 -16 -16c-2 0 -5 0 -7 1z" />
    <glyph glyph-name="noteheads.u1reFunk" unicode="&#xe1e8;" horiz-adv-x="246" 
d="M180 0l-130 44c3 -14 4 -29 4 -44s-1 -30 -4 -44zM237 15c6 -3 10 -9 10 -15s-4 -12 -10 -15l-214 -96c-2 -1 -5 -1 -7 -1c-9 0 -16 7 -16 16c0 2 1 5 2 7c10 29 19 58 19 89s-9 60 -19 89c-1 2 -2 5 -2 7c0 9 7 16 16 16c2 0 5 0 7 -1z" />
    <glyph glyph-name="noteheads.d1reFunk" unicode="&#xe1e9;" horiz-adv-x="246" 
d="M67 0l130 -44c-3 14 -4 29 -4 44s1 30 4 44zM10 -15c-6 3 -10 9 -10 15s4 12 10 15l214 96c2 1 5 1 7 1c9 0 16 -7 16 -16c0 -2 -1 -5 -2 -7c-10 -29 -20 -58 -20 -89s10 -60 20 -89c1 -2 2 -5 2 -7c0 -9 -7 -16 -16 -16c-2 0 -5 0 -7 1z" />
    <glyph glyph-name="noteheads.u2reFunk" unicode="&#xe1ea;" horiz-adv-x="246" 
d="M237 15c6 -3 10 -9 10 -15s-4 -12 -10 -15l-214 -96c-2 -1 -5 -1 -7 -1c-9 0 -16 7 -16 16c0 2 1 5 2 7c10 29 19 58 19 89s-9 60 -19 89c-1 2 -2 5 -2 7c0 9 7 16 16 16c2 0 5 0 7 -1z" />
    <glyph glyph-name="noteheads.d2reFunk" unicode="&#xe1eb;" horiz-adv-x="246" 
d="M10 -15c-6 3 -10 9 -10 15s4 12 10 15l214 96c2 1 5 1 7 1c9 0 16 -7 16 -16c0 -2 -1 -5 -2 -7c-10 -29 -20 -58 -20 -89s10 -60 20 -89c1 -2 2 -5 2 -7c0 -9 -7 -16 -16 -16c-2 0 -5 0 -7 1z" />
    <glyph glyph-name="noteheads.u0miFunk" unicode="&#xe1ec;" horiz-adv-x="296" 
d="M234 -16l-108 79l-64 -47l108 -79zM6 -12c-4 3 -6 7 -6 12s2 9 6 12l133 98c3 2 6 2 9 2s6 0 9 -2l133 -98c4 -3 6 -7 6 -12s-2 -9 -6 -12l-133 -98c-3 -2 -6 -2 -9 -2s-6 0 -9 2z" />
    <glyph glyph-name="noteheads.d0miFunk" unicode="&#xe1ed;" horiz-adv-x="296" 
d="M62 -16l64 -47l108 79l-64 47zM6 -12c-4 3 -6 7 -6 12s2 9 6 12l133 98c3 2 6 2 9 2s6 0 9 -2l133 -98c4 -3 6 -7 6 -12s-2 -9 -6 -12l-133 -98c-3 -2 -6 -2 -9 -2s-6 0 -9 2z" />
    <glyph glyph-name="noteheads.u1miFunk" unicode="&#xe1ee;" horiz-adv-x="296" 
d="M234 -16l-108 79l-64 -47l108 -79zM6 -12c-4 3 -6 7 -6 12s2 9 6 12l133 98c3 2 6 2 9 2s6 0 9 -2l133 -98c4 -3 6 -7 6 -12s-2 -9 -6 -12l-133 -98c-3 -2 -6 -2 -9 -2s-6 0 -9 2z" />
    <glyph glyph-name="noteheads.d1miFunk" unicode="&#xe1ef;" horiz-adv-x="296" 
d="M62 -16l64 -47l108 79l-64 47zM6 -12c-4 3 -6 7 -6 12s2 9 6 12l133 98c3 2 6 2 9 2s6 0 9 -2l133 -98c4 -3 6 -7 6 -12s-2 -9 -6 -12l-133 -98c-3 -2 -6 -2 -9 -2s-6 0 -9 2z" />
    <glyph glyph-name="noteheads.s2miFunk" unicode="&#xe1f0;" horiz-adv-x="296" 
d="M6 -12c-4 3 -6 7 -6 12s2 9 6 12l133 98c3 2 6 2 9 2s6 0 9 -2l133 -98c4 -3 6 -7 6 -12s-2 -9 -6 -12l-133 -98c-3 -2 -6 -2 -9 -2s-6 0 -9 2z" />
    <glyph glyph-name="noteheads.u0faFunk" unicode="&#xe1f1;" horiz-adv-x="246" 
d="M214 51h-123l123 -111v111zM0 96c0 9 7 16 16 16h215c9 0 16 -7 16 -16v-192c0 -9 -7 -16 -16 -16c-4 0 -8 1 -11 4l-215 192c-3 3 -5 7 -5 12z" />
    <glyph glyph-name="noteheads.d0faFunk" unicode="&#xe1f2;" horiz-adv-x="246" 
d="M33 -51h123l-123 111v-111zM247 -96c0 -9 -7 -16 -16 -16h-215c-9 0 -16 7 -16 16v192c0 9 7 16 16 16c4 0 8 -1 11 -4l214 -192c3 -3 6 -7 6 -12z" />
    <glyph glyph-name="noteheads.u1faFunk" unicode="&#xe1f3;" horiz-adv-x="246" 
d="M214 51h-123l123 -111v111zM0 96c0 9 7 16 16 16h215c9 0 16 -7 16 -16v-192c0 -9 -7 -16 -16 -16c-4 0 -8 1 -11 4l-215 192c-3 3 -5 7 -5 12z" />
    <glyph glyph-name="noteheads.d1faFunk" unicode="&#xe1f4;" horiz-adv-x="246" 
d="M33 -51h123l-123 111v-111zM247 -96c0 -9 -7 -16 -16 -16h-215c-9 0 -16 7 -16 16v192c0 9 7 16 16 16c4 0 8 -1 11 -4l214 -192c3 -3 6 -7 6 -12z" />
    <glyph glyph-name="noteheads.u2faFunk" unicode="&#xe1f5;" horiz-adv-x="246" 
d="M0 96c0 9 7 16 16 16h215c9 0 16 -7 16 -16v-192c0 -9 -7 -16 -16 -16c-4 0 -8 1 -11 4l-215 192c-3 3 -5 7 -5 12z" />
    <glyph glyph-name="noteheads.d2faFunk" unicode="&#xe1f6;" horiz-adv-x="246" 
d="M247 -96c0 -9 -7 -16 -16 -16h-215c-9 0 -16 7 -16 16v192c0 9 7 16 16 16c4 0 8 -1 11 -4l214 -192c3 -3 6 -7 6 -12z" />
    <glyph glyph-name="noteheads.s0solFunk" unicode="&#xe1f7;" horiz-adv-x="240" 
d="M205 31c0 24 -21 38 -42 38c-27 0 -49 -14 -70 -28c-23 -15 -57 -36 -57 -72c0 -24 20 -38 41 -38c27 0 49 14 70 28c23 15 58 36 58 72zM140 112c54 0 100 -37 100 -94c0 -73 -68 -130 -140 -130c-54 0 -100 37 -100 94c0 73 68 130 140 130z" />
    <glyph glyph-name="noteheads.s1solFunk" unicode="&#xe1f8;" horiz-adv-x="240" 
d="M205 31c0 24 -21 38 -42 38c-27 0 -49 -14 -70 -28c-23 -15 -57 -36 -57 -72c0 -24 20 -38 41 -38c27 0 49 14 70 28c23 15 58 36 58 72zM140 112c54 0 100 -37 100 -94c0 -73 -68 -130 -140 -130c-54 0 -100 37 -100 94c0 73 68 130 140 130z" />
    <glyph glyph-name="noteheads.s2solFunk" unicode="&#xe1f9;" horiz-adv-x="240" 
d="M140 112c54 0 100 -37 100 -94c0 -73 -68 -130 -140 -130c-54 0 -100 37 -100 94c0 73 68 130 140 130z" />
    <glyph glyph-name="noteheads.s0laFunk" unicode="&#xe1fa;" horiz-adv-x="246" 
d="M33 88v-176h181v176h-181zM16 112h215c9 0 16 -7 16 -16v-192c0 -9 -7 -17 -16 -17h-215c-9 0 -16 8 -16 17v192c0 9 7 16 16 16z" />
    <glyph glyph-name="noteheads.s1laFunk" unicode="&#xe1fb;" horiz-adv-x="246" 
d="M33 88v-176h181v176h-181zM16 112h215c9 0 16 -7 16 -16v-192c0 -9 -7 -17 -16 -17h-215c-9 0 -16 8 -16 17v192c0 9 7 16 16 16z" />
    <glyph glyph-name="noteheads.s2laFunk" unicode="&#xe1fc;" horiz-adv-x="246" 
d="M16 112h215c9 0 16 -7 16 -16v-192c0 -9 -7 -17 -16 -17h-215c-9 0 -16 8 -16 17v192c0 9 7 16 16 16z" />
    <glyph glyph-name="noteheads.u0tiFunk" unicode="&#xe1fd;" horiz-adv-x="246" 
d="M190 0l-140 61c-11 -18 -17 -39 -17 -61s6 -43 17 -61zM238 14c5 -3 9 -8 9 -14s-4 -11 -9 -14l-171 -96c-2 -1 -5 -3 -7 -3c-6 0 -11 5 -15 9c-29 27 -45 65 -45 104s16 77 45 104c4 4 9 9 15 9c2 0 5 -2 7 -3z" />
    <glyph glyph-name="noteheads.d0tiFunk" unicode="&#xe1fe;" horiz-adv-x="246" 
d="M57 0l140 -61c11 18 17 39 17 61s-6 43 -17 61zM8 -14c-5 3 -8 8 -8 14s3 11 8 14l172 96c2 1 5 3 7 3c6 0 11 -5 15 -9c29 -27 45 -65 45 -104s-16 -77 -45 -104c-4 -4 -9 -9 -15 -9c-2 0 -5 2 -7 3z" />
    <glyph glyph-name="noteheads.u1tiFunk" unicode="&#xe1ff;" horiz-adv-x="246" 
d="M190 0l-140 61c-11 -18 -17 -39 -17 -61s6 -43 17 -61zM238 14c5 -3 9 -8 9 -14s-4 -11 -9 -14l-171 -96c-2 -1 -5 -3 -7 -3c-6 0 -11 5 -15 9c-29 27 -45 65 -45 104s16 77 45 104c4 4 9 9 15 9c2 0 5 -2 7 -3z" />
    <glyph glyph-name="noteheads.d1tiFunk" unicode="&#xe200;" horiz-adv-x="246" 
d="M57 0l140 -61c11 18 17 39 17 61s-6 43 -17 61zM8 -14c-5 3 -8 8 -8 14s3 11 8 14l172 96c2 1 5 3 7 3c6 0 11 -5 15 -9c29 -27 45 -65 45 -104s-16 -77 -45 -104c-4 -4 -9 -9 -15 -9c-2 0 -5 2 -7 3z" />
    <glyph glyph-name="noteheads.u2tiFunk" unicode="&#xe201;" horiz-adv-x="246" 
d="M238 14c5 -3 9 -8 9 -14s-4 -11 -9 -14l-171 -96c-2 -1 -5 -3 -7 -3c-6 0 -11 5 -15 9c-29 27 -45 65 -45 104s16 77 45 104c4 4 9 9 15 9c2 0 5 -2 7 -3z" />
    <glyph glyph-name="noteheads.d2tiFunk" unicode="&#xe202;" horiz-adv-x="246" 
d="M8 -14c-5 3 -8 8 -8 14s3 11 8 14l172 96c2 1 5 3 7 3c6 0 11 -5 15 -9c29 -27 45 -65 45 -104s-16 -77 -45 -104c-4 -4 -9 -9 -15 -9c-2 0 -5 2 -7 3z" />
    <glyph glyph-name="noteheads.s0doWalker" unicode="&#xe203;" horiz-adv-x="246" 
d="M78 64l-36 -128h163l-36 128h-91zM70 112h107c7 0 14 -4 16 -11l53 -193c0 -1 1 -3 1 -4c0 -9 -7 -16 -16 -16h-215c-9 0 -16 7 -16 16c0 1 1 3 1 4l53 193c2 7 9 11 16 11z" />
    <glyph glyph-name="noteheads.u1doWalker" unicode="&#xe204;" horiz-adv-x="246" 
d="M169 -64l36 128h-163l36 -128h91zM177 -112h-107c-7 0 -14 4 -16 11l-53 193c0 1 -1 3 -1 4c0 9 7 16 16 16h215c9 0 16 -7 16 -16c0 -1 -1 -3 -1 -4l-53 -193c-2 -7 -9 -11 -16 -11z" />
    <glyph glyph-name="noteheads.d1doWalker" unicode="&#xe205;" horiz-adv-x="246" 
d="M78 64l-36 -128h163l-36 128h-91zM70 112h107c7 0 14 -4 16 -11l53 -193c0 -1 1 -3 1 -4c0 -9 -7 -16 -16 -16h-215c-9 0 -16 7 -16 16c0 1 1 3 1 4l53 193c2 7 9 11 16 11z" />
    <glyph glyph-name="noteheads.u2doWalker" unicode="&#xe206;" horiz-adv-x="246" 
d="M177 -112h-107c-7 0 -14 4 -16 11l-53 193c0 1 -1 3 -1 4c0 9 7 16 16 16h215c9 0 16 -7 16 -16c0 -1 -1 -3 -1 -4l-53 -193c-2 -7 -9 -11 -16 -11z" />
    <glyph glyph-name="noteheads.d2doWalker" unicode="&#xe207;" horiz-adv-x="246" 
d="M70 112h107c7 0 14 -4 16 -11l53 -193c0 -1 1 -3 1 -4c0 -9 -7 -16 -16 -16h-215c-9 0 -16 7 -16 16c0 1 1 3 1 4l53 193c2 7 9 11 16 11z" />
    <glyph glyph-name="noteheads.s0reWalker" unicode="&#xe208;" horiz-adv-x="246" 
d="M33 0c0 -67 86 -74 164 -74c-20 18 -26 47 -26 74s6 56 26 74c-78 0 -164 -7 -164 -74zM0 0c0 94 121 113 231 113c9 0 16 -8 16 -17c0 -5 -3 -9 -6 -12c-24 -21 -37 -52 -37 -84s13 -63 37 -84c3 -3 6 -7 6 -12c0 -9 -7 -16 -16 -16c-110 0 -231 18 -231 112z" />
    <glyph glyph-name="noteheads.u1reWalker" unicode="&#xe209;" horiz-adv-x="246" 
d="M214 0c0 67 -86 74 -164 74c20 -18 25 -47 25 -74s-5 -56 -25 -74c78 0 164 7 164 74zM247 0c0 -94 -121 -113 -231 -113c-9 0 -16 8 -16 17c0 5 2 9 5 12c24 21 38 52 38 84s-14 63 -38 84c-3 3 -5 7 -5 12c0 9 7 16 16 16c110 0 231 -18 231 -112z" />
    <glyph glyph-name="noteheads.d1reWalker" unicode="&#xe20a;" horiz-adv-x="246" 
d="M33 0c0 -67 86 -74 164 -74c-20 18 -26 47 -26 74s6 56 26 74c-78 0 -164 -7 -164 -74zM0 0c0 94 121 113 231 113c9 0 16 -8 16 -17c0 -5 -3 -9 -6 -12c-24 -21 -37 -52 -37 -84s13 -63 37 -84c3 -3 6 -7 6 -12c0 -9 -7 -16 -16 -16c-110 0 -231 18 -231 112z" />
    <glyph glyph-name="noteheads.u2reWalker" unicode="&#xe20b;" horiz-adv-x="246" 
d="M247 0c0 -94 -121 -113 -231 -113c-9 0 -16 8 -16 17c0 5 2 9 5 12c24 21 38 52 38 84s-14 63 -38 84c-3 3 -5 7 -5 12c0 9 7 16 16 16c110 0 231 -18 231 -112z" />
    <glyph glyph-name="noteheads.d2reWalker" unicode="&#xe20c;" horiz-adv-x="246" 
d="M0 0c0 94 121 113 231 113c9 0 16 -8 16 -17c0 -5 -3 -9 -6 -12c-24 -21 -37 -52 -37 -84s13 -63 37 -84c3 -3 6 -7 6 -12c0 -9 -7 -16 -16 -16c-110 0 -231 18 -231 112z" />
    <glyph glyph-name="noteheads.s0miWalker" unicode="&#xe20d;" horiz-adv-x="296" 
d="M58 -10l76 -56l105 76l-77 56zM7 -13c-4 3 -7 8 -7 13s3 10 7 13l131 96c3 2 7 3 10 3s7 -1 10 -3l131 -96c4 -3 7 -8 7 -13s-3 -10 -7 -13l-131 -96c-3 -2 -7 -3 -10 -3s-7 1 -10 3z" />
    <glyph glyph-name="noteheads.s1miWalker" unicode="&#xe20e;" horiz-adv-x="296" 
d="M58 -10l76 -56l105 76l-77 56zM7 -13c-4 3 -7 8 -7 13s3 10 7 13l131 96c3 2 7 3 10 3s7 -1 10 -3l131 -96c4 -3 7 -8 7 -13s-3 -10 -7 -13l-131 -96c-3 -2 -7 -3 -10 -3s-7 1 -10 3z" />
    <glyph glyph-name="noteheads.s2miWalker" unicode="&#xe20f;" horiz-adv-x="296" 
d="M7 -13c-4 3 -7 8 -7 13s3 10 7 13l131 96c3 2 7 3 10 3s7 -1 10 -3l131 -96c4 -3 7 -8 7 -13s-3 -10 -7 -13l-131 -96c-3 -2 -7 -3 -10 -3s-7 1 -10 3z" />
    <glyph glyph-name="noteheads.s0faWalker" unicode="&#xe210;" horiz-adv-x="246" 
d="M33 -64h137l-137 124v-124zM247 -96c0 -9 -7 -16 -16 -16h-215c-9 0 -16 7 -16 16v192c0 9 7 16 16 16c4 0 8 -1 11 -4l214 -192c3 -3 6 -7 6 -12z" />
    <glyph glyph-name="noteheads.u1faWalker" unicode="&#xe211;" horiz-adv-x="246" 
d="M214 64h-137l137 -124v124zM0 96c0 9 7 16 16 16h215c9 0 16 -7 16 -16v-192c0 -9 -7 -16 -16 -16c-4 0 -8 1 -11 4l-215 192c-3 3 -5 7 -5 12z" />
    <glyph glyph-name="noteheads.d1faWalker" unicode="&#xe212;" horiz-adv-x="246" 
d="M33 -64h137l-137 124v-124zM247 -96c0 -9 -7 -16 -16 -16h-215c-9 0 -16 7 -16 16v192c0 9 7 16 16 16c4 0 8 -1 11 -4l214 -192c3 -3 6 -7 6 -12z" />
    <glyph glyph-name="noteheads.u2faWalker" unicode="&#xe213;" horiz-adv-x="246" 
d="M0 96c0 9 7 16 16 16h215c9 0 16 -7 16 -16v-192c0 -9 -7 -16 -16 -16c-4 0 -8 1 -11 4l-215 192c-3 3 -5 7 -5 12z" />
    <glyph glyph-name="noteheads.d2faWalker" unicode="&#xe214;" horiz-adv-x="246" 
d="M247 -96c0 -9 -7 -16 -16 -16h-215c-9 0 -16 7 -16 16v192c0 9 7 16 16 16c4 0 8 -1 11 -4l214 -192c3 -3 6 -7 6 -12z" />
    <glyph glyph-name="noteheads.s0laWalker" unicode="&#xe215;" horiz-adv-x="246" 
d="M33 64v-128h181v128h-181zM16 112h215c9 0 16 -7 16 -16v-192c0 -9 -7 -17 -16 -17h-215c-9 0 -16 8 -16 17v192c0 9 7 16 16 16z" />
    <glyph glyph-name="noteheads.s1laWalker" unicode="&#xe216;" horiz-adv-x="246" 
d="M33 64v-128h181v128h-181zM16 112h215c9 0 16 -7 16 -16v-192c0 -9 -7 -17 -16 -17h-215c-9 0 -16 8 -16 17v192c0 9 7 16 16 16z" />
    <glyph glyph-name="noteheads.s2laWalker" unicode="&#xe217;" horiz-adv-x="246" 
d="M16 112h215c9 0 16 -7 16 -16v-192c0 -9 -7 -17 -16 -17h-215c-9 0 -16 8 -16 17v192c0 9 7 16 16 16z" />
    <glyph glyph-name="noteheads.s0tiWalker" unicode="&#xe218;" horiz-adv-x="246" 
d="M88 0l126 -57v114zM10 -15c-6 3 -10 9 -10 15s4 12 10 15l214 96c2 1 5 1 7 1c9 0 16 -7 16 -16v-192c0 -9 -7 -16 -16 -16c-2 0 -5 0 -7 1z" />
    <glyph glyph-name="noteheads.u1tiWalker" unicode="&#xe219;" horiz-adv-x="246" 
d="M159 0l-126 57v-114zM237 15c6 -3 10 -9 10 -15s-4 -12 -10 -15l-214 -96c-2 -1 -5 -1 -7 -1c-9 0 -16 7 -16 16v192c0 9 7 16 16 16c2 0 5 0 7 -1z" />
    <glyph glyph-name="noteheads.d1tiWalker" unicode="&#xe21a;" horiz-adv-x="246" 
d="M88 0l126 -57v114zM10 -15c-6 3 -10 9 -10 15s4 12 10 15l214 96c2 1 5 1 7 1c9 0 16 -7 16 -16v-192c0 -9 -7 -16 -16 -16c-2 0 -5 0 -7 1z" />
    <glyph glyph-name="noteheads.u2tiWalker" unicode="&#xe21b;" horiz-adv-x="246" 
d="M237 15c6 -3 10 -9 10 -15s-4 -12 -10 -15l-214 -96c-2 -1 -5 -1 -7 -1c-9 0 -16 7 -16 16v192c0 9 7 16 16 16c2 0 5 0 7 -1z" />
    <glyph glyph-name="noteheads.d2tiWalker" unicode="&#xe21c;" horiz-adv-x="246" 
d="M10 -15c-6 3 -10 9 -10 15s4 12 10 15l214 96c2 1 5 1 7 1c9 0 16 -7 16 -16v-192c0 -9 -7 -16 -16 -16c-2 0 -5 0 -7 1z" />
    <glyph glyph-name="flags.u3" unicode="&#xe21d;" horiz-adv-x="309" 
d="M0 -242h-16v242h16c0 -30 -9 -77 158 -238c86 -83 136 -177 136 -329c0 -91 -32 -207 -46 -231c-3 -6 -8 -7 -11 -6c-4 1 -8 5 -6 15c8 35 31 133 31 219c0 116 -75 268 -261 328h-1z" />
    <glyph glyph-name="flags.u4" unicode="&#xe21e;" horiz-adv-x="277" 
d="M8 -202c12 -79 64.2959 -140.746 94 -171c54 -55 93 -101 114 -149c1 7 1 21 1 34c0 190.042 -146.847 263.84 -209 286zM0 -500h-16v500h16c0 -30 -12 -47 104 -163c93.606 -93.606 143 -168.967 143 -307c0 -42 -7 -66 -11 -108c8 -28 11 -74.751 11 -107
c0 -77.53 -15 -131 -37 -191c-4.619 -12.596 -24.053 -7.87598 -18 9c23 63 26 103 26 170c0 143.446 -92 245 -218 287v-90z" />
    <glyph glyph-name="flags.u5" unicode="&#xe21f;" horiz-adv-x="277" 
d="M8 -413c12 -79 64.2959 -140.746 94 -171c54 -55 93 -101 114 -149c1 7 1 21 1 34c0 190.042 -146.847 263.84 -209 286zM8 -202c12 -79 64.2959 -140.746 94 -171c54 -55 93 -101 114 -149c1 7 1 21 1 34c0 190.042 -146.847 263.84 -209 286zM-16 0h16
c0 -30 -12 -47 104 -163c93.606 -93.606 143 -168.967 143 -307c0 -42 -7 -66 -11 -108c8 -28 11 -74.751 11 -107c0 -77.53 -7 -66 -11 -108c8 -28 11 -74.751 11 -107c0 -77.53 -15 -131 -37 -191c-4.618 -12.6 -24.053 -7.88 -18 9c23 63 26 103 26 170
c0 143.446 -92 245 -218 287v-90h-16v715z" />
    <glyph glyph-name="flags.u6" unicode="&#xe220;" horiz-adv-x="277" 
d="M8 -628c12 -79 64.2959 -140.746 94 -171c54 -55 93 -101 114 -149c1 7 1 21 1 34c0 190.042 -146.847 263.84 -209 286zM8 -413c12 -79 64.2959 -140.746 94 -171c54 -55 93 -101 114 -149c1 7 1 21 1 34c0 190.042 -146.847 263.84 -209 286zM8 -202
c12 -79 64.2959 -140.746 94 -171c54 -55 93 -101 114 -149c1 7 1 21 1 34c0 190.042 -146.847 263.84 -209 286zM-16 0h16c0 -30 -12 -47 104 -163c93.606 -93.606 143 -168.967 143 -307c0 -42 -7 -66 -11 -108c8 -28 11 -74.751 11 -107c0 -77.53 -7 -66 -11 -108
c8 -28 11 -74.751 11 -107c0 -77.53 -7 -66 -11 -109c8 -28 11 -74.75 11 -107c0 -77.53 -15 -131 -37 -191c-4.618 -12.6 -24.053 -7.88 -18 9c23 63 26 103 26 170c0 143.446 -92 245 -218 287v-90h-16v931z" />
    <glyph glyph-name="flags.u7" unicode="&#xe221;" horiz-adv-x="277" 
d="M8 -843c12 -79 64.2959 -140.746 94 -171c54 -55 93 -101 114 -149c1 7 1 21 1 34c0 190.042 -146.847 263.84 -209 286zM8 -628c12 -79 64.2959 -140.746 94 -171c54 -55 93 -101 114 -149c1 7 1 21 1 34c0 190.042 -146.847 263.84 -209 286zM8 -413
c12 -79 64.2959 -140.746 94 -171c54 -55 93 -101 114 -149c1 7 1 21 1 34c0 190.042 -146.847 263.84 -209 286zM8 -202c12 -79 64.2959 -140.746 94 -171c54 -55 93 -101 114 -149c1 7 1 21 1 34c0 190.042 -146.847 263.84 -209 286zM-16 0h16c0 -30 -12 -47 104 -163
c93.606 -93.606 143 -168.967 143 -307c0 -42 -7 -66 -11 -108c8 -28 11 -74.751 11 -107c0 -77.53 -7 -66 -11 -108c8 -28 11 -74.751 11 -107c0 -77.53 -7 -66 -11 -108c8 -28 11 -74.75 11 -107c0 -77.53 -7 -67 -11 -110c8 -28 11 -74.75 11 -107
c0 -77.53 -15 -131 -37 -191c-4.618 -12.6 -24.053 -7.88 -18 9c23 63 26 103 26 170c0 143.45 -92 245 -218 287v-90h-16v1147z" />
    <glyph glyph-name="flags.d3" unicode="&#xe222;" horiz-adv-x="310" 
d="M0 0h-16v250h16c99.2715 34.976 262 111.904 262 367c0 43 -15 130 -27 173c-8.04401 28.825 11.887 31.505 21 11c28 -63 44 -143.38 44 -224c0 -127.063 -29.304 -228.745 -127 -322c-116.802 -111.493 -173 -225 -173 -255z" />
    </font>
</defs>
</svg>
