<?xml version="1.0" standalone="no"?>
<!DOCTYPE svg PUBLIC "-//W3C//DTD SVG 1.1//EN" "http://www.w3.org/Graphics/SVG/1.1/DTD/svg11.dtd" >
<!--
This size was designed for 20pt staff size.
-->
<svg>
<metadata>
Created by FontForge 20120731 at Sun Jun 22 08:38:59 2014
 By root
Copyright (C) Abraham Lee 2014
</metadata>
<defs>
<font id="gutenberg1939-26" horiz-adv-x="246" >
  <font-face 
    font-family="gutenberg1939-26"
    font-weight="500"
    font-stretch="normal"
    units-per-em="1000"
    panose-1="2 0 6 3 0 0 0 0 0 0"
    ascent="800"
    descent="-200"
    x-height="236"
    bbox="-517 -1327.1 1300 1308.06"
    underline-thickness="50"
    underline-position="-100"
    stemh="88"
    stemv="33"
    unicode-range="U+0020-E31F"
  />
<missing-glyph horiz-adv-x="500" 
d="M50 0v533h400v-533h-400zM100 50h300v433h-300v-433z" />
    <glyph glyph-name=".notdef" horiz-adv-x="500" 
d="M50 0v533h400v-533h-400zM100 50h300v433h-300v-433z" />
    <glyph glyph-name="rests.0" unicode="&#xe100;" horiz-adv-x="342" 
d="M342 -99c-2.44601 -44.034 6 -44 -137 -44c-65 0 -131 1 -196 6c-6 0 -5 15 -7 48c-3 55 -8.99609 87.7119 10 88c8.999 0.136719 20 0 32 0c97 1 185 3 280 1c25 -1 21.846 -29.7695 18 -99z" />
    <glyph glyph-name="rests.1" unicode="&#xe101;" horiz-adv-x="342" 
d="M2 99c2.44629 44.0342 -6 44 137 44c65 0 131 -1 196 -6c6 0 5 -15 7 -48c3 -55 8.99609 -87.7119 -10 -88c-8.99902 -0.136719 -20 0 -32 0c-97 -1 -185 -3 -280 -1c-25 1 -21.8457 29.7695 -18 99z" />
    <glyph glyph-name="rests.0o" unicode="&#xe102;" horiz-adv-x="342" 
d="M12 15h32c97 1 199 3 294 1c25 -1 39 -1 62 -2c19 -1 23 1 24 -6c2 -11 3 -19 -23 -18c-13 1 -25 0 -29 -1c-9 -4 -26.154 -2.7692 -30 -72c-2.44601 -44.034 6 -44 -137 -44c-65 0 -131 1 -196 6c-6 0 -5 15 -7 48c-3 55 -5 57 -42 58c-20 0 -26 2 -29 7s-3 7 3 13
s12 9 78 10z" />
    <glyph glyph-name="rests.1o" unicode="&#xe103;" horiz-adv-x="342" 
d="M331 -13h-32c-97 -1 -199 -3 -294 -1c-25 1 -39 1 -62 2c-19 1 -23 -1 -24 6c-2 11 -3 19 23 18c13 -1 25 0 29 1c9 4 26.1543 2.76953 30 72c2.44629 44.0342 -6 44 137 44c65 0 131 -1 196 -6c6 0 5 -15 7 -48c3 -55 5 -57 42 -58c20 0 26 -2 29 -7s3 -7 -3 -13
s-12 -9 -78 -10z" />
    <glyph glyph-name="rests.M3" unicode="&#xe104;" horiz-adv-x="454" 
d="M77 270c27 0 52 -2 72 -8c11 -3 12 -21 12 -33c1 -14 -3 -43 -3 -101c0 -85 0 -170 1 -255c0 -32 1 -65 1 -97c0 -12 6 -29 -4 -36c-13 -9 -37 -2 -67 -2c-34 -1 -68 -10 -87 0c-10 5 -5 22 -6 34c0 2 4 49 4 105c0 85 -2 170 -2 255c0 77 -4 100 -4 105c-1 9 -1 24 8 26
c21 5 48 7 75 7zM371 270c27 0 52 -2 72 -8c11 -3 12 -21 12 -33c1 -14 -3 -43 -3 -101c0 -85 0 -170 1 -255c0 -32 1 -65 1 -97c0 -12 6 -29 -4 -36c-13 -9 -37 -2 -67 -2c-34 -1 -68 -10 -87 0c-10 5 -5 22 -6 34c0 2 4 49 4 105c0 85 -2 170 -2 255c0 77 -4 100 -4 105
c-1 9 -1 24 8 26c21 5 48 7 75 7z" />
    <glyph glyph-name="rests.M2" unicode="&#xe105;" horiz-adv-x="160" 
d="M77 270c27 0 52 -2 72 -8c11 -3 12 -21 12 -33c1 -14 -3 -43 -3 -101c0 -85 0 -170 1 -255c0 -32 1 -65 1 -97c0 -12 6 -29 -4 -36c-13 -9 -37 -2 -67 -2c-34 -1 -68 -10 -87 0c-10 5 -5 22 -6 34c0 2 4 49 4 105c0 85 -2 170 -2 255c0 77 -4 100 -4 105c-1 9 -1 24 8 26
c21 5 48 7 75 7z" />
    <glyph glyph-name="rests.M1" unicode="&#xe106;" horiz-adv-x="146" 
d="M42 224c9 0 20 -1 32 -1c19 0 42 4 56 -4c12 -7 14 -17 16 -36c1 -5 0 -45 0 -89c-1 -73 -1 -81 -7 -87s-14 -8 -70 -7c-22 0 -45 0 -67 5c-5 1 -2 29 -2 92v95c0 13 10 24 22 29c6 3 13 3 20 3z" />
    <glyph glyph-name="rests.M1o" unicode="&#xe107;" horiz-adv-x="150" 
d="M250 -25h-350c-14 0 -25 11 -25 25s11 25 25 25h100v200h-100c-14 0 -25 11 -25 25s11 25 25 25h350c14 0 25 -11 25 -25s-11 -25 -25 -25h-100v-200h100c14 0 25 -11 25 -25s-11 -25 -25 -25z" />
    <glyph glyph-name="rests.2" unicode="&#xe108;" horiz-adv-x="217" 
d="M20 435h1c11 0 30 -10 65 -34c69 -47 97 -115 100 -178c3 -56 -13 -87 -37 -136c-23 -46 -27 -62 -27 -89c0 -29 27 -93 54 -129c16 -20 37 -55 41 -66c1 -4 0 -9 -3 -12c-6 -6 -8 -7 -19 -1c-11 7 -19 18 -28 25c-22 17 -43 24 -78 29c-27 4 -41 -2 -67 -26
c-17 -15 -28 -18 -32 -8c-1 3 -4 19 -5 35c-5 73 30 118 81 104c32 -9 33 3 9 48c-29 54 -43 115 -33 169c8 44 32 81 42 121c12 47 -5 84 -48 108c-26 14 -32 21 -26 33c2 4 5 7 10 7z" />
    <glyph glyph-name="rests.2classical" unicode="&#xe109;" horiz-adv-x="240" 
d="M168 210c-11 0 -22 -2 -33 -9c-13 -8 -19 -20 -22 -43c-3 -21 -7 -26 -20 -26c-16 0 -29 9 -50 33c-15 18 -22 22 -30 22c-9 0 -13 -1 -13 -12s4 -31 13 -70c15 -66 26 -123 37 -187c20 -120 27 -142 44 -142c4 0 8 2 9 4c2 4 -3 24 -12 65c-13 58 -28 116 -39 172
c-8 40 -5 43 38 28c34 -12 46 -13 81 -6c42.9014 8.58008 69 53 69 94c0 21 -7.38086 40.7412 -22 54c-17 16 -34 23 -50 23z" />
    <glyph glyph-name="rests.3" unicode="&#xe10a;" horiz-adv-x="240" 
d="M72 210c11 0 22 -2 33 -9c13 -8 19 -20 22 -43c3 -21 7 -26 20 -26c16 0 29 9 50 33c15 18 22 22 30 22c9 0 13 -1 13 -12s-4 -31 -13 -70c-15 -66 -26 -123 -37 -187c-20 -120 -27 -142 -44 -142c-4 0 -8 2 -9 4c-2 4 3 24 12 65c13 58 28 116 39 172c8 40 5 43 -38 28
c-34 -12 -46 -13 -81 -6c-42.9014 8.5801 -69 53 -69 94c0 21 7.38086 40.741 22 54c17 16 34 23 50 23z" />
    <glyph glyph-name="rests.4" unicode="&#xe10b;" horiz-adv-x="283" 
d="M116 215c10 0 20 -2 30 -7c15 -8 23 -23 25 -48c1 -22 7 -31 18 -28c3 1 17 10 32 21c27 21 37 23 46 10c7 -9 6 -19 -3 -67c-14 -74 -25 -146 -32 -187c-13 -82 -25 -147 -36 -226c-14 -97 -25 -123 -40 -102c-5 8 0 66 8 97c4 12 7 32 9 45s6 37 8 53c6 34 5 36 -23 20
c-40 -22 -83 -24 -120 -4s-53 67 -39 121c9 33 39 54 73 51c35 -3 50 -21 60 -68c4 -18 6 -21 13 -22c19 -1 56 49 69 89c13 41 21 83 17 89c-3 4 -9 1 -31 -8c-37 -16 -76 -19 -106 -6c-61 27 -73 114 -28 154c17 15 32 22 48 23h2z" />
    <glyph glyph-name="rests.5" unicode="&#xe10c;" horiz-adv-x="261" 
d="M129 446c24 -1 41 -18 46 -42c2 -8 5 -16 7 -17c8 -3 24 2 46 16c24 16 38 16 47 6c5 -6 4 -12 1 -32c-8 -61 -13 -122 -22 -183c-12 -76 -17 -90 -21 -115c-6 -41 -11 -80 -18 -121c0 -2 -7 -24 -11 -51c-9 -49 -18 -101 -24 -146c-9 -78 -23 -150 -29 -157
c-10 -11 -25 -6 -23 9c8 61 21 119 33 182c4 21 4 45 0 45c-1 0 -11 -4 -20 -10c-36 -22 -44 -22 -72 -20c-59 6 -82 51 -75 98c5 39 19 56 49 58c24 2 33 -6 44 -31c12 -28 20 -30 46 -4c27 27 39 42 54 76c17 37 24 67 17 74c-5 5 -7 5 -19 -3c-22 -14 -56 -25 -77 -26
c-52 -2 -90 45 -90 84c0 38 30 80 66 75c22 -3 33 -16 39 -37c4 -15 7 -18 16 -19c19 -3 44 22 84 81c11 17 22 76 16 82c-3 3 -7 2 -16 -3c-45 -23 -59 -28 -79 -27c-29 2 -61 22 -73 47c-20 45 15 114 58 111z" />
    <glyph glyph-name="rests.6" unicode="&#xe10d;" horiz-adv-x="261" 
d="M237 -52c-10 -76 -13 -90 -17 -115c-4 -41 -10 -82 -15 -123c0 -2 -4 -23 -8 -50c-7 -49 -15 -102 -19 -147c-7 -78 -17 -152 -23 -159c-10 -11 -27 -6 -25 9c6 61 18 120 28 183c4 21 1 45 -3 45c-1 0 -9 -4 -18 -10c-36 -24 -43 -25 -71 -23c-59 4 -85 48 -80 95
c3 39 17 55 47 59c24 2 35 -3 46 -28c12 -28 20 -29 46 -3c27 27 38 44 51 78c15 36 22 68 15 75c-5 5 -7 5 -19 -3c-22 -14 -53 -29 -74 -30c-52 -4 -94 43 -96 82c-2 38 29 79 65 76c22 -3 34 -14 40 -35c4 -15 7 -18 16 -19c19 -3 70 69 83 103c15 37 21 68 14 75
c-5 5 -7 5 -19 -3c-22 -14 -55 -28 -76 -29c-52 -4 -91 42 -93 81c-2 38 29 80 65 77c22 -3 33 -14 39 -35c4 -15 8 -19 17 -20c19 -3 43 24 81 85c11 17 20 76 14 82c-3 3 -7 3 -16 -2c-45 -25 -59 -33 -79 -32c-29 0 -63 21 -75 46c-22 45 11 113 54 112
c24 -1 43 -16 48 -40c2 -8 5 -16 7 -17c8 -3 24 4 46 18c24 16 37 18 46 8c5 -6 7 -12 4 -32c-6 -61 -10 -124 -17 -185c-10 -76 -12 -89 -16 -114c-4 -41 -6 -74 -13 -135z" />
    <glyph glyph-name="rests.7" unicode="&#xe10e;" horiz-adv-x="305" 
d="M265 199c-8 -76 -11 -90 -14 -115c-4 -41 -4 -74 -10 -135c-8 -76 -12 -90 -15 -115c-4 -41 -8 -82 -13 -123c0 -2 -4 -23 -7 -50c-6 -49 -14 -103 -17 -148c-5 -78 -15 -152 -21 -159c-10 -11 -25 -7 -24 8c5 61 16 121 25 184c3 21 0 45 -4 45c-1 0 -10 -5 -19 -11
c-35 -24 -42 -25 -70 -24c-59 3 -85 47 -81 94c3 39 16 56 46 60c24 3 34 -3 46 -28c13 -28 21 -29 46 -2c26 28 37 45 50 79c15 37 21 68 14 75c-5 5 -7 5 -19 -3c-21 -15 -53 -29 -74 -31c-52 -5 -95 41 -97 80c-2 38 27 80 63 77c22 -2 34 -13 41 -34c5 -15 7 -18 16 -19
c19 -2 69 71 82 105c15 38 19 68 12 75c-5 5 -7 5 -19 -3c-21 -15 -54 -29 -75 -31c-52 -5 -93 41 -95 80c-2 38 28 81 64 78c22 -2 33 -14 40 -35c5 -15 7 -18 16 -19c19 -2 70 72 83 106c15 38 19 68 12 75c-5 5 -7 5 -19 -3c-21 -15 -54 -29 -75 -31
c-52 -5 -92 41 -94 80c-2 38 27 81 63 78c22 -2 33 -13 40 -34c5 -15 8 -19 17 -20c19 -2 43 25 80 86c10 17 18 76 12 82c-3 3 -7 3 -16 -2c-44 -26 -58 -33 -78 -33c-29 0 -63 20 -76 45c-23 44 10 112 53 112c24 0 42 -15 48 -39c2 -8 6 -16 8 -17c8 -3 24 4 45 19
c23 17 37 19 46 9c5 -6 6 -12 4 -32c-5 -61 -8 -124 -14 -185c-8 -76 -11 -90 -14 -115c-4 -41 -6 -75 -12 -136z" />
    <glyph glyph-name="accidentals.sharp" unicode="&#xe10f;" horiz-adv-x="227" 
d="M57 326c20 0 21 -4 15 -59c-6 -53 -4 -80 7 -87c7 -4 61 16 69 26c3 4 4 20 4 54c0 40 1 50 6 55s7 5 13 2c11 -6 13 -18 9 -48c-5 -35 -2 -40 22 -40c23 0 25 -3 25 -49s-3 -56 -23 -68c-25 -15 -27 -20 -25 -72c1 -25 3 -51 3 -58c1 -14 9 -21 27 -21
c14 0 18 -12 18 -52c0 -39 -2 -43 -22 -53c-27 -14 -27 -13 -22 -90c5 -67 4 -69 -3 -75c-9 -8 -19 -8 -25 -1c-4 4 -3 11 0 31c2 14 3 41 3 61c0 47 -3 50 -42 33c-15 -6 -29 -16 -32 -20c-4 -6 -5 -19 -5 -55c0 -32 -1 -49 -4 -52c-5 -5 -20 -5 -23 0c-1 2 -1 20 0 40
c3 44 1 46 -27 46c-18 0 -19 1 -23 10c-5 12 -6 67 -1 83c3 9 9 13 27 22l22 11l1 59c1 70 0 72 -28 68c-18 -2 -20 -3 -22 6c-1 5 -2 27 -1 49c1 45 6 54 28 66c8 4 16 11 18 15c5 9 4 48 -1 67c-2 8 -5 29 -6 47c-3 40 0 49 18 49zM143 80c-5 0 -14 -4 -32 -11
c-39 -16 -39 -17 -39 -87c0 -58 2 -69 14 -69c2 0 18 6 34 14s32 19 35 24c8 12 6 116 -2 124c-3 3 -6 5 -10 5z" />
    <glyph glyph-name="accidentals.sharp.arrowup" unicode="&#xe110;" horiz-adv-x="275" 
d="M216 -312c0 -10 -8 -19 -18 -19s-19 9 -19 19v145l-83 -31v-158c0 -10 -9 -19 -19 -19s-18 9 -18 19v145l-32 -12c-2 -1 -5 -1 -7 -1c-11 0 -20 9 -20 20v60c0 8 5 16 13 19l46 16v160l-32 -11c-2 -1 -5 -1 -7 -1c-11 0 -20 9 -20 20v60c0 8 5 15 13 18l46 17v158
c0 10 8 19 18 19s19 -9 19 -19v-145l83 31v224c0 13 -6 18 -14 18c-17 0 -48 -22 -76 -38c-9 -5 -19 5 -13 14c50 71 81 153 114 234c1 3 5 5 8 5s6 -2 7 -5c33 -81 64 -163 114 -234c1 -2 2 -3 2 -5c0 -7 -7 -13 -14 -9c-28 16 -60 38 -77 38c-8 0 -14 -5 -14 -18v-211
l32 12c2 1 5 1 7 1c11 0 20 -9 20 -20v-60c0 -8 -5 -16 -13 -19l-46 -16v-160l32 11c2 1 5 1 7 1c11 0 20 -9 20 -20v-60c0 -8 -5 -15 -13 -18l-46 -17v-158zM96 65v-160l83 30v160z" />
    <glyph glyph-name="accidentals.sharp.arrowdown" unicode="&#xe111;" horiz-adv-x="275" 
d="M216 -312c0 -10 -8 -19 -18 -19s-19 9 -19 19v145l-83 -31v-224c0 -13 6 -18 14 -18c17 0 48 22 76 38c9 5 19 -5 13 -14c-50 -71 -81 -153 -114 -234c-1 -3 -5 -5 -8 -5s-6 2 -7 5c-33 81 -64 163 -114 234c-1 2 -2 3 -2 5c0 7 7 13 14 9c28 -16 60 -38 77 -38
c8 0 14 5 14 18v211l-32 -12c-2 -1 -5 -1 -7 -1c-11 0 -20 9 -20 20v60c0 8 5 16 13 19l46 16v160l-32 -11c-2 -1 -5 -1 -7 -1c-11 0 -20 9 -20 20v60c0 8 5 15 13 18l46 17v158c0 10 8 19 18 19s19 -9 19 -19v-145l83 31v158c0 10 9 19 19 19s18 -9 18 -19v-145l32 12
c2 1 5 1 7 1c11 0 20 -9 20 -20v-60c0 -8 -5 -16 -13 -19l-46 -16v-160l32 11c2 1 5 1 7 1c11 0 20 -9 20 -20v-60c0 -8 -5 -15 -13 -18l-46 -17v-158zM96 65v-160l83 30v160z" />
    <glyph glyph-name="accidentals.sharp.arrowboth" unicode="&#xe112;" horiz-adv-x="275" 
d="M216 -312c0 -10 -8 -19 -18 -19s-19 9 -19 19v145l-83 -31v-224c0 -13 6 -18 14 -18c17 0 48 22 76 38c9 5 19 -5 13 -14c-50 -71 -81 -153 -114 -234c-1 -3 -5 -5 -8 -5s-6 2 -7 5c-33 81 -64 163 -114 234c-1 2 -2 3 -2 5c0 7 7 13 14 9c28 -16 60 -38 77 -38
c8 0 14 5 14 18v66v145l-32 -12c-2 -1 -5 -1 -7 -1c-11 0 -20 9 -20 20v60c0 8 5 16 13 19l46 16v160l-32 -11c-2 -1 -5 -1 -7 -1c-11 0 -20 9 -20 20v60c0 8 5 15 13 18l46 17v158c0 10 8 19 18 19s19 -9 19 -19v-145l83 31v224c0 13 -6 18 -14 18c-17 0 -48 -22 -76 -38
c-9 -5 -19 5 -13 14c50 71 81 153 114 234c1 3 5 5 8 5s6 -2 7 -5c33 -81 64 -163 114 -234c1 -2 2 -3 2 -5c0 -7 -7 -13 -14 -9c-28 16 -60 38 -77 38c-8 0 -14 -5 -14 -18v-211l32 12c2 1 5 1 7 1c11 0 20 -9 20 -20v-60c0 -8 -5 -16 -13 -19l-46 -16v-160l32 11
c2 1 5 1 7 1c11 0 20 -9 20 -20v-60c0 -8 -5 -15 -13 -18l-46 -17v-158zM96 65v-160l83 30v160z" />
    <glyph glyph-name="accidentals.sharp.slashslash.stem" unicode="&#xe113;" horiz-adv-x="174" 
d="M106 -318c0 -10 -8 -19 -18 -19s-19 9 -19 19v123l-39 -22c-3 -2 -7 -3 -10 -3c-10 0 -20 8 -20 20v60c0 7 4 14 10 18l59 33v156l-39 -22c-3 -2 -7 -2 -10 -2c-10 0 -20 8 -20 20v60c0 7 4 13 10 17l59 34v144c0 10 9 19 19 19s18 -9 18 -19v-123l39 22c3 2 7 3 10 3
c10 0 20 -8 20 -20v-60c0 -7 -4 -14 -10 -18l-59 -33v-156l39 22c3 2 7 2 10 2c10 0 20 -8 20 -20v-60c0 -7 -4 -13 -10 -17l-59 -34v-144z" />
    <glyph glyph-name="accidentals.sharp.slashslashslash.stemstem" unicode="&#xe114;" horiz-adv-x="275" 
d="M216 -316c0 -10 -8 -19 -18 -19s-19 9 -19 19v139l-83 -28v-151c0 -10 -9 -19 -19 -19s-18 9 -18 19v139l-16 -5c-2 -1 -5 -1 -7 -1c-11 0 -20 9 -20 20v40c0 9 6 16 14 19l29 9v62l-33 -10c-2 -1 -4 -1 -6 -1c-11 0 -20 9 -20 20v51c0 9 6 16 14 19l45 14v63l-16 -5
c-2 -1 -5 -1 -7 -1c-11 0 -20 9 -20 20v40c0 9 6 16 14 19l29 9v151c0 10 8 19 18 19s19 -9 19 -19v-139l83 28v151c0 10 9 19 19 19s18 -9 18 -19v-139l16 5c2 1 5 1 7 1c11 0 19 -9 19 -20v-40c0 -9 -5 -16 -13 -19l-29 -9v-62l33 10c2 1 4 1 6 1c11 0 20 -9 20 -20v-51
c0 -9 -6 -16 -14 -19l-45 -14v-63l16 5c2 1 5 1 7 1c11 0 19 -9 19 -20v-40c0 -9 -5 -16 -13 -19l-29 -9v-151zM96 -60v-63l83 28v62zM96 33l83 27v63l-83 -28v-62z" />
    <glyph glyph-name="accidentals.sharp.slashslashslash.stem" unicode="&#xe115;" horiz-adv-x="237" 
d="M138 -304c0 -10 -9 -19 -19 -19s-19 9 -19 19v104l-48 -20c-3 -1 -5 -2 -8 -2c-11 0 -20 8 -20 20v40c0 8 5 16 12 19l64 27v56l-72 -30c-3 -1 -5 -2 -8 -2c-11 0 -20 8 -20 20v60c0 8 5 16 12 19l88 37v56l-48 -20c-3 -1 -5 -2 -8 -2c-11 0 -20 8 -20 20v40
c0 8 5 16 12 19l64 27v120c0 10 9 19 19 19s19 -9 19 -19v-104l48 20c3 1 5 2 8 2c11 0 20 -8 20 -20v-40c0 -8 -5 -16 -12 -19l-64 -27v-56l72 30c3 1 5 2 8 2c11 0 20 -8 20 -20v-60c0 -8 -6 -16 -13 -19l-87 -37v-56l48 20c3 1 5 2 8 2c11 0 20 -8 20 -20v-40
c0 -8 -5 -16 -12 -19l-64 -27v-120z" />
    <glyph glyph-name="accidentals.sharp.slashslash.stemstemstem" unicode="&#xe116;" horiz-adv-x="400" 
d="M331 -300c0 -10 -8 -19 -18 -19s-19 9 -19 19v142l-75 -19v-151c0 -10 -9 -19 -19 -19s-19 9 -19 19v141l-75 -18v-151c0 -10 -8 -19 -18 -19s-19 9 -19 19v141l-44 -11h-5c-11 0 -20 9 -20 20v60c0 9 6 17 15 19l54 14v161l-44 -11c-2 0 -3 -1 -5 -1c-11 0 -20 9 -20 20
v60c0 9 6 18 15 20l54 13v151c0 10 9 19 19 19s18 -9 18 -19v-142l75 19v151c0 10 9 19 19 19s19 -9 19 -19v-141l75 18v151c0 10 9 19 19 19s18 -9 18 -19v-141l44 11h5c11 0 20 -9 20 -20v-60c0 -9 -6 -17 -15 -19l-54 -14v-161l44 11c2 0 3 1 5 1c11 0 20 -9 20 -20v-60
c0 -9 -6 -18 -15 -20l-54 -13v-151zM106 57v-161l75 19v161zM219 85v-161l75 19v161z" />
    <glyph glyph-name="accidentals.natural" unicode="&#xe117;" horiz-adv-x="185" 
d="M12 352h1h3c5 -2 6 -12 5 -108c-2 -129 -7 -121 54 -91c25 12 49 28 71 43c25 16 34 18 37 4c3 -15 5 -523 2 -527c-4 -5 -15 -1 -16 1s-2 44 -1 92c1 85 0 88 -7 95c-10 10 -14 4 -50 -15c-32 -17 -78 -58 -103 -57c-10 0 -11 6 -8 61c1 26 2 148 1 271
c-2 193 -1 225 4 229c2 2 4 2 7 2zM158 95c-7 0 -21 -11 -68 -39c-55 -33 -63 -40 -68 -49s-4 -81 1 -89s19 -3 72 24c21 11 66 34 70 44c7 15 3 34 3 50c0 27 -1 51 -3 53c-2 3 -4 6 -7 6z" />
    <glyph glyph-name="accidentals.natural.arrowup" unicode="&#xe118;" horiz-adv-x="166" 
d="M146 212h3c10 0 18 -7 18 -17l7 -570c-8 -4 -16 -7 -25 -7s-17 3 -25 7l3 183l-106 -20h-3c-10 0 -18 7 -18 17c-1 206 -3 413 -4 619c0 13 -5 18 -13 18c-17 0 -49 -23 -77 -39c-8 -5 -16 1 -16 9c0 2 1 5 2 7c50 71 85 151 117 231c2 4 6 6 9 6s6 -2 8 -6
c32 -80 67 -160 117 -231c7 -10 -4 -22 -14 -16c-28 16 -60 39 -77 39c-8 0 -13 -5 -13 -18c-1 -77 0 -155 -1 -232zM131 112l-94 -17l-1 -208l92 18z" />
    <glyph glyph-name="accidentals.natural.arrowdown" unicode="&#xe119;" horiz-adv-x="166" 
d="M-8 375c8 4 17 7 26 7s17 -3 25 -7l-3 -183l106 20h3c10 0 18 -7 18 -17c1 -206 3 -413 4 -619c0 -13 5 -18 13 -18c17 0 48 23 76 39c8 5 17 -1 17 -9c0 -2 -1 -5 -2 -7c-50 -71 -85 -151 -117 -231c-2 -4 -6 -6 -9 -6s-6 2 -8 6c-32 80 -67 160 -117 231
c-7 10 4 22 14 16c28 -16 60 -39 77 -39c8 0 13 5 13 18c1 77 0 155 1 232l-108 -20h-3c-10 0 -18 7 -18 17zM131 113l-92 -18l-3 -207l94 17z" />
    <glyph glyph-name="accidentals.natural.arrowboth" unicode="&#xe11a;" horiz-adv-x="166" 
d="M167 195c1 -206 3 -413 4 -619c0 -13 5 -18 13 -18c17 0 48 23 76 39c8 5 17 -1 17 -9c0 -2 -1 -5 -2 -7c-50 -71 -85 -151 -117 -231c-2 -4 -6 -6 -9 -6s-6 2 -8 6c-32 80 -67 160 -117 231c-7 10 4 22 14 16c28 -16 60 -39 77 -39c8 0 13 5 13 18c1 77 0 155 1 232
l-108 -20h-3c-10 0 -18 7 -18 17c-1 206 -3 413 -4 619c0 13 -5 18 -13 18c-17 0 -49 -23 -77 -39c-8 -5 -16 1 -16 9c0 2 1 5 2 7c50 71 85 151 117 231c2 4 6 6 9 6s6 -2 8 -6c32 -80 67 -160 117 -231c7 -10 -4 -22 -14 -16c-28 16 -60 39 -77 39c-8 0 -13 -5 -13 -18
c-1 -77 0 -155 -1 -232l108 20h3c10 0 18 -7 18 -17zM131 113l-94 -18l-1 -208l94 18z" />
    <glyph glyph-name="accidentals.flat" unicode="&#xe11b;" horiz-adv-x="218" 
d="M-8 -192c-2 4 -3 41 -3 149c0 93 -2 191 -3 219c-5 101 -5 174 1 184c4 6 7 9 10 9s5 -2 9 -6c6 -5 7 -57 5 -106c-1 -30 -2 -75 -1 -99c2 -58 5 -60 34 -31s49 39 79 39c58 0 93 -41 94 -91s-23 -92 -77 -137c-44 -36 -93 -89 -107 -115c-7 -13 -34 -27 -41 -15zM92 124
h-4c-17 -3 -43 -26 -55 -47c-19 -33 -21 -48 -22 -126c-1 -65 1 -73 6 -78c8 -8 14 -6 30 17s42 44 54 68c18 36 40 84 33 123c-4 22 -23 44 -42 43z" />
    <glyph glyph-name="accidentals.flat.arrowup" unicode="&#xe11c;" horiz-adv-x="200" 
d="M27 41l-1 -66v-11c0 -22 1 -44 4 -66c45 38 93 80 93 139c0 33 -14 67 -43 67c-31 0 -52 -30 -53 -63zM-15 -138c-3 187 -5 375 -8 562c0 13 -5 18 -13 18c-17 0 -48 -23 -76 -39c-8 -5 -17 2 -17 10c0 2 1 4 2 6c50 71 86 151 118 231c2 4 5 6 9 6s7 -2 9 -6
c32 -80 68 -160 118 -231c7 -10 -4 -22 -15 -16c-28 16 -59 39 -76 39c-8 0 -13 -5 -13 -18c-1 -104 -4 -208 -5 -312c26 21 59 34 93 34c52 0 89 -48 89 -102c0 -80 -86 -117 -147 -169c-15 -13 -24 -38 -45 -38c-13 0 -23 11 -23 25z" />
    <glyph glyph-name="accidentals.flat.arrowdown" unicode="&#xe11d;" horiz-adv-x="200" 
d="M27 41l-1 -66v-11c0 -22 1 -44 4 -66c45 38 93 80 93 139c0 33 -14 67 -43 67c-31 0 -52 -30 -53 -63zM18 -175v-121c0 -13 5 -18 14 -18c17 0 49 21 77 37c8 5 16 -5 11 -13c-50 -72 -79 -154 -112 -235c-1 -3 -4 -4 -7 -4s-5 1 -6 4c-33 81 -62 163 -112 235
c-1 2 -2 3 -2 5c0 6 7 12 13 8c28 -16 60 -37 77 -37c9 0 14 5 14 18v158l-12 595c8 5 18 8 27 8s19 -3 27 -8l-7 -345c25 21 58 34 91 34c52 0 89 -48 89 -102c0 -80 -86 -117 -147 -169c-16 -14 -35 -29 -35 -50z" />
    <glyph glyph-name="accidentals.flat.arrowboth" unicode="&#xe11e;" horiz-adv-x="200" 
d="M27 41l-1 -66v-11c0 -22 1 -44 4 -66c45 38 93 80 93 139c0 33 -14 67 -43 67c-31 0 -52 -30 -53 -63zM18 -175v-121c0 -13 5 -18 14 -18c17 0 49 21 77 37c8 5 16 -5 11 -13c-50 -72 -79 -154 -112 -235c-1 -3 -4 -4 -7 -4s-5 1 -6 4c-33 81 -62 163 -112 235
c-5 8 3 18 11 13c28 -16 60 -37 77 -37c9 0 14 5 14 18v158c-3 187 -5 375 -8 562c0 13 -5 18 -13 18c-17 0 -48 -23 -76 -39c-8 -5 -17 2 -17 10c0 2 1 4 2 6c50 71 86 151 118 231c2 4 5 6 9 6s7 -2 9 -6c32 -80 68 -160 118 -231c7 -10 -4 -22 -15 -16
c-28 16 -59 39 -76 39c-8 0 -13 -5 -13 -18c-1 -104 -4 -208 -5 -312c26 21 59 34 93 34c52 0 89 -48 89 -102c0 -80 -86 -117 -147 -169c-16 -14 -35 -29 -35 -50z" />
    <glyph glyph-name="accidentals.flat.slash" unicode="&#xe11f;" horiz-adv-x="200" 
d="M27 41l-1 -66v-11c0 -22 1 -44 4 -66c45 38 93 80 93 139c0 33 -14 67 -43 67c-31 0 -52 -30 -53 -63zM-22 206l-70 -35c-12 -6 -27 1 -27 16c0 7 4 14 11 17l85 43l-4 210c8 5 18 8 27 8s19 -3 27 -8l-4 -187l69 34c22 11 38 -22 16 -33l-86 -43l-2 -116
c25 21 58 34 91 34c52 0 89 -48 89 -102c0 -80 -86 -117 -147 -169c-15 -13 -24 -38 -45 -38c-13 0 -23 11 -23 25z" />
    <glyph glyph-name="accidentals.flat.slashslash" unicode="&#xe120;" horiz-adv-x="200" 
d="M27 41l-1 -66v-11c0 -22 1 -44 4 -66c45 38 93 80 93 139c0 33 -14 67 -43 67c-31 0 -52 -30 -53 -63zM-21 166l-71 -35c-12 -6 -27 2 -27 17c0 7 4 14 11 17l86 43l-2 76l-68 -34c-12 -6 -27 2 -27 17c0 7 4 13 11 16l84 42l-3 132c8 5 18 8 27 8s19 -3 27 -8l-2 -107
l67 33c22 11 38 -22 16 -33l-84 -42l-2 -78l70 35c22 11 38 -23 16 -34l-86 -43l-2 -76c25 21 58 34 91 34c52 0 89 -48 89 -102c0 -80 -86 -117 -147 -169c-15 -13 -24 -38 -45 -38c-13 0 -23 11 -23 25z" />
    <glyph glyph-name="accidentals.mirroredflat.flat" unicode="&#xe121;" horiz-adv-x="503" 
d="M225 -192c2 4 3 41 3 149c0 93 2 191 3 219c5 101 5 174 -1 184c-4 6 -7 9 -10 9s-5 -2 -9 -6c-6 -5 -7 -57 -5 -106c1 -30 2 -75 1 -99c-2 -58 -5 -60 -34 -31s-49 39 -79 39c-58 0 -93 -41 -94 -91s23 -92 77 -137c44 -36 93 -89 107 -115c7 -13 34 -27 41 -15z
M125 124h4c17 -3 43 -26 55 -47c19 -33 21 -48 22 -126c1 -65 -1 -73 -6 -78c-8 -8 -14 -6 -30 17s-42 44 -54 68c-18 36 -40 84 -33 123c4 22 23 44 42 43zM278 -192c-2 4 -3 41 -3 149c0 93 -2 191 -3 219c-5 101 -5 174 1 184c4 6 7 9 10 9s5 -2 9 -6c6 -5 7 -57 5 -106
c-1 -30 -2 -75 -1 -99c2 -58 5 -60 34 -31s49 39 79 39c58 0 93 -41 94 -91s-23 -92 -77 -137c-44 -36 -93 -89 -107 -115c-7 -13 -34 -27 -41 -15zM378 124h-4c-17 -3 -43 -26 -55 -47c-19 -33 -21 -48 -22 -126c-1 -65 1 -73 6 -78c8 -8 14 -6 30 17s42 44 54 68
c18 36 40 84 33 123c-4 22 -23 44 -42 43z" />
    <glyph glyph-name="accidentals.mirroredflat" unicode="&#xe122;" horiz-adv-x="185" 
d="M175 -192c2 4 3 41 3 149c0 93 2 191 3 219c5 101 5 174 -1 184c-4 6 -7 9 -10 9s-5 -2 -9 -6c-6 -5 -7 -57 -5 -106c1 -30 2 -75 1 -99c-2 -58 -5 -60 -34 -31s-49 39 -79 39c-58 0 -93 -41 -94 -91s23 -92 77 -137c44 -36 93 -89 107 -115c7 -13 34 -27 41 -15zM75 124
h4c17 -3 43 -26 55 -47c19 -33 21 -48 22 -126c1 -65 -1 -73 -6 -78c-8 -8 -14 -6 -30 17s-42 44 -54 68c-18 36 -40 84 -33 123c4 22 23 44 42 43z" />
    <glyph glyph-name="accidentals.mirroredflat.backslash" unicode="&#xe123;" horiz-adv-x="200" 
d="M73 41c-1 33 -22 63 -53 63c-29 0 -43 -34 -43 -67c0 -59 48 -101 93 -139c3 22 4 44 4 66v11zM122 206l-7 -344c0 -14 -10 -25 -23 -25c-21 0 -30 25 -45 38c-61 52 -147 89 -147 169c0 54 37 102 89 102c33 0 66 -13 91 -34l-2 116l-86 43c-22 11 -6 44 16 33l69 -34
l-4 187c8 5 18 8 27 8s19 -3 27 -8l-4 -210l85 -43c7 -3 11 -10 11 -17c0 -15 -15 -22 -27 -16z" />
    <glyph glyph-name="accidentals.flatflat" unicode="&#xe124;" horiz-adv-x="495" 
d="M-8 -192c-2 4 -3 41 -3 149c0 93 -2 191 -3 219c-5 101 -5 174 1 184c4 6 7 9 10 9s5 -2 9 -6c6 -5 7 -57 5 -106c-1 -30 -2 -75 -1 -99c2 -58 5 -60 34 -31s49 39 79 39c58 0 93 -41 94 -91s-23 -92 -77 -137c-44 -36 -93 -89 -107 -115c-7 -13 -34 -27 -41 -15zM92 124
h-4c-17 -3 -43 -26 -55 -47c-19 -33 -21 -48 -22 -126c-1 -65 1 -73 6 -78c8 -8 14 -6 30 17s42 44 54 68c18 36 40 84 33 123c-4 22 -23 44 -42 43zM270 -192c-2 4 -3 41 -3 149c0 93 -2 191 -3 219c-5 101 -5 174 1 184c4 6 7 9 10 9s5 -2 9 -6c6 -5 7 -57 5 -106
c-1 -30 -2 -75 -1 -99c2 -58 5 -60 34 -31s49 39 79 39c58 0 93 -41 94 -91s-23 -92 -77 -137c-44 -36 -93 -89 -107 -115c-7 -13 -34 -27 -41 -15zM370 124h-4c-17 -3 -43 -26 -55 -47c-19 -33 -21 -48 -22 -126c-1 -65 1 -73 6 -78c8 -8 14 -6 30 17s42 44 54 68
c18 36 40 84 33 123c-4 22 -23 44 -42 43z" />
    <glyph glyph-name="accidentals.flatflat.slash" unicode="&#xe125;" horiz-adv-x="362" 
d="M190 41l-1 -66c0 -4 -1 -7 -1 -11c0 -22 1 -44 4 -66c44 37 87 82 87 139c0 33 -11 67 -40 67c-30 0 -48 -30 -49 -63zM140 258l-118 -68l-2 -78c17 21 43 34 70 34c20 0 38 -8 52 -21zM-121 112c-13 0 -25 10 -25 25c0 9 5 17 13 22l111 64l-5 234c8 5 18 8 27 8
s19 -3 27 -8l-4 -208l115 66l-3 142c8 5 18 8 27 8s19 -3 27 -8l-2 -114l72 41c4 2 9 4 13 4c13 0 25 -10 25 -25c0 -9 -5 -17 -13 -22l-98 -57l-3 -172c24 21 55 34 87 34c53 0 92 -47 92 -101c0 -80 -86 -118 -147 -170c-15 -13 -23 -38 -44 -38c-13 0 -24 11 -24 25
l-2 106c-27 -34 -66 -62 -98 -93c-13 -13 -19 -38 -39 -38c-13 0 -23 11 -23 25l-6 304l-87 -50c-4 -2 -9 -4 -13 -4zM17 -26v-10c0 -23 1 -45 4 -68c39 38 71 86 71 141c0 32 -6 67 -33 67c-28 0 -39 -32 -40 -63z" />
    <glyph glyph-name="accidentals.doublesharp" unicode="&#xe126;" horiz-adv-x="236" 
d="M25 120c18 0 39 -21 60 -61c9 -19 21 -35 24 -37c8 -5 17 4 35 36c30 54 41 65 62 65c14 0 20 -3 26 -15c11 -21 -2 -51 -27 -61c-21 -8 -71 -40 -73 -45c-3 -7 11 -18 35 -30c39 -18 57 -32 64 -46c3.155 -6.5742 5 -13 5 -19c0 -16 -11 -27 -30 -27
c-1 0 -1.407 -0.0210037 -2 0c-27 1 -46 28 -58 52c-6 12 -16 25 -22 31c-15 14 -25 9 -40 -22c-7 -13 -18 -30 -26 -38c-28 -28 -59 -23 -60 9c0 23 7 32 51 56c22 12 41 24 43 27c5 9 -1 14 -15 20c-16 7 -30 18 -44 27c-23 14 -47 49 -28 69c6 7 13 9 20 9z" />
    <glyph glyph-name="accidentals.rightparen" unicode="&#xe127;" horiz-adv-x="158" 
d="M158 -18c-4 -84 -37 -179 -84 -205c-20 -11 -31 -15 -34 -13c-1 1 6 13 16 26c20 27 31 46 42 93c13 53 16 152 6 216c-8 57 -20 82 -49 118c-5 6 -16 20 -16 20c67 -14 108 -109 118 -210c1 -14 2 -29 1 -45z" />
    <glyph glyph-name="accidentals.leftparen" unicode="&#xe128;" horiz-adv-x="0" 
d="M-158 18c4 84 37 179 84 205c20 11 31 15 34 13c1 -1 -6 -13 -16 -26c-20 -27 -31 -46 -42 -93c-13 -53 -16 -152 -6 -216c8 -57 20 -82 49 -118c5 -6 16 -20 16 -20c-67 14 -108 109 -118 210c-1 14 -2 29 -1 45z" />
    <glyph glyph-name="arrowheads.open.01" unicode="&#xe129;" horiz-adv-x="20" 
d="M-250 105c0 11 9 20 20 20c6 0 11 -2 15 -7c54 -62 133 -98 215 -98c13 0 20 -10 20 -20s-7 -20 -20 -20c-82 0 -161 -36 -215 -98c-4 -5 -9 -7 -15 -7c-11 0 -20 9 -20 20c0 5 2 9 5 13c36 42 82 73 133 92c-51 19 -97 50 -133 92c-3 4 -5 8 -5 13z" />
    <glyph glyph-name="arrowheads.open.0M1" unicode="&#xe12a;" horiz-adv-x="250" 
d="M250 105c0 -5 -2 -9 -5 -13c-36 -42 -82 -73 -133 -92c51 -19 97 -50 133 -92c3 -4 5 -8 5 -13c0 -11 -9 -20 -20 -20c-6 0 -11 2 -15 7c-54 62 -133 98 -215 98c-13 0 -20 10 -20 20s7 20 20 20c82 0 161 36 215 98c4 5 9 7 15 7c11 0 20 -9 20 -20z" />
    <glyph glyph-name="arrowheads.open.11" unicode="&#xe12b;" horiz-adv-x="125" 
d="M-105 -250c-11 0 -20 9 -20 20c0 6 2 11 7 15c62 54 98 133 98 215c0 13 10 20 20 20s20 -7 20 -20c0 -82 36 -161 98 -215c5 -4 7 -9 7 -15c0 -11 -9 -20 -20 -20c-5 0 -9 2 -13 5c-42 36 -73 82 -92 133c-19 -51 -50 -97 -92 -133c-4 -3 -8 -5 -13 -5z" />
    <glyph glyph-name="arrowheads.open.1M1" unicode="&#xe12c;" horiz-adv-x="125" 
d="M-105 250c5 0 9 -2 13 -5c42 -36 73 -82 92 -133c19 51 50 97 92 133c4 3 8 5 13 5c11 0 20 -9 20 -20c0 -6 -2 -11 -7 -15c-62 -54 -98 -133 -98 -215c0 -13 -10 -20 -20 -20s-20 7 -20 20c0 82 -36 161 -98 215c-5 4 -7 9 -7 15c0 11 9 20 20 20z" />
    <glyph glyph-name="arrowheads.close.01" unicode="&#xe12d;" horiz-adv-x="0" 
d="M-240 -125c-6 0 -10 5 -10 10v2c8 37 13 75 13 113c0 39 -13 77 -13 115c0 5 4 10 10 10c3 0 6 -2 8 -4c38 -47 172 -111 232 -111c7 0 10 -5 10 -10s-3 -10 -10 -10c-60 0 -194 -64 -232 -111c-2 -2 -5 -4 -8 -4z" />
    <glyph glyph-name="arrowheads.close.0M1" unicode="&#xe12e;" horiz-adv-x="250" 
d="M240 -125c-3 0 -6 2 -8 4c-38 47 -172 111 -232 111c-7 0 -10 5 -10 10s3 10 10 10c60 0 194 64 232 111c2 2 5 4 8 4c6 0 10 -5 10 -10c0 -38 -13 -76 -13 -115c0 -38 5 -76 13 -113v-2c0 -5 -4 -10 -10 -10z" />
    <glyph glyph-name="arrowheads.close.11" unicode="&#xe12f;" horiz-adv-x="125" 
d="M125 -240c0 -6 -5 -10 -10 -10h-2c-37 8 -75 13 -113 13s-76 -5 -113 -13h-2c-5 0 -10 4 -10 10c0 3 2 6 4 8c47 38 111 172 111 232c0 7 5 10 10 10s10 -3 10 -10c0 -60 64 -194 111 -232c2 -2 4 -5 4 -8z" />
    <glyph glyph-name="arrowheads.close.1M1" unicode="&#xe130;" horiz-adv-x="125" 
d="M-125 240c0 6 5 10 10 10h2c37 -8 75 -13 113 -13s76 5 113 13h2c5 0 10 -4 10 -10c0 -3 -2 -6 -4 -8c-47 -38 -111 -172 -111 -232c0 -7 -5 -10 -10 -10s-10 3 -10 10c0 60 -64 194 -111 232c-2 2 -4 5 -4 8z" />
    <glyph glyph-name="dots.dot" unicode="&#xe131;" horiz-adv-x="111" 
d="M50.6865 50.7188c37.1494 -0.351562 59.7109 -18.0625 58.3135 -48.7188c-2.14551 -47.0352 -50.5703 -65.8633 -80.9062 -49.9375c-25.5156 13.3936 -34.2148 40.2188 -23.0635 68.0938c7.14941 17.8594 16.4385 30.8359 45.6562 30.5625z" />
    <glyph glyph-name="scripts.ufermata" unicode="&#xe132;" horiz-adv-x="236" 
d="M18 221c84 -7 179 -62 205 -140c11 -33 15 -51 13 -56c-1 -2 -13 10 -26 27c-27 34 -46 50 -93 69c-53 22 -152 26 -216 10c-57 -14 -82 -32 -118 -81c-6 -9 -20 -26 -20 -26c14 111 109 180 210 196c14 2 29 2 45 1zM6 89c16 -1 35 -13 45 -28c8 -13 6 -42 -3 -57
c-11 -18 -43 -30 -61 -22c-26 11 -39 32 -38 60c1 25 23 44 53 47h4z" />
    <glyph glyph-name="scripts.dfermata" unicode="&#xe133;" horiz-adv-x="236" 
d="M-18 -221c-84 7 -179 62 -205 140c-11 33 -15 51 -13 56c1 2 13 -10 26 -27c27 -34 46 -50 93 -69c53 -22 152 -26 216 -10c57 14 82 32 118 81c6 9 20 26 20 26c-14 -111 -109 -180 -210 -196c-14 -2 -29 -2 -45 -1zM-6 -89c-16 1 -35 13 -45 28c-8 13 -6 42 3 57
c11 18 43 30 61 22c26 -11 39 -32 38 -60c-1 -25 -23 -44 -53 -47h-4z" />
    <glyph glyph-name="scripts.ushortfermata" unicode="&#xe134;" horiz-adv-x="250" 
d="M-91 67c0 37 29 66 66 66s67 -29 67 -66s-30 -67 -67 -67s-66 30 -66 67zM-231 0c-11 0 -19 9 -19 19c0 3 1 4 2 7l231 513c3 7 10 11 17 11s14 -4 17 -11l231 -513c1 -3 2 -4 2 -7c0 -10 -8 -19 -19 -19h-49c-7 0 -14 4 -17 11l-190 418l-189 -418
c-3 -7 -10 -11 -17 -11z" />
    <glyph glyph-name="scripts.dshortfermata" unicode="&#xe135;" horiz-adv-x="250" 
d="M91 -67c0 -37 -29 -66 -66 -66s-67 29 -67 66s30 67 67 67s66 -30 66 -67zM231 0c11 0 19 -9 19 -19c0 -3 -1 -4 -2 -7l-231 -513c-3 -7 -10 -11 -17 -11s-14 4 -17 11l-231 513c-1 3 -2 4 -2 7c0 10 8 19 19 19h49c7 0 14 -4 17 -11l190 -418l189 418c3 7 10 11 17 11z
" />
    <glyph glyph-name="scripts.ulongfermata" unicode="&#xe136;" horiz-adv-x="312" 
d="M-67 67c0 37 30 66 67 66s67 -29 67 -66s-30 -67 -67 -67s-67 30 -67 67zM-302 375h605c6 0 10 -4 10 -10v-346c0 -10 -9 -19 -19 -19s-19 9 -19 19v256h-550v-256c0 -10 -9 -19 -19 -19s-18 9 -18 19v346c0 6 4 10 10 10z" />
    <glyph glyph-name="scripts.dlongfermata" unicode="&#xe137;" horiz-adv-x="312" 
d="M-67 -67c0 37 30 67 67 67s67 -30 67 -67s-30 -66 -67 -66s-67 29 -67 66zM-302 -375c-6 0 -10 4 -10 10v346c0 10 8 19 18 19s19 -9 19 -19v-256h550v256c0 10 9 19 19 19s19 -9 19 -19v-346c0 -6 -4 -10 -10 -10h-605z" />
    <glyph glyph-name="scripts.uverylongfermata" unicode="&#xe138;" horiz-adv-x="375" 
d="M-60 60c0 33 27 60 60 60s60 -27 60 -60s-27 -60 -60 -60s-60 27 -60 60zM-240 225h480c6 0 10 -4 10 -10v-196c0 -10 -9 -19 -19 -19s-19 9 -19 19v131h-424v-131c0 -10 -9 -19 -19 -19s-19 9 -19 19v196c0 6 4 10 10 10zM-365 400h730c6 0 10 -4 10 -10v-371
c0 -10 -9 -19 -19 -19s-19 9 -19 19v256h-674v-256c0 -10 -9 -19 -19 -19s-19 9 -19 19v371c0 6 4 10 10 10z" />
    <glyph glyph-name="scripts.dverylongfermata" unicode="&#xe139;" horiz-adv-x="375" 
d="M-60 -60c0 33 27 60 60 60s60 -27 60 -60s-27 -60 -60 -60s-60 27 -60 60zM-240 -225c-6 0 -10 4 -10 10v196c0 10 9 19 19 19s19 -9 19 -19v-131h424v131c0 10 9 19 19 19s19 -9 19 -19v-196c0 -6 -4 -10 -10 -10h-480zM-365 -400c-6 0 -10 4 -10 10v371
c0 10 9 19 19 19s19 -9 19 -19v-256h674v256c0 10 9 19 19 19s19 -9 19 -19v-371c0 -6 -4 -10 -10 -10h-730z" />
    <glyph glyph-name="scripts.thumb" unicode="&#xe13a;" horiz-adv-x="100" 
d="M21 -125l3 -51c1 -13 -11 -24 -24 -24s-25 11 -24 24l3 51v2c-49 12 -79 66 -79 123c0 65 40 125 100 125s100 -60 100 -125c0 -57 -30 -111 -79 -123v-2zM48 0c0 45 -9 95 -48 95s-47 -50 -47 -95s8 -95 47 -95s48 50 48 95z" />
    <glyph glyph-name="scripts.sforzato" unicode="&#xe13b;" horiz-adv-x="241" 
d="M-232 90c9 0 27 -5 68 -16c77 -21 152 -34 227 -47c50 -9 115 -12 170 -17c5 0 8 -5 8 -10c0 -4 -2 -8 -5 -10c-2 -2 -29 -6 -60 -8c-131 -10 -270 -41 -381 -75c-14 -4 -21 -12 -33 -5c-15 10 21 22 101 44c51 14 108 27 152 36c9 2 57 12 61 15c7 6 -4 10 -35 14
c-78 9 -204 40 -263 54c-11 3 -27 11 -20 20c2 3 5 5 10 5z" />
    <glyph glyph-name="scripts.espr" unicode="&#xe13c;" horiz-adv-x="517" 
d="M-44 -101c-9 0 -27 5 -68 16c-77 21 -152 34 -227 47c-50 9 -115 12 -170 17c-5 0 -8 5 -8 10c0 4 2 8 5 10c2 2 29 6 60 8c131 10 270 41 381 75c14 4 21 12 33 5c15 -10 -21 -22 -101 -44c-51 -14 -108 -27 -152 -36c-9 -2 -57 -12 -61 -15c-7 -6 4 -10 35 -14
c78 -9 204 -40 263 -54c11 -3 27 -11 20 -20c-2 -3 -5 -5 -10 -5zM44 90c9 0 27 -5 68 -16c77 -21 152 -34 227 -47c50 -9 115 -12 170 -17c5 0 8 -5 8 -10c0 -4 -2 -8 -5 -10c-2 -2 -29 -6 -60 -8c-131 -10 -270 -41 -381 -75c-14 -4 -21 -12 -33 -5c-15 10 21 22 101 44
c51 14 108 27 152 36c9 2 57 12 61 15c7 6 -4 10 -35 14c-78 9 -204 40 -263 54c-11 3 -27 11 -20 20c2 3 5 5 10 5z" />
    <glyph glyph-name="scripts.staccato" unicode="&#xe13d;" horiz-adv-x="54" 
d="M-4.31348 50.7188c37.1494 -0.351601 59.711 -18.0626 58.3135 -48.7188c-2.1455 -47.0352 -50.5703 -65.8633 -80.9062 -49.9375c-25.5157 13.3936 -34.2149 40.2188 -23.0635 68.0937c7.1494 17.8594 16.4385 30.836 45.6562 30.5626z" />
    <glyph glyph-name="scripts.ustaccatissimo" unicode="&#xe13e;" horiz-adv-x="43" 
d="M0 210c19 0 31 -6 39 -21s-1 -32 -7 -82c-3 -28 -16 -107 -32 -107c-15 0 -29 94 -35 118c-7 31 -8 51 -2 66c7 18 19 26 37 26z" />
    <glyph glyph-name="scripts.dstaccatissimo" unicode="&#xe13f;" horiz-adv-x="41" 
d="M0 -210c-19 0 -31 6 -39 21s1 32 7 82c3 28 16 107 32 107c15 0 29 -94 35 -118c7 -31 8 -51 2 -66c-7 -18 -19 -26 -37 -26z" />
    <glyph glyph-name="scripts.tenuto" unicode="&#xe140;" horiz-adv-x="123" 
d="M40 18c40 0 73 -1 76 -2s6 -7 7 -14c2 -20 6 -20 -123 -20c-108 0 -111 0 -118 5c-9 6 -8 22 1 27c4 3 90 4 157 4z" />
    <glyph glyph-name="scripts.uportato" unicode="&#xe141;" horiz-adv-x="123" 
d="M1 173c19 0 38 -10 47 -31c8 -19 6 -38 -6 -55c-15 -21 -34 -30 -58 -23c-28 8 -42 41 -36 64c7 28 30 44 53 45zM40 18c40 0 73 -1 76 -2s6 -7 7 -14c2 -20 6 -20 -123 -20c-108 0 -111 0 -118 5c-9 6 -8 22 1 27c4 3 90 4 157 4z" />
    <glyph glyph-name="scripts.dportato" unicode="&#xe142;" horiz-adv-x="123" 
d="M-1 -173c-19 0 -38 10 -47 31c-8 19 -6 38 6 55c15 21 34 30 58 23c28 -8 42 -41 36 -64c-7 -28 -30 -44 -53 -45zM-40 -18c-40 0 -73 1 -76 2s-6 7 -7 14c-2 20 -6 20 123 20c108 0 111 0 118 -5c9 -6 8 -22 -1 -27c-4 -3 -90 -4 -157 -4z" />
    <glyph glyph-name="scripts.umarcato" unicode="&#xe143;" horiz-adv-x="102" 
d="M-8 218h3c19 -6 33 -37 38 -56c4 -15 34 -81 46 -100c25 -38 28 -51 11 -60c-15 -8 -50 -7 -64 1c-7 4 -15 16 -23 32c-12 26 -22 35 -31 32c-3 -1 -13 -16 -23 -34c-17 -29 -21 -33 -30 -33c-14 0 -18 10 -8 26c22 36 44 88 55 130c11 45 17 62 26 62z" />
    <glyph glyph-name="scripts.dmarcato" unicode="&#xe144;" horiz-adv-x="102" 
d="M8 -218h-3c-19 6 -33 37 -38 56c-4 15 -34 81 -46 100c-25 38 -28 51 -11 60c15 8 50 7 64 -1c7 -4 15 -16 23 -32c12 -26 22 -35 31 -32c3 1 13 16 23 34c17 29 21 33 30 33c14 0 18 -10 8 -26c-22 -36 -44 -88 -55 -130c-11 -45 -17 -62 -26 -62z" />
    <glyph glyph-name="scripts.open" unicode="&#xe145;" horiz-adv-x="100" 
d="M100 0c0 -65 -40 -125 -100 -125s-100 60 -100 125s40 125 100 125s100 -60 100 -125zM57 0c0 47 -16 95 -57 95s-57 -48 -57 -95s16 -95 57 -95s57 48 57 95z" />
    <glyph glyph-name="scripts.halfopen" unicode="&#xe146;" horiz-adv-x="100" 
d="M-125 -169c-7 0 -13 6 -13 13c0 3 1 6 3 8l56 70c-14 22 -21 50 -21 78c0 65 40 125 100 125c25 0 46 -10 62 -26l53 65c3 3 6 5 10 5c7 0 13 -6 13 -13c0 -3 -1 -6 -3 -8l-56 -70c14 -22 21 -50 21 -78c0 -65 -40 -125 -100 -125c-25 0 -46 10 -62 26l-53 -65
c-3 -3 -6 -5 -10 -5zM-52 -44l92 115c-9 14 -22 24 -40 24c-41 0 -57 -48 -57 -95c0 -15 1 -30 5 -44zM-40 -71c9 -14 22 -24 40 -24c41 0 57 48 57 95c0 15 -1 30 -5 44z" />
    <glyph glyph-name="scripts.halfopenvertical" unicode="&#xe147;" horiz-adv-x="100" 
d="M13 124c53 -8 87 -64 87 -124s-34 -116 -87 -124v-64c0 -7 -6 -13 -13 -13s-13 6 -13 13v64c-53 8 -87 64 -87 124s34 116 87 124v64c0 7 6 13 13 13s13 -6 13 -13v-64zM13 -93c31 9 44 52 44 93s-13 84 -44 93v-186zM-13 -93v186c-31 -9 -44 -52 -44 -93s13 -84 44 -93z
" />
    <glyph glyph-name="scripts.stopped" unicode="&#xe148;" horiz-adv-x="137" 
d="M0 -138c-14 0 -25 12 -25 26v87h-87c-14 0 -26 11 -26 25s12 25 26 25h87v87c0 14 11 26 25 26s25 -12 25 -26v-87h87c14 0 26 -11 26 -25s-12 -25 -26 -25h-87v-87c0 -14 -11 -26 -25 -26z" />
    <glyph glyph-name="scripts.upbow" unicode="&#xe149;" horiz-adv-x="90" 
d="M90 473c0 -9 -5 -27 -16 -68c-21 -77 -34 -152 -47 -227c-9 -50 -12 -115 -17 -170c0 -5 -5 -8 -10 -8c-4 0 -8 2 -10 5c-2 2 -6 29 -8 60c-10 131 -41 270 -75 381c-4 14 -12 21 -5 33c10 15 22 -21 44 -101c14 -51 27 -108 36 -152c2 -9 12 -57 15 -61c6 -7 10 4 14 35
c9 78 40 204 54 263c3 11 11 27 20 20c3 -2 5 -5 5 -10z" />
    <glyph glyph-name="scripts.downbow" unicode="&#xe14a;" horiz-adv-x="187" 
d="M-178 333h356c6 0 10 -4 10 -10v-308c0 -8 -7 -15 -15 -15s-16 7 -16 15v185h-314v-185c0 -8 -7 -15 -15 -15s-16 7 -16 15v308c0 6 4 10 10 10z" />
    <glyph glyph-name="scripts.reverseturn" unicode="&#xe14b;" horiz-adv-x="247" 
d="M123 114c14 0 23 -3 42 -9c46 -15 71 -41 80 -90c7 -37 -7 -79 -30 -103c-20 -21 -67 -40 -88 -23c-14 11 -20 25 -20 45c0 19 9 37 20 40c4 1 18 -3 32 -9c50 -23 66 12 67 42c1 24 -15 48 -31 58c-34 22 -71 13 -102 -24c-51 -62 -97 -112 -114 -124
c-40 -28 -55 -33 -95 -35c-62 -3 -119 37 -129 97c-10 61 23 114 77 121c31 4 48 -7 55 -38c4 -15 -1 -23 -15 -32c-12 -7 -14 -8 -33 -4c-26 5 -45 0 -58 -16c-15 -19 -3 -57 18 -77c16 -15 39 -18 59 -11c15 5 51 38 81 77c27 34 51 58 67 70c33 24 65 41 101 44
c6 0 11 1 16 1z" />
    <glyph glyph-name="scripts.turn" unicode="&#xe14c;" horiz-adv-x="245" 
d="M-123 109c45 0 93 -22 132 -63c42 -44 108 -96 130 -102c38 -11 86 7 87 50c1 42 -39 45 -69 30c-26 -13 -59 -6 -64 13c-5 22 12 53 34 62c27 11 71 1 91 -21c14 -15 27 -54 27 -80c0 -45 -18 -72 -61 -93c-47 -23 -107 -19 -150 8c-11 7 -45 36 -77 67s-64 60 -71 66
c-14 11 -42 16 -64 12c-40 -8 -62 -55 -33 -79c26 -22 48 -1 75 3c19 2 36 -6 45 -24c19 -37 -35 -79 -82 -65c-41 13 -69 51 -72 100c-2 34 7 56 33 81c25 23 56 35 89 35z" />
    <glyph glyph-name="scripts.trill" unicode="&#xe14d;" horiz-adv-x="164" 
d="M-50 442c9 0 17 -2 22 -7c10 -10 10 -14 -3 -51c-14 -39 -18 -63 -11 -67c3 -2 13 -5 23 -7c16 -3 18 -5 18 -13s-1 -9 -19 -13c-37 -7 -38 -9 -60 -83c-7 -24 -19 -62 -26 -85c-23 -73 -25 -102 -9 -102c10 0 39 35 55 72c29 66 46 106 67 177c4 12 14 30 25 39
c8 7 31 8 42 2c8 -4 19 -25 23 -42c1 -7 5 -13 8 -14c6 -2 12 3 27 30c12 21 36 42 50 46c13 3 29 -4 32 -15c4 -14 -6 -86 -14 -101c-6 -12 -22 -19 -33 -13c-21 12 -20 37 -17 52c2 12 5 25 6 28s-3 0 -9 -7c-14 -15 -29 -46 -48 -100c-17 -50 -38 -101 -56 -146
c-8 -19 -48 -36 -67 -26c-10 5 -9 13 6 48c36 84 70 187 71 213c0 19 0 20 -8 20c-7 0 -13 -4 -24 -29c-36 -79 -60 -164 -100 -233c-15 -25 -52 -35 -67 -18c-13 14 -19 30 -23 61c-4 33 2 73 13 105c7 18 15 54 20 85c3 18 2 22 -3 30s-8 9 -22 7c-13 -2 -16 -2 -18 3
c-4 9 4 14 26 15c11 0 23 2 26 5c8 7 19 29 21 46c5 31 12 63 18 72c7 10 24 16 38 16z" />
    <glyph glyph-name="scripts.upedalheel" unicode="&#xe14e;" horiz-adv-x="125" 
d="M0 -87c48 0 87 39 87 87v148c0 10 9 19 19 19s19 -9 19 -19v-148c0 -69 -56 -125 -125 -125s-125 56 -125 125v148c0 10 9 19 19 19s19 -9 19 -19v-148c0 -48 39 -87 87 -87z" />
    <glyph glyph-name="scripts.dpedalheel" unicode="&#xe14f;" horiz-adv-x="125" 
d="M0 87c-48 0 -87 -39 -87 -87v-148c0 -10 -9 -19 -19 -19s-19 9 -19 19v148c0 69 56 125 125 125s125 -56 125 -125v-148c0 -10 -9 -19 -19 -19s-19 9 -19 19v148c0 48 -39 87 -87 87z" />
    <glyph glyph-name="scripts.upedaltoe" unicode="&#xe150;" horiz-adv-x="125" 
d="M88 362c2 8 10 13 18 13c10 0 19 -9 19 -19c0 -2 0 -3 -1 -5l-105 -332c0 -13 -6 -19 -19 -19s-19 6 -19 19l-105 332c-1 2 -1 3 -1 5c0 10 9 19 19 19c8 0 16 -5 18 -13l65 -206l23 -103l23 103z" />
    <glyph glyph-name="scripts.dpedaltoe" unicode="&#xe151;" horiz-adv-x="125" 
d="M88 -362l-65 206l-23 103l-23 -103l-65 -206c-2 -8 -10 -13 -18 -13c-10 0 -19 9 -19 19c0 2 0 3 1 5l105 332c0 13 6 19 19 19s19 -6 19 -19l105 -332c1 -2 1 -3 1 -5c0 -10 -9 -19 -19 -19c-8 0 -16 5 -18 13z" />
    <glyph glyph-name="scripts.flageolet" unicode="&#xe152;" horiz-adv-x="133" 
d="M0 133c74 0 133 -59 133 -133s-59 -133 -133 -133s-133 59 -133 133s59 133 133 133zM0 113c-63 0 -113 -50 -113 -113s50 -113 113 -113s113 50 113 113s-50 113 -113 113z" />
    <glyph glyph-name="scripts.segno" unicode="&#xe153;" horiz-adv-x="250" 
d="M-143 245c33 0 64 -21 68 -54c5 -45 -35 -53 -60 -49c-30 5 -70 9 -86 -9s-17 -35 -1 -55c27 -34 78 -30 105 -28c55 3 127 14 134 21c3 3 14 28 27 56c36 79 55 112 64 113c16 2 15 -12 -8 -48c-17 -26 -27 -55 -42 -80c-13 -22 -16 -31 -12 -38c2 -3 19 -7 42 -11
c33 -5 43 -8 60 -20c64 -46 94 -109 84 -169c-10 -62 -50 -119 -111 -109c-48 8 -66 68 -39 96c17 17 26 21 57 12c38 -10 83 -2 76 40c-4 25 -11 34 -35 45c-22 11 -23 10 -90 10c-54 0 -71 -1 -85 -6c-18 -6 -16 -7 -34 -42c-19 -36 -38 -78 -53 -110
c-16 -33 -21 -41 -27 -41c-14 0 -15 10 -2 41c7 16 18 38 25 49c25 43 42 77 40 82c-1 3 -12 5 -30 7c-60 5 -90 17 -123 45c-36 31 -50 66 -48 123c1 50 26 98 71 121c10 5 22 8 33 8zM201 219h2c29 -1 47 -30 47 -51c0 -39 -31 -66 -64 -54c-21 7 -38 29 -38 49
c1 31 28 55 53 56zM-195 -112c7 0 13 -1 20 -5c32 -19 25 -75 -11 -90c-17 -7 -36 -3 -43 0c-14 6 -22 23 -22 46c0 20 10 34 32 43c10 4 17 6 24 6z" />
    <glyph glyph-name="scripts.varsegno" unicode="&#xe154;" horiz-adv-x="312" 
d="M-287 -791c0 36 26 67 67 67c48 0 74 -37 74 -75c0 -21 -8 -42 -25 -56c62 -57 141 -96 238 -96c82 0 169 39 169 129c0 65 -58 121 -118 163l-307 215c-75 52 -125 133 -125 211c0 67 42 125 90 151c-55 51 -90 118 -90 183c0 67 42 124 90 150c-55 51 -90 118 -90 183
c0 67 42 126 90 151c-53 51 -83 119 -83 188c0 44 12 89 39 128c49 71 133 102 219 102c16 0 33 -1 49 -3c113 -15 213 -78 277 -172c7 -12 10 -25 10 -37c0 -36 -26 -67 -67 -67c-48 0 -74 37 -74 75c0 21 8 42 25 56c-62 57 -141 96 -238 96c-82 0 -169 -39 -169 -129
c0 -65 58 -121 118 -163l307 -215c75 -52 125 -133 125 -211c0 -67 -42 -125 -90 -151c55 -51 90 -118 90 -183c0 -67 -42 -124 -90 -150c55 -51 90 -118 90 -183c0 -67 -42 -126 -90 -151c53 -51 83 -119 83 -188c0 -44 -12 -89 -39 -128c-49 -71 -133 -102 -219 -102
c-16 0 -33 1 -49 3c-113 15 -213 78 -277 172c-7 12 -10 25 -10 37zM217 126c28 0 56 22 56 53c0 53 -83 112 -155 162l-154 108c-61 43 -131 92 -181 92c-28 0 -56 -23 -56 -54c0 -53 83 -112 155 -162l153 -106c61 -43 131 -93 182 -93zM217 -541c28 0 56 23 56 54
c0 53 -83 112 -155 162l-153 106c-61 43 -132 93 -182 93c-28 0 -56 -22 -56 -53c0 -53 83 -112 155 -162l154 -108c61 -43 131 -92 181 -92zM-217 207c-28 0 -56 -22 -56 -53c0 -53 83 -112 155 -162l164 -115c58 -41 124 -84 171 -84c28 0 56 22 56 53
c0 53 -83 112 -155 162l-164 115c-58 41 -124 84 -171 84z" />
    <glyph glyph-name="scripts.coda" unicode="&#xe155;" horiz-adv-x="254" 
d="M15 -338c0 -8 -7 -15 -15 -15s-15 7 -15 15v89c-97 10 -147 120 -151 234h-88c-8 0 -15 7 -15 15s7 15 15 15h88c4 114 54 224 151 234v89c0 8 7 15 15 15s15 -7 15 -15v-89c97 -10 147 -120 151 -234h88c8 0 15 -7 15 -15s-7 -15 -15 -15h-88
c-4 -114 -54 -224 -151 -234v-89zM15 -15v-204c70 12 77 111 78 204h-78zM15 15h78c-1 93 -8 192 -78 204v-204zM-15 -15h-78c1 -93 8 -192 78 -204v204zM-15 15v204c-70 -12 -77 -111 -78 -204h78z" />
    <glyph glyph-name="scripts.varcoda" unicode="&#xe156;" horiz-adv-x="254" 
d="M15 -338c0 -8 -7 -15 -15 -15s-15 7 -15 15v88h-142c-6 0 -10 4 -10 10v225h-87c-8 0 -15 7 -15 15s7 15 15 15h87v225c0 6 4 10 10 10h142v88c0 8 7 15 15 15s15 -7 15 -15v-88h142c6 0 10 -4 10 -10v-225h87c8 0 15 -7 15 -15s-7 -15 -15 -15h-87v-225
c0 -6 -4 -10 -10 -10h-142v-88zM15 -15v-205h64v205h-64zM15 15h64v205h-64v-205zM-15 -15h-64v-205h64v205zM-15 15v205h-64v-205h64z" />
    <glyph glyph-name="scripts.rcomma" unicode="&#xe157;" horiz-adv-x="43" 
d="M0 106.001c19 0 31 -6.54297 39 -22.9004s-1 -34.8955 -7 -89.4189c-3 -30.5342 -16 -116.682 -32 -116.682c-15 0 -29 102.505 -35 128.677c-7 33.8047 -8 55.6143 -2 71.9717c7 19.6289 19 28.3525 37 28.3525z" />
    <glyph glyph-name="scripts.lcomma" unicode="&#xe158;" horiz-adv-x="0" 
d="M-40 -108.001c-19 0 -31 6.54297 -39 22.9004s1 34.8955 7 89.4189c3 30.5342 16 116.682 32 116.682c15 0 29 -102.505 35 -128.677c7 -33.8047 8 -55.6143 2 -71.9717c-7 -19.6289 -19 -28.3525 -37 -28.3525z" />
    <glyph glyph-name="scripts.rvarcomma" unicode="&#xe159;" horiz-adv-x="30" 
d="M8 109c5 0 9 -1 12 -3c5 -4 10 -12 10 -35c1 -39 -3 -77 -3 -116c0 -40 1 -43 -7 -51c-10 -10 -33 -11 -42 -2c-7 7 -10 29 -9 70c1 33 2 64 3 97c1 20 3 25 11 31s17 9 25 9z" />
    <glyph glyph-name="scripts.lvarcomma" unicode="&#xe15a;" horiz-adv-x="30" 
d="M-9 -104c-5 0 -9 1 -12 3c-5 4 -10 12 -10 35c-1 39 3 77 3 116c0 40 -1 43 7 51c10 10 33 11 42 2c7 -7 10 -29 9 -70c-1 -33 -2 -64 -3 -97c-1 -20 -3 -25 -11 -31s-17 -9 -25 -9z" />
    <glyph glyph-name="scripts.arpeggio" unicode="&#xe15b;" horiz-adv-x="200" 
d="M55 250c3 0 14 -11 24 -22s23 -23 30 -27c20 -10 36 -28 43 -45c3.789 -13.435 6 -25 6 -34c0 -18 -6.856 -30.3008 -18 -48c-7 -11 -17 -20 -28 -26c-9 -5 -27 -19 -37 -30c-12 -13 -20 -18 -26 -18c-2 0 -4 1 -6 3c-1 1 -2 10 -2 19c0 15 11 30 19 65c13 56 7 56 -8 93
c-16 40 -15 70 3 70z" />
    <glyph glyph-name="scripts.trill_element" unicode="&#xe15c;" horiz-adv-x="250" 
d="M126 124c30 0 51 -14 73 -50c11 -17 23 -31 33 -38c12 -9 18 -17 18 -23c0 -8 -9 -13 -23 -13c-6 0 -13 1 -21 3c-6 2 -25 12 -42 22c-41 25 -60 25 -97 0c-22 -15 -52 -24 -60 -19c-5 3 -7 5 -7 9c0 6 5 13 15 23c9 9 23 24 30 35c24 37 45 51 81 51z" />
    <glyph glyph-name="scripts.arpeggio.arrow.M1" unicode="&#xe15d;" horiz-adv-x="200" 
d="M21 95c-13 13 -21 29 -21 42c0 8 3 15 10 18c13 7 56 -50 57 -29s-5 29 -15 54c-16 40 -15 70 3 70c3 0 14 -11 24 -22s17.0569 -21.552 23 -27c12 -11 23 -33 25 -45c2 -14 -1 -21 3 -29c7 -13 50 30 58 30s12 -9 12 -19c0 -8 -2 -17 -7 -23c-28 -37 -78 -96 -87 -96h-3
c-12 4 -63 57 -82 76z" />
    <glyph glyph-name="scripts.arpeggio.arrow.1" unicode="&#xe15e;" horiz-adv-x="200" 
d="M136 75c-7 -11 -13 -21 -24 -27c-9 -5 -27 -19 -37 -30c-12 -13 -20 -18 -26 -18c-2 0 -4 1 -6 3c-1 1 -2 10 -2 19c0 15 11 30 19 65c13 56 -40 7 -48 7s-12 9 -12 19c0 8 2 17 7 23c28 37 81 96 90 96h3c12 -4 60 -57 79 -76c13 -13 21 -29 21 -42c0 -8 -3 -15 -10 -18
c-7.70799 -4.1507 -30.987 21.582 -42 18c-7.56 -2.459 -7.522 -31.6729 -12 -39z" />
    <glyph glyph-name="scripts.trilelement" unicode="&#xe15f;" horiz-adv-x="104" 
d="M-80 1l-8 -12l-33 22l70 105c4 6 10 9 17 9c6 0 11 -2 15 -7l99 -119l8 12l33 -22l-70 -105c-4 -6 -10 -9 -17 -9c-6 0 -11 2 -15 7z" />
    <glyph glyph-name="scripts.prall" unicode="&#xe160;" horiz-adv-x="224" 
d="M-109 87c7 0 22 -16 30 -31s31 -46 42 -56c9 -8 10 -8 20 -2c6 4 26 23 46 44c39 40 46 44 59 30c4 -4 16 -22 25 -40s20 -36 25 -41c15 -17 21 -14 66 35c15 17 24 24 28 22c14 -5 2 -30 -24 -48c-8 -6 -33 -28 -54 -49c-24 -24 -42 -38 -47 -38s-12 6 -21 21
c-25 40 -46 68 -56 71c-8 3 -12 1 -27 -12c-10 -8 -23 -22 -29 -30c-16 -23 -35 -43 -42 -43c-8 0 -16 8 -35 39s-43 59 -52 59c-3 0 -16 -11 -29 -24s-27 -29 -33 -35c-8 -8 -11 -10 -14 -7s-3 6 0 12c7 13 116 123 122 123z" />
    <glyph glyph-name="scripts.mordent" unicode="&#xe161;" horiz-adv-x="208" 
d="M3 118c15 0 19 -10 17 -36c-3 -33 11 -38 29 -10c5 8 12 15 16 15c9 0 34 -28 54 -62c6 -9 13 -19 17 -21c16 -8 19 -5 62 51c8 10 16 9 16 -2c0 -6 -27 -39 -54 -71c-13 -15 -24 -31 -35 -47c-4 -6 -9 -11 -13 -11s-18 12 -33 31c-43 53 -41 50 -48 45
c-9 -5 -11 -17 -13 -63c-1 -21 -2 -41 -3 -43c-4 -6 -20 -8 -27 -4c-5 3 -7 8 -7 26c0 24 -5 34 -16 29c-10 -5 -15 -23 -27 -24c-4 0 -16 13 -30 31c-26 33 -42 48 -51 48c-7 0 -46 -42 -53 -57c-5 -11 -15 -13 -18 -5s7 24 37 58c16 18 31 37 34 43c7 14 36 42 43 41
c3 -1 18 -16 33 -35s29 -35 33 -36c14 -2 17 6 16 50c-1 48 3 59 21 59z" />
    <glyph glyph-name="scripts.prallprall" unicode="&#xe162;" horiz-adv-x="299" 
d="M59 -45c-23 -25 -40 -41 -45 -41s-12 5 -22 20c-26 39 -48 66 -58 69c-8 3 -12 1 -27 -13c-10 -8 -22 -23 -28 -31c-15 -24 -33 -44 -40 -44c-8 0 -17 7 -37 37s-45 58 -54 58c-3 0 -15 -12 -28 -25s-25 -31 -31 -37c-8 -8 -11 -10 -14 -7s-4 6 -1 12
c7 13 112 127 118 127c7 0 22 -15 31 -30s33 -44 44 -54c9 -8 10 -8 20 -2c6 4 25 24 44 46c38 41 45 46 58 32c4 -4 17 -21 27 -39s21 -35 26 -40c16 -16 45 31 64 53c38 41 45 46 58 32c4 -4 17 -21 27 -39s21 -35 26 -40c16 -16 22 -14 65 37c14 18 23 25 27 23
c14 -5 3 -30 -22 -49c-8 -6 -33 -29 -53 -51c-23 -25 -40 -39 -45 -39s-12 5 -22 20c-26 39 -48 66 -58 69c-8 3 -30 -32 -50 -54z" />
    <glyph glyph-name="scripts.prallmordent" unicode="&#xe163;" horiz-adv-x="208" 
d="M-121 -41c-15 -24 -33 -44 -40 -44c-8 0 -17 7 -37 37s-45 58 -54 58c-3 0 -15 -12 -28 -25s-25 -31 -31 -37c-8 -8 -11 -10 -14 -7s-4 6 -1 12c7 13 112 127 118 127c7 0 22 -15 31 -30s33 -44 44 -54c9 -8 10 -8 20 -2c6 4 34 39 37 45c7 14 36 42 43 41
c3 -1 18 -16 33 -35s29 -35 33 -36c14 -2 17 6 16 50c-1 48 3 59 21 59c15 0 19 -10 17 -36c-3 -33 11 -38 29 -10c5 8 12 15 16 15c9 0 34 -28 54 -62c6 -9 13 -19 17 -21c16 -8 19 -5 62 51c8 10 16 9 16 -2c0 -6 -27 -39 -54 -71c-13 -15 -24 -31 -35 -47
c-4 -6 -9 -11 -13 -11s-18 12 -33 31c-43 53 -41 50 -48 45c-9 -5 -11 -17 -13 -63c-1 -21 -2 -41 -3 -43c-4 -6 -20 -8 -27 -4c-5 3 -7 8 -7 26c0 24 -5 34 -16 29c-10 -5 -15 -23 -27 -24c-4 0 -16 13 -30 31c-26 33 -42 48 -51 48c-7 0 -39 -33 -45 -41z" />
    <glyph glyph-name="scripts.upprall" unicode="&#xe164;" horiz-adv-x="312" 
d="M319 46c4 6 10 9 17 9c11 0 20 -9 20 -20c0 -4 -2 -8 -4 -11c-31 -47 -62 -93 -93 -140c-4 -6 -9 -9 -16 -9c-6 0 -12 2 -16 7l-98 119l-78 -117c-4 -6 -10 -9 -17 -9c-6 0 -11 2 -15 7l-99 119l-78 -117c-4 -6 -9 -9 -16 -9c-6 0 -12 2 -16 7l-98 119
c-10 -16 -21 -31 -31 -47c-23 -34 -34 -74 -34 -114s11 -80 34 -114c9 -14 -2 -31 -17 -31c-7 0 -12 3 -16 9c-27 41 -41 89 -41 136s14 95 41 136c31 47 62 93 93 140c4 6 10 9 17 9c6 0 11 -2 15 -7l98 -119l78 117c4 6 10 9 17 9c6 0 11 -2 15 -7l99 -119l78 117
c4 6 9 9 16 9c6 0 12 -2 16 -7l98 -119c10 16 21 31 31 47z" />
    <glyph glyph-name="scripts.upmordent" unicode="&#xe165;" horiz-adv-x="312" 
d="M124 -147c0 -11 -9 -20 -20 -20s-20 9 -20 20v81l-33 -50c-4 -6 -10 -9 -17 -9c-6 0 -11 2 -15 7l-99 119l-78 -117c-4 -6 -9 -9 -16 -9c-6 0 -12 2 -16 7l-98 119c-10 -16 -21 -31 -31 -47c-23 -34 -34 -74 -34 -114s11 -80 34 -114c9 -14 -2 -31 -17 -31
c-7 0 -12 3 -16 9c-27 41 -41 89 -41 136s14 95 41 136c31 47 62 93 93 140c4 6 10 9 17 9c6 0 11 -2 15 -7l98 -119l78 117c4 6 10 9 17 9c6 0 11 -2 15 -7l99 -119l4 7v141c0 11 9 20 20 20s20 -9 20 -20v-81l34 50c4 6 9 9 16 9c6 0 12 -2 16 -7l98 -119
c10 16 21 31 31 47c4 6 10 9 17 9c11 0 20 -9 20 -20c0 -4 -2 -8 -4 -11c-31 -47 -62 -93 -93 -140c-4 -6 -9 -9 -16 -9c-6 0 -12 2 -16 7l-98 119l-5 -7v-141z" />
    <glyph glyph-name="scripts.pralldown" unicode="&#xe166;" horiz-adv-x="312" 
d="M-319 46c10 -16 21 -31 31 -47l98 119c4 5 10 7 16 7c7 0 12 -3 16 -9l78 -117l99 119c4 5 9 7 15 7c7 0 13 -3 17 -9l78 -117l98 119c4 5 9 7 15 7c7 0 13 -3 17 -9c31 -47 62 -93 93 -140c27 -41 41 -89 41 -136s-14 -95 -41 -136c-4 -6 -9 -9 -16 -9
c-15 0 -26 17 -17 31c23 34 34 74 34 114s-11 80 -34 114c-10 16 -21 31 -31 47l-98 -119c-4 -5 -10 -7 -16 -7c-7 0 -12 3 -16 9l-78 117l-99 -119c-4 -5 -9 -7 -15 -7c-7 0 -13 3 -17 9l-78 117l-98 -119c-4 -5 -10 -7 -16 -7c-7 0 -12 3 -16 9c-31 47 -62 93 -93 140
c-2 3 -4 7 -4 11c0 11 9 20 20 20c7 0 13 -3 17 -9z" />
    <glyph glyph-name="scripts.downprall" unicode="&#xe167;" horiz-adv-x="312" 
d="M319 46c4 6 10 9 17 9c11 0 20 -9 20 -20c0 -4 -2 -8 -4 -11c-31 -47 -62 -93 -93 -140c-4 -6 -9 -9 -16 -9c-6 0 -12 2 -16 7l-98 119l-78 -117c-4 -6 -10 -9 -17 -9c-6 0 -11 2 -15 7l-99 119l-78 -117c-4 -6 -9 -9 -16 -9c-6 0 -12 2 -16 7l-98 119
c-10 -16 -21 -31 -31 -47c-4 -6 -10 -9 -17 -9s-12 4 -16 10c-27 41 -41 88 -41 135s14 95 41 136c4 6 9 9 16 9c15 0 26 -17 17 -31c-23 -34 -34 -74 -34 -114c0 -30 6 -59 19 -86c25 38 50 74 75 112c4 6 10 9 17 9c6 0 11 -2 15 -7l98 -119l78 117c4 6 10 9 17 9
c6 0 11 -2 15 -7l99 -119l78 117c4 6 9 9 16 9c6 0 12 -2 16 -7l98 -119c10 16 21 31 31 47z" />
    <glyph glyph-name="scripts.downmordent" unicode="&#xe168;" horiz-adv-x="312" 
d="M124 -147c0 -11 -9 -20 -20 -20s-20 9 -20 20v81l-33 -50c-4 -6 -10 -9 -17 -9c-6 0 -11 2 -15 7l-99 119l-78 -117c-4 -6 -9 -9 -16 -9c-6 0 -12 2 -16 7l-98 119c-10 -16 -21 -31 -31 -47c-4 -6 -10 -9 -17 -9s-12 4 -16 10c-27 41 -41 88 -41 135s14 95 41 136
c4 6 9 9 16 9c15 0 26 -17 17 -31c-23 -34 -34 -74 -34 -114c0 -30 6 -59 19 -86c25 38 50 74 75 112c4 6 10 9 17 9c6 0 11 -2 15 -7l98 -119l78 117c4 6 10 9 17 9c6 0 11 -2 15 -7l99 -119l4 7v141c0 11 9 20 20 20s20 -9 20 -20v-81l34 50c4 6 9 9 16 9c6 0 12 -2 16 -7
l98 -119c10 16 21 31 31 47c4 6 10 9 17 9c11 0 20 -9 20 -20c0 -4 -2 -8 -4 -11c-31 -47 -62 -93 -93 -140c-4 -6 -9 -9 -16 -9c-6 0 -12 2 -16 7l-98 119l-5 -7v-141z" />
    <glyph glyph-name="scripts.prallup" unicode="&#xe169;" horiz-adv-x="312" 
d="M-319 46c10 -16 21 -31 31 -47l98 119c4 5 10 7 16 7c7 0 12 -3 16 -9l78 -117l99 119c4 5 9 7 15 7c7 0 13 -3 17 -9l78 -117l98 119c4 5 9 7 15 7c7 0 13 -3 17 -9c25 -38 50 -74 75 -112c13 27 19 56 19 86c0 40 -11 80 -34 114c-9 14 2 31 17 31c7 0 12 -3 16 -9
c27 -41 41 -89 41 -136s-14 -94 -41 -135c-4 -6 -9 -10 -16 -10s-13 3 -17 9c-10 16 -21 31 -31 47l-98 -119c-4 -5 -10 -7 -16 -7c-7 0 -12 3 -16 9l-78 117l-99 -119c-4 -5 -9 -7 -15 -7c-7 0 -13 3 -17 9l-78 117l-98 -119c-4 -5 -10 -7 -16 -7c-7 0 -12 3 -16 9
c-31 47 -62 93 -93 140c-2 3 -4 7 -4 11c0 11 9 20 20 20c7 0 13 -3 17 -9z" />
    <glyph glyph-name="scripts.lineprall" unicode="&#xe16a;" horiz-adv-x="312" 
d="M319 46c4 6 10 9 17 9c11 0 20 -9 20 -20c0 -4 -2 -8 -4 -11c-31 -47 -62 -93 -93 -140c-4 -6 -10 -9 -17 -9c-6 0 -11 2 -15 7l-98 119l-78 -117c-4 -6 -10 -9 -17 -9c-6 0 -11 2 -15 7l-99 119l-78 -117c-4 -6 -9 -9 -16 -9c-6 0 -12 2 -16 7l-98 119
c-10 -16 -21 -31 -31 -47c-4 -6 -10 -9 -17 -9c-11 0 -20 9 -20 20v500c0 11 9 20 20 20s20 -9 20 -20v-434l57 85c4 6 10 9 17 9c6 0 11 -2 15 -7l98 -119l78 117c4 6 10 9 17 9c6 0 11 -2 15 -7l99 -119l78 117c4 6 9 9 16 9c6 0 12 -2 16 -7l98 -119c10 16 21 31 31 47z
" />
    <glyph glyph-name="scripts.caesura.curved" unicode="&#xe16b;" horiz-adv-x="500" 
d="M282 313c18 0 31 -15 31 -32c0 -160 -63 -326 -127 -470c-3 -7 -10 -11 -17 -11c-15 0 -22 15 -17 26c63 144 89 300 99 457c1 17 15 30 31 30zM19 -200c-11 0 -19 10 -19 19c0 3 1 5 2 7c63 144 89 300 99 457c1 17 15 30 31 30c18 0 31 -15 31 -32
c0 -160 -63 -326 -127 -470c-3 -7 -10 -11 -17 -11z" />
    <glyph glyph-name="scripts.caesura.straight" unicode="&#xe16c;" horiz-adv-x="500" 
d="M149 -182l232 464c5 11 17 18 29 18h32c7 0 12 -6 12 -12c0 -2 0 -4 -1 -6l-232 -464c-5 -11 -17 -18 -29 -18h-32c-9 0 -15 10 -11 18zM9 -182l232 464c5 11 17 18 29 18h32c7 0 12 -6 12 -12c0 -2 0 -4 -1 -6l-232 -464c-5 -11 -17 -18 -29 -18h-32c-7 0 -12 6 -12 12
c0 2 0 4 1 6z" />
    <glyph glyph-name="scripts.tickmark" unicode="&#xe16d;" horiz-adv-x="274" 
d="M-139 204c47 -31 94 -63 133 -104c4 -5 11 -5 12 0c45 139 125 271 260 325h3c3 0 6 -2 6 -6c0 -3 -2 -5 -4 -6c-150 -60 -196 -233 -246 -388c-4 -13 -12 -25 -24 -25c-13 0 -21 13 -26 25c-29 64 -74 120 -123 171c-1 1 -2 2 -2 4c0 6 7 7 11 4z" />
    <glyph glyph-name="scripts.snappizzicato" unicode="&#xe16e;" horiz-adv-x="133" 
d="M16 0c0 -9 -7 -16 -16 -16s-16 7 -16 16v100c-48 -8 -85 -50 -85 -100c0 -56 45 -101 101 -101s101 45 101 101c0 50 -37 92 -85 100v-100zM-16 132v68c0 9 7 16 16 16s16 -7 16 -16v-68c66 -8 117 -64 117 -132c0 -74 -59 -133 -133 -133s-133 59 -133 133
c0 68 51 124 117 132z" />
    <glyph glyph-name="clefs.C" unicode="&#xe16f;" horiz-adv-x="652" 
d="M65 494h4c26 0 51 -2 56 -6s6 -16 5 -96c0 -44 0 -101 1 -156c1 -64 1 -130 -1 -192c-2 -59 -1 -113 0 -174c1 -59 0 -145 -1 -219c-1 -72 -2 -118 -3 -126c0 -3 -5 -7 -12 -11c-10 -5 -20 -6 -51 -4c-43 2 -54 8 -58 31c-1 7 -3 221 -4 477c0 155 -2 286 -1 465
c0 3 7 4 11 5c7 2 30 6 54 6zM187 493c8 0 9 -21 9 -104c0 -40 4 -99 3 -158c0 -19 -3 -48 -4 -81c-5 -123 -4 -126 32 -85c27 31 60 90 67 120c3 11 11 18 18 15c3 -1 11 -19 18 -40c17 -54 37 -80 81 -103c15 -8 39 -3 61 8c29 15 40 28 45 125c1 26 5 84 4 109
c-1 24 -6 79 -14 105c-11 37 -18 46 -48 55c-28 9 -74 8 -78 -2c-1 -3 3 -13 10 -23c10 -15 12 -22 12 -41c0 -39 -17 -61 -52 -74c-44 -15 -90 15 -90 57c1 82 79 110 134 114c40 3 67 -2 103 -14c97 -32 136 -136 144 -202c8 -72 -22 -138 -65 -183
c-33 -34 -40 -39 -79 -51c-31 -9 -58 -10 -80 -4c-33 9 -47 23 -73 42c-6 5 -10 2 -36 -23c-17 -16 -21 -20 -25 -27c-6 -10 -6 -35 0 -47c11 -21 31 -31 42 -53c11 -21 17 -22 35 -2c19 21 40 36 57 41c22 6 77 6 102 -2c64 -20 100 -69 120 -127s13 -150 -16 -206
c-28 -54 -74 -96 -125 -113c-28 -9 -40 -11 -88 -12c-62 -2 -96 8 -124 34c-47 43 -49 106 -5 136c15 10 22 13 39 13c51 -1 67 -36 65 -67c-2 -27 -3 -32 -15 -48c-16 -20 -18 -36 -6 -43c13 -7 47 -12 66 -7c62 15 86 70 93 122c4 28 6 88 5 120c-1 38 -12 132 -23 152
c-10 19 -36 36 -54 36c-21 0 -49 -12 -68 -29c-22 -20 -54 -78 -54 -97c0 -13 -10 -28 -19 -28c-7 0 -16 15 -16 26c0 18 -58 106 -79 119c-5 3 -12 6 -16 5c-6 -1 -7 -10 -8 -98v-87v-49c0 -34 1 -72 0 -105c-2 -67 -2 -84 -6 -88c-12 -10 -14 1 -13 100c0 37 0 81 -1 129
c-1 65 -1 143 -1 200v82c0 15 1 43 1 110c0 52 2 99 2 103c-1 36 2 93 1 137c-2 91 -1 102 5 105c3 2 5 3 7 3z" />
    <glyph glyph-name="clefs.C_change" unicode="&#xe170;" horiz-adv-x="524" 
d="M52 395.2h3.2002c20.7998 0 40.7998 -1.60059 44.7998 -4.7998c4 -3.2002 4.7998 -12.8008 4 -76.8008c0 -35.1992 0 -80.7998 0.799805 -124.8c0.799805 -51.2002 0.799805 -104 -0.799805 -153.6c-1.59961 -47.2002 -0.799805 -90.4004 0 -139.2
c0.799805 -47.2002 0 -116 -0.799805 -175.2c-0.799805 -57.5996 -1.60059 -94.3994 -2.40039 -100.8c0 -2.40039 -4 -5.59961 -9.59961 -8.7998c-8 -4 -16 -4.7998 -40.7998 -3.2002c-34.4004 1.59961 -43.2002 6.40039 -46.4004 24.7998
c-0.799805 5.60059 -2.40039 176.8 -3.2002 381.601c0 124 -1.59961 228.8 -0.799805 372c0 2.39941 5.59961 3.19922 8.7998 4c5.60059 1.59961 24 4.7998 43.2002 4.7998zM149.6 394.4c6.40039 0 7.2002 -16.8008 7.2002 -83.2002c0 -32 3.2002 -79.2002 2.40039 -126.4
c0 -15.2002 -2.40039 -38.3994 -3.2002 -64.7998c-4 -98.4004 -3.2002 -100.8 25.5996 -68c21.6006 24.7998 48 72 53.6006 96c2.39941 8.7998 8.7998 14.4004 14.3994 12c2.40039 -0.799805 8.80078 -15.2002 14.4004 -32c13.5996 -43.2002 29.5996 -64 64.7998 -82.4004
c12 -6.39941 31.2002 -2.39941 48.7998 6.40039c23.2002 12 32 22.4004 36 100c0.800781 20.7998 4 67.2002 3.2002 87.2002c-0.799805 19.2002 -4.7998 63.2002 -11.2002 84c-8.7998 29.5996 -14.3994 36.7998 -38.3994 44
c-22.4004 7.2002 -59.2002 6.39941 -62.4004 -1.60059c-0.799805 -2.39941 2.40039 -10.3994 8 -18.3994c8 -12 9.60059 -17.6006 9.60059 -32.7998c0 -31.2002 -13.6006 -48.8008 -41.6006 -59.2002c-35.2002 -12 -72 12 -72 45.5996
c0.799805 65.6006 63.2002 88 107.2 91.2002c32 2.40039 53.5996 -1.59961 82.4004 -11.2002c77.5996 -25.5996 108.8 -108.8 115.199 -161.6c6.40039 -57.6006 -17.5996 -110.4 -52 -146.4c-26.3994 -27.2002 -32 -31.2002 -63.1992 -40.7998
c-24.8008 -7.2002 -46.4004 -8 -64 -3.2002c-26.4004 7.2002 -37.6006 18.4004 -58.4004 33.6006c-4.7998 4 -8 1.59961 -28.7998 -18.4004c-13.6006 -12.7998 -16.7998 -16 -20 -21.5996c-4.7998 -8 -4.7998 -28 0 -37.6006
c8.7998 -16.7998 24.7998 -24.7998 33.5996 -42.3994c8.7998 -16.8008 13.6006 -17.6006 28 -1.60059c15.2002 16.7998 32 28.7998 45.6006 32.7998c17.5996 4.80078 61.5996 4.80078 81.5996 -1.59961c51.2002 -16 80 -55.2002 96 -101.6
c16 -46.4004 10.4004 -120 -12.7998 -164.801c-22.4004 -43.1992 -59.2002 -76.7998 -100 -90.3994c-22.4004 -7.2002 -32 -8.7998 -70.4004 -9.60059c-49.5996 -1.59961 -76.7998 6.40039 -99.2002 27.2002c-37.5996 34.4004 -39.1992 84.7998 -4 108.8
c12 8 17.6006 10.4004 31.2002 10.4004c40.7998 -0.799805 53.6006 -28.7998 52 -53.5996c-1.59961 -21.6006 -2.39941 -25.6006 -12 -38.4004c-12.7998 -16 -14.3994 -28.7998 -4.7998 -34.4004c10.4004 -5.59961 37.5996 -9.59961 52.7998 -5.59961
c49.6006 12 68.7998 56 74.4004 97.5996c3.2002 22.4004 4.7998 70.4004 4 96c-0.799805 30.4004 -9.60059 105.601 -18.4004 121.601c-8 15.2002 -28.7998 28.7998 -43.2002 28.7998c-16.7998 0 -39.1992 -9.59961 -54.3994 -23.2002
c-17.6006 -16 -43.2002 -62.3994 -43.2002 -77.5996c0 -10.4004 -8 -22.4004 -15.2002 -22.4004c-5.59961 0 -12.7998 12 -12.7998 20.7998c0 14.4004 -46.4004 84.8008 -63.2002 95.2002c-4 2.40039 -9.59961 4.7998 -12.7998 4
c-4.7998 -0.799805 -5.59961 -8 -6.40039 -78.3994v-69.6006v-39.2002c0 -27.1992 0.800781 -57.5996 0 -84c-1.59961 -53.5996 -1.59961 -67.1992 -4.7998 -70.3994c-9.59961 -8 -11.2002 0.799805 -10.3994 80c0 29.5996 0 64.7998 -0.800781 103.2
c-0.799805 52 -0.799805 114.399 -0.799805 160v65.5996c0 12 0.799805 34.4004 0.799805 88c0 41.5996 1.60059 79.2002 1.60059 82.4004c-0.799805 28.7998 1.59961 74.3994 0.799805 109.6c-1.59961 72.7998 -0.799805 81.5996 4 84
c2.40039 1.59961 4 2.40039 5.59961 2.40039z" />
    <glyph glyph-name="clefs.F" unicode="&#xe171;" horiz-adv-x="682" 
d="M541 -100c17 33 48 39 75 24c41 -23 35 -75 7 -95c-24 -17 -58 -12 -78 11c-13 14 -18 34 -4 60zM221 211c126 1 256 -89 274 -217c16 -110 -4 -208 -70 -287c-61 -72 -147 -122 -239 -146c-18 -5 -45 -4 -50 1c-10 10 -2 18 23 22c68 12 150 95 170 134
c33 65 55 170 51 249c-1 25 -11 74 -30 117c-30 68 -77 108 -128 109h-5c-57 0 -126 -19 -135 -75c-4 -27 2 -37 26 -54c12 -8 27 -22 33 -31c10 -16 13 -56 -6 -73c-24 -29 -44 -31 -71 -25c-42 10 -61 40 -64 84c-2 37 3 44 11 62c42 95 131 129 210 130zM584 177
c37 0 60 -17 59 -48c-2 -47 -51 -66 -81 -50c-26 13 -37 47 -26 75c7 18 19 23 48 23z" />
    <glyph glyph-name="clefs.F_change" unicode="&#xe172;" horiz-adv-x="554" 
d="M432.8 -80c13.6006 26.4004 38.4004 31.2002 60 19.2002c32.7998 -18.4004 28 -60 5.60059 -76c-19.2002 -13.6006 -46.4004 -9.60059 -62.4004 8.7998c-10.4004 11.2002 -14.4004 27.2002 -3.2002 48zM176.8 168.8c100.8 0.799805 204.8 -71.2002 219.2 -173.6
c12.7998 -88 -3.2002 -166.4 -56 -229.601c-48.7998 -57.5996 -117.6 -97.5996 -191.2 -116.8c-14.3994 -4 -36 -3.2002 -40 0.799805c-8 8 -1.59961 14.4004 18.4004 17.6006c54.3994 9.59961 120 76 136 107.2c26.3994 52 44 136 40.7998 199.199
c-0.799805 20 -8.7998 59.2002 -24 93.6006c-24 54.3994 -61.5996 86.3994 -102.4 87.2002h-4c-45.5996 0 -100.8 -15.2002 -108 -60c-3.19922 -21.6006 1.60059 -29.6006 20.8008 -43.2002c9.59961 -6.40039 21.5996 -17.6006 26.3994 -24.7998
c8 -12.8008 10.4004 -44.8008 -4.7998 -58.4004c-19.2002 -23.2002 -35.2002 -24.7998 -56.7998 -20c-33.6006 8 -48.7998 32 -51.2002 67.2002c-1.59961 29.5996 2.40039 35.2002 8.7998 49.5996c33.6006 76 104.8 103.2 168 104zM467.2 141.6
c29.5996 0 48 -13.5996 47.2002 -38.3994c-1.60059 -37.6006 -40.8008 -52.7998 -64.8008 -40c-20.7998 10.3994 -29.5996 37.5996 -20.7998 60c5.60059 14.3994 15.2002 18.3994 38.4004 18.3994z" />
    <glyph glyph-name="clefs.G" unicode="&#xe173;" horiz-adv-x="643" 
d="M339 972c33 0 60 -11 83 -45c25 -36 37 -105 35 -153c-1 -20 -4 -48 -9 -77c-15 -90 -50 -152 -100 -225c-15 -22 -36 -56 -38 -67c-2 -10 10 -53 21 -75c2 -4 7 -18 11 -32c9 -33 15 -39 34 -37c148 12 259 -70 267 -207c2 -34 -4 -75 -13 -104
c-20 -85 -84 -146 -139 -182c-9 -6 -14 -15 -17 -23c-2 -7 0 -19 -2 -39c-3 -38 -9 -83 -23 -118c-29 -74 -96 -113 -186 -115c-68 5 -144 25 -143 102c0 46 25 79 71 76c32 -2 44 -13 59 -36c10 -15 8 -41 -2 -55c-28 -39 -8 -55 23 -58c89 -9 146 57 165 120
c2 7 14 68 14 95c0 18 -2 22 -6 26c-10 8 -36 3 -102 2c-46 0 -109 9 -161 40c-57 34 -113 89 -143 146c-22 41 -36 87 -38 131c-1 30 7 103 21 139c22 55 41 86 73 130c34 48 38 53 81 104c19 26 48 57 59 86c4 9 2 23 -17 77c-16 45 -26 94 -28 114c-3 30 -4 69 1 96
c7 35 30 88 60 120c26 28 41 39 75 43c5 1 9 1 14 1zM350 945c-9 0 -19 -2 -28 -5c-16 -6 -41 -35 -46 -52c-2 -7 -8 -23 -11 -34c-10 -36 -18 -79 -21 -124c-1 -10 0 -25 1 -57c3 -66 13 -113 24 -113c3 0 16 13 29 28c42 50 81 117 90 141c10 27 21 66 23 88
c5 68 -2 89 -30 115c-12 11 -17 13 -31 13zM286 374c-10 -1 -43 -43 -57 -60c-23 -28 -37 -50 -56 -74c-14 -18 -54 -77 -68 -134c-11 -44 -13 -91 -6 -135c9 -60 49 -127 99 -164c55 -41 121 -46 185 -38c30 4 55 12 60 21c4 8 -5 59 -30 174c-6 28 -12 60 -19 89
c-4 16 -7 34 -13 51c-1 2 -6 17 -10 33c-7 28 -10 36 -22 36c-5 0 -11 -1 -19 -3c-29 -7 -48 -19 -67 -39s-43 -65 -44 -89c-2 -37 4 -53 24 -83c25 -36 62 -56 110 -56c19 0 25 -1 27 -6c1 -3 0 -7 -3 -9c-7 -5 -68 -2 -83 5c-25 10 -51 35 -67 60c-17 26 -35 60 -30 110
c5 58 21 100 55 132c10 10 24 22 30 28c10 9 21 19 33 29c10 8 13 14 12 19s-2 10 -4 18c-9 30 -18 58 -35 84c-1 1 -1 1 -2 1zM394 175c-14 0 -13 -7 -8 -26c3 -11 12 -44 20 -73c10 -36 18 -75 26 -113c6 -26 11 -53 16 -80s13 -75 18 -81s10 -6 21 2c39 26 75 106 79 160
c2 31 4 64 -7 93c-31 83 -76 108 -141 116c-11 1 -18 2 -24 2z" />
    <glyph glyph-name="clefs.G_change" unicode="&#xe174;" horiz-adv-x="515" 
d="M315.2 103.5c-8.58701 0 -8.13 -1.902 -3.98801 -17.6419c2.39899 -8.7978 9.60098 -35.2022 15.997 -58.3892c8.02798 -28.9038 14.445 -60.1885 20.832 -90.5293c4.80402 -20.8161 8.82101 -42.5056 12.818 -64.0836c4.02698 -21.749 10.85 -60.042 13.861 -63.656
c2.91599 -3.498 4.79001 -4.24699 13.45 2.052c30.21 20.139 58.986 83.604 62.135 126.109c1.60202 24.8245 3.10602 50.815 -5.44699 73.3637c-24.512 65.6297 -59.461 84.8798 -110.724 91.1891c-8.76501 0.796997 -14.443 1.586 -18.934 1.586zM255.989 196.538
c-7.12599 23.753 -14.754 46.48 -27.398 66.061c-8.123 -3.263 -32.727 -33.955 -43.459 -46.986c-18.292 -22.268 -29.489 -39.86 -44.758 -59.148c-11.048 -14.204 -42.8999 -61.2873 -53.9486 -106.271c-8.7189 -34.876 -10.3063 -72.1182 -4.7529 -107.023
c7.0905 -47.2677 38.8025 -100.396 78.2225 -129.567c43.26 -32.249 95.311 -36.284 146.175 -29.926c24.074 3.21001 43.133 10.113 46.118 15.488c2.16901 4.34 -4.207 45.397 -24.232 137.51c-4.80798 22.4308 -9.61398 48.0515 -15.181 71.1177
c-3.21201 12.845 -5.78598 27.4148 -10.275 40.4154c-0.934998 1.8706 -4.89301 13.8535 -8.12601 26.7839c-5.742 22.9728 -7.724 26.9067 -15.174 26.9067c-3.67603 0 -8.259 -0.742004 -14.613 -2.3302c-22.776 -5.4972 -37.425 -14.7557 -52.374 -30.4919
c-14.79 -15.5684 -33.761 -51.4805 -34.516 -69.5979c-1.58101 -29.237 2.909 -41.0814 18.77 -64.8732c19.529 -28.1213 48.284 -43.7068 85.933 -43.7068c14.623 0 21.498 -0.313004 23.921 -6.372l0.0279846 -0.0680008l0.0230103 -0.0699997
c1.129 -3.388 0.0690002 -7.767 -3.366 -10.057c-7.29202 -5.21 -56.026 -2.189 -68.8 3.772c-20.712 8.285 -41.695 28.6103 -54.699 48.9273c-13.707 20.9643 -28.47 48.8633 -24.397 89.5995c4.026 46.6909 17.045 81.0885 44.749 107.163
c8.028 8.028 19.334 17.733 23.973 22.373l0.0460052 0.0469971l0.048996 0.0440063c8.006 7.20399 16.794 15.196 26.492 23.278c7.91 6.328 9.22501 10.296 8.729 12.773c-0.800018 4 -1.57101 7.873 -3.15901 14.228zM280 719.5
c-6.811 0 -14.67 -1.55798 -21.567 -3.85699c-11.591 -4.34698 -31.51 -27.283 -35.229 -39.929c-1.661 -5.81396 -6.433 -18.525 -8.795 -27.183c-7.96199 -28.662 -14.324 -62.833 -16.717 -98.739c-0.768005 -7.68298 0.0059967 -19.694 0.806 -45.296
c2.395 -52.679 11.259 -86.451 16.514 -87.968c2.673 1.379 12.275 10.867 21.486 21.495c33.34 39.691 64.567 93.403 71.558 112.045c7.92801 21.406 16.699 52.651 18.252 69.738c3.98599 54.207 -1.42902 69.738 -23.198 89.951
c-9.42599 8.64197 -12.284 9.74298 -23.11 9.74298zM259.608 745.271c4.263 0.85199 7.608 0.828979 11.592 0.828979c27.046 0 49.645 -9.26898 68.462 -37.088c20.529 -29.559 30.054 -85.085 28.434 -123.937c-0.806 -16.124 -3.21701 -38.608 -7.23001 -61.886
c-12.078 -72.468 -40.351 -122.525 -80.4 -180.998c-11.943 -17.515 -28.602 -44.911 -30.01 -52.66c-1.31099 -6.55402 7.953 -41.158 16.58 -58.413c1.79398 -3.58699 5.72 -14.665 8.97098 -26.045c7.19101 -26.366 10.829 -29.229 24.561 -27.784
c119.513 9.692 209.837 -56.764 216.328 -167.942c1.62299 -27.594 -3.18298 -60.4871 -10.483 -84.0048c-16.214 -68.9112 -67.97 -118.054 -112.226 -147.022c-6.582 -4.388 -10.308 -11.187 -12.601 -17.069c-1.26498 -4.42601 0.118011 -14.543 -1.496 -30.674
c-2.40201 -30.439 -7.20599 -66.7 -18.562 -95.089c-23.628 -60.292 -78.368 -91.971 -151.072 -93.587l-0.118988 -0.00299072l-0.12001 0.00900269c-54.244 3.98898 -117.547 20.16 -116.717 84.109c0 37.698 20.962 65.79 59.456 63.279
c26.343 -1.64603 36.942 -11.228 49.132 -29.92c8.703 -13.055 6.948 -34.785 -1.657 -46.833c-6.39999 -8.914 -9.42999 -16.114 -10.085 -21.661c-1.5 -12.698 9.216 -19.101 26.705 -20.794c69.633 -7.04001 114.371 44.553 129.35 94.218
c1.47101 5.14502 11.099 54.3 11.099 75.295c0 14.368 -1.608 16.474 -3.953 18.921c-6.76898 5.076 -27.147 1.77901 -79.929 0.979004c-37.138 0 -87.919 7.20799 -130.099 32.353c-45.9705 27.422 -91.0659 71.679 -115.321 117.765
c-17.7609 33.0986 -29.0743 70.2059 -30.6956 105.883c-0.81595 24.4846 5.51276 82.7491 16.9767 112.227c17.6616 44.153 33.0645 69.295 58.6906 104.53c27.1738 38.363 30.4898 42.518 64.8638 83.287c15.34 20.992 38.304 45.665 46.83 68.141l0.0239868 0.0660095
l0.029007 0.0629883c2.60201 5.85501 1.612 16.311 -13.672 59.748c-12.885 36.24 -20.9 75.468 -22.531 91.788c-2.418 24.171 -3.257 55.441 0.832001 77.522c5.701 28.509 24.171 71.146 48.623 97.229c20.893 22.499 33.647 31.9 61.44 35.169z" />
    <glyph glyph-name="clefs.percussion" unicode="&#xe175;" horiz-adv-x="500" 
d="M490 -250h-92c-6 0 -10 4 -10 10v480c0 6 4 10 10 10h92c6 0 10 -4 10 -10v-480c0 -6 -4 -10 -10 -10zM270 -250h-93c-6 0 -10 4 -10 10v480c0 6 4 10 10 10h93c6 0 10 -4 10 -10v-480c0 -6 -4 -10 -10 -10z" />
    <glyph glyph-name="clefs.percussion_change" unicode="&#xe176;" horiz-adv-x="400" 
d="M390 -200h-70c-6 0 -10 4 -10 10v380c0 6 4 10 10 10h70c6 0 10 -4 10 -10v-380c0 -6 -4 -10 -10 -10zM214 -200h-70c-6 0 -10 4 -10 10v380c0 6 4 10 10 10h70c6 0 10 -4 10 -10v-380c0 -6 -4 -10 -10 -10z" />
    <glyph glyph-name="clefs.tab" unicode="&#xe177;" horiz-adv-x="700" 
d="M267 -425c0 -24 -23 -27 -43 -27c-45 0 -84 31 -84 75c0 82 118 130 234 130c104 0 215 -22 215 -103c0 -51 -31 -86 -69 -110c58 -11 102 -36 102 -91c0 -90 -94 -158 -179 -158c-41 0 -80 15 -108 52c-2 2 -3 5 -3 8c0 12 16 25 28 25c4 0 8 -1 10 -4
c11 -15 27 -21 44 -21c43 0 95 40 95 93c0 47 -49 63 -101 63c-6 0 -8 8 -8 16c0 11 5 24 18 24c36 0 69 39 69 77c0 45 -36 68 -80 76c-11 -62 -31 -173 -40 -220c-20 -102 -84 -202 -159 -202c-44 0 -68 34 -96 53c-3 2 -4 5 -4 9c0 11 12 26 24 26c3 0 5 0 7 -2
c20 -13 36 -35 65 -35c65 0 89 99 89 195v8c0 35 9 109 18 163c-39 -13 -70 -40 -70 -70c0 -15 8 -28 19 -34c4 -3 7 -9 7 -16zM301 -83c-43 -41 -114 -105 -173 -105c-33 0 -52 21 -78 32c-3 1 -5 5 -5 9c0 11 11 28 25 28c2 0 5 -1 7 -2c16 -7 30 -18 50 -18
c34 0 65 27 91 54c100 102 175 219 214 336c9 27 33 37 57 37c29 0 57 -15 57 -31c0 -2 -1 -4 -2 -6c-4 -116 -9 -233 -16 -350v-9c0 -16 3 -30 21 -30c16 0 35 13 53 19l2 1c5 0 9 -8 9 -17c0 -8 -3 -16 -12 -19c-29 -9 -54 -34 -87 -34c-32 0 -45 29 -53 58
c-16 61 -26 125 -31 191c-27 -35 -56 -68 -87 -101c11 -20 33 -33 64 -33c4 0 8 1 12 1c5 0 8 -7 8 -15c0 -25 -34 -29 -56 -29c-32 0 -56 12 -70 33zM288 540c0 -23 -23 -24 -42 -24c-49 0 -91 36 -91 84c0 95 125 120 232 120c49 0 119 -41 171 -41c38 0 77 15 110 41
c3 2 6 3 9 3c11 0 23 -11 23 -19c0 -2 -1 -3 -2 -4c-40 -45 -95 -71 -148 -71c-15 0 -31 2 -44 6c-9 -59 -26 -151 -35 -193c-22 -96 -88 -185 -163 -185c-52 0 -81 42 -115 64c-3 2 -4 5 -4 9c0 11 12 26 23 26c2 0 5 -1 7 -2c23 -15 43 -46 75 -46c56 0 82 77 85 150
c2 45 13 150 22 208c-12 3 -23 5 -32 5c-51 0 -113 -21 -113 -70c0 -18 10 -36 24 -43c5 -3 8 -10 8 -18z" />
    <glyph glyph-name="clefs.tab_change" unicode="&#xe178;" horiz-adv-x="560" 
d="M213 -340c0 -19 -17 -21 -33 -21c-36 0 -68 24 -68 59c0 66 94 104 187 104c83 0 173 -18 173 -82c0 -41 -26 -69 -56 -88c46 -9 82 -29 82 -73c0 -72 -76 -126 -144 -126c-33 0 -64 12 -86 42c-1 2 -2 4 -2 6c0 10 12 20 22 20c3 0 6 -1 8 -4c9 -12 22 -16 36 -16
c34 0 76 32 76 74c0 37 -40 51 -81 51c-5 0 -7 5 -7 12c0 9 5 20 15 20c29 0 55 31 55 62c0 36 -29 54 -64 60c-9 -50 -25 -138 -32 -176c-16 -82 -67 -161 -127 -161c-35 0 -54 27 -77 42c-2 2 -4 4 -4 7c0 9 10 21 19 21c2 0 4 -1 6 -2c16 -11 29 -28 53 -28
c52 0 71 79 71 156v7c0 28 7 87 14 130c-32 -11 -56 -32 -56 -56c0 -12 6 -22 15 -27c4 -2 5 -7 5 -13zM56 -95c17 0 27 -16 46 -16c27 0 52 22 73 43c80 81 139 175 170 269c7 22 27 29 46 29c23 0 45 -11 45 -24c0 -95 -14 -194 -14 -292c0 -13 3 -25 17 -25
c13 0 29 16 44 16c4 0 7 -6 7 -13c0 -6 -2 -13 -9 -15c-23 -7 -44 -28 -70 -28s-36 24 -42 47c-13 49 -21 100 -25 153c-21 -28 -44 -55 -69 -81c11 -20 30 -26 60 -26c4 0 6 -6 6 -12c0 -20 -27 -23 -45 -23c-25 0 -44 10 -55 27c-34 -32 -91 -84 -139 -84
c-27 0 -41 16 -62 25c-3 1 -4 4 -4 7c0 9 9 23 20 23zM230 432c0 -18 -18 -19 -33 -19c-39 0 -73 29 -73 67c0 76 101 96 186 96c39 0 95 -33 136 -33c30 0 62 12 88 33c2 2 4 2 7 2c9 0 19 -9 19 -15c0 -1 0 -2 -1 -3c-32 -36 -77 -57 -119 -57c-12 0 -25 2 -35 5
c-7 -47 -20 -122 -28 -155c-17 -77 -70 -148 -130 -148c-41 0 -64 34 -92 52c-2 2 -4 4 -4 7c0 9 9 21 18 21c2 0 4 -1 6 -2c18 -12 34 -37 60 -37c45 0 66 62 68 121c1 36 11 120 18 166c-10 2 -19 4 -26 4c-41 0 -90 -16 -90 -56c0 -14 8 -28 19 -34c4 -2 6 -9 6 -15z" />
    <glyph glyph-name="timesig.C44" unicode="&#xe179;" horiz-adv-x="496" 
d="M248 258c15 0 31 -1 49 -2c68 -4 85 -32 106 -46c13 -9 39 -14 45 -10c11 8 22 13 30 28c11 19 19 -17 18 -41c-4 -68 -64 -111 -118 -96c-46 13 -54 20 -83 77c-22 43 -33 59 -51 67c-32 14 -78 1 -95 -26c-18 -28 -23 -43 -26 -138c-1 -41 1 -82 0 -123
c-3 -131 117 -217 225 -186c55 17 119 81 122 135c0 16 6 30 11 27c11 -7 -3 -58 -22 -89c-39 -65 -101 -93 -172 -95c-124 -4 -227 34 -269 157c-12 34 -18 69 -18 103c0 23 3 47 9 70c15 55 43 110 83 142c26 21 53 46 156 46z" />
    <glyph glyph-name="timesig.C22" unicode="&#xe17a;" horiz-adv-x="507" 
d="M263 372c3 0 6 -1 9 -4c7 -7 7 -12 7 -54c0 -16 -1 -31 1 -42c1 -4 5 -8 8 -10c7 -4 59 -8 83 -32s63 -51 100 -10c14 16 34 27 35 12c5 -52 -24 -114 -65 -133c-45 -21 -93 -1 -122 52c-19 34 -35 50 -36 43c-5 -69 4 -140 2 -209c0 -6 -3 -200 0 -208
c7 -17 68 -16 107 2c49 23 75 69 74 116c0 15 -1 21 3 24c8 6 9 3 10 -30c1 -38 -4 -63 -33 -93c-33 -35 -75 -48 -123 -53c-22 -2 -33 -3 -37 -27c-2 -9 -2 -29 -1 -44c2 -26 2 -29 -5 -32c-11 -5 -19 -1 -23 6c-3 7 -3 12 1 23c5 16 4 60 -3 67s-23 -2 -73 6
c-110 17 -182 153 -182 251c0 144 81 260 237 269c18 1 20 19 16 93c-1 11 4 17 10 17zM231 234h-9c-31 -4 -45 -12 -55 -29c-16 -26 -24 -58 -29 -119c-4 -50 -3 -100 0 -150c3 -43 6 -83 19 -111c15 -32 56 -57 87 -58c9 0 13 2 15 6c1 3 2 50 2 104c0 65 -5 118 -3 220
c1 41 1 85 1 98c0 21 0 24 -10 32c-7 6 -10 7 -18 7z" />
    <glyph glyph-name="pedal.*" unicode="&#xe17b;" horiz-adv-x="431" 
d="M124 391h2c8 0 16 -2 25 -6c29 -13 37 -57 26 -81c-10 -21 -9 -33 7 -46c20 -17 41 -15 56 1c7 7 9 7 11 12c4 12 -2 26 -3 39c-4 45 -2 54 18 69c18 14 35 15 56 4c28 -15 33 -39 18 -77c-13 -33 -51 -17 -72 -39c-25 -26 1 -66 43 -65c9 0 15 4 22 12
c19 21 50 29 73 19c16 -6.66701 25 -26 25 -45c0 -10 -2 -19.667 -7 -28c-20 -34 -60 -34 -89 0c-17 20 -19 21 -38 16c-20 -6 -32 -22 -32 -41c1 -19 12 -29 35 -32c33 -4 51 -21 50 -49c-1 -38 -38 -62 -65 -52c-36 13 -45 42 -34 73c7 21 6 29 -9 41
c-23 19 -58 1 -67 -17c-1.116 -2.2314 -4.008 -6.8682 -4 -13c0 -6 2 -10 5 -15c19 -34 -2 -72 -42 -73c-16 0 -40 12 -46 26c-15 35 10 66 35 70c12 2 24 5 27 7c7 4 17 25 17 36c0 13 -11 27 -25 33c-20 9 -36 4 -56 -17c-19 -21 -33 -30 -55 -19c-24 12 -30 23 -31 53
c-1 33 21 53 45 50c24 -2 27 -4 46 -26c14 -16 18 -17 31 -17c29 1 46 24 38 51c-4 14 -18 28 -27 29c-43 5 -66 39 -57 73c7 26 25 43 48 44z" />
    <glyph glyph-name="pedal.M" unicode="&#xe17c;" horiz-adv-x="210" 
d="M0 155l35 61c13 11 31 14 51 14c23 0 50 -4 73 -4c20 0 38 2 51 13l-35 -60c-13 -11 -31 -14 -51 -14c-23 0 -50 4 -73 4c-20 0 -38 -3 -51 -14z" />
    <glyph glyph-name="pedal.." unicode="&#xe17d;" horiz-adv-x="59" 
d="M33 69c14 0 22 -9 25 -30c0 -3 1 -5 1 -7c0 -6 -2 -10 -12 -19c-9 -8 -17 -13 -23 -13c-5 0 -9 3 -13 7c-7 7 -11 20 -11 29c0 4 1 6 2 9c8 16 19 24 31 24z" />
    <glyph glyph-name="pedal.P" unicode="&#xe17e;" horiz-adv-x="320" 
d="M180 26c-27 -20 -82 -34 -111 -27c-61 14 -81 61 -69 115c8 37 27 60 66 80c36 18 68 10 82 -22c16 -35 -2 -74 -27 -96c-19 -17 -23 -10 -11 17c11 23 9 29 -8 47c-12 13 -35 22 -47 18c-33 -11 -35 -47 -3 -76c37 -34 60 -46 92 -46c26 0 53 17 70 48
c19 33 -1 75 -20 96c-33 36 -49 71 -49 110c0 12 -2 23 -5 27c-6 8 -12 6 -35 -12c-7 -5 -20 -14 -31 -18c-51 -18 -79 19 -79 55c0 37 7 52 38 82c33 31 70 44 111 55c8 2 17 3 26 3h3c28 0 59 -8 90 -24c17 -9 36 -26 46 -45c8 -15 11 -30 11 -43c0 -35 -25 -60 -66 -60
c-19 0 -20 1 -21 10c-1 8 2 12 13 21c21 17 31 37 29 57c-3 28 -20 44 -48 46c-16 1 -16 2 -33 -51c-17 -51 -14 -63 17 -105c9 -12 21 -30 28 -39c19 -27 27 -56 25 -93c-1 -19 -4 -36 -8 -43c-29 -58 -58 -74 -76 -87zM161 447c-14 0 -48 -9 -69 -19
c-29 -14 -46 -37 -46 -58c0 -54 58 -40 81 -28c29 15 34 19 38 34c8 31 24 61 9 67l-8 3c-1 0 -3 1 -5 1z" />
    <glyph glyph-name="pedal.d" unicode="&#xe17f;" horiz-adv-x="244" 
d="M44 204c16.9609 24.027 65 51 89 51c17 0 19 -1 36 -18c10 -10 17 -21 17 -24c0 -8 -25 -37 -32 -35c-19 5 -39 31 -60 29c-34 -4 -55 -34 -66 -63c-14 -36 8 -77 46 -86c20 -5 63 3 79 14c37 26 55 70 65 142c10 76 -33 155 -116 165c-34 4 -73 -22 -89 -47
c-20 -31 -30 -21 -13 14c27 55 75 105 133 101c107 -7 119 -137 106 -218c-13 -79 -47 -151 -100 -198c-26 -23 -45 -33 -77 -31c-47 3 -54 58 -52 96c2.3096 43.879 3.5703 64.892 34 108z" />
    <glyph glyph-name="pedal.e" unicode="&#xe180;" horiz-adv-x="188" 
d="M174 73c-46 -47 -56 -55 -74 -62c-51 -19 -81 0 -91 58c-2 15 -8 26 -9 28c-3 12 1 29 9 42c26 42 66 97 116 109c30 7 54 -28 41 -61c-2 -5 -24 -31 -49 -58c-28 -31 -46 -52 -45 -56c2 -8 24 -19 40 -19c8 0 19 4 28 10c6 4 23 21 34 27c5 3 9 4 12 4c2 0 2 0 2 -2
c0 -3 -4 -10 -14 -20zM84 191c-7 0 -13 -2 -19 -6c-16 -10 -31 -40 -31 -63c0 -15 1 -18 10 -26c6 -5 12 -8 15 -6s17 15 31 31c22 25 25 30 25 42c0 18 -6 26 -23 28h-8z" />
    <glyph glyph-name="pedal.Ped" unicode="&#xe181;" horiz-adv-x="762" 
d="M173 482c28 0 59 -8 90 -24c17 -9 36 -26 46 -45c28 -55 2 -103 -55 -103c-19 0 -20 1 -21 10c-1 8 2 12 13 21c21 17 31 37 29 57c-3 28 -20 44 -48 46c-16 1 -16 2 -33 -51c-17 -51 -14 -63 17 -105c9 -12 21 -30 28 -39c19 -27 27 -56 25 -93c-1 -19 -4 -36 -8 -43
c-8 -16 -6 -29 4 -27c10 1 23 19 44 53c27 42 66 97 116 109c30 7 54 -28 41 -61c-2 -5 -24 -31 -49 -58c-28 -31 -46 -52 -45 -56c2 -8 24 -19 40 -19c8 0 19 4 28 10c15 10 75 75 87 92s28 31 40 48c17 24 65 51 89 51c17 0 19 -1 36 -18c10 -10 17 -21 17 -24
c0 -8 -25 -37 -32 -35c-19 5 -39 31 -60 29c-34 -4 -55 -34 -66 -63c-14 -36 8 -77 46 -86c20 -5 63 3 79 14c37 26 55 70 65 142c10 76 -33 155 -116 165c-34 4 -73 -22 -89 -47c-20 -31 -30 -21 -13 14c27 55 75 105 133 101c107 -7 119 -137 106 -218
c-13 -79 -47 -151 -100 -198c-26 -23 -45 -33 -77 -31c-47 3 -63 59 -52 96c7 23 7 26 0 29c-4 2 -21 -14 -59 -52c-46 -47 -56 -55 -74 -62c-51 -19 -81 0 -91 58c-2 15 -7 27 -9 28s-11 -8 -20 -20c-26 -35 -47 -55 -58 -55c-5 0 -11 1 -12 3c-3 5 -21 4 -25 1
c-27 -20 -82 -34 -111 -27c-61 14 -81 61 -69 115c8 37 27 60 66 80c36 18 68 10 82 -22c16 -35 -2 -74 -27 -96c-19 -17 -23 -10 -11 17c11 23 9 29 -8 47c-12 13 -35 22 -47 18c-33 -11 -35 -47 -3 -76c37 -34 60 -46 92 -46c26 0 53 17 70 48c19 33 -1 75 -20 96
c-33 36 -49 71 -49 110c0 12 -2 23 -5 27c-6 8 -12 6 -35 -12c-7 -5 -20 -14 -31 -18c-51 -18 -79 19 -79 55c0 37 7 52 38 82c33 31 70 44 111 55c8 2 17 3 26 3h3zM161 447c-14 0 -48 -9 -69 -19c-29 -14 -46 -37 -46 -58c0 -54 58 -40 81 -28c29 15 34 19 38 34
c8 31 24 61 9 67l-8 3c-1 0 -3 1 -5 1zM379 191c-7 0 -13 -2 -19 -6c-16 -10 -31 -40 -31 -63c0 -15 1 -18 10 -26c6 -5 12 -8 15 -6s17 15 31 31c22 25 25 30 25 42c0 18 -6 26 -23 28h-8z" />
    <glyph glyph-name="brackettips.up" unicode="&#xe182;" horiz-adv-x="530" 
d="M524 152c1 1 2 1 3 1c4 0 8 -7 8 -16c0 -6 -2 -13 -7 -18c-67 -70 -127 -97 -221 -133c-33 -13 -119 -42 -161 -42c-67 0 -130.928 -0.839802 -133 0c-8 3.2412 -8 9 -8 39c0 34.0586 2 43 18 47c6 1 93 0 140 5c50 5 111 11 183 27c52 11 119 42 178 90z" />
    <glyph glyph-name="brackettips.down" unicode="&#xe183;" horiz-adv-x="530" 
d="M524 -152c1 -1 2 -1 3 -1c4 0 8 7 8 16c0 6 -2 13 -7 18c-67 70 -127 97 -221 133c-33 13 -119 42 -161 42c-67 0 -130.928 0.839844 -133 0c-8 -3.24121 -8 -9 -8 -39c0 -34.0586 2 -43 18 -47c6 -1 93 0 140 -5c50 -5 111 -11 183 -27c52 -11 119 -42 178 -90z" />
    <glyph glyph-name="accordion.discant" unicode="&#xe184;" horiz-adv-x="391" 
d="M391 375c0 -214 -176 -386 -391 -386s-391 172 -391 386s176 386 391 386s391 -172 391 -386zM341 261c12 36 18 74 18 114s-6 78 -18 114h-682c-12 -36 -18 -74 -18 -114s6 -78 18 -114h682zM333 239h-666c53 -133 182 -228 333 -228s280 95 333 228zM-333 511h666
c-53 133 -182 228 -333 228s-280 -95 -333 -228z" />
    <glyph glyph-name="accordion.dot" unicode="&#xe185;" horiz-adv-x="62" 
d="M-62 0c0 35 27 62 62 62s62 -27 62 -62s-27 -62 -62 -62s-62 27 -62 62z" />
    <glyph glyph-name="accordion.freebass" unicode="&#xe186;" horiz-adv-x="266" 
d="M266 250c0 -145 -120 -261 -266 -261s-266 116 -266 261s120 261 266 261s266 -116 266 -261zM233 239h-466c6 -126 107 -228 233 -228s227 102 233 228zM-233 261h466c-6 126 -107 228 -233 228s-227 -102 -233 -228z" />
    <glyph glyph-name="accordion.stdbass" unicode="&#xe187;" horiz-adv-x="516" 
d="M516 500c0 -283 -232 -511 -516 -511s-516 228 -516 511s232 511 516 511s516 -228 516 -511zM484 489h-968c2 -82 25 -160 62 -228h844c37 68 60 146 62 228zM409 239h-818c86 -136 237 -228 409 -228s323 92 409 228zM-484 511h968c-2 82 -25 160 -62 228h-844
c-37 -68 -60 -146 -62 -228zM-409 761h818c-86 136 -237 228 -409 228s-323 -92 -409 -228z" />
    <glyph glyph-name="accordion.bayanbass" unicode="&#xe188;" horiz-adv-x="266" 
d="M250 782c9 0 16 -7 16 -16v-750c0 -9 -7 -16 -16 -16h-500c-9 0 -16 7 -16 16v750c0 9 7 16 16 16h500zM234 32v218h-468v-218h468zM234 282v218h-468v-218h468zM234 532v218h-468v-218h468z" />
    <glyph glyph-name="accordion.oldEE" unicode="&#xe189;" horiz-adv-x="266" 
d="M234 261c0 131 -104 239 -234 239s-234 -108 -234 -239s104 -238 234 -238s234 107 234 238zM266 261c0 -145 -120 -261 -266 -261s-266 116 -266 261s120 262 266 262s266 -117 266 -262zM59 367c0 26 21 48 47 48s48 -22 48 -48s-22 -47 -48 -47c-6 0 -12 1 -17 3
l-55 -46c0 -1 1 -2 1 -3l71 6c7 17 24 29 44 29c26 0 48 -22 48 -48s-22 -47 -48 -47c-20 0 -37 12 -44 29l-71 5c0 -1 -1 -1 -1 -2l55 -47c5 2 11 4 17 4c26 0 48 -22 48 -48s-22 -47 -48 -47s-47 21 -47 47c0 6 1 13 3 18l-46 54c-1 0 -2 -1 -3 -1l6 -71
c17 -7 28 -24 28 -44c0 -26 -21 -47 -47 -47s-47 21 -47 47c0 20 11 37 28 44l6 71c-1 0 -2 1 -3 1l-46 -54c2 -5 3 -12 3 -18c0 -26 -21 -47 -47 -47s-48 21 -48 47s22 48 48 48c6 0 12 -2 17 -4l55 47c0 1 -1 1 -1 2l-71 -5c-7 -17 -24 -29 -44 -29c-26 0 -47 21 -47 47
s21 48 47 48c20 0 37 -12 44 -29l71 -6c0 1 1 2 1 3l-55 46c-5 -2 -11 -3 -17 -3c-26 0 -48 21 -48 47s22 48 48 48s47 -22 47 -48c0 -6 -1 -12 -3 -17l46 -55c1 0 2 2 3 2l-6 71c-17 7 -28 23 -28 43c0 26 21 48 47 48s47 -22 47 -48c0 -20 -11 -36 -28 -43l-6 -71
c1 0 2 -2 3 -2l46 55c-2 5 -3 11 -3 17z" />
    <glyph glyph-name="accordion.push" unicode="&#xe18a;" horiz-adv-x="0" 
d="M-230 556c0 10 8 19 19 19c6 0 11 -3 15 -8l192 -269c2 -3 4 -6 4 -10s-2 -8 -4 -11l-192 -269c-4 -5 -9 -8 -15 -8c-11 0 -19 9 -19 19c0 4 2 8 4 11l184 258l-184 257c-2 3 -4 7 -4 11z" />
    <glyph glyph-name="accordion.pull" unicode="&#xe18b;" horiz-adv-x="37" 
d="M38 19c0 -10 -9 -19 -19 -19s-19 9 -19 19v481h-174c-10 0 -18 9 -18 19v37c0 10 8 19 18 19h193c10 0 19 -9 19 -19v-537z" />
    <glyph glyph-name="ties.lyric.short" unicode="&#xe18c;" horiz-adv-x="0" 
d="M0 -183c-64 0 -128 24 -168 74c-3 3 -4 6 -4 9c0 8 8 15 16 15c4 0 8 -2 11 -6c33 -41 92 -42 145 -42s112 1 145 42c3 4 7 6 11 6c8 0 16 -7 16 -15c0 -3 -1 -6 -4 -9c-40 -50 -104 -74 -168 -74z" />
    <glyph glyph-name="ties.lyric.default" unicode="&#xe18d;" horiz-adv-x="0" 
d="M0 -189c-83 0 -166 24 -229 78c-4 3 -5 7 -5 11c0 8 7 15 15 15c3 0 7 -1 10 -4c56 -48 135 -50 209 -50s153 2 209 50c3 3 7 4 10 4c8 0 15 -7 15 -15c0 -4 -1 -8 -5 -11c-63 -54 -146 -78 -229 -78z" />
    <glyph glyph-name="noteheads.uM2" unicode="&#xe18e;" horiz-adv-x="732" 
d="M712 -243c-4 0 -7 4 -9 7c-5 7 -3 14 -3 22c0 27 4 63 -1 67c-4 3 -96 5 -354 5c-350 0 -355 2 -353 -19c1 -9 0 -40 2 -47c4 -11 4 -13 -4 -19c-10 -8 -21 -5 -24 9c-2 10 -3 64 -2 251c1 130 1 178 9 187c5 6 7 3 10 0s8 -14 9 -24c4 -30 5 -52 15 -55
c5 -1 79 -2 165 -2s233 0 328 -1c146 -1 176 -1 196 4c9 2 3 459 7 479c2 12 6 14 12 14c8 1 10 -11 12 -14c2 -4 2 -485 2 -494c0 -19 3 -54 3 -119c0 -68 -1 -149 -3 -180c-3 -49 -1 -56 -7 -64c-2 -3 -7 -7 -10 -7zM536 -54c135 0 158 2 160 10c5 16 4 70 -1 80
c-3 4 -46 10 -116 12c-61 2 -112 6 -112 6s-103 2 -226 2c-184 0 -225 -4 -233 -12c-12 -12 -15 -20 -15 -44c0 -22 9 -40 24 -46c6 -2 160 -8 343 -8h176z" />
    <glyph glyph-name="noteheads.dM2" unicode="&#xe18f;" horiz-adv-x="732" 
d="M-16 243c4 0 7 -4 9 -7c5 -7 3 -14 3 -22c0 -27 -4 -63 1 -67c4 -3 96 -5 354 -5c350 0 355 -2 353 19c-1 9 0 40 -2 47c-4 11 -4 13 4 19c10 8 21 5 24 -9c2 -10 3 -64 2 -251c-1 -130 -1 -178 -9 -187c-5 -6 -7 -3 -10 0s-8 14 -9 24c-4 30 -5 52 -15 55
c-5 1 -79 2 -165 2s-233 0 -328 1c-146 1 -176 1 -196 -4c-9 -2 -3 -459 -7 -479c-2 -12 -6 -14 -12 -14c-8 -1 -10 11 -12 14c-2 4 -2 485 -2 494c0 19 -3 54 -3 119c0 68 1 149 3 180c3 49 1 56 7 64c2 3 7 7 10 7zM160 54c-135 0 -158 -2 -160 -10c-5 -16 -4 -70 1 -80
c3 -4 46 -10 116 -12c61 -2 112 -6 112 -6s103 -2 226 -2c184 0 225 4 233 12c12 12 15 20 15 44c0 22 -9 40 -24 46c-6 2 -160 8 -343 8h-176z" />
    <glyph glyph-name="noteheads.sM1" unicode="&#xe190;" horiz-adv-x="732" 
d="M-16 243c4 0 7 -4 9 -7c5 -7 3 -14 3 -22c0 -27 -4 -63 1 -67c4 -3 96 -5 354 -5c350 0 355 -2 353 19c-1 9 0 40 -2 47c-4 11 -4 13 4 19c10 8 21 5 24 -9c2 -10 3 -64 2 -251c-1 -130 -1 -178 -9 -187c-5 -6 -7 -3 -10 0s-8 14 -9 24c-4 30 -5 52 -15 55
c-5 1 -79 2 -165 2s-233 0 -328 1c-146 1 -176 1 -196 -4c-9 -2 -3 -57 -7 -77c-2 -12 -6 -14 -12 -14c-8 -1 -10 11 -12 14c-2 4 -2 83 -2 92c0 19 -3 54 -3 119c0 68 1 149 3 180c3 49 1 56 7 64c2 3 7 7 10 7zM160 55c-135 0 -158 -2 -160 -10c-5 -16 -4 -70 1 -80
c3 -4 46 -10 116 -12c61 -2 112 -6 112 -6s103 -2 226 -2c184 0 225 4 233 12c12 12 15 20 15 44c0 22 -9 40 -24 46c-6 2 -160 8 -343 8h-176z" />
    <glyph glyph-name="noteheads.sM1double" unicode="&#xe191;" horiz-adv-x="732" 
d="M-16 243c4 0 7 -4 9 -7c5 -7 3 -14 3 -22c0 -27 -4 -63 1 -67c4 -3 96 -5 354 -5c350 0 355 -2 353 19c-1 9 0 40 -2 47c-4 11 -4 13 4 19c10 8 21 5 24 -9c2 -10 3 -64 2 -251c-1 -130 -1 -178 -9 -187c-5 -6 -7 -3 -10 0s-8 14 -9 24c-4 30 -5 52 -15 55
c-5 1 -79 2 -165 2s-233 0 -328 1c-146 1 -176 1 -196 -4c-9 -2 -3 -57 -7 -77c-2 -12 -6 -14 -12 -14c-8 -1 -10 11 -12 14c-2 4 -2 83 -2 92c0 19 -3 54 -3 119c0 68 1 149 3 180c3 49 1 56 7 64c2 3 7 7 10 7zM160 55c-135 0 -158 -2 -160 -10c-5 -16 -4 -70 1 -80
c3 -4 46 -10 116 -12c61 -2 112 -6 112 -6s103 -2 226 -2c184 0 225 4 233 12c12 12 15 20 15 44c0 22 -9 40 -24 46c-6 2 -160 8 -343 8h-176z" />
    <glyph glyph-name="noteheads.s0" unicode="&#xe192;" horiz-adv-x="494" 
d="M246 123c42 0 84 -4 127 -14c66 -15 121 -47 121 -111c0 -65 -82 -111 -138 -119c-36.03 -5.23 -73.75 -8.435 -111.195 -8.435c-26.989 0 -53.835 1.665 -79.805 5.435c-59 9 -134 37 -155 89c-6 15 -10 29 -10 43c0 8 1 16 4 24c19 54 106 78 177 87c21 3 43 4 65 4z
M279 48c-108 0 -228 -4 -238 -8c-17 -7 -20 -14 -24 -22c-5 -11 0 -32 6 -39c10 -12 28 -21 63 -23c111 -5 216 -9 330 1c46 4 53 15 60 28c4 7 6 20 -1 34c-5 9 -9 19 -30 23c-24 5 -92 6 -166 6z" />
    <glyph glyph-name="noteheads.s1" unicode="&#xe193;" horiz-adv-x="375" 
d="M266 129c56 0 109 -33 109 -83c0 -46 -33 -96 -97 -130c-63 -34 -143 -58 -215 -44c-39 7 -63 43 -63 82c0 70 66 114 113 137c56 27 90 34 142 38h11zM291 108c-25 0 -57 -13 -84 -34c-8 -6 -22 -16 -30 -21s-23 -17 -29 -23c-14 -13 -38 -29 -57 -45
c-17 -14 -44 -42 -48 -58c-3 -11 1 -17 17 -28c19 -13 38 -11 70 6c41 22 95 65 107 75c11 9 31 26 46 42c27 29 51 47 46 66c-1 4 -7 10 -13 14s-15 6 -25 6z" />
    <glyph glyph-name="noteheads.s2" unicode="&#xe194;" horiz-adv-x="255" 
d="M154 125c37 1 71 -14 89 -45c8 -14 12 -31 12 -51c0 -7 0 -15 -1 -22c-4 -36 -18 -66 -48 -91s-64 -41 -100 -41c-15 0 -31 3 -46 9c-38 16 -60 44 -60 87c0 21 5 43 16 64c27 51 57 74 107 86c10 2 21 4 31 4z" />
    <glyph glyph-name="noteheads.s0diamond" unicode="&#xe195;" horiz-adv-x="495" 
d="M210 75c-29 0 -26 -45 -26 -74c0 -47 25 -56 61 -67c13 -4 28 -9 40 -9c29 0 26 45 26 74c0 47 -25 56 -61 67c-13 4 -28 9 -40 9zM495 0c0 -58 -80 -43 -125 -68c-42 -23 -73 -70 -122 -70s-81 47 -123 70c-45 25 -125 10 -125 68s80 43 125 68c42 23 74 70 123 70
s80 -47 122 -70c45 -25 125 -10 125 -68z" />
    <glyph glyph-name="noteheads.s1diamond" unicode="&#xe196;" horiz-adv-x="364" 
d="M292 55c0 17 -14 26 -29 26c-4 0 -8 -1 -12 -2c-25 -8 -60 -30 -89 -49s-64 -41 -81 -61c-6 -7 -9 -16 -9 -24c0 -17 14 -26 29 -26c4 0 8 1 12 2c25 8 60 30 89 49s64 41 81 61c6 7 9 16 9 24zM323 138c18 0 41 -17 41 -41c0 -28 -32 -55 -42 -86
c-12 -37 3 -85 -31 -108c-16 -11 -34 -14 -52 -14c-25 0 -52 6 -78 6c-44 0 -84 -32 -120 -32c-18 0 -41 16 -41 40c0 28 32 55 42 86c12 37 -3 85 31 108c16 11 34 14 52 14c25 0 52 -6 78 -6c44 0 84 33 120 33z" />
    <glyph glyph-name="noteheads.s2diamond" unicode="&#xe197;" horiz-adv-x="368" 
d="M331 138c19 0 38 -19 38 -39c0 -37 -63 -63 -86 -102c-25 -42 -33 -96 -74 -125c-9 -6 -19 -9 -29 -9c-23 0 -48 12 -73 12c-23 0 -49 -13 -70 -13c-19 0 -37 19 -37 39c0 37 63 63 86 102c25 42 33 96 74 125c9 6 18 9 28 9c23 0 48 -12 73 -12c23 0 49 13 70 13z" />
    <glyph glyph-name="noteheads.s0triangle" unicode="&#xe198;" horiz-adv-x="578" 
d="M131 83c27 -49 46 -106 46 -176c0 -6 -1 -11 -1 -17c63 53 137 98 220 129c-95 12 -184 34 -265 64zM0 160c0 16 23 23 43 23c3 0 5 0 7 -1c134 -71 296 -121 487 -121h6c18 0 36 -9 36 -24c0 -17 -19 -22 -36 -26c-158 -39 -291 -121 -390 -225c-4 -4 -10 -5 -15 -5
c-21 0 -45 6 -45 23c0 4 2 8 3 12c5 26 7 51 7 77c0 104 -35 181 -87 244c-6 7 -16 12 -16 23z" />
    <glyph glyph-name="noteheads.d1triangle" unicode="&#xe199;" horiz-adv-x="418" 
d="M102 69c19 -45 31 -96 31 -156c41 41 91 76 145 103c-64 11 -123 29 -176 53zM0 142c0 15 15 23 32 23c5 0 9 0 13 -3c86 -58 206 -110 343 -105h1c15 0 29 -10 29 -24s-12 -22 -25 -26c-114 -35 -210 -106 -274 -195c-5 -7 -13 -9 -21 -9c-17 0 -32 9 -32 24
c0 3 1 5 1 8c4 24 7 47 7 71c0 91 -27 158 -67 218c-4 5 -7 11 -7 18z" />
    <glyph glyph-name="noteheads.u1triangle" unicode="&#xe19a;" horiz-adv-x="418" 
d="M102 69c19 -45 31 -96 31 -156c41 41 91 76 145 103c-64 11 -123 29 -176 53zM0 142c0 15 15 23 32 23c5 0 9 0 13 -3c86 -58 206 -110 343 -105h1c15 0 29 -10 29 -24s-12 -22 -25 -26c-114 -35 -210 -106 -274 -195c-5 -7 -13 -9 -21 -9c-17 0 -32 9 -32 24
c0 3 1 5 1 8c4 24 7 47 7 71c0 91 -27 158 -67 218c-4 5 -7 11 -7 18z" />
    <glyph glyph-name="noteheads.u2triangle" unicode="&#xe19b;" horiz-adv-x="348" 
d="M55 -173c0 26 7 53 7 80c0 90 -22 157 -58 221c-10 17 2 37 21 37c6 0 11 -2 16 -6c69 -57 166 -102 283 -102c13 0 24 -12 24 -25c0 -11 -8 -20 -18 -24c-98 -37 -178 -106 -228 -192c-5 -8 -13 -13 -22 -13c-14 0 -25 10 -25 24z" />
    <glyph glyph-name="noteheads.d2triangle" unicode="&#xe19c;" horiz-adv-x="348" 
d="M55 -173c0 26 7 53 7 80c0 90 -22 157 -58 221c-10 17 2 37 21 37c6 0 11 -2 16 -6c69 -57 166 -102 283 -102c13 0 24 -12 24 -25c0 -11 -8 -20 -18 -24c-98 -37 -178 -106 -228 -192c-5 -8 -13 -13 -22 -13c-14 0 -25 10 -25 24z" />
    <glyph glyph-name="noteheads.s0slash" unicode="&#xe19d;" horiz-adv-x="753" 
d="M117 -193h284l236 386h-285zM10 -263c-6 0 -10 6 -10 11c0 2 0 3 1 5l309 505c2 3 6 5 9 5h425c6 0 10 -6 10 -11c0 -2 -1 -3 -2 -5l-308 -505c-2 -3 -6 -5 -9 -5h-425z" />
    <glyph glyph-name="noteheads.s1slash" unicode="&#xe19e;" horiz-adv-x="586" 
d="M117 -193h117l235 386h-117zM10 -263c-6 0 -10 6 -10 11c0 2 0 3 1 5l309 505c2 3 6 5 9 5h257c6 0 10 -6 10 -11c0 -2 0 -3 -1 -5l-309 -505c-2 -3 -6 -5 -9 -5h-257z" />
    <glyph glyph-name="noteheads.s2slash" unicode="&#xe19f;" horiz-adv-x="428" 
d="M10 -263c-6 0 -10 6 -10 11c0 2 0 3 1 5l309 505c2 3 6 5 9 5h100c6 0 10 -6 10 -11c0 -2 -1 -3 -2 -5l-308 -505c-2 -3 -6 -5 -9 -5h-100z" />
    <glyph glyph-name="noteheads.s0cross" unicode="&#xe1a0;" horiz-adv-x="429" 
d="M223 44c-2 -2 -5 -2 -8 -2s-7 0 -9 2l-107 73l-57 -39l97 -66c4 -3 7 -7 7 -12s-3 -9 -7 -12l-97 -66l57 -39l107 73c2 2 6 2 9 2s6 0 8 -2l107 -73l57 39l-97 66c-4 3 -7 7 -7 12s3 9 7 12l97 66l-57 39zM215 75l107 72c2 2 5 3 8 3s7 -1 9 -3l83 -56c4 -3 7 -8 7 -13
s-3 -9 -7 -12l-97 -66l97 -66c4 -3 7 -7 7 -12s-3 -10 -7 -13l-83 -56c-2 -2 -6 -3 -9 -3s-6 1 -8 3l-107 72l-108 -72c-2 -2 -5 -3 -8 -3s-7 1 -9 3l-83 56c-4 3 -7 8 -7 13s3 9 7 12l97 66l-97 66c-4 3 -7 7 -7 12s3 10 7 13l83 56c2 2 6 3 9 3s6 -1 8 -3z" />
    <glyph glyph-name="noteheads.s1cross" unicode="&#xe1a1;" horiz-adv-x="379" 
d="M198 35c-3 -2 -5 -3 -8 -3s-6 1 -9 3l-103 75l-38 -28l95 -70c4 -3 6 -7 6 -12s-2 -9 -6 -12l-95 -70l38 -28l103 75c3 2 6 3 9 3s5 -1 8 -3l103 -75l38 28l-95 70c-4 3 -6 7 -6 12s2 9 6 12l95 70l-38 28zM190 65l102 76c3 2 6 3 9 3s6 -1 9 -3l63 -47c4 -3 6 -7 6 -12
s-2 -9 -6 -12l-95 -70l95 -70c4 -3 6 -7 6 -12s-2 -9 -6 -12l-63 -47c-3 -2 -6 -3 -9 -3s-6 1 -9 3l-102 76l-103 -76c-3 -2 -6 -3 -9 -3s-6 1 -9 3l-63 47c-4 3 -6 7 -6 12s2 9 6 12l95 70l-95 70c-4 3 -6 7 -6 12s2 9 6 12l63 47c3 2 6 3 9 3s6 -1 9 -3z" />
    <glyph glyph-name="noteheads.s2cross" unicode="&#xe1a2;" horiz-adv-x="329" 
d="M165 36l120 98c3 2 6 4 9 4s7 -2 10 -4l20 -16c3 -3 5 -8 5 -12s-2 -8 -5 -11l-116 -95l116 -95c3 -3 5 -7 5 -11s-2 -9 -5 -12l-20 -16c-3 -2 -7 -4 -10 -4s-6 2 -9 4l-120 98l-121 -98c-3 -2 -6 -4 -9 -4s-7 2 -10 4l-20 16c-3 3 -5 8 -5 12s2 8 5 11l116 95l-116 95
c-3 3 -5 7 -5 11s2 9 5 12l20 16c3 2 7 4 10 4s6 -2 9 -4z" />
    <glyph glyph-name="noteheads.s2xcircle" unicode="&#xe1a3;" horiz-adv-x="391" 
d="M196 173c101 0 195 -74 195 -173s-94 -173 -195 -173s-196 74 -196 173s95 173 196 173zM168 0l-97 85c-22 -24 -35 -54 -35 -85s13 -61 35 -85zM196 24l96 84c-28 18 -61 28 -96 28s-69 -10 -97 -28zM196 -24l-97 -84c28 -18 62 -28 97 -28s68 10 96 28zM223 0l98 -85
c22 24 34 54 34 85s-12 61 -34 85z" />
    <glyph glyph-name="noteheads.s0do" unicode="&#xe1a4;" horiz-adv-x="329" 
d="M97 -47h158l-79 102zM16 -112c-9 0 -16 7 -16 16c0 4 1 7 3 10l149 192c3 4 8 6 13 6s9 -2 12 -6l149 -192c2 -3 3 -6 3 -10c0 -9 -7 -16 -16 -16h-297z" />
    <glyph glyph-name="noteheads.d1do" unicode="&#xe1a5;" horiz-adv-x="329" 
d="M97 -47h158l-79 102zM16 -112c-9 0 -16 7 -16 16c0 4 1 7 3 10l149 192c3 4 8 6 13 6s9 -2 12 -6l149 -192c2 -3 3 -6 3 -10c0 -9 -7 -16 -16 -16h-297z" />
    <glyph glyph-name="noteheads.u1do" unicode="&#xe1a6;" horiz-adv-x="329" 
d="M97 -47h158l-79 102zM16 -112c-9 0 -16 7 -16 16c0 4 1 7 3 10l149 192c3 4 8 6 13 6s9 -2 12 -6l149 -192c2 -3 3 -6 3 -10c0 -9 -7 -16 -16 -16h-297z" />
    <glyph glyph-name="noteheads.d2do" unicode="&#xe1a7;" horiz-adv-x="329" 
d="M16 -112c-9 0 -16 7 -16 16c0 4 1 7 3 10l149 192c3 4 8 6 13 6s9 -2 12 -6l149 -192c2 -3 3 -6 3 -10c0 -9 -7 -16 -16 -16h-297z" />
    <glyph glyph-name="noteheads.u2do" unicode="&#xe1a8;" horiz-adv-x="329" 
d="M16 -112c-9 0 -16 7 -16 16c0 4 1 7 3 10l149 192c3 4 8 6 13 6s9 -2 12 -6l149 -192c2 -3 3 -6 3 -10c0 -9 -7 -16 -16 -16h-297z" />
    <glyph glyph-name="noteheads.s0doThin" unicode="&#xe1a9;" horiz-adv-x="329" 
d="M49 -80h231l-115 150zM16 -112c-9 0 -16 7 -16 16c0 4 1 7 3 10l149 192c3 4 8 6 13 6s9 -2 12 -6l149 -192c2 -3 3 -6 3 -10c0 -9 -7 -16 -16 -16h-297z" />
    <glyph glyph-name="noteheads.d1doThin" unicode="&#xe1aa;" horiz-adv-x="329" 
d="M49 -80h231l-115 150zM16 -112c-9 0 -16 7 -16 16c0 4 1 7 3 10l149 192c3 4 8 6 13 6s9 -2 12 -6l149 -192c2 -3 3 -6 3 -10c0 -9 -7 -16 -16 -16h-297z" />
    <glyph glyph-name="noteheads.u1doThin" unicode="&#xe1ab;" horiz-adv-x="329" 
d="M49 -80h231l-115 150zM16 -112c-9 0 -16 7 -16 16c0 4 1 7 3 10l149 192c3 4 8 6 13 6s9 -2 12 -6l149 -192c2 -3 3 -6 3 -10c0 -9 -7 -16 -16 -16h-297z" />
    <glyph glyph-name="noteheads.d2doThin" unicode="&#xe1ac;" horiz-adv-x="329" 
d="M16 -112c-9 0 -16 7 -16 16c0 4 1 7 3 10l149 192c3 4 8 6 13 6s9 -2 12 -6l149 -192c2 -3 3 -6 3 -10c0 -9 -7 -16 -16 -16h-297z" />
    <glyph glyph-name="noteheads.u2doThin" unicode="&#xe1ad;" horiz-adv-x="329" 
d="M16 -112c-9 0 -16 7 -16 16c0 4 1 7 3 10l149 192c3 4 8 6 13 6s9 -2 12 -6l149 -192c2 -3 3 -6 3 -10c0 -9 -7 -16 -16 -16h-297z" />
    <glyph glyph-name="noteheads.s0re" unicode="&#xe1ae;" horiz-adv-x="329" 
d="M33 47v-9c0 -55 68 -69 132 -69s132 14 132 69v9h-264zM0 96c0 9 7 16 16 16h297c9 0 16 -7 16 -16v-58c0 -86 -75 -150 -164 -150s-165 64 -165 150v58z" />
    <glyph glyph-name="noteheads.u1re" unicode="&#xe1af;" horiz-adv-x="329" 
d="M33 47v-9c0 -55 68 -69 132 -69s132 14 132 69v9h-264zM0 96c0 9 7 16 16 16h297c9 0 16 -7 16 -16v-58c0 -86 -75 -150 -164 -150s-165 64 -165 150v58z" />
    <glyph glyph-name="noteheads.d1re" unicode="&#xe1b0;" horiz-adv-x="329" 
d="M33 47v-9c0 -55 68 -69 132 -69s132 14 132 69v9h-264zM0 96c0 9 7 16 16 16h297c9 0 16 -7 16 -16v-58c0 -86 -75 -150 -164 -150s-165 64 -165 150v58z" />
    <glyph glyph-name="noteheads.u2re" unicode="&#xe1b1;" horiz-adv-x="329" 
d="M0 96c0 9 7 16 16 16h297c9 0 16 -7 16 -16v-58c0 -86 -75 -150 -164 -150s-165 64 -165 150v58z" />
    <glyph glyph-name="noteheads.d2re" unicode="&#xe1b2;" horiz-adv-x="329" 
d="M0 96c0 9 7 16 16 16h297c9 0 16 -7 16 -16v-58c0 -86 -75 -150 -164 -150s-165 64 -165 150v58z" />
    <glyph glyph-name="noteheads.s0reThin" unicode="&#xe1b3;" horiz-adv-x="329" 
d="M33 80v-42c0 -63 64 -102 132 -102s132 39 132 102v42h-264zM0 96c0 9 7 16 16 16h297c9 0 16 -7 16 -16v-58c0 -86 -75 -150 -164 -150s-165 64 -165 150v58z" />
    <glyph glyph-name="noteheads.u1reThin" unicode="&#xe1b4;" horiz-adv-x="329" 
d="M33 80v-42c0 -63 64 -102 132 -102s132 39 132 102v42h-264zM0 96c0 9 7 16 16 16h297c9 0 16 -7 16 -16v-58c0 -86 -75 -150 -164 -150s-165 64 -165 150v58z" />
    <glyph glyph-name="noteheads.d1reThin" unicode="&#xe1b5;" horiz-adv-x="329" 
d="M33 80v-42c0 -63 64 -102 132 -102s132 39 132 102v42h-264zM0 96c0 9 7 16 16 16h297c9 0 16 -7 16 -16v-58c0 -86 -75 -150 -164 -150s-165 64 -165 150v58z" />
    <glyph glyph-name="noteheads.u2reThin" unicode="&#xe1b6;" horiz-adv-x="329" 
d="M0 96c0 9 7 16 16 16h297c9 0 16 -7 16 -16v-58c0 -86 -75 -150 -164 -150s-165 64 -165 150v58z" />
    <glyph glyph-name="noteheads.d2reThin" unicode="&#xe1b7;" horiz-adv-x="329" 
d="M0 96c0 9 7 16 16 16h297c9 0 16 -7 16 -16v-58c0 -86 -75 -150 -164 -150s-165 64 -165 150v58z" />
    <glyph glyph-name="noteheads.s0mi" unicode="&#xe1b8;" horiz-adv-x="394" 
d="M309 -18l-146 77l-77 -41l146 -77zM9 -14c-5 3 -9 8 -9 14s4 11 9 14l181 97c2 1 4 1 7 1s6 0 8 -1l181 -97c5 -3 9 -8 9 -14s-4 -11 -9 -14l-181 -97c-2 -1 -5 -1 -8 -1s-5 0 -7 1z" />
    <glyph glyph-name="noteheads.s1mi" unicode="&#xe1b9;" horiz-adv-x="394" 
d="M309 -18l-146 77l-77 -41l146 -77zM9 -14c-5 3 -9 8 -9 14s4 11 9 14l181 97c2 1 4 1 7 1s6 0 8 -1l181 -97c5 -3 9 -8 9 -14s-4 -11 -9 -14l-181 -97c-2 -1 -5 -1 -8 -1s-5 0 -7 1z" />
    <glyph glyph-name="noteheads.s2mi" unicode="&#xe1ba;" horiz-adv-x="394" 
d="M9 -14c-5 3 -9 8 -9 14s4 11 9 14l181 97c2 1 4 1 7 1s6 0 8 -1l181 -97c5 -3 9 -8 9 -14s-4 -11 -9 -14l-181 -97c-2 -1 -5 -1 -8 -1s-5 0 -7 1z" />
    <glyph glyph-name="noteheads.s0miMirror" unicode="&#xe1bb;" horiz-adv-x="394" 
d="M86 -18l77 -41l146 77l-77 41zM9 -14c-5 3 -9 8 -9 14s4 11 9 14l181 97c2 1 4 1 7 1s6 0 8 -1l181 -97c5 -3 9 -8 9 -14s-4 -11 -9 -14l-181 -97c-2 -1 -5 -1 -8 -1s-5 0 -7 1z" />
    <glyph glyph-name="noteheads.s1miMirror" unicode="&#xe1bc;" horiz-adv-x="394" 
d="M86 -18l77 -41l146 77l-77 41zM9 -14c-5 3 -9 8 -9 14s4 11 9 14l181 97c2 1 4 1 7 1s6 0 8 -1l181 -97c5 -3 9 -8 9 -14s-4 -11 -9 -14l-181 -97c-2 -1 -5 -1 -8 -1s-5 0 -7 1z" />
    <glyph glyph-name="noteheads.s2miMirror" unicode="&#xe1bd;" horiz-adv-x="394" 
d="M9 -14c-5 3 -9 8 -9 14s4 11 9 14l181 97c2 1 4 1 7 1s6 0 8 -1l181 -97c5 -3 9 -8 9 -14s-4 -11 -9 -14l-181 -97c-2 -1 -5 -1 -8 -1s-5 0 -7 1z" />
    <glyph glyph-name="noteheads.s0miThin" unicode="&#xe1be;" horiz-adv-x="394" 
d="M344 0l-147 78l-146 -78l146 -78zM9 -14c-5 3 -9 8 -9 14s4 11 9 14l181 97c2 1 4 1 7 1s6 0 8 -1l181 -97c5 -3 9 -8 9 -14s-4 -11 -9 -14l-181 -97c-2 -1 -5 -1 -8 -1s-5 0 -7 1z" />
    <glyph glyph-name="noteheads.s1miThin" unicode="&#xe1bf;" horiz-adv-x="394" 
d="M344 0l-147 78l-146 -78l146 -78zM9 -14c-5 3 -9 8 -9 14s4 11 9 14l181 97c2 1 4 1 7 1s6 0 8 -1l181 -97c5 -3 9 -8 9 -14s-4 -11 -9 -14l-181 -97c-2 -1 -5 -1 -8 -1s-5 0 -7 1z" />
    <glyph glyph-name="noteheads.s2miThin" unicode="&#xe1c0;" horiz-adv-x="394" 
d="M9 -14c-5 3 -9 8 -9 14s4 11 9 14l181 97c2 1 4 1 7 1s6 0 8 -1l181 -97c5 -3 9 -8 9 -14s-4 -11 -9 -14l-181 -97c-2 -1 -5 -1 -8 -1s-5 0 -7 1z" />
    <glyph glyph-name="noteheads.u0fa" unicode="&#xe1c1;" horiz-adv-x="329" 
d="M297 56h-188l188 -122v122zM0 96c0 9 7 17 16 17h297c9 0 16 -8 16 -17v-192c0 -9 -7 -16 -16 -16c-3 0 -6 0 -9 2l-297 193c-5 3 -7 7 -7 13z" />
    <glyph glyph-name="noteheads.d0fa" unicode="&#xe1c2;" horiz-adv-x="329" 
d="M33 -56h187l-187 122v-122zM329 -96c0 -9 -7 -17 -16 -17h-297c-9 0 -16 8 -16 17v192c0 9 7 16 16 16c3 0 6 0 9 -2l297 -193c5 -3 7 -7 7 -13z" />
    <glyph glyph-name="noteheads.u1fa" unicode="&#xe1c3;" horiz-adv-x="329" 
d="M297 56h-188l188 -122v122zM0 96c0 9 7 17 16 17h297c9 0 16 -8 16 -17v-192c0 -9 -7 -16 -16 -16c-3 0 -6 0 -9 2l-297 193c-5 3 -7 7 -7 13z" />
    <glyph glyph-name="noteheads.d1fa" unicode="&#xe1c4;" horiz-adv-x="329" 
d="M33 -56h187l-187 122v-122zM329 -96c0 -9 -7 -17 -16 -17h-297c-9 0 -16 8 -16 17v192c0 9 7 16 16 16c3 0 6 0 9 -2l297 -193c5 -3 7 -7 7 -13z" />
    <glyph glyph-name="noteheads.u2fa" unicode="&#xe1c5;" horiz-adv-x="329" 
d="M0 96c0 9 7 17 16 17h297c9 0 16 -8 16 -17v-192c0 -9 -7 -16 -16 -16c-3 0 -6 0 -9 2l-297 193c-5 3 -7 7 -7 13z" />
    <glyph glyph-name="noteheads.d2fa" unicode="&#xe1c6;" horiz-adv-x="329" 
d="M329 -96c0 -9 -7 -17 -16 -17h-297c-9 0 -16 8 -16 17v192c0 9 7 16 16 16c3 0 6 0 9 -2l297 -193c5 -3 7 -7 7 -13z" />
    <glyph glyph-name="noteheads.u0faThin" unicode="&#xe1c7;" horiz-adv-x="329" 
d="M297 80h-226l226 -146v146zM0 96c0 9 7 17 16 17h297c9 0 16 -8 16 -17v-192c0 -9 -7 -16 -16 -16c-3 0 -6 0 -9 2l-297 193c-5 3 -7 7 -7 13z" />
    <glyph glyph-name="noteheads.d0faThin" unicode="&#xe1c8;" horiz-adv-x="329" 
d="M33 -80h225l-225 146v-146zM329 -96c0 -9 -7 -17 -16 -17h-297c-9 0 -16 8 -16 17v192c0 9 7 16 16 16c3 0 6 0 9 -2l297 -193c5 -3 7 -7 7 -13z" />
    <glyph glyph-name="noteheads.u1faThin" unicode="&#xe1c9;" horiz-adv-x="329" 
d="M297 80h-226l226 -146v146zM0 96c0 9 7 17 16 17h297c9 0 16 -8 16 -17v-192c0 -9 -7 -16 -16 -16c-3 0 -6 0 -9 2l-297 193c-5 3 -7 7 -7 13z" />
    <glyph glyph-name="noteheads.d1faThin" unicode="&#xe1ca;" horiz-adv-x="329" 
d="M33 -80h225l-225 146v-146zM329 -96c0 -9 -7 -17 -16 -17h-297c-9 0 -16 8 -16 17v192c0 9 7 16 16 16c3 0 6 0 9 -2l297 -193c5 -3 7 -7 7 -13z" />
    <glyph glyph-name="noteheads.u2faThin" unicode="&#xe1cb;" horiz-adv-x="329" 
d="M0 96c0 9 7 17 16 17h297c9 0 16 -8 16 -17v-192c0 -9 -7 -16 -16 -16c-3 0 -6 0 -9 2l-297 193c-5 3 -7 7 -7 13z" />
    <glyph glyph-name="noteheads.d2faThin" unicode="&#xe1cc;" horiz-adv-x="329" 
d="M329 -96c0 -9 -7 -17 -16 -17h-297c-9 0 -16 8 -16 17v192c0 9 7 16 16 16c3 0 6 0 9 -2l297 -193c5 -3 7 -7 7 -13z" />
    </font>
</defs>
</svg>
