<?xml version="1.0" standalone="no"?>
<!DOCTYPE svg PUBLIC "-//W3C//DTD SVG 1.1//EN" "http://www.w3.org/Graphics/SVG/1.1/DTD/svg11.dtd" >
<!--
This size was designed for 20pt staff size.
-->
<svg>
<metadata>
Created by FontForge 20120731 at Tue Jul  8 15:18:06 2014
 By root
Made LilyPond compatible by Abraham Lee (tisimst@gmail.com)

Copyright (c) 2013 by Torsten Hammerle, released under the GPL.
</metadata>
<defs>
<font id="lilyjazz-13" horiz-adv-x="329" >
  <font-face 
    font-family="lilyjazz-13"
    font-weight="500"
    font-stretch="normal"
    units-per-em="1000"
    panose-1="2 0 6 3 0 0 0 0 0 0"
    ascent="800"
    descent="-200"
    x-height="286"
    bbox="-653.231 -1610 1300 1562"
    underline-thickness="50"
    underline-position="-100"
    stemh="88"
    stemv="33"
    unicode-range="U+0020-E31F"
  />
<missing-glyph horiz-adv-x="500" 
d="M50 0v533h400v-533h-400zM100 50h300v433h-300v-433z" />
    <glyph glyph-name=".notdef" horiz-adv-x="500" 
d="M50 0v533h400v-533h-400zM100 50h300v433h-300v-433z" />
    <glyph glyph-name="rests.0" unicode="&#xe100;" horiz-adv-x="375" 
d="M-39 -18l6 18h225h224l-1 -6c-1 -4 -1 -10 -2 -18c-2 -25 -10 -62 -22 -110l-11 -43l-11 1c-36 4 -105 6 -209 6s-175 -1 -212 -5c-12 -1 -19 -1 -19 -1s2 15 7 46c8 49 16 86 25 112z" />
    <glyph glyph-name="rests.1" unicode="&#xe101;" horiz-adv-x="375" 
d="M99 139c49 0 110 1 185 1l112 1l-1 -31c-1 -32 -7 -66 -17 -103l-2 -7h-188h-187v5c0 38 7 82 22 130c1 2 26 4 76 4z" />
    <glyph glyph-name="rests.0o" unicode="&#xe102;" horiz-adv-x="375" 
d="M-41 -25h-118c-7 0 -13 2 -18 7s-7 11 -7 18s2 13 7 18s11 7 18 7h695c7 0 13 -2 18 -7s7 -11 7 -18s-2 -13 -7 -18s-11 -7 -18 -7l-123 1c-7 -37 -15 -73 -22 -110l-11 -43l-11 1c-36 4 -105 6 -209 6s-175 -1 -212 -5c-13 -1 -19 -1 -19 -1c1 0 3 15 7 46
c7 49 14 84 23 105z" />
    <glyph glyph-name="rests.1o" unicode="&#xe103;" horiz-adv-x="375" 
d="M0 25v19c0 19 8 49 23 92c1 2 26 3 76 3c49 0 110 1 185 1l112 1l2 -26c0 -6 -6 -30 -19 -73l-4 -17h131c7 0 13 -2 18 -7s7 -11 7 -18s-2 -13 -7 -18s-11 -7 -18 -7h-637c-7 0 -13 2 -18 7s-7 11 -7 18s2 13 7 18s11 7 18 7h131z" />
    <glyph glyph-name="rests.M3" unicode="&#xe104;" horiz-adv-x="450" 
d="M281 246c-1.54901 9.879 5 21 15 22c53 7 83 4 136 -2c9 -1 18 -7 18 -16c5 -191 1 -300 -6 -491c0 -7 -5 -11 -12 -13c-45 -13 -71 -20 -118 -25c-9 -1 -20.655 1.96799 -20 11c14 193 16 329 -13 514zM0 262c57 9 91 9 148 2c11 -1 16 -11 16 -22
c3 -188 0 -294 -8 -481c0 -8 -7 -12 -14 -14c-49 -14 -77 -21 -128 -27c-5 -1 -6.15377 7.00201 -6 12c6 195 4 309 -18 506c-1.1099 9.938 0 22 10 24z" />
    <glyph glyph-name="rests.M2" unicode="&#xe105;" horiz-adv-x="164" 
d="M0 262c57 9 91 9 148 2c11 -1 16 -11 16 -22c3 -188 0 -294 -8 -481c0 -8 -7 -12 -14 -14c-49 -14 -77 -21 -128 -27c-5 -1 -6 7 -6 12c-9 197 0 285 -18 506c-0.8118 9.967 0 22 10 24z" />
    <glyph glyph-name="rests.M1" unicode="&#xe106;" horiz-adv-x="164" 
d="M0 262c57 9 91 9 148 2c11 -1 16 -11 16 -22c3 -94 0 -148 -8 -242c-1 -8 -7 -12 -14 -14c-49 -14 -77 -21 -128 -27c-5 -1 -6 7 -6 12c-9 104 4 162 -18 267c-2.0507 9.787 0 22 10 24z" />
    <glyph glyph-name="rests.M1o" unicode="&#xe107;" horiz-adv-x="160" 
d="M-120 275c157 8 245 14 402 16c8 0 18 -2 18 -10c1 -22 -3 -36 -14 -56c-5 -9 -14 -10 -24 -10c-41.95 -2.039 -78.639 -3.48399 -113.131 -4.533c1.213 -64.098 -1.658 -109.672 -8.032 -178.506c42.793 1.3712 88.142 2.3718 141.163 3.0387c6 0 8 -6 8 -12
c2 -26 3 -42 -2 -68c-1 -5 -7 -2 -12 -2c-150 -1 -234 -3 -384 0c-7 0 -13 2 -16 8c-8 18 -7 31 -8 50c0 4 2 8 6 8c53.2163 3.0122 98.7033 5.5764 141.635 7.73c-3.4566 67.4206 1.7321 122.953 -8.75118 181.103
c-35.0023 -0.327988 -72.2221 -0.536987 -114.884 -0.832993c-8 0 -17 -2 -20 6c-7 21 -5 35 -2 58c1 4 6 4 10 4z" />
    <glyph glyph-name="rests.2" unicode="&#xe108;" horiz-adv-x="237" 
d="M69 -402c-30 0 -39 25 -39 59c0 12 1 23 4 32c11 34 57 116 102 187c0 2 -11 5 -32 10c-9 2 -28 4 -55 6l-41 4v7c0 11 7 27 21 48c15 23 38 48 65 78l18 21l-22 12c-15 8 -27 13 -34 18c-60 38 -90 92 -90 158c0 53 23 99 70 140c11 8 17 13 19 13l1 -1
c-6 -21 -10 -41 -10 -61c0 -59 24 -92 73 -117c30 -15 66 -24 108 -27c29 -2 48 -7 48 -13c0 -8 -27 -44 -80 -106c-34 -39 -50 -60 -50 -60c0 -4 79 -7 118 -27l-22 -27c-14 -18 -36 -44 -63 -77c-45 -55 -70 -88 -75 -97v-2c0 -8 9 -27 28 -56c12 -19 18 -34 18 -47
c0 -32 -51 -75 -80 -75z" />
    <glyph glyph-name="rests.2classical" unicode="&#xe109;" horiz-adv-x="250" 
d="M178 -250c-8 -7 -18 -10 -28 -10s-19 3 -27 10l-123 420c5 12 22 12 28 0c7 -15 45 -63 61 -63c29 0 25 31 35 59c8 24 31 39 56 39c40 0 73 -32 73 -72c0 -46 -41 -79 -87 -79c-36 0 -71 10 -105 22z" />
    <glyph glyph-name="rests.3" unicode="&#xe10a;" horiz-adv-x="250" 
d="M-25 66c0 58 50 175 94 175c8 0 11 -3 11 -12c0 -14 -17 -64 -17 -82c0 -21 12 -28 32 -28c8 0 17 1 27 4c42 11 101 49 130 76c9 8 16 11 26 11c14 0 22 -7 22 -21c0 -9 -4 -21 -11 -35c-9 -19 -29 -53 -61 -104c-42 -66 -69 -116 -83 -150c-4 -11 -7 -19 -7 -25
c0 -8 4 -15 12 -27c4 -5 6 -10 6 -16c0 -5 -2 -10 -4 -15c-8 -18 -48 -72 -72 -72c-16 0 -20 10 -20 29c0 11 1 20 4 28c8 24 29 72 62 143c16 35 24 53 24 55c-3 0 -16 -2 -39 -6c-30 -6 -52 -9 -67 -9c-46 0 -69 35 -69 81z" />
    <glyph glyph-name="rests.4" unicode="&#xe10b;" horiz-adv-x="299" 
d="M28 4c-9 16 -16 33 -16 55c0 12 2 26 6 40c10 41 37 103 62 125c8 7 15 12 27 12c7 0 12 -2 12 -11c0 -14 -19 -69 -19 -85c0 -19 12 -26 34 -26c18 0 37 6 58 16c18 9 43 26 75 51l32 25h11c15 0 22 -8 22 -23c0 -6 -1 -12 -3 -18c-3 -9 -13 -28 -28 -57
c-44 -84 -76 -151 -98 -201c-13 -31 -25 -64 -38 -101s-19 -59 -19 -67c0 -4 2 -9 7 -17c8 -14 13 -20 13 -26c0 -4 -2 -10 -6 -17c-8 -15 -45 -62 -60 -69c-4 -2 -8 -2 -11 -2c-12 0 -16 12 -16 26c0 24 11 67 32 129c7 20 10 30 10 32c0 0 0 1 -1 1c-11 0 -45 -7 -58 -7
c-50 0 -73 31 -73 82c0 54 19 94 45 133zM70 -49c0 -18 14 -28 34 -28c15 0 32 6 54 16c6 3 13 11 18 24s9 21 11 26c1 3 2 5 2 6s-1 1 -1 1c-1 -1 -5 -2 -12 -2c-29 0 -60 -5 -91 -15h-10c-2 -9 -5 -17 -5 -28z" />
    <glyph glyph-name="rests.5" unicode="&#xe10c;" horiz-adv-x="325" 
d="M66 139c-12 18 -21 36 -21 68c0 23 6 50 16 79c17 49 34 77 53 83c3 1 7 1 10 1c10 0 12 -5 12 -17c0 -15 -10 -53 -10 -70c0 -24 10 -35 34 -35c31 0 55 11 79 27c13 9 31 23 54 43c13 12 22 19 25 20c3 2 6 3 10 3c17 0 26 -10 26 -31c0 -8 -7 -29 -20 -60
c-90 -213 -151 -390 -183 -529c-5 -20 -7 -33 -7 -40c0 -8 5 -14 13 -24c8 -9 12 -16 12 -22c0 -5 -2 -12 -7 -21c-10 -20 -37 -64 -62 -64c-15 0 -20 9 -20 27c0 7 1 16 3 27c5 27 13 65 27 114c2 8 3 12 3 13s0 1 -1 1c-9 0 -34 -4 -45 -4c-59 0 -81 34 -81 94
c0 53 17 92 41 132l11 18l-3 14c-2 11 -2 21 -2 32c0 33 8 67 25 102zM113 92c0 -24 10 -34 35 -34c15 0 30 4 49 13l13 6l8 24c5 16 9 26 9 28c0 1 0 1 -2 1c-6 0 -17 -3 -40 -8c-24 -5 -42 -7 -53 -7c-20 0 -19 -2 -19 -23zM66 -106c0 -23 13 -34 36 -34c11 0 23 3 38 8
l15 5l8 26c5 17 7 27 7 29c0 1 -1 1 -4 1s-7 0 -14 -2c-14 -3 -27 -5 -39 -5c-13 0 -24 5 -35 5c-10 0 -12 -18 -12 -33z" />
    <glyph glyph-name="rests.6" unicode="&#xe10d;" horiz-adv-x="349" 
d="M66 203c0 57 36 165 78 165c9 0 14 -5 14 -16c0 -19 -12 -54 -12 -73c0 -23 13 -34 34 -34c10 0 23 3 37 8c34 12 70 36 107 71c12 11 17 15 28 15c17 0 23 -11 23 -29c0 -10 -5 -25 -15 -51c-88 -221 -132 -388 -176 -637c-17 -96 -26 -158 -26 -188c0 -25 4 -24 18 -43
c3 -4 5 -9 5 -14c0 -21 -34 -70 -46 -79c-6 -4 -12 -7 -17 -7c-18 0 -21 17 -21 39c0 9 1 19 1 30c0 52 2 100 8 141c2 18 4 27 4 27h-20c-70 1 -103 33 -103 98c0 32 9 65 27 101c5 11 8 20 8 26c0 3 -1 6 -2 8c-9 15 -14 33 -14 57c0 53 14 89 40 132l13 20l-3 15
c-2 11 -2 22 -2 33c0 35 8 70 26 105l7 13l-7 11c-9 15 -14 34 -14 56zM133 90c0 -23 13 -35 36 -35c13 0 54 10 63 25c0 0 16 38 16 48c-1 0 -8 -1 -19 -4c-33 -8 -59 -12 -78 -12c-17 0 -18 -1 -18 -13v-9zM85 -110c0 -21 15 -32 37 -32c10 0 23 2 37 7l17 6l7 26
c5 16 7 25 7 28c0 1 0 2 -3 2s-7 -1 -13 -2c-15 -3 -29 -5 -41 -5c-15 0 -27 3 -38 7l-4 -10c-4 -10 -6 -19 -6 -27zM67 -310c0 -21 9 -33 27 -33c6 0 12 2 19 4l10 4l1 10c3 23 6 41 10 53c0 1 -1 3 -4 3c-13 0 -19 -4 -38 -4h-18c-4 -11 -7 -21 -7 -37z" />
    <glyph glyph-name="rests.7" unicode="&#xe10e;" horiz-adv-x="375" 
d="M31 22c0 64 24 104 54 153l-11 13c-12 14 -17 16 -17 34c0 13 4 30 12 52c14 39 24 55 42 66c-12 18 -20 38 -20 66c0 55 34 167 80 167c8 0 12 -6 12 -17s-11 -56 -11 -71c0 -26 9 -35 35 -35c13 0 24 3 36 7c34 13 68 34 102 67c13 12 24 19 33 19c13 0 22 -10 22 -25
c0 -11 -6 -33 -19 -65c-121 -312 -171 -533 -202 -872c-5 -57 -8 -98 -8 -124c0 -33 1 -32 17 -50c8 -8 12 -14 12 -21c0 -4 -2 -10 -5 -17c-5 -12 -28 -48 -37 -56c-7 -6 -14 -10 -19 -10c-8 0 -15 8 -19 24c-2 8 -4 40 -4 96s1 90 2 104l1 21h-19c-89 0 -112 14 -112 97
c0 46 10 84 31 115l8 11l-6 12c-7 13 -10 28 -10 45c0 30 10 65 30 107c3 7 5 14 5 20c0 5 -1 8 -3 12c-8 16 -12 34 -12 55zM157 293c0 -23 14 -33 36 -33c14 0 31 4 50 12l13 6l8 24c6 17 9 26 9 28c0 1 -1 1 -3 1c-7 0 -13 -2 -31 -6c-19 -4 -37 -7 -54 -8l-25 -1
c-1 -7 -3 -16 -3 -23zM110 93c0 -21 14 -30 36 -30c15 0 36 5 45 8l10 4l7 23c5 17 9 24 9 30c0 2 -2 3 -4 3s-8 -1 -16 -3c-12 -3 -23 -4 -35 -4s-25 2 -37 5h-2c-9 0 -13 -25 -13 -36zM156 -65c-13 0 -18 -4 -38 -4l-20 -1c-3 -9 -5 -20 -5 -35c0 -22 8 -34 26 -34
c8 0 20 4 28 6l6 31c4 21 6 31 6 35c0 1 -1 2 -3 2zM67 -261c0 -7 -10 -33 -10 -42c0 -21 15 -32 39 -32c12 0 33 3 33 8c0 0 5 48 5 55s-6 5 -21 6c-18 1 -31 4 -42 8h-2c-1 0 -2 -1 -2 -3z" />
    <glyph glyph-name="accidentals.sharp" unicode="&#xe10f;" horiz-adv-x="268" 
d="M118 390c16 0 14 -40 14 -77v-23c0 -26 1 -49 0 -66l-2 -28c9 2 35 9 38 17c2 7 7 64 12 176c3 97 12 148 26 163c3 3 5 6 6 6c9 0 14 -45 14 -70c0 -41 0 -112 -8 -210c-2 -28 -7 -43 -7 -46c0 -1 1 -3 1 -3c1 0 3 4 10 6c24 13 39 16 48 16c8 0 10 -6 10 -16v-16
c0 -26 -3 -52 -8 -77c-2 -15 -22 -37 -58 -54l-18 -7v-45c-1 -25 -1 -41 -1 -44v-1c1 0 3 1 11 6c14 9 29 16 42 16s14 -52 14 -85v-13c0 -18 0 -31 -2 -36c-2 -3 -16 -16 -40 -32l-36 -23l-3 -46c-1 -44 -4 -183 -19 -196c-2 -2 -4 -5 -6 -5c-14 0 -16 36 -16 72v12
c0 26 2 76 2 108c0 23 0 35 -2 35c-13 0 -22 -6 -30 -14l-3 -62c-2 -63 -5 -196 -15 -211c-2 -2 -8 -4 -10 -4c-8 0 -10 3 -12 10c-3 9 -6 27 -6 60s3 77 6 132c2 33 2 51 2 54v7l-30 -10c-16 -5 -25 -8 -28 -8c-10 0 -14 28 -14 64v24l2 34c13 10 15 13 40 26
c17 9 28 15 30 16c7 2 8 24 8 47v27c0 10 -1 16 -2 16s-8 -2 -18 -7c-25 -13 -41 -18 -46 -18c-7 0 -6 16 -6 30v19c2 54 6 88 16 98c9 9 29 19 54 34c8 3 11 9 12 12s1 17 2 42c3 112 13 168 26 168zM107 -40c0 -9 0 -17 3 -17c10 0 30 15 38 18l12 8l2 44c1 24 2 38 2 45
c0 2 -1 3 -2 3c-3 0 -16 -8 -40 -23l-10 -7l-2 -12c-2 -26 -3 -46 -3 -59z" />
    <glyph glyph-name="accidentals.sharp.arrowup" unicode="&#xe110;" horiz-adv-x="268" 
d="M118 390c16 0 14 -40 14 -77v-23c0 -26 1 -49 0 -66l-2 -28c9 2 35 9 38 17c2 7 7 64 12 176c3 97 12 148 26 163c3 3 5 6 6 6c9 0 14 -45 14 -70c0 -41 0 -112 -8 -210c-2 -28 -7 -43 -7 -46c0 -1 1 -3 1 -3c1 0 3 4 10 6c24 13 39 16 48 16c8 0 10 -6 10 -16v-16
c0 -26 -3 -52 -8 -77c-2 -15 -22 -37 -58 -54l-18 -7v-45c-1 -25 -1 -41 -1 -44v-1c1 0 3 1 11 6c14 9 29 16 42 16s14 -52 14 -85v-13c0 -18 0 -31 -2 -36c-2 -3 -16 -16 -40 -32l-36 -23l-3 -46c-1 -44 -4 -183 -19 -196c-2 -2 -4 -5 -6 -5c-14 0 -16 36 -16 72v12
c0 26 2 76 2 108c0 23 0 35 -2 35c-13 0 -22 -6 -30 -14l-3 -62c-2 -63 -5 -196 -15 -211c-2 -2 -8 -4 -10 -4c-8 0 -10 3 -12 10c-3 9 -6 27 -6 60s3 77 6 132c2 33 2 51 2 54v7l-30 -10c-16 -5 -25 -8 -28 -8c-10 0 -14 28 -14 64v24l2 34c13 10 15 13 40 26
c17 9 28 15 30 16c7 2 8 24 8 47v27c0 10 -1 16 -2 16s-8 -2 -18 -7c-25 -13 -41 -18 -46 -18c-7 0 -6 16 -6 30v19c2 54 6 88 16 98c9 9 29 19 54 34c8 3 11 9 12 12s1 17 2 42c3 112 13 168 26 168zM107 -40c0 -9 0 -17 3 -17c10 0 30 15 38 18l12 8l2 44c1 24 2 38 2 45
c0 2 -1 3 -2 3c-3 0 -16 -8 -40 -23l-10 -7l-2 -12c-2 -26 -3 -46 -3 -59zM105 435l5 30l10 18c12 15 22 30 30 43c22 41 28 58 52 131l10 18l12 -5c13 -42 40 -114 98 -194l3 -22l-6 -22l-7 -16l-10 -3c-45 62 -69 109 -89 167l-4 11c-7 -20 -14 -42 -23 -62l-7 -17
c0 -1 -1 1 -1 0c-23 -52 -12 -37 -56 -94l-10 -3z" />
    <glyph glyph-name="accidentals.sharp.arrowdown" unicode="&#xe111;" horiz-adv-x="268" 
d="M-16 -390l10 18l12 -5l59 -159l22.4635 50.428c-2.1482 -0.848022 -4.3862 -1.42801 -5.4635 -1.42801c-8 0 -10 3 -12 10c-3 9 -6 27 -6 60s3 77 6 132c2 33 2 51 2 54v7l-30 -10c-16 -5 -25 -8 -28 -8c-10 0 -14 28 -14 64v24l2 34c13 10 15 13 40 26c17 9 28 15 30 16
c7 2 8 24 8 47v27c0 10 -1 16 -2 16s-8 -2 -18 -7c-25 -13 -41 -18 -46 -18c-7 0 -6 16 -6 30v19c2 54 6 88 16 98c9 9 29 19 54 34c8 3 11 9 12 12s1 17 2 42c3 112 13 168 26 168c16 0 14 -40 14 -77v-23c0 -26 1 -49 0 -66l-2 -28c9 2 35 9 38 17c2 7 7 64 12 176
c3 97 12 148 26 163c3 3 5 6 6 6c9 0 14 -45 14 -70c0 -41 0 -112 -8 -210c-2 -28 -7 -43 -7 -46c0 -1 1 -3 1 -3c1 0 3 4 10 6c24 13 39 16 48 16c8 0 10 -6 10 -16v-16c0 -26 -3 -52 -8 -77c-2 -15 -22 -37 -58 -54l-18 -7v-45c-1 -25 -1 -41 -1 -44v-1c1 0 3 1 11 6
c14 9 29 16 42 16s14 -52 14 -85v-13c0 -18 0 -31 -2 -36c-2 -3 -16 -16 -40 -32l-36 -23l-3 -46c-1 -44 -4 -183 -19 -196c-2 -2 -4 -5 -6 -5c-14 0 -16 36 -16 72v12c0 26 2 76 2 108c0 23 0 35 -2 35c-13 0 -22 -6 -30 -14l-3 -62
c-1.644 -51.776 -3.963 -150.831 -10.2878 -192.809l17.2878 38.809l10 18l12 -5l3 -22l-6 -22l-7 -16l-64 -144l-10 -3l-66 180l-7 20zM107 -40c0 -9 0 -17 3 -17c10 0 30 15 38 18l12 8l2 44c1 24 2 38 2 45c0 2 -1 3 -2 3c-3 0 -16 -8 -40 -23l-10 -7l-2 -12
c-2 -26 -3 -46 -3 -59z" />
    <glyph glyph-name="accidentals.sharp.arrowboth" unicode="&#xe112;" horiz-adv-x="268" 
d="M-16 -390l10 18l12 -5l59 -159l22.4635 50.428c-2.1482 -0.848022 -4.3862 -1.42801 -5.4635 -1.42801c-8 0 -10 3 -12 10c-3 9 -6 27 -6 60s3 77 6 132c2 33 2 51 2 54v7l-30 -10c-16 -5 -25 -8 -28 -8c-10 0 -14 28 -14 64v24l2 34c13 10 15 13 40 26c17 9 28 15 30 16
c7 2 8 24 8 47v27c0 10 -1 16 -2 16s-8 -2 -18 -7c-25 -13 -41 -18 -46 -18c-7 0 -6 16 -6 30v19c2 54 6 88 16 98c9 9 29 19 54 34c8 3 11 9 12 12s1 17 2 42c3 112 13 168 26 168c16 0 14 -40 14 -77v-23c0 -26 1 -49 0 -66l-2 -28c9 2 35 9 38 17c2 7 7 64 12 176
c3 97 12 148 26 163c3 3 5 6 6 6c9 0 14 -45 14 -70c0 -41 0 -112 -8 -210c-2 -28 -7 -43 -7 -46c0 -1 1 -3 1 -3c1 0 3 4 10 6c24 13 39 16 48 16c8 0 10 -6 10 -16v-16c0 -26 -3 -52 -8 -77c-2 -15 -22 -37 -58 -54l-18 -7v-45c-1 -25 -1 -41 -1 -44v-1c1 0 3 1 11 6
c14 9 29 16 42 16s14 -52 14 -85v-13c0 -18 0 -31 -2 -36c-2 -3 -16 -16 -40 -32l-36 -23l-3 -46c-1 -44 -4 -183 -19 -196c-2 -2 -4 -5 -6 -5c-14 0 -16 36 -16 72v12c0 26 2 76 2 108c0 23 0 35 -2 35c-13 0 -22 -6 -30 -14l-3 -62
c-1.644 -51.776 -3.963 -150.831 -10.2878 -192.809l17.2878 38.809l10 18l12 -5l3 -22l-6 -22l-7 -16l-64 -144l-10 -3l-66 180l-7 20zM105 435l5 30l10 18c12 15 22 30 30 43c22 41 28 58 52 131l10 18l12 -5c13 -42 40 -114 98 -194l3 -22l-6 -22l-7 -16l-10 -3
c-45 62 -69 109 -89 167l-4 11c-7 -20 -14 -42 -23 -62l-7 -17c0 -1 -1 1 -1 0c-23 -52 -12 -37 -56 -94l-10 -3zM107 -40c0 -9 0 -17 3 -17c10 0 30 15 38 18l12 8l2 44c1 24 2 38 2 45c0 2 -1 3 -2 3c-3 0 -16 -8 -40 -23l-10 -7l-2 -12c-2 -26 -3 -46 -3 -59z" />
    <glyph glyph-name="accidentals.sharp.slashslash.stem" unicode="&#xe113;" horiz-adv-x="175" 
d="M88 379c5 3 10 0 12 -5c4 -7 3 -13 3 -22c0 -61 -1 -116 -1 -168c24 10 49 21 80 33c5 2 10 0 12 -5c4 -7 3 -13 3 -22c-1 -25 -2 -39 -6 -64c-1 -7 -1 -13 -7 -16c-31 -16 -57 -28 -82 -39v-146c25 10 51 20 84 32c5 2 10 0 12 -5c4 -7 3 -13 3 -22
c-1 -25 -2 -39 -6 -64c-1 -7 -1 -13 -7 -16c-33 -16 -60 -28 -87 -39c0 -37 0 -75 -1 -117c-1 -25 -2 -39 -6 -64c-1 -7 -3 -11 -7 -16c-3 -3 -7 -6 -10 -3c-5 6 -7 12 -7 20v168c-22 -9 -46 -18 -74 -29c-4 -2 -7 -6 -10 -3c-5 6 -6 12 -7 20c0 28 0 44 5 72
c1 8 3 14 10 18c29 14 53 25 76 35c0 49 1 95 1 145c-21 -9 -43 -17 -69 -29c-4 -2 -7 -6 -10 -3c-5 6 -6 12 -7 20c0 28 0 44 5 72c1 8 3 14 10 18c27 14 50 26 72 36c0 37 1 76 1 118c1 28 0 44 5 72c1 8 3 14 10 18z" />
    <glyph glyph-name="accidentals.sharp.slashslashslash.stemstem" unicode="&#xe114;" horiz-adv-x="275" 
d="M86 357c5 3 10 0 12 -5c4 -7 3 -13 3 -22c0 -41 1 -79 1 -115c21 7 41 13 63 19c1 39 1 81 2 125c1 28 0 44 5 72c1 8 3 14 10 18c5 3 10 0 12 -5c4 -7 3 -13 3 -22c-1 -66 -1 -124 -2 -179c15 4 31 9 49 14c5 1 10 0 12 -5c4 -7 3 -13 3 -22c-1 -25 -2 -39 -6 -64
c-1 -7 -1 -14 -7 -16c-19 -7 -36 -13 -52 -19c0 -20 -1 -40 -1 -60c29 6 61 11 97 18c5 1 10 0 12 -5c4 -7 3 -13 3 -22c-1 -25 -2 -39 -6 -64c-1 -7 -3 -11 -7 -16c-3 -3 -6 -2 -10 -3c-34 -7 -63 -14 -90 -21c0 -14 -1 -28 -1 -43c29 9 59 18 95 28c5 1 10 0 12 -5
c4 -7 3 -13 3 -22c-1 -25 -2 -39 -6 -64c-1 -7 -1 -14 -7 -16c-37 -14 -68 -25 -98 -35c0 -22 -1 -44 -1 -67c-1 -25 -2 -39 -6 -64c-1 -7 -3 -11 -7 -16c-3 -3 -7 -6 -10 -3c-5 6 -7 12 -7 20c0 43 1 83 1 121c-18 -6 -36 -11 -55 -17v-115c0 -25 -2 -39 -6 -64
c-1 -7 -3 -11 -7 -16c-3 -3 -7 -6 -10 -3c-5 6 -7 12 -7 20c-1 61 -1 117 -2 169c-18 -5 -36 -11 -57 -18c-4 -2 -7 -6 -10 -3c-5 6 -6 12 -7 20c0 28 0 44 5 72c1 8 2 15 10 18c21 8 40 15 58 21v54c-29 -6 -62 -12 -98 -17c-8 -1 -6 12 -7 20c0 28 0 44 5 72
c1 8 2 16 10 18c33 9 62 16 89 22v48c-19 -6 -39 -12 -61 -19c-4 -2 -7 -6 -10 -3c-5 6 -6 12 -7 20c0 28 0 44 5 72c1 8 2 15 10 18c23 9 44 16 63 23v63c0 28 0 44 5 72c1 8 3 14 10 18zM163 121c-21 -7 -40 -13 -60 -19v-50c20 4 40 9 60 13v56zM161 -49
c-19 -5 -38 -10 -57 -14v-50c19 7 38 13 57 19v45z" />
    <glyph glyph-name="accidentals.sharp.slashslashslash.stem" unicode="&#xe115;" horiz-adv-x="238" 
d="M122 381c5 3 10 0 12 -5c4 -7 3 -13 3 -22c-2 -53 -4 -101 -5 -147c22 8 45 15 72 24c5 2 10 0 12 -5c4 -7 3 -13 3 -22c-1 -25 -2 -39 -6 -64c-1 -7 -1 -14 -7 -16c-29 -13 -53 -23 -77 -32c0 -12 -2 -24 -2 -36c37 13 75 25 123 41c5 2 10 0 12 -5c4 -7 3 -13 3 -22
c-1 -25 -2 -39 -6 -64c-1 -7 -1 -14 -7 -16c-49 -20 -88 -35 -128 -49c0 -11 -2 -22 -2 -33c28 7 58 15 94 23c5 1 10 0 12 -5c4 -7 3 -13 3 -22c-1 -25 -2 -39 -6 -64c-1 -7 -1 -14 -7 -16c-29 -10 -66 -21 -100 -30c-1 -32 -2 -66 -3 -102c-1 -25 -2 -39 -6 -64
c-1 -7 -3 -11 -7 -16c-3 -3 -7 -6 -10 -3c-5 6 -7 12 -7 20c1 57 3 108 4 157c-38 -10 -67 -16 -67 -16s-7 -6 -10 -3c-5 6 -6 12 -7 20c0 28 0 44 5 72c1 8 2 15 10 18c27 9 51 17 73 23c0 10 1 21 1 31c-28 -9 -57 -19 -92 -31c-4 -2 -7 -6 -10 -3c-5 6 -6 12 -7 20
c0 28 0 44 5 72c1 8 3 15 10 18c37 15 68 28 98 39c0 12 1 24 1 36c-22 -8 -44 -16 -71 -26c-4 -2 -7 -6 -10 -3c-5 6 -6 12 -7 20c0 28 0 44 5 72c1 8 3 15 10 18c30 14 54 24 78 33c1 30 2 62 3 95c1 28 0 44 5 72c1 8 3 14 10 18z" />
    <glyph glyph-name="accidentals.sharp.slashslash.stemstemstem" unicode="&#xe116;" horiz-adv-x="400" 
d="M108 312c5 3 10 0 12 -5c4 -7 3 -13 3 -22c0 -64 -1 -86 -1 -139c21 8 43 15 64 23c0 49 0 66 1 123c1 28 0 44 5 72c1 8 3 14 10 18c5 3 10 0 12 -5c4 -7 3 -13 3 -22v-175c27 9 52 18 75 26c0 58 1 86 1 156c1 28 0 44 5 72c1 8 3 14 10 18c5 3 10 0 12 -5
c4 -7 3 -13 3 -22v-208c32 11 53 17 55 18c0 0 10 0 12 -5c4 -7 3 -13 3 -22c-1 -25 -2 -39 -6 -64c-1 -7 -3 -11 -7 -16c-2 -3 -7 -2 -7 -2c-16 -4 -32 -9 -49 -14v-102c19 6 37 13 56 19c0 0 10 0 12 -5c4 -7 3 -13 3 -22c-1 -25 -2 -39 -6 -64c-1 -7 -7 -16 -7 -16
c-19 -6 -39 -13 -58 -20c0 -42 -1 -86 -1 -134c-1 -25 -2 -39 -6 -64c-1 -7 -3 -11 -7 -16c-3 -3 -7 -6 -10 -3c-5 6 -7 12 -7 20c-1 68 -1 130 -1 187c-25 -9 -51 -18 -76 -27c0 -40 -1 -82 -1 -127c-1 -25 -2 -39 -6 -64c-1 -7 -3 -11 -7 -16c-3 -3 -7 -6 -10 -3
c-5 6 -7 12 -7 20v179c-22 -8 -43 -16 -65 -24c0 -40 0 -83 -1 -130c-1 -25 -2 -39 -6 -64c-1 -7 -3 -11 -7 -16c-3 -3 -7 -6 -10 -3c-5 6 -7 12 -7 20v182c-22 -8 -45 -17 -67 -25c0 0 -7 -6 -10 -3c-5 6 -6 12 -7 20c0 28 0 44 5 72c1 8 10 18 10 18c23 9 46 17 69 26
c0 33 1 67 1 101c-26 -11 -52 -21 -78 -32c0 0 -7 -6 -10 -3c-5 6 -6 12 -7 20c0 28 0 44 5 72c1 8 10 18 10 18c23 10 52 21 82 32c1 38 0 43 1 87c1 28 0 44 5 72c1 8 3 14 10 18zM292 102c-25 -8 -50 -17 -75 -26c0 -34 -1 -68 -1 -103c25 9 51 18 76 27v102zM185 64
l-63 -24c0 -34 -1 -67 -1 -101c21 8 43 15 64 23v102z" />
    <glyph glyph-name="accidentals.natural" unicode="&#xe117;" horiz-adv-x="222" 
d="M37 538c0 9 20 13 30 13c3 0 9 -1 9 -3s0 -25 -2 -72c-2 -53 -11 -248 -13 -295v-16l10 8c17 16 84 43 112 48c8 1 11 2 13 2s2 0 2 -2c0 -10 -2 -86 -10 -233c-10 -215 -18 -362 -27 -516c-1 -15 -5 -25 -8 -27c-9 -8 -17 -10 -25 -10c-2 0 -8 1 -10 1v11c0 9 3 23 4 46
c13 215 17 335 17 358v1c-2 0 -4 -6 -6 -8c-23 -26 -77 -53 -110 -53c-17 0 -26 3 -26 6c0 1 1 54 8 159c10 204 15 265 25 455c3 83 7 125 7 127zM51 -58c0 -2 2 -2 4 -2c22 0 66 21 76 34l8 9v23c1 17 5 35 5 52c0 13 -2 9 -15 4c-25 -9 -48 -23 -65 -40l-9 -8l-2 -35
c-1 -18 -2 -34 -2 -37z" />
    <glyph glyph-name="accidentals.natural.arrowup" unicode="&#xe118;" horiz-adv-x="222" 
d="M-20 390l-7 20l5 72c26 62 52 125 72 192l10 18l12 -5c27 -120 7 -85 56 -174l3 -22l-6 -64l-7 -16l-10 -3c-12 22 -21 43 -28 64l-5.4928 16.479c-0.152901 -3.95401 -0.321404 -8.11301 -0.507202 -12.479c-2 -53 -11 -248 -13 -295v-16l10 8c17 16 84 43 112 48
c8 1 11 2 13 2s2 0 2 -2c0 -10 -2 -86 -10 -233c-10 -215 -18 -362 -27 -516c-1 -15 -5 -25 -8 -27c-9 -8 -17 -10 -25 -10c-2 0 -8 1 -10 1v11c0 9 3 23 4 46c13 215 17 335 17 358v1c-2 0 -4 -6 -6 -8c-23 -26 -77 -53 -110 -53c-17 0 -26 3 -26 6c0 1 1 54 8 159
c10 204 15 265 25 455c1.4154 39.158 3.0533 69.191 4.3888 90.202c-12.0426 -31.058 -24.9104 -61.63 -37.3888 -92.202l-7 -16zM51 -58c0 -2 2 -2 4 -2c22 0 66 21 76 34l8 9v23c1 17 5 35 5 52c0 13 -2 9 -15 4c-25 -9 -48 -23 -65 -40l-9 -8l-2 -35
c-1 -18 -2 -34 -2 -37z" />
    <glyph glyph-name="accidentals.natural.arrowdown" unicode="&#xe119;" horiz-adv-x="222" 
d="M48 -406l10 18l12 -5c37.892 -58.56 48.426 -72.623 53.175 -94.417c12.067 202.712 15.825 316.125 15.825 338.417v1c-2 0 -4 -6 -6 -8c-23 -26 -77 -53 -110 -53c-17 0 -26 3 -26 6c0 1 1 54 8 159c10 204 15 265 25 455c3 83 7 125 7 127c0 9 20 13 30 13
c3 0 9 -1 9 -3s0 -25 -2 -72c-2 -53 -11 -248 -13 -295v-16l10 8c17 16 84 43 112 48c8 1 11 2 13 2s2 0 2 -2c0 -10 -2 -86 -10 -233c-9.631 -207.073 -17.407 -351.068 -26.008 -498.991c11.356 21.932 23.259 43.679 36.008 65.991v1l11 18c8 14 16 28 25 42l12 -5l3 -22
l-6 -64l-7 -16c-29 -46 -58 -96 -110 -210l-10 -3l-7 20c-1 7 3 33 -20 108c-9 25 -22 52 -39 78l-7 20zM51 -58c0 -2 2 -2 4 -2c22 0 66 21 76 34l8 9v23c1 17 5 35 5 52c0 13 -2 9 -15 4c-25 -9 -48 -23 -65 -40l-9 -8l-2 -35c-1 -18 -2 -34 -2 -37z" />
    <glyph glyph-name="accidentals.natural.arrowboth" unicode="&#xe11a;" horiz-adv-x="222" 
d="M-20 390l-7 20l5 72c26 62 52 125 72 192l10 18l12 -5c27 -120 7 -85 56 -174l3 -22l-6 -64l-7 -16l-10 -3c-12 22 -21 43 -28 64l-5.4928 16.479c-0.152901 -3.95401 -0.321404 -8.11301 -0.507202 -12.479c-2 -53 -11 -248 -13 -295v-16l10 8c17 16 84 43 112 48
c8 1 11 2 13 2s2 0 2 -2c0 -10 -2 -86 -10 -233c-9.631 -207.073 -17.407 -351.068 -26.008 -498.991c11.356 21.932 23.259 43.679 36.008 65.991v1l11 18c8 14 16 28 25 42l12 -5l3 -22l-6 -64l-7 -16c-29 -46 -58 -96 -110 -210l-10 -3l-7 20c-1 7 3 33 -20 108
c-9 25 -22 52 -39 78l-7 20l5 72l10 18l12 -5c37.892 -58.56 48.426 -72.623 53.175 -94.417c12.067 202.712 15.825 316.125 15.825 338.417v1c-2 0 -4 -6 -6 -8c-23 -26 -77 -53 -110 -53c-17 0 -26 3 -26 6c0 1 1 54 8 159c10 204 15 265 25 455
c1.4154 39.158 3.0533 69.191 4.3888 90.202c-12.0426 -31.058 -24.9104 -61.63 -37.3888 -92.202l-7 -16zM51 -58c0 -2 2 -2 4 -2c22 0 66 21 76 34l8 9v23c1 17 5 35 5 52c0 13 -2 9 -15 4c-25 -9 -48 -23 -65 -40l-9 -8l-2 -35c-1 -18 -2 -34 -2 -37z" />
    <glyph glyph-name="accidentals.flat" unicode="&#xe11b;" horiz-adv-x="232" 
d="M174 230c44 0 58 -43 58 -95c0 -10 0 -23 -2 -35c-12 -90 -56 -183 -137 -288c-15 -17 -36 -44 -58 -69s-33 -39 -35 -39c-1 0 -2 4 -2 6c0 12 1 49 2 140c1 85 4 220 4 406l2 278c14 15 25 24 53 25v-52c-3 -163 -4 -270 -4 -318c0 -21 -1 -33 0 -33s8 7 11 14
c21 33 60 60 108 60zM148 77c0 17 -7 32 -22 32c-25 0 -47 -39 -60 -62c-10 -17 -17 -29 -18 -37v-112c0 -6 -1 -6 0 -6s3 -1 6 2c9 8 18 23 27 33c39 46 58 91 65 134c1 7 2 11 2 16z" />
    <glyph glyph-name="accidentals.flat.arrowup" unicode="&#xe11c;" horiz-adv-x="232" 
d="M-87 399l5 72l10 18c8 10 15 21 22 32c27 50 36 61 67 184l10 18l12 -5c56 -94 108 -228 108 -228l3 -22l-6 -64l-7 -16l-10 -3l-5 15c-16.399 46.346 -37.8827 93.709 -63 141.364v-34.364c-3 -163 -4 -270 -4 -318c0 -21 -1 -33 0 -33s8 7 11 14c21 33 60 60 108 60
c44 0 58 -43 58 -95c0 -10 0 -23 -2 -35c-12 -90 -56 -183 -137 -288c-15 -17 -36 -44 -58 -69s-33 -39 -35 -39c-1 0 -2 4 -2 6c0 12 1 49 2 140c1 85 4 220 4 406l1.97523 274.557c-4.92224 -13.918 -10.2286 -27.531 -15.9752 -40.557l-8 -17v-1c-36 -81 -2 -24 -52 -90
l-10 -3zM148 77c0 17 -7 32 -22 32c-25 0 -47 -39 -60 -62c-10 -17 -17 -29 -18 -37v-112c0 -6 -1 -6 0 -6s3 -1 6 2c9 8 18 23 27 33c39 46 58 91 65 134c1 7 2 11 2 16zM49.9113 558.332c-7.3692 13.545 -15.0173 27.1071 -22.9113 40.668
c-5.6723 -20.988 -11.9881 -42.297 -19.1299 -63.015c11.5549 12.13 21.6302 19.973 42.0412 22.347z" />
    <glyph glyph-name="accidentals.flat.arrowdown" unicode="&#xe11d;" horiz-adv-x="232" 
d="M-109 -261c1 8 3 14 10 18c5 3 12 -5 12 -5c40.1804 -53.226 65.112 -99.1 80.7627 -134.638c0.36266 19.65 1.44177 38.099 3.23731 62.638c0.56387 9.30399 1.088 18.032 1.5976 26.343c-0.35973 1.23001 -0.5976 2.68201 -0.5976 3.65701c0 12 1 49 2 140
c1 85 4 220 4 406l2 278c14 15 25 24 53 25v-52c-3 -163 -4 -270 -4 -318c0 -21 -1 -33 0 -33s8 7 11 14c21 33 60 60 108 60c44 0 58 -43 58 -95c0 -10 0 -23 -2 -35c-12 -90 -56 -183 -137 -288c-13.5207 -15.323 -31.9164 -38.772 -51.5252 -61.557
c-3.3411 -55.923 -6.7701 -112.364 -10.8627 -168.169c14.6792 39.698 39.3383 105.773 58.3879 153.726c3 7 3 14 10 18c5 3 10 0 12 -5c4 -7 3 -13 3 -22c-1 -25 2 -40 -6 -64c-29 -92 -53 -141 -87 -231c-2 -6 -3 -11 -7 -16c-3 -3 -7 -6 -10 -3c-5 6 -7 20 -7 20
c-3 17 -8 35 -13 52c-19 53 -50 108 -91 162c0 0 -6 12 -7 20c0 28 0 44 5 72zM148 77c0 17 -7 32 -22 32c-25 0 -47 -39 -60 -62c-10 -17 -17 -29 -18 -37v-112c0 -6 -1 -6 0 -6s3 -1 6 2c9 8 18 23 27 33c39 46 58 91 65 134c1 7 2 11 2 16z" />
    <glyph glyph-name="accidentals.flat.arrowboth" unicode="&#xe11e;" horiz-adv-x="232" 
d="M-87 399l5 72l10 18c8 10 15 21 22 32c27 50 36 61 67 184l10 18l12 -5c56 -94 108 -228 108 -228l3 -22l-6 -64l-7 -16l-10 -3l-5 15c-16.399 46.346 -37.8827 93.709 -63 141.364v-34.364c-3 -163 -4 -270 -4 -318c0 -21 -1 -33 0 -33s8 7 11 14c21 33 60 60 108 60
c44 0 58 -43 58 -95c0 -10 0 -23 -2 -35c-12 -90 -56 -183 -137 -288c-13.5207 -15.323 -31.9164 -38.772 -51.5252 -61.557c-3.3411 -55.923 -6.7701 -112.364 -10.8627 -168.169c14.6792 39.698 39.3383 105.773 58.3879 153.726c3 7 3 14 10 18c5 3 10 0 12 -5
c4 -7 3 -13 3 -22c-1 -25 2 -40 -6 -64c-29 -92 -53 -141 -87 -231c-2 -6 -3 -11 -7 -16c-3 -3 -7 -6 -10 -3c-5 6 -7 20 -7 20c-3 17 -8 35 -13 52c-19 53 -50 108 -91 162c0 0 -6 12 -7 20c0 28 0 44 5 72c1 8 3 14 10 18c5 3 12 -5 12 -5
c40.1804 -53.226 65.112 -99.1 80.7627 -134.638c0.36266 19.65 1.44177 38.099 3.23731 62.638c0.56387 9.30399 1.088 18.032 1.5976 26.343c-0.35973 1.23001 -0.5976 2.68201 -0.5976 3.65701c0 12 1 49 2 140c1 85 4 220 4 406l1.97523 274.557
c-4.92224 -13.918 -10.2286 -27.531 -15.9752 -40.557l-8 -17v-1c-36 -81 -2 -24 -52 -90l-10 -3zM148 77c0 17 -7 32 -22 32c-25 0 -47 -39 -60 -62c-10 -17 -17 -29 -18 -37v-112c0 -6 -1 -6 0 -6s3 -1 6 2c9 8 18 23 27 33c39 46 58 91 65 134c1 7 2 11 2 16z
M49.9113 558.332c-7.3692 13.545 -15.0173 27.1071 -22.9113 40.668c-5.6723 -20.988 -11.9881 -42.297 -19.1299 -63.015c11.5549 12.13 21.6302 19.973 42.0412 22.347z" />
    <glyph glyph-name="accidentals.flat.slash" unicode="&#xe11f;" horiz-adv-x="232" 
d="M-112 251l5 72l10 18c36.3625 20.818 70.2595 39.402 102.012 55.623l0.98832 137.377c14 15 25 24 53 25v-52c-0.556099 -30.213 -1.0434 -58.503 -1.4684 -84.849c59.6744 27.344 111.269 44.652 157.468 50.849l12 -5l3 -22l-6 -64l-7 -16l-10 -3
c-21 -3 -40 -7 -59 -12c-32.42 -8.90701 -62.8095 -20.733 -91.982 -34.257c-0.730202 -59.255 -1.018 -101.99 -1.018 -127.743c0 -21 -1 -33 0 -33s8 7 11 14c21 33 60 60 108 60c44 0 58 -43 58 -95c0 -10 0 -23 -2 -35c-12 -90 -56 -183 -137 -288
c-15 -17 -36 -44 -58 -69s-33 -39 -35 -39c-1 0 -2 4 -2 6c0 12 1 49 2 140c1 85 4 220 4 406l0.24903 34.615c-33.6589 -18.192 -66.2705 -37.77 -99.249 -56.615l-10 -3zM148 77c0 17 -7 32 -22 32c-25 0 -47 -39 -60 -62c-10 -17 -17 -29 -18 -37v-112c0 -6 -1 -6 0 -6
s3 -1 6 2c9 8 18 23 27 33c39 46 58 91 65 134c1 7 2 11 2 16z" />
    <glyph glyph-name="accidentals.flat.slashslash" unicode="&#xe120;" horiz-adv-x="232" 
d="M-150 343l5 72l10 18l140.619 47.976l0.38147 53.024c14 15 25 24 53 25v-52c-0.0485001 -2.63501 -0.0965004 -5.255 -0.143902 -7.86099l146.144 49.861l12 -5l3 -22l-6 -64l-7 -16l-149.958 -51.162c-0.237202 -15.654 -0.4505 -30.527 -0.641602 -44.615
l164.6 42.777l12 -5l3 -22l-6 -64l-7 -16l-10 -3l-157.782 -41.006c-0.150902 -20.238 -0.217701 -36.587 -0.217701 -48.994c0 -21 -1 -33 0 -33s8 7 11 14c21 33 60 60 108 60c44 0 58 -43 58 -95c0 -10 0 -23 -2 -35c-12 -90 -56 -183 -137 -288c-15 -17 -36 -44 -58 -69
s-33 -39 -35 -39c-1 0 -2 4 -2 6c0 12 1 49 2 140c0.942973 80.1527 3.66434 204.765 3.97166 374.676l-144.972 -37.676l-7 20l5 72l10 18l137.552 35.748l0.28979 40.28l-137.842 -47.028l-10 -3zM148 77c0 17 -7 32 -22 32c-25 0 -47 -39 -60 -62
c-10 -17 -17 -29 -18 -37v-112c0 -6 -1 -6 0 -6s3 -1 6 2c9 8 18 23 27 33c39 46 58 91 65 134c1 7 2 11 2 16z" />
    <glyph glyph-name="accidentals.mirroredflat.flat" unicode="&#xe121;" horiz-adv-x="404" 
d="M393 210c10 -16 9 -41 9 -60c1 -61 -14 -116 -34 -158l-7 -16c-7 -16 -91 -120 -143 -165c-2 -2 -8 -6 -11 -1c-1 -4 -10 -23 -17 -16c-5 6 -7 20 -7 20v4c0 -4 -10 -9 -13 -8c-32 34 -110 88 -137 167l-6 20c-12 54 -17 68 -11 141c3 33 7 57 24 77c8 10 35 23 52 20
c13 -2 25 -4 36 -8l12 -5c11 -4 24 -12 35 -23c1 70 2 145 3 233c2 0 -5 84 14 90c5 3 35 -1 37 -6c4 -7 3 -22 3 -22c-1 -119 -3 -211 -4 -304c21 47 82 52 102 52c15 0 48 -9 63 -32zM173 -68c0 51 1 97 1 143c-1 0 -18 27 -18 27c-17 17 -23 24 -55 29
c-4 1 -25 -4 -29 -6c-16 -8 -11 -54 -8 -61c8 -20 47 -74 109 -132zM227 78c0 -48 -1 -99 -1 -155c2 2 3 4 3 4c24 20 79 72 114 136c1 4 7 21 9 29c0 24 0 34 -27 40c-8 2 -23 -4 -36 -10c-29 -13 -44 -15 -62 -44z" />
    <glyph glyph-name="accidentals.mirroredflat" unicode="&#xe122;" horiz-adv-x="232" 
d="M56 230c48 0 87 -27 108 -60c3 -7 10 -14 11 -14s0 12 0 33c0 48 -1 155 -4 318v52c28 -1 39 -10 53 -25l2 -278c0 -186 3 -321 4 -406c1 -91 2 -128 2 -140c0 -2 -1 -6 -2 -6c-2 0 -13 14 -35 39s-43 52 -58 69c-81 105 -125 198 -137 288c-2 12 -2 25 -2 35
c0 52 14 95 58 95zM82 77c0 -5 1 -9 2 -16c7 -43 26 -88 65 -134c9 -10 18 -25 27 -33c3 -3 5 -2 6 -2s0 0 0 6v112c-1 8 -8 20 -18 37c-13 23 -35 62 -60 62c-15 0 -22 -15 -22 -32z" />
    <glyph glyph-name="accidentals.mirroredflat.backslash" unicode="&#xe123;" horiz-adv-x="232" 
d="M-30 369l5 72l10 18c44 -9 87 -22 129 -38h1l12 -5c15.461 -5.98499 30.736 -12.467 45.87 -19.385c-0.511002 33.355 -1.12999 70.165 -1.87 110.385v52c28 -1 39 -10 53 -25l1.174 -163.188c27.471 -14.495 54.648 -30.229 81.826 -46.812l3 -22l-6 -64l-7 -16l-10 -3
c-23.375 14.384 -43.381 26.726 -61.003 37.411l0.00300598 -0.411011c0 -186 3 -321 4 -406c1 -91 2 -128 2 -140c0 -2 -1 -6 -2 -6c-2 0 -13 14 -35 39s-43 52 -58 69c-81 105 -125 198 -137 288c-2 12 -2 25 -2 35c0 52 14 95 58 95c48 0 87 -27 108 -60
c3 -7 10 -14 11 -14s0 12 0 33c0 21.165 -0.194 53.802 -0.669006 97.654c-61.492 33.949 -96.3736 42.564 -197.331 62.346zM82 77c0 -5 1 -9 2 -16c7 -43 26 -88 65 -134c9 -10 18 -25 27 -33c3 -3 5 -2 6 -2s0 0 0 6v112c-1 8 -8 20 -18 37c-13 23 -35 62 -60 62
c-15 0 -22 -15 -22 -32z" />
    <glyph glyph-name="accidentals.flatflat" unicode="&#xe124;" horiz-adv-x="396" 
d="M176 -293c-1 8 -1 13 -1 23c0 26 3 92 5 198l1 36l-14 -28c-37 -75 -87 -149 -150 -221l-7 -8v19c0 13 3 149 11 411l12 392c8 5 25 22 35 22c1 0 1 -9 1 -26c0 -25 -10 -356 -10 -366v-5c1 0 4 5 9 13c17 33 56 61 97 61c8 0 17 -2 22 -2c1 0 10 302 10 302
c2 9 23 23 33 23c2 0 5 -2 5 -9c0 -15 0 -119 -7 -318c-1 -39 -4 -63 -4 -65c0 -1 2 -5 2 -5c2 0 5 8 6 10c9 15 34 45 50 53s36 10 53 10c9 0 16 0 21 -3c17 -14 30 -53 30 -94c0 -33 -5 -68 -18 -108c-28 -91 -86 -189 -171 -290zM146 74c0 17 -4 31 -18 31
c-8 0 -13 -2 -22 -10c-13 -13 -44 -58 -47 -83c-2 -9 -1 -30 -2 -63l-1 -59c58 64 90 126 90 184zM311 71c0 17 -3 34 -18 34c-7 0 -14 -1 -22 -9c-16 -13 -42 -53 -47 -86c-1 -8 -4 -104 -4 -114v-4c10 8 21 21 29 31c41 52 62 101 62 148z" />
    <glyph glyph-name="accidentals.flatflat.slash" unicode="&#xe125;" horiz-adv-x="396" 
d="M311 71c0 17 -3 34 -18 34c-7 0 -14 -1 -22 -9c-16 -13 -42 -53 -47 -86c-1 -8 -4 -104 -4 -114v-4c10 8 21 21 29 31c41 52 62 101 62 148zM146 74c0 17 -4 31 -18 31c-8 0 -13 -2 -22 -10c-13 -13 -44 -58 -47 -83c-2 -9 -1 -30 -2 -63l-1 -59c58 64 90 126 90 184z
M176 -293c-1 8 -1 13 -1 23c0 26 3 92 5 198l1 36l-14 -28c-37 -75 -87 -149 -150 -221l-7 -8v19c0 13 3 149 11 411l3.63 118.581c-44.6953 -14.794 -89.5752 -31.225 -133.63 -49.581l-10 -3l-7 20l5 72l10 18c56.137 23.702 100.571 41.615 139.096 55.789
l4.9044 160.211c8 5 25 22 35 22c1 0 1 -9 1 -26c0 -10.309 -1.7004 -72.65 -3.6988 -143.059c45.2068 15.264 83.8878 25.501 128.322 35.054c1.858 60.05 3.377 111.005 3.377 111.005c2 9 23 23 33 23c2 0 5 -2 5 -9c0 -8.68903 -1.36099 -47.246 -1.36099 -116.835
c38.604 7.53799 83.026 15.431 139.361 25.835l12 -5l3 -22l-6 -64l-7 -16l-10 -3c-44.341 -7.896 -89.421 -17.269 -134.117 -27.668c-0.796997 -27.297 -1.748 -57.066 -2.883 -89.332c-1 -39 -4 -63 -4 -65c0 -1 2 -5 2 -5c2 0 5 8 6 10c9 15 34 45 50 53s36 10 53 10
c9 0 16 0 21 -3c17 -14 30 -53 30 -94c0 -33 -5 -68 -18 -108c-28 -91 -86 -189 -171 -290zM62.0197 267.601c-1.6898 -58.618 -3.0197 -104.954 -3.0197 -108.601v-5c1 0 4 5 9 13c17 33 56 61 97 61c8 0 17 -2 22 -2c0.330994 0 1.541 33.165 3.011 77.514
c-15.102 -3.741 -30.121 -7.58502 -45.011 -11.514c-27.31 -7.56799 -55.0534 -15.677 -82.9803 -24.399z" />
    <glyph glyph-name="accidentals.doublesharp" unicode="&#xe126;" horiz-adv-x="396" 
d="M123 -44c0 0 49 44 49 45c0 2 -9 9 -25 23c-14 9 -15 16 -24 26l-12 -12c-3 -3 -10 -6 -12 -6c-3 0 -11 7 -22 18c-19 19 -34 39 -42 58l-2 13l8 12c15 28 30 49 49 68l18 18l9 -6c6 -3 15 -10 25 -21c16 -18 27 -37 30 -56l1 -11c-3 -9 -11 -16 -14 -25l15 -33
c11 -24 20 -32 21 -32s8 11 19 30l17 31c-2 3 -6 6 -6 15c0 8 3 15 6 25c15 31 32 56 51 71l10 6c33 -20 57 -47 68 -83l3 -10l-12 -23c-14 -25 -26 -46 -44 -62c-10 -9 -18 -12 -21 -12s-16 12 -18 12s-11 -9 -26 -23l-18 -22c10 -11 27 -20 41 -29c6 -3 9 -5 10 -5
c0 0 5 4 8 13l9 13l13 -8c25 -20 43 -46 54 -75l4 -12l-10 -15c-14 -26 -28 -48 -47 -67c-11 -11 -19 -16 -20 -16c-2 0 -10 3 -21 18s-18 28 -26 39c-11 19 -18 33 -18 36c0 1 17 23 17 23c0 1 -2 6 -5 9c-2 2 -28 44 -31 44c-2 0 -4 -2 -7 -8c-9 -11 -14 -21 -17 -35
c-2 -3 -5 -12 -5 -15c0 -10 8 -14 11 -17l-6 -16c-18 -36 -39 -61 -58 -77l-8 -7l-15 17c-19 19 -40 41 -51 60l-7 16l7 16c14 25 29 45 44 61c11 11 19 17 20 17s12 -14 13 -14z" />
    <glyph glyph-name="accidentals.rightparen" unicode="&#xe127;" horiz-adv-x="173" 
d="M48 -409c-2 14 -4 21 -4 46c0 38 16 96 48 174c20 51 30 96 36 131c1 11 4 23 4 36c0 48 -11 90 -24 130c-14 44 -35 87 -64 131c-9 14 -14 37 -14 70c0 34 3 63 14 91c4 9 8 15 8 15c2 0 16 -21 40 -65c52 -97 81 -210 81 -350c0 -160 -43 -279 -111 -385z" />
    <glyph glyph-name="accidentals.leftparen" unicode="&#xe128;" horiz-adv-x="0" 
d="M-50 371l20 27v-27v-7c0 -46 -11 -107 -32 -142c-47 -78 -74 -141 -82 -188c-1 -12 -4 -23 -4 -35c0 -20 4 -40 8 -61c12 -54 36 -113 74 -178c11 -18 16 -32 16 -44c0 -29 -7 -71 -16 -112c-4 -18 -8 -26 -10 -26c-1 0 -12 24 -20 38c-58 119 -88 235 -88 347
c0 12 1 25 2 37c8 130 51 253 132 371z" />
    <glyph glyph-name="arrowheads.open.01" unicode="&#xe129;" horiz-adv-x="20" 
d="M-250 105c0 11 9 20 20 20c6 0 11 -2 15 -7c54 -62 133 -98 215 -98c13 0 20 -10 20 -20s-7 -20 -20 -20c-82 0 -161 -36 -215 -98c-4 -5 -9 -7 -15 -7c-11 0 -20 9 -20 20c0 5 2 9 5 13c36 42 82 73 133 92c-51 19 -97 50 -133 92c-3 4 -5 8 -5 13z" />
    <glyph glyph-name="arrowheads.open.0M1" unicode="&#xe12a;" horiz-adv-x="259" 
d="M250 105c0 -5 -2 -9 -5 -13c-36 -42 -82 -73 -133 -92c51 -19 97 -50 133 -92c3 -4 5 -8 5 -13c0 -11 -9 -20 -20 -20c-6 0 -11 2 -15 7c-54 62 -133 98 -215 98c-13 0 -20 10 -20 20s7 20 20 20c82 0 161 36 215 98c4 5 9 7 15 7c11 0 20 -9 20 -20z" />
    <glyph glyph-name="arrowheads.open.11" unicode="&#xe12b;" horiz-adv-x="105" 
d="M-105 -250c-11 0 -20 9 -20 20c0 6 2 11 7 15c62 54 98 133 98 215c0 13 10 20 20 20s20 -7 20 -20c0 -82 36 -161 98 -215c5 -4 7 -9 7 -15c0 -11 -9 -20 -20 -20c-5 0 -9 2 -13 5c-42 36 -73 82 -92 133c-19 -51 -50 -97 -92 -133c-4 -3 -8 -5 -13 -5z" />
    <glyph glyph-name="arrowheads.open.1M1" unicode="&#xe12c;" horiz-adv-x="105" 
d="M-105 250c5 0 9 -2 13 -5c42 -36 73 -82 92 -133c19 51 50 97 92 133c4 3 8 5 13 5c11 0 20 -9 20 -20c0 -6 -2 -11 -7 -15c-62 -54 -98 -133 -98 -215c0 -13 -10 -20 -20 -20s-20 7 -20 20c0 82 -36 161 -98 215c-5 4 -7 9 -7 15c0 11 9 20 20 20z" />
    <glyph glyph-name="arrowheads.close.01" unicode="&#xe12d;" horiz-adv-x="0" 
d="M-240 -125c-6 0 -10 5 -10 10v2c8 37 13 75 13 113c0 39 -13 77 -13 115c0 5 4 10 10 10c3 0 6 -2 8 -4c38 -47 172 -111 232 -111c7 0 10 -5 10 -10s-3 -10 -10 -10c-60 0 -194 -64 -232 -111c-2 -2 -5 -4 -8 -4z" />
    <glyph glyph-name="arrowheads.close.0M1" unicode="&#xe12e;" horiz-adv-x="271" 
d="M240 -125c-3 0 -6 2 -8 4c-38 47 -172 111 -232 111c-7 0 -10 5 -10 10s3 10 10 10c60 0 194 64 232 111c2 2 5 4 8 4c6 0 10 -5 10 -10c0 -38 -13 -76 -13 -115c0 -38 5 -76 13 -113v-2c0 -5 -4 -10 -10 -10z" />
    <glyph glyph-name="arrowheads.close.11" unicode="&#xe12f;" horiz-adv-x="113" 
d="M125 -240c0 -6 -5 -10 -10 -10h-2c-37 8 -75 13 -113 13s-76 -5 -113 -13h-2c-5 0 -10 4 -10 10c0 3 2 6 4 8c47 38 111 172 111 232c0 7 5 10 10 10s10 -3 10 -10c0 -60 64 -194 111 -232c2 -2 4 -5 4 -8z" />
    <glyph glyph-name="arrowheads.close.1M1" unicode="&#xe130;" horiz-adv-x="113" 
d="M-125 240c0 6 5 10 10 10h2c37 -8 75 -13 113 -13s76 5 113 13h2c5 0 10 -4 10 -10c0 -3 -2 -6 -4 -8c-47 -38 -111 -172 -111 -232c0 -7 -5 -10 -10 -10s-10 3 -10 10c0 60 -64 194 -111 232c-2 2 -4 5 -4 8z" />
    <glyph glyph-name="dots.dot" unicode="&#xe131;" horiz-adv-x="112" 
d="M36 -68c-41 0 -59 0 -59 19c0 13 7 34 22 63c15 30 27 46 36 49c4 1 19 2 45 2c38 0 56 0 56 -23c0 -13 -6 -33 -18 -60c-11 -25 -22 -40 -32 -46c-5 -3 -21 -4 -50 -4z" />
    <glyph glyph-name="scripts.ufermata" unicode="&#xe132;" horiz-adv-x="200" 
d="M-32 204c4 5 9 7 15 7c23 0 31 -24 26 -71c-3 -23 -7 -40 -12 -50s-13 -14 -23 -12s-17 6 -20 11s-4 16 -3 33c0 43 6 70 17 82zM5 688c9 2 22 3 40 2s31 -2 39 -5c55 -20 89 -81 102 -183c7 -58 9 -111 5 -160c-5 -59 -16 -123 -33 -192s-34 -116 -51 -141
c-8 -13 -15 -14 -21 -4c-3 5 -4 15 -4 32c0 26 8 69 24 128c19 71 28 117 27 137l-1 10h-9c-6 0 -21 -4 -44 -12c-77 -25 -143 -37 -197 -37c-9 0 -15 -1 -17 -2s-2 -6 -2 -14c0 -20 9 -54 27 -102l12 -33v-46c0 -31 -1 -49 -4 -54s-7 -9 -11 -9s-7 1 -9 2
c-9 5 -21 33 -36 85s-27 103 -34 151c-17 119 -6 218 31 295c41 85 96 136 166 152z" />
    <glyph glyph-name="scripts.dfermata" unicode="&#xe133;" horiz-adv-x="200" 
d="M-38 -85c3 2 9 3 16 3c11 0 19 -6 24 -18c5 -10 7 -27 8 -51s1 -40 -2 -48c-3 -7 -7 -11 -15 -13s-15 -2 -21 1c-14 9 -20 38 -20 87c-1 22 2 35 10 39zM90 -5l6 6c11 0 27 -34 48 -103c24 -77 41 -155 48 -235c3 -36 3 -77 0 -124c-10 -141 -53 -219 -126 -232
c-29 -5 -57 -2 -88 10c-42 15 -80 47 -112 96s-53 103 -62 164c-8 52 -5 117 8 195c17 99 35 169 58 210c7 13 16 16 24 7c7 -7 9 -29 8 -66v-37l-14 -40c-9 -27 -16 -45 -18 -54c-5 -23 -7 -40 -6 -51l2 -6l22 -1c61 -3 121 -14 182 -33c21 -7 37 -11 46 -14l16 -4l2 5
c3 7 0 26 -6 57c-4 20 -11 51 -22 93c-24 88 -29 140 -16 157z" />
    <glyph glyph-name="scripts.ushortfermata" unicode="&#xe134;" horiz-adv-x="250" 
d="M-9 86l21 14l1 1c0 0 1 -1 2 -1l12 -8c1 0 0 1 1 0c9 -7 12 -18 7 -28l-3 -6l-10 -19c-9 -16 5 -2 -11 -16l-19 -17c-1 -1 -2 -2 -7 -4l-30 -12c-3 -1 -6 -2 -9 -1l-11 2c-1 0 0 1 -1 1h-2c-3 1 -28 6 -22 42c3 18 0 6 4 12l16 24c10 14 3 3 9 8l19 16l2 2l20 16l22 14
l12 -8l-10 -19c-1 -2 -2 -4 -4 -5c-1 -1 0 1 -1 0zM-271 -22l-11 2l16 24l245 286l20 16l22 14l12 -8l269 -280l-10 -19l-19 -17l-30 -12l-11 2l-253 264l-201 -243l-19 -17z" />
    <glyph glyph-name="scripts.dshortfermata" unicode="&#xe135;" horiz-adv-x="250" 
d="M-231 0c8 6 12 12 22 14c6 1 12 -8 12 -8c75 -92 143 -189 248 -263c54 80 116 149 174 223c0 0 12 10 20 16s12 12 22 14c6 1 12 -2 12 -8c1 -8 -10 -19 -10 -19c-91 -115 -171 -207 -228 -310c0 0 -10 -12 -19 -17c-11 -6 -18 -9 -30 -12c-4 -1 -11 2 -11 2
c-123 101 -202 201 -284 302c0 0 8 16 16 24c7 7 12 10 20 16c6 5 11 6 17 11c8 5 11 10 19 15zM57 -25c1 -5 13 8 13 8c1 1 5 2 7 1c1 0 2 -1 3 -2c0 0 8 -5 12 -8h1c8 -6 11 -18 7 -26c0 0 -6 -12 -10 -19l-1 -1v-1s5 1 -13 -15c0 0 -11 -10 -19 -17v-1c-4 -3 0 -1 -11 -6
c0 0 -19 -8 -30 -12l-1 -1c-6 -2 -11 -2 -18 -1c0 0 -7 1 -11 2h-1c-9 2 -33 7 -28 40c2 15 -1 4 3 10l16 24c6 9 1 1 5 5c0 0 12 9 20 16h1l2 2c8 5 13 8 22 14h1c6 4 13 6 21 10c0 0 3 6 7 5c5 -1 11 -3 12 -8c0 -8 -13 -11 -10 -19z" />
    <glyph glyph-name="scripts.ulongfermata" unicode="&#xe136;" horiz-adv-x="313" 
d="M-270 -22l-30 -12l-11 2c-22 113 -39 227 -32 340l16 24l20 16l22 14c215 28 427 41 632 28l12 -8c-6 -121 -18 -241 -30 -362l-10 -19l-19 -17l-30 -12l-11 2c9 93 19 185 25 278l-2 -2l-30 -12c-160 14 -338 2 -523 -18c5 -69 17 -137 30 -206l-10 -19zM23 111l18 11
s4 3 8 0c1 0 1 -1 2 -2l12 -8c15 -10 22 -29 14 -46c-1 -1 -1 -2 -2 -3l-10 -19c-6 -11 6 0 -11 -15l-19 -17c-3 -3 0 -3 -13 -8l-30 -12c-7 -3 -14 -3 -22 -2l-11 2h-1h-1c-12 3 -36 8 -34 46c0 17 1 8 4 12l16 24c8 12 0 2 6 7l20 16c4 3 7 4 13 8l13 11l22 14l12 -8z" />
    <glyph glyph-name="scripts.dlongfermata" unicode="&#xe137;" horiz-adv-x="313" 
d="M11 -27l5 4l1 1s0 -1 1 0l22 14c4 3 -3 3 7 2c6 0 -2 4 10 -4l12 -8c1 -1 0 1 1 0c9 -6 13 -18 9 -28c-1 -1 -1 -3 -2 -4l-10 -19c-8 -15 5 -2 -15 -20l-19 -17l-1 -1c-6 -5 1 -2 -15 -9l-30 -12h-1c-6 -2 -12 -4 -20 -4h-5l-11 2c-1 0 1 1 0 1c-7 1 -23 2 -27 37
c-1 16 0 8 3 12l16 24c9 14 -1 1 10 10l4 3c9 8 -2 -5 9 9l20 16l22 14l12 -8zM-291 0l22 14l12 -8c-12 -76 -16 -155 -14 -237l18 11c175 -6 349 0 524 5c-7 61 -17 122 -22 183l16 24l20 16l22 14l12 -8c10 -113 35 -227 29 -340l-10 -19l-19 -17l-30 -12
c-200 -17 -402 -26 -613 0l-11 2c-10 116 -9 227 8 332l16 24z" />
    <glyph glyph-name="scripts.uverylongfermata" unicode="&#xe138;" horiz-adv-x="375" 
d="M23 95l12 8c1 1 0 -1 1 0c2 1 -3 2 5 1c3 0 -2 3 4 -1l12 -8c5 -3 6 -11 4 -17c-2 -8 -5 -16 -8 -23l-10 -19c0 -1 -1 0 -1 -1c-4 -8 5 2 -5 -7l-19 -17l-1 -1c0 0 0 -1 -5 -3l-30 -12c-2 -1 -4 -1 -6 -1h-4l-11 2s-16 1 -20 34c-1 16 2 10 3 12l16 24c1 1 -1 0 0 1
c3 5 9 8 13 13l2 4l20 16l22 14l12 -8zM-344 -6l-30 -12l-11 2c-22 118 -31 241 -10 354l16 24l20 16l22 14c242 36 479 32 716 26l12 -8c3 -127 16 -255 0 -382l-10 -19l-19 -17l-30 -12l-11 2c13 97 7 195 3 292l-4 -4l-34 2c-191 23 -414 -1 -623 -19
c-1 -74 8 -150 22 -223l-10 -19zM-226 -10l-30 -12l-11 2c-14 63 -34 125 -16 188l16 24l20 16l22 14c160 19 325 27 496 24l12 -8c5 -68 11 -136 -14 -198l-10 -19l-19 -17l-30 -12l-11 2c25 62 19 129 14 196c-147 2 -292 -4 -433 -18c-2 -48 12 -97 23 -146l-10 -19z" />
    <glyph glyph-name="scripts.dverylongfermata" unicode="&#xe139;" horiz-adv-x="375" 
d="M-4 -42l12 9l22 14c1 0 -2 1 3 1c11 1 3 5 14 -3l12 -8c3 -2 5 -5 4 -9c-2 -7 -4 -16 -7 -22l-10 -19c0 -1 -1 1 -1 0c-4 -8 4 1 -6 -9l-19 -17c-2 -2 2 -1 -6 -4l-30 -12c-2 -1 -5 -1 -8 -1c-2 0 -4 1 -6 1l-11 2c-11 2 -27 2 -30 35c-2 15 2 11 3 12l16 24
c8 12 0 2 6 7l18 14l1 1l20 16l22 14l12 -8l-10 -19l-4 -4zM-347 4c8 6 12 12 22 14c6 1 12 -8 12 -8c-16 -99 -14 -194 -14 -289l10 7c215 -11 431 -24 646 6c-1 75 -2 150 -14 228c0 0 8 16 16 24c7 7 12 10 20 16s12 12 22 14c6 1 12 -8 12 -8c19 -128 12 -247 16 -370
c0 0 -5 -12 -10 -19c-6 -8 -10 -12 -19 -17c-11 -6 -30 -12 -30 -12c-243 -27 -487 -23 -730 -16l-11 2c5 129 -5 254 16 388c0 0 8 16 16 24c7 7 12 10 20 16zM-211 4c8 6 12 12 22 14c6 1 12 -8 12 -8c-10 -55 -27 -112 -23 -166c129 -4 264 -17 387 1c2 35 -5 72 -16 111
c0 0 8 16 16 24c7 7 12 10 20 16s12 12 22 14c6 1 12 -8 12 -8c16 -56 24 -110 8 -156c0 0 -5 -12 -10 -19c-6 -8 -10 -12 -19 -17c-11 -6 -30 -12 -30 -12c-149 -31 -299 -14 -448 -10l-11 2c-6 58 11 116 22 174c0 0 8 16 16 24c7 7 12 10 20 16z" />
    <glyph glyph-name="scripts.thumb" unicode="&#xe13a;" horiz-adv-x="100" 
d="M-12 98c-7 0 -17 -7 -17 -7c-2 -1 -3 -1 -3 -1c-1 0 -1 -2 -3 -3c-17 -19 -10 -13 -12 -16c-6 -15 -9 -28 -8 -43c2 -41 17 -84 44 -106c6 -3 9 -6 12 -7c0 0 9 10 17 11c6 1 12 -8 12 -8c0 -1 1 -3 1 -4c9 25 12 53 14 80c4 65 -33 90 -61 98c0 0 7 6 4 6zM26 136
c6 3 16 10 16 10c9 -2 18 -6 25 -11c0 0 7 -5 12 -8c27 -18 38 -52 36 -87c-2 -33 -7 -69 -21 -95c0 0 -6 -12 -10 -19v-1c-8 -15 4 -4 -17 -22l-19 -17c-5 -5 -11 -3 -13 -9c-4 -14 0 -25 0 -37c0 0 -5 -12 -10 -19c-6 -8 -10 -12 -19 -17c-11 -6 -18 -9 -30 -12
c-4 -1 -11 2 -11 2c1 22 1 43 -2 65h-2l-11 2c-32 6 -71 45 -75 121c-2 41 13 56 18 64c0 0 10 14 16 24h1c19 28 18 21 25 27l20 16c3 2 6 5 9 7c0 0 13 8 22 14h1c24 15 3 7 28 12c0 0 8 -4 12 -8c1 -1 -2 -3 -1 -2z" />
    <glyph glyph-name="scripts.sforzato" unicode="&#xe13b;" horiz-adv-x="224" 
d="M-130 118c9 2 21 0 38 -7s55 -18 112 -31c88 -21 135 -34 142 -42s-3 -20 -29 -37c-22 -15 -74 -39 -157 -72c-71 -28 -115 -47 -132 -57l-13 -8l-12 6c-17 8 -25 16 -25 24c0 21 48 47 145 79c23 7 35 12 35 13s-25 8 -76 19c-71 16 -112 29 -121 40c-7 8 4 22 33 41
c26 18 46 29 60 32z" />
    <glyph glyph-name="scripts.espr" unicode="&#xe13c;" horiz-adv-x="474" 
d="M138 122c5 1 9 2 13 1c10 -2 23 -7 38 -14c5 -3 -21 -5 -8 -8c97 -22 237 -36 257 -42c19 -6 31 -12 35 -17s3 -12 -6 -21c-19 -18 -78 -47 -178 -87c-71 -29 -162 -48 -179 -58l-12 -8l-11 5c-18 8 -27 16 -27 25c0 21 49 47 146 79c23 7 96 22 95 23c0 1 -85 -3 -132 8
c-79 17 -121 31 -127 42c-3 5 2 14 15 25c31 26 58 42 81 47zM-111 129c7 4 15 3 26 -2c14 -7 21 -15 21 -23c0 -21 -52 -47 -149 -79c-23 -7 -89 -24 -90 -25c0 -1 29 5 71 -4c81 -17 177 -31 186 -42c7 -8 -7 -23 -42 -46c-25 -16 -44 -25 -57 -28c-8 -1 -73 2 -93 11
c-10 5 -37 12 -82 22c-97 23 -150 38 -159 45c-7 6 -6 14 5 25c18 17 77 46 177 86c73 29 169 49 186 60z" />
    <glyph glyph-name="scripts.staccato" unicode="&#xe13d;" horiz-adv-x="49" 
d="M8 63c4 1 19 2 45 2c31 0 48 -3 53 -10c7 -11 2 -35 -15 -73c-11 -25 -22 -40 -32 -46c-5 -3 -21 -4 -50 -4c-35 0 -54 3 -57 10c-5 11 1 35 20 72c15 30 27 46 36 49z" />
    <glyph glyph-name="scripts.ustaccatissimo" unicode="&#xe13e;" horiz-adv-x="50" 
d="M-17 247c8 6 12 12 22 14c6 1 12 -8 12 -8c1 -5 1 -10 2 -14c0 0 12 12 22 14c6 1 12 -8 12 -8c2 -77 -4 -151 -13 -225c0 0 -5 -12 -10 -19c-6 -8 -10 -12 -19 -17c-11 -6 -18 -9 -30 -12c-4 -1 -11 2 -11 2c-1 79 -6 154 -23 233c0 0 8 16 16 24c7 7 12 10 20 16z" />
    <glyph glyph-name="scripts.dstaccatissimo" unicode="&#xe13f;" horiz-adv-x="50" 
d="M-23 -243c-11 -6 -18 -9 -30 -12c-4 -1 -11 2 -11 2c16 76 21 151 29 227c0 0 8 16 16 24c7 7 12 10 20 16s12 12 22 14c6 1 12 -8 12 -8c13 -71 27 -143 34 -211c0 0 -5 -12 -10 -19c-6 -8 -10 -12 -19 -17c-11 -6 -18 -9 -30 -12c-4 -1 -11 2 -11 2c0 5 0 9 -1 14
c0 0 -1 -2 -2 -3c-7 -7 -10 -12 -19 -17z" />
    <glyph glyph-name="scripts.tenuto" unicode="&#xe140;" horiz-adv-x="150" 
d="M152 61c9 1 20 1 34 1s24 -2 28 -5c9 -7 6 -26 -11 -59c-12 -24 -24 -37 -37 -40c-39 -9 -106 -13 -201 -12c-64 0 -100 3 -109 10c-8 7 -7 19 2 37c15 31 28 49 37 54c3 1 26 2 71 3s85 3 120 6s57 4 66 5z" />
    <glyph glyph-name="scripts.uportato" unicode="&#xe141;" horiz-adv-x="150" 
d="M98 56c13 1 27 2 43 2s25 -2 28 -5s4 -8 3 -13c0 -7 -4 -21 -13 -42s-16 -34 -21 -38s-30 -9 -77 -13c-105 -9 -169 -9 -191 -2c-15 5 -21 13 -20 24c1 7 6 18 15 35s16 28 22 35l5 5h32c33 0 74 2 123 7c21 2 38 4 51 5zM4 173c3 2 15 3 35 3s32 -1 37 -2
c9 -3 11 -12 8 -25c-3 -11 -7 -24 -14 -38s-13 -24 -18 -27c-7 -5 -23 -7 -49 -8c-21 0 -34 3 -37 9c-2 3 -2 9 0 18c3 11 8 25 17 41s16 26 21 29z" />
    <glyph glyph-name="scripts.dportato" unicode="&#xe142;" horiz-adv-x="150" 
d="M-7 -93c4 1 17 1 38 1c28 0 44 -4 47 -12c2 -4 2 -9 0 -16c-4 -17 -13 -35 -26 -54c-6 -8 -12 -12 -18 -14s-20 -3 -43 -4c-27 -1 -42 1 -45 4c-7 6 -6 18 3 37c17 37 32 56 44 58zM152 54c9 0 20 1 34 1s24 -1 28 -4c9 -7 6 -26 -11 -59c-12 -24 -24 -37 -37 -40
c-39 -9 -106 -13 -201 -13c-64 0 -100 4 -109 11c-8 7 -7 19 2 37c15 31 28 48 37 53c3 1 26 3 71 4s85 3 120 6s57 4 66 4z" />
    <glyph glyph-name="scripts.umarcato" unicode="&#xe143;" horiz-adv-x="125" 
d="M33 342c10 5 17 6 20 2c1 -2 4 -10 7 -23c17 -61 29 -101 38 -120c10 -21 25 -46 45 -75c11 -15 16 -25 16 -28c0 -7 -6 -22 -17 -43s-20 -36 -29 -45c-11 -11 -24 -8 -39 9c-23 26 -44 69 -63 130c-5 14 -7 21 -8 21s-9 -15 -25 -46c-33 -64 -54 -102 -63 -115
c-5 -6 -10 -9 -15 -9c-10 1 -17 5 -22 13c-3 6 -4 13 -1 20s11 25 26 53c19 37 34 64 43 82c10 19 18 36 24 51c27 65 43 101 49 110c4 6 9 10 14 13z" />
    <glyph glyph-name="scripts.dmarcato" unicode="&#xe144;" horiz-adv-x="125" 
d="M122 -4c3 4 8 5 13 4c10 -1 17 -6 20 -13s3 -14 0 -23s-16 -34 -38 -77c-28 -54 -50 -99 -65 -136c-19 -45 -30 -71 -35 -77c-5 -8 -12 -14 -19 -18s-13 -3 -16 0c-2 2 -5 10 -8 25c-16 61 -29 102 -40 122c-9 19 -23 42 -42 70c-12 17 -18 29 -17 34c1 9 9 24 22 47
s23 37 28 40c7 5 16 3 26 -4s22 -24 36 -51s26 -56 35 -85c4 -13 7 -21 8 -23c0 -1 2 1 5 7l12 24s11 20 17 32c30 59 49 93 58 102z" />
    <glyph glyph-name="scripts.open" unicode="&#xe145;" horiz-adv-x="100" 
d="M16 138c5 1 10 6 10 6c15 5 13 6 35 -9l12 -8c23 -16 45 -47 47 -81s-2 -70 -16 -97l-10 -19c-8 -15 4 -5 -18 -24l-19 -17c-6 -6 -1 -5 -22 -13l-30 -12h-1c-4 -2 -8 -3 -12 -4c-9 -2 -18 -3 -27 -1l-11 2c-1 0 0 1 -1 1c-29 5 -70 34 -78 100c-6 45 12 75 16 80l16 24
c16 24 13 16 21 22l20 16c3 2 6 5 9 7l22 14c31 19 7 7 34 15c0 0 2 -3 3 -2zM-23 88c-3 0 -7 -2 -7 -2c-18 -9 -1 1 -12 -7c-2 -3 -4 -7 -6 -9c-7 -19 -10 -40 -7 -62c4 -33 22 -66 45 -85c26 -14 17 -14 49 -7c2 0 1 0 1 0c10 26 11 55 10 84c-4 61 -55 86 -63 89
c-3 0 -6 0 -8 -1c0 0 -1 1 -2 0z" />
    <glyph glyph-name="scripts.halfopen" unicode="&#xe146;" horiz-adv-x="100" 
d="M-22 85l-25 -10h-2c-2 -1 -2 -2 -2 -2c-2 -2 -6 -7 -7 -8c-7 -18 -9 -38 -5 -61c5 -19 10 -35 16 -48c28 31 56 66 84 100c-15 19 -35 24 -59 29zM1 130c7 5 18 12 18 12c11 -1 27 1 57 -19l10 -6l30 39c0 0 12 10 20 16s12 12 22 14c6 1 12 -2 12 -8
c1 -8 -10 -19 -10 -19c-17 -22 -33 -44 -50 -66c8 -13 14 -29 17 -49c9 -38 6 -67 -7 -91l-10 -19c-7 -14 0 -10 -26 -33l-19 -17c-9 -8 -16 -13 -32 -22l-30 -12c-15 -3 -31 -5 -45 -2l-11 2h-1c-12 2 -24 5 -37 16l-1 -1l-19 -17c-9 -8 -18 -15 -27 -23
c0 0 -18 -9 -30 -12c-4 -1 -12 -2 -11 2c2 11 16 24 16 24c16 13 34 31 54 51c-9 15 -17 37 -24 68c-9 49 13 76 15 79l16 24v1c16 23 14 16 20 21l20 16c3 2 5 4 8 6l22 14c22 14 5 8 32 12c0 0 0 -1 1 -1zM-30 -74c5 -6 9 -11 14 -15c23 -12 39 -5 63 -6c3 0 4 5 4 5
c11 24 15 52 6 88c-1 8 -2 15 -4 22c-26 -32 -54 -64 -83 -94z" />
    <glyph glyph-name="scripts.halfopenvertical" unicode="&#xe147;" horiz-adv-x="100" 
d="M-2 207c8 6 12 12 22 14c6 1 12 -8 12 -8c1 -24 2 -49 3 -73c15 1 14 2 37 -13l12 -8v-1c25 -17 35 -48 40 -85c6 -36 2 -63 -9 -84l-10 -19c-6 -11 0 -7 -21 -26l-19 -17c-10 -9 -3 -10 -38 -24c-1 -13 -3 -26 -4 -39c0 0 -5 -12 -10 -19c-6 -8 -10 -12 -19 -17
c-11 -6 -18 -9 -30 -12c-4 -1 -11 2 -11 2c3 26 4 51 6 77c-48 10 -82 32 -89 110c-3 46 13 68 15 72l16 24c14 21 12 14 17 18l20 16h1c2 2 4 4 7 6l18 11c-1 18 -1 37 -2 55c0 0 8 16 16 24c7 7 12 10 20 16zM-35 78c-1 0 -2 -1 -2 -1c-20 -9 -8 -4 -13 -7
c-2 -2 -2 -4 -3 -5c-6 -16 -8 -33 -7 -54c3 -29 11 -52 24 -70c2 46 2 91 1 137zM30 -92c3 0 7 -1 11 -2c3 -1 7 3 7 3c9 20 11 45 6 78c-4 28 -10 48 -18 62c-1 -47 -3 -94 -6 -141z" />
    <glyph glyph-name="scripts.stopped" unicode="&#xe148;" horiz-adv-x="136" 
d="M-4 149c8 6 12 12 22 14c6 1 12 -8 12 -8c8 -41 12 -84 13 -125c38 2 69 2 84 -2c0 0 12 -2 12 -8c1 -8 -5 -12 -10 -19c-6 -8 -10 -12 -19 -17c-11 -6 -18 -9 -30 -12c-4 -1 -11 2 -11 2c-4 1 -7 1 -11 2c-5 1 -11 2 -16 2c-2 -37 -6 -70 -12 -98c0 0 -5 -12 -10 -19
c-6 -8 -10 -12 -19 -17c-11 -6 -18 -9 -30 -12c-4 -1 -11 2 -11 2c9 39 14 90 13 144c-44 -4 -88 -13 -132 -18c0 0 -12 -2 -11 2c2 11 8 16 16 24c7 7 12 10 20 16s22 14 22 14c26 3 55 6 83 9c-2 28 -6 56 -11 84c0 0 8 16 16 24c7 7 12 10 20 16z" />
    <glyph glyph-name="scripts.upbow" unicode="&#xe149;" horiz-adv-x="162" 
d="M10 122c40 124 76 249 105 375c0 0 8 16 16 24c7 7 12 10 20 16s12 12 22 14c6 1 12 -8 12 -8c-41 -177 -93 -351 -156 -523c0 0 -5 -12 -10 -19c-6 -8 -10 -12 -19 -17c-11 -6 -18 -9 -30 -12c-4 -1 -11 2 -11 2c-24 162 -77 331 -146 509c0 0 8 16 16 24
c7 7 12 10 20 16s12 12 22 14c6 1 12 -8 12 -8c55 -143 99 -275 127 -407z" />
    <glyph glyph-name="scripts.downbow" unicode="&#xe14a;" horiz-adv-x="187" 
d="M-193 319l22 14l12 -8c-0.645004 -3.82501 -1.265 -7.67499 -1.86 -11.547l11.86 7.547c122 42 249 30 376 12l12 -8c10 -100 -2 -216 -17 -305l-10 -19l-19 -17l-30 -12l-11 2c15 89 27 203 17 304c-111.65 14.643 -225.812 25.098 -334.822 -3.89301
c-7.437 -76.115 -2.56 -159.617 30.822 -245.107l-10 -19l-19 -17l-30 -12l-11 2c-41 105 -39 207 -24 296l16 24z" />
    <glyph glyph-name="scripts.reverseturn" unicode="&#xe14b;" horiz-adv-x="273" 
d="M-112 73l-30 -12l-11 2c-14 11 -12 14 -38 21c-6 1 -12 0 -17 -1c-1 -1 -1 -2 -2 -2c-17 -18 -12 -13 -19 -24c-23 -51 -25 -113 4 -139c15 -7 56 -3 86 11c44 21 80 41 108 59c42 27 75 52 112 76l1 1l22 14c27 17 57 34 95 50c31 13 78 18 96 6l12 -8
c33 -22 29 -80 4 -128l-10 -19c-11 -20 -9 -22 -35 -46l-19 -17c-12 -10 -7 -11 -33 -21l-30 -12c-15 -6 -32 -8 -50 -5l-11 2c-3 1 -7 1 -10 2l16 24l20 16l22 14c10 -3 56 1 60 3c2 2 5 5 8 9c25 45 29 126 -17 139c-13 1 -30 -1 -49 -7c-140 -63 -144 -108 -329 -196
c-5 -2 -9 -4 -14 -6l-30 -12c-24 -10 -44 -12 -59 -9l-11 2c-60 11 -51 121 -14 177l16 24c14 22 24 28 28 31l20 16c3 2 5 4 8 6l22 14c21 13 48 21 84 -3l12 -8c1 -1 0 1 1 0c3 -2 7 -5 10 -8l-10 -19z" />
    <glyph glyph-name="scripts.turn" unicode="&#xe14c;" horiz-adv-x="273" 
d="M-115 -98l-19 -17l-30 -12c-12 0 -23 1 -33 3h-1l-11 2c-106 20 -107 123 -81 163l1 1l16 24c10 14 16 18 16 18l20 16c2 1 4 3 6 4l22 14c12 8 36 10 46 7c49 -14 88 -34 123 -57l12 -8c41 -28 78 -59 118 -87c34 -22 71 -41 117 -54c14 -4 1 -3 19 -3
c17 72 -30 139 -69 149c-11 1 -25 0 -39 -4l-11 2l16 24l20 16l22 14c42 13 48 9 73 -8l12 -8c48 -32 61 -116 37 -162l-10 -19c-5 -10 0 -5 -14 -18l-19 -17c-5 -4 0 -3 -14 -9l-30 -12h-1c-9 -4 -20 -5 -32 -3l-11 2c-2 0 -4 1 -7 2c-182 51 -187 155 -370 206h-7
c0 -1 -1 -1 -1 -2c-15 -38 -10 -89 31 -120c39 -23 38 -19 81 -20l12 -8z" />
    <glyph glyph-name="scripts.trill" unicode="&#xe14d;" horiz-adv-x="212" 
d="M163 313c4 1 8 1 13 1c11 0 29 -4 53 -12c13 -5 20 -14 22 -29c3 -21 -5 -45 -25 -74l-8 -13l-6 3c-4 2 -9 4 -16 7c-24 11 -43 12 -58 5c-21 -11 -36 -67 -44 -170l-3 -30h-18l-17 -1l1 12c21 191 32 290 34 297l9 -20c6 -15 9 -23 10 -23s3 4 7 11c11 19 27 31 46 36z
M-88 405l9 47c8 -11 13 -23 15 -37c1 -5 0 -15 -1 -32s-3 -27 -4 -31l21 -4h25h47v-17c0 -26 -5 -55 -16 -86l-3 -8h-45l-45 -1l-6 -37c-4 -25 -6 -40 -5 -45c4 -17 15 -28 34 -33s49 -7 92 -4l27 2l-2 -26c-1 -27 -5 -54 -11 -81l-3 -11h-69c-39 0 -63 1 -72 2
s-16 5 -23 12c-11 11 -15 27 -14 48c3 44 12 100 26 168l2 5h-34c-22 0 -33 1 -34 4c-4 14 -4 32 -1 54c2 17 7 32 15 44l6 10h30c21 0 31 2 32 4s3 20 7 53z" />
    <glyph glyph-name="scripts.upedalheel" unicode="&#xe14e;" horiz-adv-x="125" 
d="M-111 167l22 14l12 -8s-36 -119 -6 -184c14 -30 33 -56 55 -73c38 -23 34 -17 67 -17c13 0 27 3 36 6c1 1 1 2 1 2c6 12 10 23 14 36c21 77 -27 202 -27 202l16 24l20 16l22 14l12 -8s48 -125 27 -202c-3 -13 -8 -25 -14 -36l-10 -19c-11 -21 0 -12 -28 -37l-19 -17
c-10 -9 -4 -8 -30 -18l-30 -12c-11 -4 -23 -7 -37 -7c-9 0 -18 1 -26 2l-11 2h-1c-50 9 -76 28 -107 96c-30 65 6 184 6 184l16 24z" />
    <glyph glyph-name="scripts.dpedalheel" unicode="&#xe14f;" horiz-adv-x="125" 
d="M-104 -169l-30 -12l-11 2s-45 146 -6 224c5 11 -4 -6 8 13c1 1 -1 0 0 1l16 24c17 25 18 21 22 24l20 16c3 2 6 5 9 7c1 1 0 -1 1 0l22 14c19 12 49 27 110 17c0 0 18 1 45 -17c1 -1 0 1 1 0l12 -8c27 -18 44 -48 54 -85c20 -71 -20 -188 -20 -188l-10 -19l-19 -17
l-30 -12l-11 2s40 117 20 188s-49 90 -92 100c-25 4 -50 4 -73 -2c-12 -7 3 2 -8 -5c-14 -16 -7 -9 -10 -14c-33 -79 9 -217 9 -217l-10 -19z" />
    <glyph glyph-name="scripts.upedaltoe" unicode="&#xe150;" horiz-adv-x="125" 
d="M-107 345l22 14l12 -8c33 -77 60 -163 80 -233c23 65 45 130 60 197l16 24l20 16l22 14l12 -8c-25 -112 -67 -218 -108 -324l-10 -19l-19 -17l-30 -12l-11 2c-27 105 -57 209 -102 314l16 24z" />
    <glyph glyph-name="scripts.dpedaltoe" unicode="&#xe151;" horiz-adv-x="125" 
d="M-106 -382l-30 -12l-11 2c56 114 85 234 100 358l16 24l20 16l22 14l12 -8c59 -115 106 -227 137 -336l-10 -19l-19 -17l-30 -12l-11 2c-22 79 -53 159 -91 242c-17 -74 -42 -148 -76 -218l-10 -19z" />
    <glyph glyph-name="scripts.flageolet" unicode="&#xe152;" horiz-adv-x="133" 
d="M17 118l2 2l22 14c30 3 24 7 55 -13l12 -8l1 -1c25 -17 41 -48 40 -80c-1 -25 -7 -49 -18 -69l-10 -19c-10 -19 1 -11 -26 -35l-19 -17l-1 -1c-10 -9 -3 -8 -33 -20l-30 -12c-8 -3 -17 -6 -26 -7c-12 -2 -23 -1 -34 1l-11 2c-39 7 -83 30 -90 97c-4 46 16 76 21 84l16 24
c19 29 15 19 24 26l20 16l9 6l22 14l1 1c22 14 9 13 47 15l12 -8zM-8 93l-28 -11c-5 0 -11 -1 -15 -2c-8 -5 3 3 -7 -4c-16 -18 -8 -10 -11 -15c-8 -20 -12 -41 -10 -63c3 -32 20 -60 43 -77c35 -20 30 -19 69 -13c28 4 27 7 27 7l2 2c10 20 16 44 17 69c2 61 -41 86 -66 92
c-6 1 -13 1 -19 0l-11 2z" />
    <glyph glyph-name="scripts.segno" unicode="&#xe153;" horiz-adv-x="250" 
d="M-256 -63c3 1 13 1 30 2c23 0 36 -4 39 -11c3 -6 1 -17 -5 -34s-13 -30 -21 -38s-25 -12 -48 -11c-17 1 -28 3 -32 8s-4 14 1 27c13 36 25 55 36 57zM211 201c3 1 14 1 31 1s27 0 32 -2s7 -8 7 -16c0 -12 -5 -27 -14 -46c-9 -16 -18 -25 -29 -28c-3 -1 -16 -1 -37 -2
l-32 -2v11c0 7 2 17 7 29c11 35 23 53 35 55zM229 457c6 4 13 6 21 5c21 -2 32 -13 33 -32l1 -13l-42 -62c-47 -70 -91 -142 -133 -216c-19 -33 -27 -50 -27 -51s6 -2 18 -5c61 -15 106 -50 134 -106c11 -21 19 -49 26 -83c3 -17 5 -41 5 -72s-1 -51 -4 -61
c-7 -25 -18 -43 -35 -55s-41 -20 -74 -23c-13 -1 -47 -2 -103 -2h-83l-2 7c-8 23 -13 48 -14 75s4 52 15 75c14 29 31 45 52 48c9 1 21 -6 37 -22c11 -11 19 -17 25 -19s16 -3 32 -3c50 0 70 9 60 28c-3 4 -7 9 -12 14c-16 14 -39 26 -68 35c-17 5 -41 8 -74 8h-25l-49 -98
c-70 -140 -118 -223 -143 -249c-9 -10 -18 -13 -27 -8c-7 5 -11 15 -10 31c1 34 20 90 57 167c45 92 72 144 82 157c2 3 0 5 -6 6c-1 1 -3 1 -6 2c-27 7 -48 22 -63 45c-13 21 -25 55 -34 103c-9 45 -8 85 2 120c18 62 63 111 135 148c26 13 45 20 57 19s24 -10 36 -27
c17 -23 28 -45 32 -64c1 -7 2 -19 1 -36l-1 -24h-11c-19 0 -40 -5 -65 -15s-44 -23 -59 -36c-15 -14 -24 -29 -27 -46c-2 -12 1 -20 9 -25c5 -3 20 -4 47 -4h40l5 7c3 5 13 22 28 50c103 181 172 284 207 307zM-365 660c0 1 117 1 352 1s352 -1 353 -3
c21 -55 43 -121 66 -199c53 -186 87 -381 100 -585c7 -101 6 -212 -2 -333c-5 -77 -9 -125 -12 -144l-1 -6h-435h-436l-8 6c-40 31 -67 135 -82 312c-7 80 -7 168 -2 263c11 194 42 404 94 630c9 37 13 57 13 58zM321 461l-11 28h-327c-219 0 -328 -1 -329 -3
c-4 -13 -14 -92 -31 -237c-43 -363 -37 -588 18 -674l7 -10h404h403v39c0 229 -25 452 -76 668c-16 69 -35 132 -58 189z" />
    <glyph glyph-name="scripts.varsegno" unicode="&#xe154;" horiz-adv-x="250" 
d="M-256 -63c3 1 13 1 30 2c23 0 36 -4 39 -11c3 -6 1 -17 -5 -34s-13 -30 -21 -38s-25 -12 -48 -11c-17 1 -28 3 -32 8s-4 14 1 27c13 36 25 55 36 57zM211 201c3 1 14 1 31 1s27 0 32 -2s7 -8 7 -16c0 -12 -5 -27 -14 -46c-9 -16 -18 -25 -29 -28c-3 -1 -16 -1 -37 -2
l-32 -2v11c0 7 2 17 7 29c11 35 23 53 35 55zM229 457c6 4 13 6 21 5c21 -2 32 -13 33 -32l1 -13l-42 -62c-47 -70 -91 -142 -133 -216c-19 -33 -27 -50 -27 -51s6 -2 18 -5c61 -15 106 -50 134 -106c11 -21 19 -49 26 -83c3 -17 5 -41 5 -72s-1 -51 -4 -61
c-7 -25 -18 -43 -35 -55s-41 -20 -74 -23c-13 -1 -47 -2 -103 -2h-83l-2 7c-8 23 -13 48 -14 75s4 52 15 75c14 29 31 45 52 48c9 1 21 -6 37 -22c11 -11 19 -17 25 -19s16 -3 32 -3c50 0 70 9 60 28c-3 4 -7 9 -12 14c-16 14 -39 26 -68 35c-17 5 -41 8 -74 8h-25l-49 -98
c-70 -140 -118 -223 -143 -249c-9 -10 -18 -13 -27 -8c-7 5 -11 15 -10 31c1 34 20 90 57 167c45 92 72 144 82 157c2 3 0 5 -6 6c-1 1 -3 1 -6 2c-27 7 -48 22 -63 45c-13 21 -25 55 -34 103c-9 45 -8 85 2 120c18 62 63 111 135 148c26 13 45 20 57 19s24 -10 36 -27
c17 -23 28 -45 32 -64c1 -7 2 -19 1 -36l-1 -24h-11c-19 0 -40 -5 -65 -15s-44 -23 -59 -36c-15 -14 -24 -29 -27 -46c-2 -12 1 -20 9 -25c5 -3 20 -4 47 -4h40l5 7c3 5 13 22 28 50c103 181 172 284 207 307z" />
    <glyph glyph-name="scripts.coda" unicode="&#xe155;" horiz-adv-x="254" 
d="M-30 437c6 2 12 4 19 4s10 0 10 -3c0 -6 1 -32 4 -79s5 -70 5 -71s4 0 12 2c37 9 74 9 108 0s62 -27 84 -52c32 -37 50 -84 55 -139c1 -19 3 -29 3 -29s10 2 31 6s32 7 35 8s5 -1 8 -6c7 -11 13 -26 16 -45c1 -6 0 -9 -3 -10s-20 -4 -50 -10s-45 -8 -46 -9s-3 -4 -5 -10
c-20 -60 -53 -113 -99 -160c-37 -38 -74 -64 -111 -77c-7 -3 -10 -5 -10 -6s0 -18 2 -52s3 -65 4 -94l1 -42l-7 -3c-5 -1 -11 -2 -18 -2h-11l-1 29c-5 102 -8 154 -10 156c-1 1 -9 2 -26 3c-65 5 -119 26 -160 64c-32 29 -52 67 -60 116l-1 7l-44 -10l-45 -10l-6 6
c-4 4 -7 9 -11 17s-6 17 -6 27v16l56 9c37 6 56 10 57 13c7 34 16 64 28 90c41 87 100 148 175 183c10 5 16 7 16 7s-1 24 -4 72s-4 74 -4 77s3 5 9 7zM26 220c-7 3 -10 4 -12 3s-3 -4 -3 -11s1 -38 4 -94s5 -84 5 -84s4 0 11 2s15 4 26 5l15 1l-1 21c-2 44 -5 74 -8 91
c-7 36 -20 58 -37 66zM-28 211c-1 6 -7 4 -16 -6c-11 -11 -19 -29 -25 -54c-3 -11 -3 -35 -3 -71s0 -54 1 -55s10 -1 27 1s25 3 26 4s0 23 -3 68s-4 74 -5 88s-1 22 -2 25zM77 -66v44l-8 -1c-3 0 -12 -2 -25 -4s-20 -4 -20 -4s0 -14 2 -43s3 -55 4 -77s2 -33 3 -33
s5 4 14 11c13 11 21 24 25 37s5 37 5 70zM-15 -47l-1 15l-7 -1c-5 0 -13 -1 -25 -3l-18 -3v-37c1 -79 17 -119 46 -119c7 0 11 0 12 1s0 21 -2 62s-4 69 -5 85zM-333 629l8 15h352h351l1 -5c1 -3 5 -17 13 -44c63 -208 103 -411 118 -610c14 -183 8 -349 -17 -496
c-7 -43 -15 -79 -23 -110l-5 -18l-439 -1h-440l-6 6c-22 23 -39 81 -52 174c-16 116 -21 242 -17 380s18 263 42 375c24 113 56 211 95 294c7 15 11 23 11 24s3 6 8 16zM335 464c-1 2 -112 3 -335 4h-335l-3 -11c-11 -36 -21 -79 -31 -129c-25 -128 -38 -271 -40 -428
c-1 -134 5 -252 20 -353l2 -15h410h410l1 4c3 11 6 54 9 127c4 79 3 156 -3 233c-9 122 -32 261 -68 416c-21 89 -33 139 -37 152z" />
    <glyph glyph-name="scripts.varcoda" unicode="&#xe156;" horiz-adv-x="254" 
d="M-30 437c6 2 12 4 19 4s10 0 10 -3c0 -6 1 -32 4 -79s5 -70 5 -71s4 0 12 2c37 9 74 9 108 0s62 -27 84 -52c32 -37 50 -84 55 -139c1 -19 3 -29 3 -29s10 2 31 6s32 7 35 8s5 -1 8 -6c7 -11 13 -26 16 -45c1 -6 0 -9 -3 -10s-20 -4 -50 -10s-45 -8 -46 -9s-3 -4 -5 -10
c-20 -60 -53 -113 -99 -160c-37 -38 -74 -64 -111 -77c-7 -3 -10 -5 -10 -6s0 -18 2 -52s3 -65 4 -94l1 -42l-7 -3c-5 -1 -11 -2 -18 -2h-11l-1 29c-5 102 -8 154 -10 156c-1 1 -9 2 -26 3c-65 5 -119 26 -160 64c-32 29 -52 67 -60 116l-1 7l-44 -10l-45 -10l-6 6
c-4 4 -7 9 -11 17s-6 17 -6 27v16l56 9c37 6 56 10 57 13c7 34 16 64 28 90c41 87 100 148 175 183c10 5 16 7 16 7s-1 24 -4 72s-4 74 -4 77s3 5 9 7zM26 220c-7 3 -10 4 -12 3s-3 -4 -3 -11s1 -38 4 -94s5 -84 5 -84s4 0 11 2s15 4 26 5l15 1l-1 21c-2 44 -5 74 -8 91
c-7 36 -20 58 -37 66zM-28 211c-1 6 -7 4 -16 -6c-11 -11 -19 -29 -25 -54c-3 -11 -3 -35 -3 -71s0 -54 1 -55s10 -1 27 1s25 3 26 4s0 23 -3 68s-4 74 -5 88s-1 22 -2 25zM77 -66v44l-8 -1c-3 0 -12 -2 -25 -4s-20 -4 -20 -4s0 -14 2 -43s3 -55 4 -77s2 -33 3 -33
s5 4 14 11c13 11 21 24 25 37s5 37 5 70zM-15 -47l-1 15l-7 -1c-5 0 -13 -1 -25 -3l-18 -3v-37c1 -79 17 -119 46 -119c7 0 11 0 12 1s0 21 -2 62s-4 69 -5 85z" />
    <glyph glyph-name="scripts.rcomma" unicode="&#xe157;" horiz-adv-x="112" 
d="M15 133c7 7 12 10 20 16s22 14 22 14c8 -3 16 -7 23 -12l12 -8c41 -27 60 -79 19 -157l-10 -19c-18 -33 -29 -58 -104 -129c0 0 -10 -12 -19 -17c-11 -6 -18 -9 -30 -12c-4 -1 -12 -2 -11 2c2 11 16 24 16 24c33 32 58 59 78 87c54 89 23 166 -32 187c0 0 8 16 16 24z
" />
    <glyph glyph-name="scripts.lcomma" unicode="&#xe158;" horiz-adv-x="51" 
d="M-3 161c8 6 12 12 22 14c6 1 12 -2 12 -8c1 -8 -10 -19 -10 -19c-18 -28 -35 -56 -47 -78c-57 -112 -47 -166 -23 -188c15 -7 26 -9 46 -3c0 0 12 -2 12 -8c1 -8 -5 -12 -10 -19c-6 -8 -10 -12 -19 -17c-11 -6 -30 -12 -30 -12c-9 -3 -20 -4 -31 -2l-11 2
c-47 9 -85 86 53 298c0 0 8 16 16 24c7 7 12 10 20 16z" />
    <glyph glyph-name="scripts.rvarcomma" unicode="&#xe159;" horiz-adv-x="91" 
d="M83 215c8 6 12 12 22 14c6 1 12 -8 12 -8c-42 -134 -105 -258 -170 -381c0 0 -5 -12 -10 -19c-6 -8 -10 -12 -19 -17c-11 -6 -18 -9 -30 -12c-4 -1 -11 2 -11 2c65 123 128 247 170 381c0 0 8 16 16 24c7 7 12 10 20 16z" />
    <glyph glyph-name="scripts.lvarcomma" unicode="&#xe15a;" horiz-adv-x="62" 
d="M-112 -196l-11 2l16 24c3 4 7 10 8 12c60 94 98 185 152 318l16 24l20 16l22 14l12 -8c-33 -81 -65 -161 -105 -238l-10 -19c-31 -59 -52 -90 -71 -116l-19 -17z" />
    <glyph glyph-name="scripts.arpeggio" unicode="&#xe15b;" horiz-adv-x="212" 
d="M68 -1c-26 32 -70 106 -71 107c-7 16 9 40 50 54s57 40 53 53c-18 19 -16 18 -32 39c-20 26 -15 32 -15 44c0 7 2 12 6 15c23 -2 42 -12 79 -59c39 -48 74 -86 74 -105c1 -19 -12 -38 -31 -52c-6 -5 -22 -16 -51 -30c-19 -9 -28 -15 -28 -21c0 -9 14 -18 36 -45
s22 -37 22 -47c0 -3 0 -4 -1 -7c-4 -9 -13 -10 -24 -10c-15 0 -23 10 -67 64z" />
    <glyph glyph-name="scripts.trill_element" unicode="&#xe15c;" horiz-adv-x="294" 
d="M0 132c32 26 105 70 106 71c16 7 40 -9 54 -50s28 -62 40 -62c19 18 32 25 53 41c26 20 32 15 44 15c7 0 12 -2 15 -6c-2 -23 -12 -42 -59 -79c-48 -39 -94 -74 -113 -74c-19 -1 -45 6 -55 26c-4 7 -10 26 -19 56c-6 20 -11 30 -17 30c-2 0 -22 -16 -49 -38
s-37 -22 -47 -22c-3 0 -4 0 -7 1c-9 4 -10 13 -10 24c0 15 10 23 64 67z" />
    <glyph glyph-name="scripts.arpeggio.arrow.M1" unicode="&#xe15d;" horiz-adv-x="200" 
d="M302 210c10 -11 14 -19 20 -33c2 -5 0 -13 0 -13c-49 -77 -74 -160 -138 -200c0 0 -18 3 -28 9c-19 12 -44 36 -44 36c-54 62 -126 143 -172 192c0 0 -19 15 -24 28c-2 6 2 14 8 15c10 2 16 -3 24 -8c18 -11 44 -34 44 -34
c21.3555 -22.649 47.7354 -51.999 75.6182 -83.442c31.0205 101.953 12.249 122.858 -18.6182 161.442c0 0 -12 7 -13 15c-1 7 2 14 8 15c10 2 16 -3 24 -8c18 -11 44 -34 44 -34c13 -14 17.894 -21.065 27 -36l20 -33c9.492 -15.82 15.229 -31.64 17.214 -49.439
c18.263 32.392 35.771 67.917 57.786 102.439c0 0 16 -3 24 -8c18 -11 29 -18 44 -34z" />
    <glyph glyph-name="scripts.arpeggio.arrow.1" unicode="&#xe15e;" horiz-adv-x="200" 
d="M-94 46c-10 10 -19 15 -24 28c-2 6 8 15 8 15c49 77 74 160 138 200c0 0 16 -3 24 -8c18 -11 44 -34 44 -34c54 -62 126 -143 172 -192c0 0 14 -19 20 -33c2 -5 5 -12 0 -13c-11 -2 -18 3 -28 9c-19 12 -44 36 -44 36c-20.897 22.8564 -47.339 52.11 -75.147 83.026
c-0.166 -3.28 -0.852997 -6.026 -0.852997 -6.026c-11 -33 -17 -59 -18 -81c1 -15 4 -30 9 -42c21 -27 -3 3 17 -19c0 0 14 -19 20 -33c2 -5 5 -12 0 -13c-11 -2 -18 3 -28 9c-19 12 -44 36 -44 36c-2 3 -5 5 -7 8l-24 28c-19.5615 22.9844 -33.8613 39.5117 -39.04 63.6162
c-14.7032 -27.9473 -29.4785 -57.6348 -47.96 -86.6162c0 0 -18 3 -28 9c-19 12 -28 21 -44 36z" />
    <glyph glyph-name="scripts.trilelement" unicode="&#xe15f;" horiz-adv-x="104" 
d="M-178 35c56 32 147 66 148 67c15 0 32 -20 52 -61s39 -62 56 -62c26 18 69 40 98 56c-2 -23 0 -28 0 -70c-67 -39 -131 -74 -158 -74c-27 -1 -48 12 -62 32c-5 7 -14 26 -26 56c-8 20 -16 30 -24 30c-3 0 -46 -22 -84 -44v70z" />
    <glyph glyph-name="scripts.prall" unicode="&#xe160;" horiz-adv-x="303" 
d="M-237 -49c-6 0 -11 7 -11 8c0 2 5 10 14 25c20 29 50 60 90 92l26 20l18 -14c12 -9 27 -24 44 -43s27 -30 30 -30s18 10 44 31c27 21 44 34 52 38l12 6l36 -38c24 -25 39 -39 46 -42c3 -1 6 -1 9 -1c15 0 35 11 59 33c10 9 17 13 23 13c7 0 13 -7 13 -9
c0 -13 -19 -37 -56 -70c-23 -21 -48 -36 -71 -36c-10 0 -27 12 -51 36c-25 25 -39 38 -40 38s-11 -9 -28 -26c-27 -27 -54 -43 -82 -48h-1c-10 0 -27 13 -51 40l-36 42l-20 -16c-37 -32 -60 -49 -69 -49z" />
    <glyph glyph-name="scripts.mordent" unicode="&#xe161;" horiz-adv-x="231" 
d="M-290 -70l-11 2l16 24l112 96l20 16l22 14l12 -8c43 -38 79 -66 107 -105c6 4 11 7 16 11c-1 42 -7 87 -25 140l16 24l20 16l22 14l12 -8c17 -49 23 -91 25 -130c4 4 9 8 15 14l20 16l22 14l12 -8c27 -21 61 -52 84 -84l58 40l22 14l12 -8l-10 -19l-19 -17l-84 -58
l-30 -12l-11 2c-18 32 -48 59 -76 83l-8 -8c-2 -2 -5 -4 -7 -6c-2 -52 -11 -102 -15 -161l-10 -19l-19 -17l-30 -12l-11 2c4 56 13 104 15 154c-10 -7 -23 -14 -38 -24l-30 -12l-11 2c-27 41 -59 67 -100 103l-85 -73z" />
    <glyph glyph-name="scripts.prallprall" unicode="&#xe162;" horiz-adv-x="447" 
d="M-406 -42c-8 0 -17 7 -17 17c0 4 2 9 7 14c20 17 56 39 108 66c43 21 66 33 70 34c11 0 25 -16 42 -48c16 -28 29 -44 39 -47c2 -1 3 -1 5 -1c10 0 26 8 46 24c49 37 85 56 106 56c17 0 38 -15 62 -46l24 -30l12 6c39 25 73 46 104 62c8 4 15 6 19 6s6 -2 7 -4
c2 -5 18 -70 24 -70c4 0 10 4 20 12c23 16 70 38 100 43c3 0 6 1 8 1c8 0 12 -3 14 -8c0 -12 -21 -31 -62 -58c-61 -40 -106 -60 -134 -60c-20 0 -36 17 -36 34c0 5 -1 8 -3 8s-12 -5 -29 -16c-49 -29 -83 -44 -102 -44c-8 0 -21 9 -38 28c-24 24 -41 36 -52 36
c-5 0 -24 -7 -55 -22s-53 -23 -65 -26c-6 -1 -11 -2 -16 -2c-29 0 -52 19 -68 58c-8 20 -15 31 -21 31s-19 -6 -41 -19c-38 -23 -64 -35 -78 -35z" />
    <glyph glyph-name="scripts.prallmordent" unicode="&#xe163;" horiz-adv-x="340" 
d="M-397 -76l16 24l20 16c45 31 71 49 116 80l22 14l12 -8c18 -22 22 -48 47 -68c1 -1 2 -1 3 -2c28 6 2 -5 34 14c11 7 20 14 31 21l22 14c38 24 23 22 57 23l12 -8c23 -19 39 -35 57 -48c8 -5 14 -8 23 -12c7 1 13 2 17 3c-6 45 -16 98 -35 175l16 24l20 16l22 14l12 -8
c19 -79 30 -132 36 -178l17 11c10 6 22 13 37 19c6 0 -1 4 13 -5l12 -8c20 -14 36 -56 60 -80c37 24 63 40 105 67l22 14l12 -8l-10 -19l-19 -17c-50 -32 -78 -50 -128 -82l-30 -12l-11 2c-45 33 -72 90 -72 90c-1 -1 -3 -2 -5 -3c4 -50 2 -98 -1 -169l-10 -19l-19 -17
l-30 -12l-11 2c3 70 5 117 1 167c-2 -1 -3 -1 -4 -2l-30 -12c-9 -4 -21 -7 -34 -9l-11 2c-42 18 -34 20 -89 65h-3c-26 -15 -52 -40 -89 -55l-30 -12h-1c-5 -2 -9 -3 -13 -4l-11 2c-8 4 -31 29 -53 66c-26 -18 -51 -35 -84 -58l-30 -12z" />
    <glyph glyph-name="scripts.upprall" unicode="&#xe164;" horiz-adv-x="340" 
d="M-574 -294l-30 -12l-11 2c-8 128 27 201 40 221c1 1 0 -1 1 0l16 24c20 30 28 34 35 39l1 1l20 16c5 4 10 8 15 11l22 14c47 30 122 34 180 50c37 -16 57 -24 74 -35l1 -1l12 -8c20 -13 34 -30 65 -68c6 2 12 6 17 8c1 1 1 0 1 0s38 37 64 68l20 16l22 14l12 -8
c36 -40 46 -59 64 -99l116 77l22 14l12 -8l77 -84l141 88l12 -8l-10 -19l-19 -17l-144 -90l-30 -12l-11 2l-76 83l-113 -75l-30 -12l-11 2c-19 43 -27 61 -52 92c-4 -4 -12 -13 -18 -18l-19 -17c-24 -21 -23 -25 -65 -42l-30 -12c-1 0 -2 -1 -3 -1l-11 2
c-79 99 -50 72 -141 111c-32 -8 -81 -11 -126 -26c-29 -14 -13 -4 -33 -20c-21 -22 -17 -22 -24 -33c-20 -43 -31 -106 -26 -194l-10 -19z" />
    <glyph glyph-name="scripts.upmordent" unicode="&#xe165;" horiz-adv-x="338" 
d="M-331 -251l-19 -17l-30 -12c-23 -7 -44 -7 -64 -4h-1l-11 2c-90 16 -132 134 -81 210l16 24c15 23 27 32 35 38v1l20 16c5 4 12 8 18 12l22 14c39 25 82 45 191 47l12 -8c27 -33 35 -55 49 -93c30 17 61 27 89 41c4 4 7 8 10 12l20 16l22 14l12 -8c21 -28 34 -24 57 -65
l7 4c2 1 6 3 12 5c-8 55 -20 112 -36 170l16 24l20 16l22 14l12 -8c18 -66 32 -130 39 -191c6 2 10 3 11 3l2 4l10 14l20 16l22 14l12 -8c27 -37 42 -50 53 -73l15 12c6 5 13 10 19 14l22 14c27 17 52 25 77 39l12 -8l-10 -19l-19 -17c-46 -25 -73 -35 -95 -52
c-7 -7 -15 -16 -22 -25l-19 -17l-30 -12l-11 2c-11 36 -23 44 -47 75c-3 -3 -1 -4 -18 -12c6 -67 5 -130 -3 -187l-10 -19l-19 -17l-30 -12l-11 2c8 62 9 132 1 206c-10 -3 -19 -5 -29 -8c-7 -4 -11 -7 -15 -10l-2 -2l-30 -12l-11 2c-22 43 -35 48 -50 62
c-38 -28 -81 -36 -121 -62l-30 -12l-11 2c-18 47 -23 68 -52 104c-47 -1 -91 -9 -126 -21c-34 -16 -19 -7 -42 -25c-16 -16 -18 -23 -20 -26c-26 -60 -7 -129 41 -165c33 -19 54 -26 105 -11l12 -8z" />
    <glyph glyph-name="scripts.pralldown" unicode="&#xe166;" horiz-adv-x="392" 
d="M-379 74l22 14l12 -8l67 -87l125 83l22 14l12 -8l49 -86l91 76l20 16l22 14l12 -8l42 -94l126 92l22 14c31 2 50 0 97 -31l12 -8c90 -60 172 -198 201 -341l-10 -19l-19 -17l-30 -12l-11 2c-40 200 -171 348 -264 369c-2 0 -6 1 -10 1l-137 -100l-30 -12l-11 2l-40 90
l-103 -86l-30 -12l-11 2l-51 89l-116 -77l-30 -12l-11 2l-76 98l16 24z" />
    <glyph glyph-name="scripts.downprall" unicode="&#xe167;" horiz-adv-x="333" 
d="M-424 202l-30 -12l-11 2c-15 13 -7 12 -36 20c-8 1 -15 0 -21 -1c-7 -4 4 3 -10 -7c-27 -28 -18 -21 -29 -40c-16 -33 -24 -66 -22 -96c2 -37 17 -62 38 -79c48 -27 149 -10 194 11l108 72l22 14l12 -8l53 -74l145 80l12 -8l64 -78l134 78l12 -8l33 -65l157 59l12 -8
l-10 -19l-19 -17l-30 -12l-164 -62l-11 2l-33 65l-102 -59l-30 -12l-11 2l-65 79l-116 -63l-30 -12l-11 2l-52 72l-93 -62l-21 -9l-30 -12c-1 0 0 -1 -1 -1c-43 -17 -93 -25 -135 -17l-11 2c-46 8 -86 25 -91 101c-3 54 24 105 39 127l16 24l1 1c20 30 32 38 37 42l20 16
c4 3 7 5 11 7l22 14c1 1 -1 0 0 1c24 15 54 24 89 0l12 -8c4 -2 7 -5 11 -8l-10 -19z" />
    <glyph glyph-name="scripts.downmordent" unicode="&#xe168;" horiz-adv-x="333" 
d="M-411 249l-19 -17l-30 -12c-11 -1 -22 -3 -32 -6c-24 -12 -4 -1 -23 -15c-16 -17 -13 -17 -15 -20c-15 -35 -17 -77 1 -129c7 -21 21 -39 37 -51c39 -23 92 -16 122 -1l5 4s71 55 116 90l22 14l12 -8l45 -91l111 79l22 14l12 -8l68 -85l5 3c-6 61 -15 123 -33 186l16 24
l20 16l22 14l12 -8c18 -63 27 -125 33 -186l53 34l22 14l12 -8l23 -124l133 94l22 14l12 -8l-10 -19l-19 -17l-164 -116l-30 -12l-11 2l-23 125l-17 -11c5 -65 6 -129 10 -192l-10 -19l-19 -17l-30 -12l-11 2c-4 63 -5 128 -10 193l-29 -19l-30 -12l-11 2l-66 84l-107 -76
l-30 -12l-11 2l-44 88c-39 -30 -83 -64 -83 -64c-7 -6 -8 -10 -39 -23l-30 -12l-1 -1c-24 -9 -48 -11 -71 -7l-11 2h-1c-43 8 -68 20 -86 73c-27 80 1 137 11 151l16 24c17 26 22 25 29 31l20 16c4 3 8 7 13 10l22 14h1c31 19 27 21 74 26l12 -8z" />
    <glyph glyph-name="scripts.prallup" unicode="&#xe169;" horiz-adv-x="379" 
d="M-339 44l22 14l12 -8c20 -25 27 -30 36 -47c12 6 22 12 32 18c8 7 15 15 21 23l11 16l20 16l22 14c4 -2 9 -4 13 -7l12 -8c36 -24 54 -64 69 -91c31 26 43 32 84 86l20 16l22 14l12 -8c36 -37 35 -46 54 -81c46 24 100 46 162 73l12 -8c33 -49 33 -57 46 -82
c46 1 206 10 261 37l1 1c24 52 3 132 -108 258l16 24l20 16l22 14l12 -8c114 -130 133 -211 106 -262l-10 -19v-1c-6 -11 -3 -11 -22 -28l-19 -17c-12 -10 -12 -14 -50 -29l-30 -12c-1 0 0 -1 -1 -1c-89 -36 -222 -27 -253 -29l-11 2c-17 33 -14 36 -46 84
c-47 -20 -94 -40 -131 -60l-30 -12l-11 2c-21 37 -21 47 -41 71c-4 -4 -15 -13 -20 -17l-19 -17c-1 -1 1 0 0 -1c-46 -41 -18 -17 -69 -56l-30 -12l-11 2c-15 23 -30 65 -66 96l-16 -15l-1 -1c-19 -17 -21 -17 -78 -48l-30 -12l-11 2c-13 29 -18 29 -42 58l16 24z" />
    <glyph glyph-name="scripts.lineprall" unicode="&#xe16a;" horiz-adv-x="340" 
d="M-401 470l22 14l12 -8c6 -154 5 -311 -1 -464c29 14 75 37 109 58c6 4 10 7 14 10l22 14l12 -8c18 -36 21 -49 30 -83c42 25 94 46 147 78l1 1l22 14l12 -8c28 -39 40 -67 53 -103l22 15c9 6 21 13 29 18s16 10 23 15c2 2 7 3 31 33l20 16l22 14l12 -8
c42 -41 44 -66 59 -103l151 61l12 -8l-10 -19l-19 -17l-158 -64l-30 -12l-11 2c-17 39 -18 62 -48 97l-3 -3l-1 -1c-35 -31 -77 -51 -125 -85l-30 -12l-11 2c-15 40 -23 66 -50 105c-54 -31 -144 -76 -145 -77l-30 -12l-11 2c-11 39 -14 53 -28 83c-41 -25 -96 -53 -123 -65
l-30 -12l-11 2c7 159 8 319 2 478l16 24z" />
    <glyph glyph-name="scripts.caesura.curved" unicode="&#xe16b;" horiz-adv-x="500" 
d="M282 400c7 7 17 8 25 2s7 -26 7 -26c14 -80 14 -160 3 -237v-1l-8 -54c-6 -41 -56 -198 -76 -236c0 -1 -1 0 -1 -1l-18 -34c-15 -29 -32 -55 -50 -79c0 0 -14 -9 -22 -6c-9 3 -14 10 -14 19c-1 22 4 35 10 55c6 18 20 44 20 44c40 53 51 80 59 96c15 38 28 79 38 122
c11 75 11 157 -3 237c0 0 4 35 10 55c6 18 7 30 20 44zM119 369c7 7 17 8 25 2s7 -26 7 -26c11 -71 10 -137 1 -199v-1l-8 -54c-7 -48 -54 -189 -83 -243l-18 -34c-11 -20 -23 -41 -35 -61c0 0 -14 -9 -22 -6c-9 3 -14 10 -14 19c-1 22 4 34 10 54c6 18 20 45 20 45
c43 71 26 41 51 92c15 36 28 77 37 118c8 58 9 125 -1 195c0 0 4 34 10 54c6 18 7 31 20 45z" />
    <glyph glyph-name="scripts.caesura.straight" unicode="&#xe16c;" horiz-adv-x="500" 
d="M158 -249c-9 3 -14 10 -14 19c-1 22 4 34 10 54c6 18 11 28 20 45c99 194 150 307 257 497c5 9 17 8 25 2s7 -15 7 -26c0 -21 1 -35 -8 -54c-95 -197 -257 -497 -257 -497s-7 -23 -18 -34c-6 -6 -14 -9 -22 -6zM16 -259c-9 3 -14 10 -14 19c-1 22 4 34 10 54
c6 18 11 28 20 45c99 194 150 307 257 497c5 9 17 8 25 2s7 -15 7 -26c0 -21 1 -35 -8 -54c-95 -197 -257 -497 -257 -497s-7 -23 -18 -34c-6 -6 -14 -9 -22 -6z" />
    <glyph glyph-name="scripts.tickmark" unicode="&#xe16d;" horiz-adv-x="275" 
d="M-10 119c20 42 23 51 65 115l16 24c40 60 92 112 109 125l20 16c9 7 18 13 27 19l1 1l22 14c13 8 26 15 39 20l12 -8l-10 -19l-19 -17c-44 -18 -56 -30 -73 -45c-70 -67 -85 -97 -127 -175c-14 -28 -29 -59 -40 -87c-8 -21 -16 -41 -22 -60l-10 -19l-19 -17l-30 -12
l-11 2c17 73 -109 193 -146 204l16 24l20 16l22 14c10 -3 20 -8 30 -15c1 -1 0 1 1 0l12 -8c37 -25 73 -70 95 -112z" />
    <glyph glyph-name="scripts.snappizzicato" unicode="&#xe16e;" horiz-adv-x="133" 
d="M-8 219c8 6 12 12 22 14c6 1 12 -8 12 -8c6 -29 9 -59 11 -88l2 1c20 4 17 6 44 -12l12 -8c27 -18 50 -54 50 -90c0 -29 -7 -58 -19 -81l-10 -19c-8 -14 -2 -11 -25 -32l-19 -17c-9 -8 -1 -7 -25 -16l-30 -12c-8 -3 -17 -5 -27 -6c-9 -1 -18 -1 -27 1l-11 2h-1
c-42 8 -88 42 -96 117c-4 41 15 62 20 70l16 24c21 31 18 22 27 29l20 16c3 2 6 5 9 7l17 11c-2 19 -4 38 -8 57c0 0 8 16 16 24c7 7 12 10 20 16zM-33 82c-1 -1 -2 -1 -2 -1c-4 1 -10 0 -13 0c-2 -2 -4 -3 -5 -3c-19 -20 -11 -15 -14 -19c-7 -16 -10 -32 -8 -48
c4 -39 24 -74 52 -96c35 -20 26 -17 60 -14c7 1 17 -3 21 4c13 28 17 50 17 77c0 37 -18 64 -37 80c0 -20 -2 -40 -3 -60c0 0 -5 -12 -10 -19c-6 -8 -10 -12 -19 -17c-11 -6 -18 -9 -30 -12c-4 -1 -11 2 -11 2c3 42 4 84 2 126z" />
    <glyph glyph-name="clefs.C" unicode="&#xe16f;" horiz-adv-x="680" 
d="M216 -526c0 0 -2 -34 -8 -54c-4 -14 -7 -23 -18 -34c-6 -6 -14 -9 -22 -6c-9 3 -14 19 -14 19c12 318 30 790 -27 1125c0 0 4 34 10 54c6 18 7 31 20 45c7 7 17 8 25 2s7 -26 7 -26c13.945 -82.121 22.022 -343.77 25.883 -596.055
c1.78101 16.4576 3.987 27.1021 9.117 45.0555c6 18 20 44 20 44c15 14 38 38 56 71c0 0 -2 17 0 27c2 22 4 33 10 54c6 18 6 30 20 44c6 8 24 2 24 2c25 -46 11 -35 82 -92c21 -16 53 -24 88 -23c54 7 45 7 76 23c27 14 46 26 61 53c12 23 4 45 4 67c-5 67 6 57 -49 142
c-1 1 -1 2 -2 3c-42 53 -98 80 -170 75c-4 0 10 3 -29 -5c-25 -8 -53 -14 -67 -42c-7 -14 26 -18 36 -19c0 0 4 -16 6 -26c2 -14 4 -22 2 -36c-2 -22 -2 -34 -8 -54c-4 -14 -8 -24 -18 -34c-6 -6 -22 -6 -22 -6c-15 1 -36 15 -51 35l-14 19c-28 37 -16 22 -17 44l-1 37v10
l10 55l3 9v1l20 44c21 47 100 117 163 122l25 2h2c104 8 174 -78 186 -96c20 -31 32 -59 40 -88l7 -26c6 -24 9 -47 10 -72l1 -37c1 -30 -2 -61 -6 -97c0 -3 -1 -8 -1 -11v-1l-8 -54c-4 -24 6 11 -6 -30c-12 -42 -2 -10 -13 -32c0 -1 -1 0 -1 -1l-18 -34
c-14 -27 -37 -48 -69 -65c-14 -7 -28 -13 -43 -17l-22 -6c-39 -11 -92 -28 -145 15c-22 17 -26 37 -52 48c-9 4 -7 -14 -10 -22c-5 -12 7 10 -6 -15c0 -1 -1 0 -1 -1l-13 -25c3 -7 5 -13 8 -21c6 -16 11 -29 15 -42l7 -26c1 -2 2 -7 2 -8c16 17 34 29 58 40
c75 34 37 25 90 29h1l25 2c15 1 30 0 48 -3c71 -12 108 -68 108 -68c29 -42 50 -76 61 -116l7 -26c6 -22 8 -45 9 -72l2 -40c0 -19 -1 -36 -3 -52v-1l-8 -54c-0.937988 -6.25 -0.89801 -7.617 -0.737 -7.703c-0.534973 -1.33099 -2.125 -6.004 -6.263 -20.297
c-6.164 -19.914 -6.48297 -22.742 -6.5 -22.875c0 0.125 -6.5 2.375 -6.5 -10.125v-1l-18 -34c-9 -17 -22 -34 -38 -51c-31 -34 -62 -49 -99 -59h-1l-22 -6c-17 -5 -36 -8 -56 -13c-59 -13 -48 -27 -130 6c-20 8 -35 19 -46 33l-14 19c-23 31 -12 10 -14 38v5v1l-1 37
c-1 42 0 15 3 30l10 54c2 12 5 24 10 35c0 1 1 0 1 1l20 45s1 25 37 42c0 0 16 8 24 2s6 -16 8 -26c2 -14 2 -22 0 -36c-2 -22 -2 -34 -8 -54c-4 -14 -18 -34 -18 -34c-5 -2 -16 -4 -12 -9c12 -15 24 -20 40 -27c26 -11 49 -14 72 -14c9 1 22 3 34 6c64 15 88 -4 156 72
c12 13 21 26 29 39c0 0 1 6 1 12c-5 69 -4 76 -67 168c-25 30 -54 46 -97 53c-67 11 -31 7 -70 -1c-13 -4 -31 -11 -48 -19c-39 -18 -62 -40 -82 -74c0 0 -14 -10 -22 -6s-14 18 -14 18c-4 88 2 42 -24 108c-9 23 -18 39 -29 56c-3 4 -7 9 -11 14
c0 0 -8.513 7.0941 -12.393 14.1121c2.867 -217.332 2.636 -417.986 0.393005 -478.112zM10 560c7 7 17 8 25 2s7 -26 7 -26c57 -335 51 -687 39 -1005c0 0 -2 -34 -8 -54c-4 -14 -7 -23 -18 -34c-6 -6 -14 -9 -22 -6c-9 3 -14 19 -14 19c12 318 18 670 -39 1005
c0 0 4 35 10 55c6 18 7 30 20 44zM730.5 -481.875v-0.00500488v0.00500488zM743.263 -438.703c0.159973 -0.0849915 0.442017 1.10199 0 0z" />
    <glyph glyph-name="clefs.C_change" unicode="&#xe170;" horiz-adv-x="680" 
d="M170 -386c0 0 -2 -34 -8 -54c-4 -14 -7 -23 -18 -34c-6 -6 -14 -9 -22 -6c-9 3 -14 19 -14 19c9 238 22 593 -21 844c0 0 4 35 10 55c6 18 7 30 20 44c7 7 17 8 25 2s7 -26 7 -26c9.42101 -55.585 15.514 -225.226 18.905 -398.959
c6.42 14.706 14.095 28.9589 14.095 28.9589c14 12 42 25 58 50c4 6 7 12 11 18c0 0 3 24 7 38c6 18 6 30 20 44c6 8 24 2 24 2c11 -21 1 -26 64 -50c13 -5 31 -7 50 -7c28 4 9 -12 58 21c12 8 19 15 28 26c0 1 1 15 1 20c-5 49 10 30 -33 94c-31 38 -69 60 -122 60
c-5.48999 0 -8.483 0.0889893 -10.015 0.191986c-0.462982 -0.336975 -2.81198 -0.996979 -9.98499 -2.19199c-2 -1 -6 -3 -9 -4c0 0 5 -10 5 -16c2 -14 3 -22 1 -36c-2 -22 -3 -34 -9 -54c-4 -14 -8 -24 -18 -34c-6 -6 -22 -6 -22 -6c-8 1 -17 7 -24 17l-14 19
c-25 34 -14 17 -15 41l-1 37c-0.210999 3.80399 -0.378006 6.134 -0.5 7.5c0.121994 -0.0979919 0.289001 0.231995 0.5 1.5v1l10 54l3 9l20 45c0 1 1 -1 1 0c9 18 67 72 97 74l25 2c4 0 6 1 10 1c80 0 132 -75 132 -75c15 -22 25 -42 31 -63l7 -26c5 -17 6 -34 7 -52l1 -37
c0 -16 -1 -33 -2 -52c-1 -6 -1 -13 -2 -19v-1l-8 -54c-1.05902 -7.061 -0.872009 -7.89 -0.58197 -7.459c-0.558044 -1.74899 -1.82306 -6.026 -4.41803 -15.541c-3.591 -12.929 -4.60303 -17.604 -4.84198 -19.072c-0.117004 0.487 -0.869019 0.285004 -4.15802 -5.92799
c0 -1 -1 0 -1 -1l-18 -34c-9 -17 -22 -31 -41 -43c-13 -8 -26 -15 -40 -19l-22 -6c-36 -10 -36 -18 -92 3c-19 7 -32 12 -42 21l-11 -20c9 -14 14 -24 17 -36v-1l6 -21c12 9 23 12 38 17c30 10 -8 6 42 10h1l25 2c16 1 31 0 50 -6c67 -22 96 -64 96 -64
c17 -24 28 -45 34 -68v-1l7 -26c4 -16 6 -32 7 -51l1 -37v-17c0 -12 -1 -22 -2 -32l-8 -54c-3 -19 6 9 -6 -28c-3.78101 -11.973 -4.98102 -16.699 -5.289 -18.369c-0.377991 0.0549927 -1.87201 -1.64401 -6.711 -10.631c0 -1 -1 0 -1 -1l-18 -34c-6 -12 -14 -23 -24 -36
c-22 -30 -46 -39 -82 -50c-5 -1 -9 -4 -14 -5h-1l-22 -6c-48 -13 -21 -21 -82 1c-27 9 -50 19 -65 39l-14 19c-22 29 -12 28 -12 28c-1 5 -2 8 -2 13l-1 37c-1 26 -1 6 1 15v1l10 55c1 6 3 12 6 18v1l20 45s-2 19 32 35c0 0 17 8 25 2s4 -16 6 -26c2 -14 3 -22 1 -36
c-2 -22 -3 -34 -7 -54c-2 -6 -7 -13 -7 -13c12 -9 28 -17 46 -23c13 -5 26 -7 37 -7c13.775 2.505 18.925 3.245 20.636 3.418c-0.0559998 0.256012 2.31302 1.405 16.364 5.582c36 11 60 20 82 50c6 8 9 14 14 22v3c-4 49 9 30 -35 97c-23 27 -49 38 -87 50
c-60 19 -40 11 -70 4h-2c-29 -9 -47 -20 -62 -46c0 0 -14 -10 -22 -6s-14 18 -14 18c-4 68 9 32 -19 80c-16.363 16.3635 -36.433 21.6087 -53.074 39.8151c1.843 -148.312 1.72701 -278.979 0.0740051 -317.815zM7 434c7 7 17 8 25 2s7 -26 7 -26c43 -251 39 -515 30 -753
c0 0 -2 -34 -8 -54c-4 -14 -7 -23 -18 -34c-6 -6 -14 -9 -22 -6c-9 3 -14 19 -14 19c9 238 13 502 -30 753c0 0 4 35 10 55c6 18 7 30 20 44zM575.711 -396.369c-0.330994 -1.79901 0.372009 -0.0550232 0 0zM544.158 139.928c-0.183044 -1.12599 0.0889893 -0.366989 0 0z
M553.418 174.541c0.293945 0.436996 0.69397 2.175 0 0zM221.5 373.5c-0.332993 3.73199 0 0.268005 0 0z" />
    <glyph glyph-name="clefs.F" unicode="&#xe171;" horiz-adv-x="1000" 
d="M861 -49c13 1 20 1 22 1c8 -1 14 -4 17 -9c3 -4 5 -15 5 -32c0 -25 -4 -48 -11 -71c-8 -24 -18 -38 -30 -41c-30 -8 -60 -11 -90 -11c-19 0 -30 8 -33 26c-2 13 3 38 15 75c9 30 18 46 25 50c9 5 36 8 80 12zM862 215c17 2 29 1 35 -4s9 -17 9 -34c0 -22 -3 -44 -10 -67
s-14 -37 -22 -43c-7 -5 -36 -9 -85 -14c-14 -1 -24 -1 -30 1c-10 4 -16 12 -18 24s3 35 13 68s18 52 25 56c5 3 25 7 59 11c12 1 20 2 24 2zM280 297c32 4 64 3 96 -3c51 -10 96 -35 134 -73c25 -25 47 -55 64 -89c50 -97 68 -220 54 -368c-11 -121 -43 -225 -95 -312
c-22 -37 -53 -78 -92 -124c-27 -32 -69 -70 -126 -114c-66 -51 -111 -71 -135 -61l-9 4l1 32c1 36 5 68 11 98c2 12 4 18 4 19s6 4 19 11c84 42 159 100 224 175c81 94 127 187 141 279c8 54 1 109 -21 164c-36 88 -101 143 -194 162c-16 3 -37 5 -62 5s-43 -1 -55 -5
c-35 -11 -68 -29 -102 -54s-56 -50 -69 -75c-13 -26 -17 -46 -9 -61c2 -5 9 -13 20 -26c20 -23 31 -49 32 -76c1 -28 0 -52 -6 -71c-4 -14 -11 -22 -20 -22c-8 0 -19 7 -32 21s-24 28 -32 44c-14 29 -21 63 -21 103c0 90 19 171 57 244c54 104 128 161 223 173z" />
    <glyph glyph-name="clefs.F_change" unicode="&#xe172;" horiz-adv-x="800" 
d="M688 -39c10 1 16 1 18 1c7 -1 11 -4 14 -8c3 -3 4 -12 4 -25c0 -20 -3 -39 -9 -57c-6 -19 -14 -29 -23 -32c-24 -6 -48 -9 -73 -10c-15 0 -24 7 -26 22c-1 10 3 30 12 59c7 24 14 37 20 40c7 4 28 7 63 10zM690 172c14 1 23 0 28 -4s7 -13 7 -26c0 -18 -3 -36 -8 -54
s-11 -29 -18 -34c-5 -4 -28 -8 -68 -12c-11 -1 -19 -1 -24 1c-8 3 -13 9 -14 19s2 28 10 54s15 42 20 45c4 3 20 6 48 9c9 1 16 1 19 2zM224 238c25 3 51 2 76 -3c41 -8 77 -28 108 -59c20 -20 37 -44 51 -71c40 -77 54 -175 43 -293c-9 -97 -34 -180 -76 -250
c-18 -30 -42 -63 -73 -100c-21 -25 -55 -56 -101 -91c-53 -41 -89 -57 -108 -49l-8 4l1 25c1 29 4 55 9 79c2 9 3 14 3 15s5 3 16 8c67 34 127 81 179 141c65 75 102 149 113 223c7 43 1 87 -17 131c-29 71 -80 114 -155 129c-13 3 -29 5 -49 5s-35 -2 -44 -5
c-28 -9 -55 -23 -82 -43s-46 -40 -56 -60c-11 -21 -13 -37 -6 -48c3 -4 8 -11 16 -21c16 -19 24 -39 25 -61c1 -23 0 -42 -5 -57c-3 -11 -9 -17 -16 -17c-6 0 -15 5 -26 16s-19 23 -25 36c-11 23 -17 50 -17 82c0 72 15 137 45 195c43 83 103 130 179 139z" />
    <glyph glyph-name="clefs.G" unicode="&#xe173;" horiz-adv-x="1000" 
d="M212 1276c0 15 14 38 30 38c13 0 19 -3 33 -11c94 -57 148 -163 148 -312c0 -79 -23 -174 -68 -287l-16 -45l2 -42c9 -164 20 -294 34 -389l2 -21l13 12c46 43 95 69 147 77c5 1 14 2 22 2c76 0 122 -38 142 -118c7 -27 10 -58 10 -90c0 -19 -3 -39 -5 -60
c-9 -78 -20 -137 -34 -180c-21 -65 -82 -158 -138 -196c-8 -5 -47 -33 -58 -43c-3 -2 -3 -5 -3 -7v-1c8 -32 19 -103 19 -153c0 -96 -24 -203 -48 -253c-7 -14 -16 -26 -26 -34c-8 -5 -15 -8 -20 -8c-23 0 -31 40 -35 103l-1 21l12 20c30 53 60 135 60 206c0 19 -1 38 -5 56
c-3 13 -5 21 -15 21c-8 0 -15 -1 -25 -3c-22 -5 -44 -8 -69 -8c-156 0 -249 63 -295 191c-16 48 -25 99 -25 156c0 44 5 91 15 141c22 106 81 272 175 501c48 116 75 184 80 200l4 13l-32 248c-21 164 -30 251 -30 255zM298 1076c-12 0 -11 -14 -11 -34c0 -50 6 -99 11 -146
c7 -52 10 -78 12 -80c2 0 8 19 9 22c24 78 35 130 35 160c0 8 0 16 -2 20c-12 29 -27 47 -43 55c-4 2 -7 3 -11 3zM332 182c0 1 -32 366 -34 368c-3 0 -12 -26 -14 -31c-129 -294 -202 -486 -214 -578c-1 -9 -2 -17 -2 -25c0 -52 23 -93 58 -113c3 -2 42 -20 47 -20
c1 0 1 11 2 31c5 83 33 154 67 218c13 24 33 57 62 98l28 42v10zM635 96c-9 16 -37 36 -70 36c-41 0 -119 -40 -143 -62c-14 -13 -15 -16 -15 -39c0 -35 13 -166 15 -200c1 -13 3 -20 5 -20c7 0 20 9 43 25c27 19 56 49 88 88c50 64 78 113 78 159c0 7 1 10 -1 13zM370 -58
c-5 48 -9 73 -9 73c-1 0 -7 -6 -18 -19c-39 -48 -70 -89 -93 -150c-9 -23 -13 -43 -13 -59l-1 -13l17 -3c5 -1 11 0 18 0c19 0 46 3 80 10c24 5 36 6 36 8s-1 16 -4 42s-8 63 -13 111z" />
    <glyph glyph-name="clefs.G_change" unicode="&#xe174;" horiz-adv-x="800" 
d="M169 1023c0 12 13 31 25 31c10 0 15 -2 26 -9c75 -46 118 -130 118 -250c0 -64 -18 -140 -54 -230l-14 -35l2 -34c7 -132 16 -236 27 -312l3 -16l10 9c37 35 76 55 118 62c7 1 17 1 28 0c53 -3 87 -34 102 -94c5 -21 8 -45 8 -70c0 -69 -18 -155 -30 -194
c-16 -51 -66 -126 -110 -157c-3 -2 -54 -33 -50 -40c6 -26 16 -84 16 -124c0 -77 -20 -161 -39 -201c-6 -14 -21 -34 -38 -34c-19 0 -24 32 -27 83l-1 16l9 17c24 42 49 108 49 165c0 18 -3 48 -10 60c-3 5 -19 -1 -25 -2c-17 -4 -36 -6 -57 -6c-166 0 -255 105 -255 279
c0 35 4 72 12 112c18 85 65 219 140 402c38 93 59 146 63 159l4 11l-25 198c-17 132 -25 200 -25 204zM248 654c21 52 35 127 35 147c0 6 -1 11 -2 15c-9 23 -20 38 -33 45c-3 1 -6 2 -9 2c-10 0 -9 -12 -9 -27c0 -40 3 -79 8 -117c5 -42 9 -64 10 -65zM265 148
c0 0 -26 294 -27 294l-6 -12c-2 -4 -4 -8 -6 -13c-104 -235 -161 -390 -171 -463c-1 -7 -2 -14 -2 -21c0 -41 20 -73 47 -90c1 -1 36 -17 38 -15l2 24c9 111 50 177 103 255l22 32v9zM509 68c0 24 -29 39 -58 39c-33 0 -95 -31 -114 -49c-14 -12 -13 -16 -12 -44
c1 -13 12 -163 16 -163c5 0 17 6 35 19c22 15 46 39 71 71c41 51 62 90 62 127zM295 -44l-6 57c-2 2 -59 -73 -62 -78c-15 -23 -36 -70 -38 -104v-10l13 -3c4 -1 9 -1 15 -1c15 0 36 3 63 8c19 4 29 7 29 8c0 0 -2 13 -4 33c-2 21 -6 52 -10 90z" />
    <glyph glyph-name="clefs.percussion" unicode="&#xe175;" horiz-adv-x="500" 
d="M185 -307c2 14 2 30 16 32c101 14 163 31 262 6c31 -8 25 -46 24 -78c-1 -27 -1.32199 -63.455 -28 -64c-98 -2 -160 -11 -262 -8c-9 0 -17 7 -18 16c-4 37 0 59 6 96zM181 336c5 22 2 49 24 53c101.064 15.855 244.093 38.959 261 -5c5.67599 -14.758 9 -29 13 -44
c0 -1 1 -1 1 -2l8 -31c49 -182 46 -408 18 -598v-2l-9 -64c0 -2 -2 -6 -2 -8c0 0 -9 -28 -21 -40c-8 -8 -17 -12 -27 -8s-16 23 -16 23c15.76 101.047 5.29999 488.883 -23.836 625c-13.164 61.502 -228.684 7.12 -231.164 15c0 0 -2 53 5 86zM170 377c8 8 20 9 30 3
c11 -7 15 -31 15 -31c48 -204 36 -450 24 -654c0 0 -3 -40 -10 -64c-5 -17 -9 -28 -22 -41c-7 -7 -16 -10 -26 -7c-10 4 -17 22 -17 22c12 204 18 449 -30 653c0 0 4 41 12 66c7 22 8 37 24 53z" />
    <glyph glyph-name="clefs.percussion_change" unicode="&#xe176;" horiz-adv-x="400" 
d="M283 212c6 18 7 31 20 45c7 7 25 2 25 2c1 -4 2 -7 3 -11l7 -26c34 -127 17 -293 7 -417c0 0 -2 -34 -8 -54c-4 -14 -7 -23 -18 -34c-6 -6 -14 -9 -22 -6c-9 3 -14 19 -14 19c10 134 4 380 -10 428c0 0 4 34 10 54zM137 200c6 18 7 31 20 45c7 7 25 2 25 2
c1 -5 3 -9 4 -14l7 -26c33 -123 18 -247 8 -370c0 0 -2 -34 -8 -54c-4 -14 -7 -23 -18 -34c-6 -6 -14 -9 -22 -6c-9 3 -14 19 -14 19c10 133 3 335 -12 384c0 0 4 34 10 54z" />
    <glyph glyph-name="clefs.tab" unicode="&#xe177;" horiz-adv-x="633" 
d="M205 627c-1 22 4 35 10 55c6 18 20 44 20 44c122 59 109 65 178 71c0 0 0 4 2 5c9 3 15 3 25 2c2 0 -1 -4 1 -5c6 -1 16 1 16 1c34 3 80 4 147 4c0 0 7 -15 7 -26c0 -21 -2 -34 -8 -54c-4 -14 -7 -23 -18 -34c-6 -6 -22 -6 -22 -6h-97c14 -73 20 -127 8 -205l-8 -54
c-3 -23 -4 -27 -4 -27s1 5 -3 -14c0 0 -7 -23 -18 -34c-6 -6 -14 -9 -22 -6c-9 3 -12 10 -14 19c-2 10 5 27 5 27c7 41 5 157 -20 289c-6 -1 -15 -4 -25 -6c-33 -11 -62 -29 -124 -59c0 0 -14 -9 -22 -6c-9 3 -14 10 -14 19zM293 -194c-6 -6 -14 -9 -22 -6
c-9 3 -14 19 -14 19c0 1 1 3 1 4v1c4 21 10 54 10 54c13 72 30 147 59 212l20 45c11 25 40 93 112 139l25 2c45 -91 67 -148 83 -206l7 -26c10 -36 17 -72 25 -118c0 0 -2 -34 -8 -54c-4 -14 -7 -23 -18 -34c-6 -6 -14 -9 -22 -6c-9 3 -14 19 -14 19c-7 41 -11 68 -15 90
l-3 -1c-25 -2 -73 -11 -194 -29c-7 -31 -11 -57 -14 -71c0 0 -7 -23 -18 -34zM237 -393c-1 22 4 35 10 55c6 18 20 44 20 44c57 36 56 31 114 36l25 2c101 8 158 -38 165 -65l7 -26c2 -7 2 -13 1 -21c0 0 -4 -34 -8 -54c-2 -10 -6 -20 -8 -24l-15 -28c51 -23 53 -35 61 -64
l7 -26c3 -11 4 -23 2 -34l-8 -54s-8 -28 -10 -31l-18 -34c-16 -30 -49 -57 -96 -70h-1c-9 -2 -22 -6 -22 -6c-56 -15 -26 -13 -92 -7c0 0 -14 10 -14 19c-1 22 4 35 10 55c6 18 7 30 20 44c7 7 25 2 25 2c13 -1 24 -1 36 -1c34 4 66 8 105 46c-1 4 -3 9 -6 14
c-23 24 -65 43 -128 45c0 0 -14 10 -14 19c-1 22 4 35 10 55c6 18 20 44 20 44c30 17 54 34 71 50c-36 28 -91 35 -136 32c17 -71 14 -129 4 -194v-1c-3 -21 -8 -54 -8 -54c-5 -34 -12 -70 -19 -111c0 0 -7 -23 -18 -34c-6 -6 -14 -9 -22 -6c-9 3 -14 19 -14 19
c24 133 36 249 0 356l1 7l-21 -12c0 0 -14 -9 -22 -6c-9 3 -14 10 -14 19zM486 54c-10 24 -24 52 -43 92c-26 -21 -48 -48 -67 -80c-5 -11 -11 -22 -15 -34c64 10 88 17 125 22z" />
    <glyph glyph-name="clefs.tab_change" unicode="&#xe178;" horiz-adv-x="555" 
d="M153 474c-1 20 4 31 9 49c5 17 18 40 18 40c98 48 81 49 136 54c0 0 0 4 2 4c9 2 13 3 22 2c2 0 -1 -4 1 -4c3 -1 10 1 10 1c26 2 61 3 114 3c0 0 7 -14 7 -24c0 -19 -3 -30 -8 -48c-4 -13 -6 -21 -16 -31c-5 -5 -20 -5 -20 -5h-65c9 -50 12 -89 4 -144l-7 -49
c-2 -12 -3 -17 -3 -19c0 1 0 0 -2 -12c0 0 -7 -21 -17 -31c-5 -5 -12 -8 -19 -5c-8 3 -11 9 -13 17s4 22 4 22c4 24 3 115 -15 217c-4 -1 -10 -2 -17 -4c-24 -8 -47 -22 -93 -44c0 0 -12 -9 -19 -6c-8 3 -13 9 -13 17zM225 -156c-5 -5 -13 -8 -20 -5c-8 3 -12 17 -12 17
c0 2 1 4 1 6v1c3 19 9 49 9 49c10 54 23 111 45 160l18 40c7 16 27 69 85 106l23 2c35 -70 51 -113 63 -157v-1l7 -23c7 -28 13 -56 19 -91c0 0 -3 -31 -8 -49c-4 -13 -6 -20 -16 -30c-5 -5 -13 -9 -20 -6c-8 3 -12 17 -12 17c-5 30 -9 50 -11 66h-1c-14 -1 -52 -7 -144 -21
c-5 -24 -9 -43 -10 -50c0 0 -6 -21 -16 -31zM177 -306c-1 20 4 31 9 49c5 17 18 40 18 40c46 30 41 24 87 28h1l22 2c80 6 121 -31 126 -50v-1c3 -9 6 -23 6 -23c1 -5 2 -10 1 -16c-3 -19 -3 -30 -7 -49c-2 -7 -5 -16 -6 -18l-7 -13c38 -18 37 -23 43 -47l6 -23
c2 -8 3 -17 2 -26c0 0 -4 -29 -8 -48c-2 -10 -6 -22 -7 -24l-17 -31c-12 -23 -38 -43 -74 -53l-19 -6c-46 -13 -17 -10 -71 -5c0 0 -13 9 -13 17c-1 20 4 31 9 49c5 17 6 27 18 40c6 6 23 2 23 2c9 -1 17 -1 26 -1c25 3 36 1 71 29v2c-18 18 -50 31 -97 33c0 0 -13 9 -13 17
c-1 20 4 31 9 49c5 17 18 40 18 40c17 10 30 19 43 29c-28 17 -59 20 -87 19c10 -50 8 -91 1 -138l-7 -49c-4 -26 -10 -53 -15 -84c0 0 -6 -21 -16 -31c-5 -5 -13 -8 -20 -5c-8 3 -12 17 -12 17c17 101 26 195 0 273c-3 -2 -7 -4 -10 -6c0 0 -13 -8 -20 -5
c-8 3 -13 9 -13 17zM357 303v0zM363 48c-7 15 -15 33 -26 55c-17 -15 -34 -35 -47 -57l-6 -12c38 6 57 11 79 14z" />
    <glyph glyph-name="timesig.C44" unicode="&#xe179;" horiz-adv-x="800" 
d="M180 328c34 9 59 -2 76 -34c9 -17 15 -40 21 -70c2 -11 4 -30 4 -57s-1 -45 -3 -55c-3 -17 -11 -35 -25 -53l-8 -11h-11h-11l-3 32c-4 36 -9 61 -15 77c-8 22 -19 33 -32 33c-7 0 -20 -9 -39 -26c-18 -16 -33 -38 -46 -65c-19 -40 -29 -81 -29 -123
c0 -64 19 -102 57 -115c31 -11 64 -10 101 2c27 9 62 37 106 83l40 42h12h12l4 -14c7 -24 10 -43 9 -59c-1 -33 -18 -66 -50 -100c-48 -50 -99 -84 -152 -101c-29 -9 -58 -11 -88 -6s-53 16 -70 33c-18 18 -31 48 -38 90c-2 10 -2 33 -2 67s0 58 2 72c6 52 15 96 26 134
c20 68 42 119 65 155c25 37 53 60 87 69zM396 636c4 2 16 2 35 2s34 -1 44 -3c37 -6 70 -19 100 -39c28 -18 52 -43 73 -74c45 -67 70 -149 75 -247c2 -28 1 -56 -1 -85l-4 -43l-25 -103c-25 -100 -48 -180 -68 -241c-39 -117 -88 -232 -146 -345c-42 -82 -65 -125 -70 -128
c-1 -1 -3 -3 -5 -7c-5 -10 -9 -7 -11 9c0 3 -1 6 -1 9c-2 33 7 77 29 132c5 12 20 46 45 100c48 103 82 181 102 237c76 215 78 396 6 544c-27 55 -59 94 -97 117c-30 18 -66 25 -105 20c-16 -2 -25 -3 -28 -1s-5 8 -5 18c0 22 4 44 11 67c10 33 26 53 46 61z" />
    <glyph glyph-name="timesig.C22" unicode="&#xe17a;" horiz-adv-x="800" 
d="M393 649c4 2 16 2 35 2s34 0 44 -2c37 -6 70 -20 100 -40c28 -18 51 -43 72 -74c45 -67 70 -149 75 -247c2 -28 1 -56 -1 -85l-3 -43l-26 -103c-25 -100 -48 -179 -68 -240c-39 -117 -88 -232 -146 -345c-42 -82 -65 -125 -70 -128c-1 -1 -3 -4 -5 -8c-5 -10 -9 -7 -11 9
c0 3 -1 6 -1 9c-2 33 8 77 30 132c5 12 20 46 45 100c48 103 81 182 101 238c76 215 78 396 6 544c-27 55 -59 94 -97 117c-30 18 -65 24 -104 19c-16 -2 -26 -3 -29 -1s-4 8 -4 18c0 22 4 44 11 67c10 33 26 53 46 61zM176 616c5 2 8 3 10 3s4 -49 4 -148v-148l10 1
c14 2 26 -1 37 -8c29 -19 47 -62 53 -130c4 -50 -4 -95 -26 -134l-7 -12h-15c-10 0 -16 1 -16 2s1 5 4 13c5 16 6 33 2 51c-5 22 -17 39 -36 50l-6 4v-159l3 -158c2 1 6 2 12 3c17 4 33 11 50 20c46 25 80 59 103 101l8 14h9c12 0 20 -6 26 -18c3 -6 5 -16 4 -33
c-1 -23 -6 -44 -14 -62c-18 -40 -51 -72 -97 -95c-24 -12 -55 -20 -93 -24l-11 -1v-122v-122l-6 -8c-10 -15 -22 -25 -37 -28c-4 -1 -8 -1 -10 -2l-3 144v145l-13 4c-33 10 -60 28 -80 53c-29 37 -43 90 -41 161c3 104 30 194 80 269c16 23 30 40 46 51l8 6v142
c0 95 1 144 3 147c6 11 19 20 39 28zM134 -76v160l-1 81l-8 -4c-30 -15 -50 -52 -60 -111c-2 -15 -3 -38 -3 -69s1 -51 3 -60c9 -34 26 -57 52 -69l16 -8z" />
    <glyph glyph-name="pedal.*" unicode="&#xe17b;" horiz-adv-x="441" 
d="M179 470c7 7 17 8 25 2s7 -26 7 -26c13 -68 22 -132 26 -193c38 35 73 78 106 133c0 0 17 8 25 2s7 -15 7 -26c0 -21 -2 -34 -8 -54c-4 -14 -18 -34 -18 -34c-21 -36 -44 -66 -67 -92c28 -30 56 -62 82 -94c0 0 7 -15 7 -26c0 -21 -2 -34 -8 -54c-4 -14 -7 -23 -18 -34
c-6 -6 -22 -6 -22 -6c-28 35 -58 68 -88 100c-2 -18 -3 -36 -6 -53l-8 -54c-1 -4 -1 -9 -2 -13c0 0 -7 -23 -18 -34c-6 -6 -14 -9 -22 -6c-9 3 -14 19 -14 19c4 23 8 82 8 157c-48 -34 -99 -61 -148 -90c0 0 -14 -9 -22 -6c-9 3 -14 10 -14 19c-1 22 4 35 10 55
c6 18 20 44 20 44c35 21 69 39 104 61c-41 30 -84 57 -132 77c0 0 -14 10 -14 19c-1 22 4 35 10 55c6 18 7 30 20 44c7 7 25 2 25 2c47 -20 90 -45 130 -74c-3 28 -8 55 -13 81c0 0 4 35 10 55c6 18 7 30 20 44z" />
    <glyph glyph-name="pedal.M" unicode="&#xe17c;" horiz-adv-x="210" 
d="M-31 149c-1 22 4 35 10 55c6 18 20 44 20 44c43 38 30 22 55 24l25 2c37 3 64 -17 106 -17c11 -1 17 7 24 15c0 0 17 8 25 2s7 -15 7 -26c0 -21 -2 -34 -8 -54c-4 -14 -18 -34 -18 -34c-8 -9 -16 -14 -25 -16l-22 -6c-36 -10 -87 22 -136 15c-8 -3 -18 -9 -27 -17
c0 0 -14 -9 -22 -6c-9 3 -14 10 -14 19z" />
    <glyph glyph-name="pedal.." unicode="&#xe17d;" horiz-adv-x="74" 
d="M-8 46c7 19 11 31 26 44c10 8 20 5 33 5c14 0 24 2 36 -7c9 -6 9 -15 9 -26c0 -21 -2 -34 -10 -54c-6 -15 -10 -24 -23 -34c-9 -7 -17 -6 -29 -6c-14 0 -23 -2 -36 4c-9 4 -17 9 -18 19c-2 22 4 35 12 55z" />
    <glyph glyph-name="pedal.P" unicode="&#xe17e;" horiz-adv-x="296" 
d="M71 -9c-16 0 -70 398 -70 501c0 78 46 165 132 165c98 0 160 -53 160 -189c0 -212 -66 -261 -93 -272l-78 -33l9 -172h-60zM87 330c62 5 127 49 140 110c-9 31 -79 99 -121 45c-31 -40 -30 -89 -19 -155z" />
    <glyph glyph-name="pedal.d" unicode="&#xe17f;" horiz-adv-x="335" 
d="M94 307c0 -33 8 -81 22 -137c23 -14 50 -18 69 -18c23 0 65 5 79 35c7 17 9 47 9 87c0 32 -14 51 -17 56c-24 35 -55 57 -81 57s-81 -20 -81 -80zM8 278l-1 137c46 66 83 114 162 114c67 0 109 -28 131 -74c27 -58 28 -127 28 -176c0 -99 -6 -156 -10 -170
c-26 -92 -54 -111 -163 -111c-18 0 -93 -2 -120 40c-6 50 -12 98 -12 145l26 -6c-3 37 -8 73 -18 108z" />
    <glyph glyph-name="pedal.e" unicode="&#xe180;" horiz-adv-x="267" 
d="M82 311c-15 -15 -22 -30 -7 -28c58 21 114 48 123 48c26 0 25 -45 25 -62c0 -55 -12 -72 -35 -82c-16 -7 -60 -24 -98 -40c0 -6 0 -12 -1 -18c55 2 139 6 167 -1c9 -2 9 -12 9 -26c0 -16 -5 -60 -9 -78c-2 -10 -13 -22 -40 -22c-65 1 -179 0 -179 0
c-23 65 -37 289 -37 335c0 94 167 194 210 194c29 0 25 -37 25 -40c0 -28 -1 -79 -23 -91c-63 -30 -93 -55 -130 -89z" />
    <glyph glyph-name="pedal.Ped" unicode="&#xe181;" horiz-adv-x="1102" 
d="M1 -1c-16 0 -70 398 -70 501c0 78 46 165 132 165c98 0 160 -53 160 -189c0 -212 -66 -261 -93 -272l-78 -33l9 -172h-60zM17 338c62 5 127 49 140 110c-9 31 -79 99 -121 45c-31 -40 -30 -89 -19 -155zM346 307c-15 -15 -22 -30 -7 -28c58 21 114 48 123 48
c26 0 25 -45 25 -62c0 -55 -12 -72 -35 -82c-16 -7 -60 -24 -98 -40c0 -6 0 -12 -1 -18c55 2 139 6 167 -1c9 -2 9 -12 9 -26c0 -16 -5 -60 -9 -78c-2 -10 -13 -22 -40 -22c-65 1 -179 0 -179 0c-23 65 -37 289 -37 335c0 94 167 194 210 194c29 0 25 -37 25 -40
c0 -28 -1 -79 -23 -91c-63 -30 -93 -55 -130 -89zM648 305c0 -33 8 -81 22 -137c23 -14 50 -18 69 -18c23 0 65 5 79 35c7 17 9 47 9 87c0 32 -14 51 -17 56c-24 35 -55 57 -81 57s-81 -20 -81 -80zM562 276l-1 137c46 66 83 114 162 114c67 0 109 -28 131 -74
c27 -58 28 -127 28 -176c0 -99 -6 -156 -10 -170c-26 -92 -54 -111 -163 -111c-18 0 -93 -2 -120 40c-6 50 -12 98 -12 145l26 -6c-3 37 -8 73 -18 108z" />
    <glyph glyph-name="brackettips.up" unicode="&#xe182;" horiz-adv-x="466" 
d="M0 -92c-1 37 -3 88 3 96c4 5 12 9 12 9c162 71 290 135 444 255c0 0 10 0 12 -4c4 -8 3 -14 3 -22c-1 -25 -2 -40 -6 -64c-1 -7 -7 -17 -7 -17c-154 -120 -283 -200 -445 -271c0 0 -7 -5 -9 -3c-6 6 -7 12 -7 21z" />
    <glyph glyph-name="brackettips.down" unicode="&#xe183;" horiz-adv-x="466" 
d="M5 72c2 8 4 14 11 18c4 3 12 -5 12 -5c157 -70 269 -130 438 -184c0 0 3 -13 2 -22c-1 -25 -1 -39 -5 -64c-1 -7 -3 -11 -8 -17c-2 -3 -9 -2 -9 -2c-160 57 -287 109 -438 184c0 0 -7 12 -7 20c-1 28 0 44 4 72z" />
    <glyph glyph-name="accordion.discant" unicode="&#xe184;" horiz-adv-x="391" 
d="M391 375c0 -214 -176 -386 -391 -386s-391 172 -391 386s176 386 391 386s391 -172 391 -386zM341 261c12 36 18 74 18 114s-6 78 -18 114h-682c-12 -36 -18 -74 -18 -114s6 -78 18 -114h682zM333 239h-666c53 -133 182 -228 333 -228s280 95 333 228zM-333 511h666
c-53 133 -182 228 -333 228s-280 -95 -333 -228z" />
    <glyph glyph-name="accordion.dot" unicode="&#xe185;" horiz-adv-x="62" 
d="M0 62c35 0 62 -28 62 -62s-27 -62 -62 -62c-34 0 -62 28 -62 62s28 62 62 62z" />
    <glyph glyph-name="accordion.freebass" unicode="&#xe186;" horiz-adv-x="266" 
d="M266 250c0 -145 -120 -261 -266 -261s-266 116 -266 261s120 261 266 261s266 -116 266 -261zM233 239h-466c6 -126 107 -228 233 -228s227 102 233 228zM-233 261h466c-6 126 -107 228 -233 228s-227 -102 -233 -228z" />
    <glyph glyph-name="accordion.stdbass" unicode="&#xe187;" horiz-adv-x="516" 
d="M516 500c0 -283 -232 -511 -516 -511s-516 228 -516 511s232 511 516 511s516 -228 516 -511zM484 489h-968c2 -82 25 -160 62 -228h844c37 68 60 146 62 228zM409 239h-818c86 -136 237 -228 409 -228s323 92 409 228zM-484 511h968c-2 82 -25 160 -62 228h-844
c-37 -68 -60 -146 -62 -228zM-409 761h818c-86 136 -237 228 -409 228s-323 -92 -409 -228z" />
    <glyph glyph-name="accordion.bayanbass" unicode="&#xe188;" horiz-adv-x="266" 
d="M250 782c9 0 16 -7 16 -16v-750c0 -9 -7 -16 -16 -16h-500c-9 0 -16 7 -16 16v750c0 9 7 16 16 16h500zM234 32v218h-468v-218h468zM234 282v218h-468v-218h468zM234 532v218h-468v-218h468z" />
    <glyph glyph-name="accordion.oldEE" unicode="&#xe189;" horiz-adv-x="266" 
d="M234 261c0 131 -104 239 -234 239s-234 -108 -234 -239s104 -238 234 -238s234 107 234 238zM266 261c0 -145 -120 -261 -266 -261s-266 116 -266 261s120 262 266 262s266 -117 266 -262zM59 367c0 26 21 48 47 48s48 -22 48 -48s-22 -47 -48 -47c-6 0 -12 1 -17 3
l-55 -46c0 -1 1 -2 1 -3l71 6c7 17 24 29 44 29c26 0 48 -22 48 -48s-22 -47 -48 -47c-20 0 -37 12 -44 29l-71 5c0 -1 -1 -1 -1 -2l55 -47c5 2 11 4 17 4c26 0 48 -22 48 -48s-22 -47 -48 -47s-47 21 -47 47c0 6 1 13 3 18l-46 54c-1 0 -2 -1 -3 -1l6 -71
c17 -7 28 -24 28 -44c0 -26 -21 -47 -47 -47s-47 21 -47 47c0 20 11 37 28 44l6 71c-1 0 -2 1 -3 1l-46 -54c2 -5 3 -12 3 -18c0 -26 -21 -47 -47 -47s-48 21 -48 47s22 48 48 48c6 0 12 -2 17 -4l55 47c0 1 -1 1 -1 2l-71 -5c-7 -17 -24 -29 -44 -29c-26 0 -47 21 -47 47
s21 48 47 48c20 0 37 -12 44 -29l71 -6c0 1 1 2 1 3l-55 46c-5 -2 -11 -3 -17 -3c-26 0 -48 21 -48 47s22 48 48 48s47 -22 47 -48c0 -6 -1 -12 -3 -17l46 -55c1 0 2 2 3 2l-6 71c-17 7 -28 23 -28 43c0 26 21 48 47 48s47 -22 47 -48c0 -20 -11 -36 -28 -43l-6 -71
c1 0 2 -2 3 -2l46 55c-2 5 -3 11 -3 17z" />
    <glyph glyph-name="accordion.push" unicode="&#xe18a;" horiz-adv-x="0" 
d="M-230 556c0 10 8 19 19 19c6 0 11 -3 15 -8l192 -269c2 -3 4 -6 4 -10s-2 -8 -4 -11l-192 -269c-4 -5 -9 -8 -15 -8c-11 0 -19 9 -19 19c0 4 2 8 4 11l184 258l-184 257c-2 3 -4 7 -4 11z" />
    <glyph glyph-name="accordion.pull" unicode="&#xe18b;" horiz-adv-x="37" 
d="M38 19c0 -10 -9 -19 -19 -19s-19 9 -19 19v481h-174c-10 0 -18 9 -18 19v37c0 10 8 19 18 19h193c10 0 19 -9 19 -19v-537z" />
    <glyph glyph-name="ties.lyric.short" unicode="&#xe18c;" horiz-adv-x="0" 
d="M-167 -61l10 18l12 -5c21 -15 43 -27 62 -35c114 -41 150 -21 242 42l12 -5l3 -22l-6 -64l-7 -16c-33 -23 -67 -39 -100 -48l-9 -3h-1c-111 -29 -148 -2 -216 46l-7 20z" />
    <glyph glyph-name="ties.lyric.default" unicode="&#xe18d;" horiz-adv-x="0" 
d="M-238 -66l10 18l12 -5c16 -8 34 -15 49 -21c177 -67 280 -40 391 24l12 -5l3 -22l-6 -64l-7 -16c-35 -20 -72 -36 -108 -46l-9 -2h-1c-142 -38 -280 15 -344 47l-7 20z" />
    </font>
</defs>
</svg>
